<?xml version="1.0" encoding="utf-8"?>
<!-- Generator: Adobe Illustrator 21.0.0, SVG Export Plug-In . SVG Version: 6.00 Build 0)  -->
<svg version="1.1" id="Layer_1" xmlns="http://www.w3.org/2000/svg" xmlns:xlink="http://www.w3.org/1999/xlink" x="0px" y="0px"
	 width="1000px" height="560px" viewBox="0 0 1000 560" style="enable-background:new 0 0 1000 560;" xml:space="preserve">
<style type="text/css">
	.st0{fill:none;stroke:#000000;stroke-linecap:round;stroke-linejoin:round;stroke-miterlimit:10;}
</style>
<g>
	<path class="st0" d="M738,68.4c-3.2-3.1-7.5-2.8-11.3-3.5c-10.1-1.9-20.2-3.3-30.5-3.1c-14.1,0.4-28.2,1.7-42.2,2.9
		c-15.5,1.4-30,6.1-44,12.4c-19.5,8.7-38.4,18.4-54,33.7c-4.7,4.7-9.6,9.3-14.7,13.7c-6.7,5.7-10.1,13.8-14.3,21.3
		c-3.4,6.1-3.1,12.5-2.8,19c0.1,3.1,2.9,4.4,5.4,2.5c7-5.5,14.9-9.5,22.6-13.8c8.6-4.8,17.4-3.5,25.8,0.1c4.8,2.1,6,7.3,7.3,11.9
		c2.2,7.7,0,14.9-2.7,22.2c-4.9,13.2-12.9,24-23.5,33c-6.1,5.2-13,9.5-21.2,11"/>
	<path class="st0" d="M445,223.8c-4.6-1.1-9-0.2-13,1.9c-2,1.1-3.5,1.1-5.1-0.1c-11.4-8.6-21.6-18.4-30.2-29.8
		c-7.2-9.4-13.9-19.1-18.1-30.3c-1.9-5-2.4-10.2-0.5-15.6c1.9-5.5,8.3-7,12.4-6.5c7,1,13.4,3.7,19.7,6.7c7,3.3,14.4,5.9,21.8,8.4
		c1.5,0.5,3.9,1,5.4-1c1.5-1.9,0.7-3.9-0.1-5.4c-4.5-9-10.5-17.1-17.4-24.4c-7.9-8.4-15.7-16.9-25.1-23.7
		c-9-6.4-18.5-12.1-28.4-17.1c-10.7-5.4-21.4-10.7-33.1-13.4c-6.8-1.6-13.7-3.3-20.7-3.7c-5.2-0.3-10.5-1.8-15.6-1.3
		c-8.6,0.9-17.3-0.4-25.8,1.1c-11.3,2-22.6,4.6-33.5,8.3c-4.4,1.5-9.2,1.9-13.2,4.6c-1.5,1.1-3.6,0.5-5.4,0.7
		c-4.2,0.4-8.5,0.3-12.7,0.5c-6.1,0.2-12.1,1.6-18.2,2.1c-7.5,0.6-15,3.1-22.6,0.1c-0.9-0.4-2.3-0.7-3.4,1.3c-1.2,2-4.2,2.3-6.7,2.3
		c-6.1,0-12.1,0.2-18.2-0.1c-17.7-0.8-35.1-3-52.1-8.6c-9.9-3.3-20.1-5.7-29.8-9.6c-11.8-4.8-23.6-9.8-32.4-19.6
		c-1-1.1-2.3-2.3-3.6-1.7c-1.3,0.6-1.2,2.4-1.2,3.9c0.2,9.2,3,17.9,6.7,26.2c4.8,10.7,10.6,20.7,19.5,28.9
		c6.1,5.7,13.2,9.6,20.5,13.2c1.3,0.6,2.2,1.4,3.2,2.3"/>
	<path class="st0" d="M778.4,203.8c3.8,3.1,8.6,3.5,13.1,4.2c4.5,0.7,8.9,1.8,13.4,2.6c2.9,0.5,5.9,0.8,8.8,1
		c16.3,1.5,32.7,2.2,49.1,1.6c7.7-0.3,15.4-1.5,22.9,0.5c4.3,1.1,8.3,3.1,12.7,4c8.5,1.8,16.8,4.1,25.5,5.1
		c6.1,0.7,12.1,1.5,18.2,1.4c2.8-0.1,5.5,1,8.4,0.9c1.2-0.1,3,0.8,3.2,2.6c0.2,1.4-0.8,2.2-1.8,3.1c-10.9,9.8-23.4,16.8-37.5,20.6
		c-5.4,1.5-11.1,2.1-16.7,2.8c-8.9,1-17.8,0.9-26.6,0.5c-14.2-0.6-28.4-0.9-42.2-5c-7.7,1.5-13.9-3.1-20.7-5.1
		c-7-2-13.9-4.5-20.7-6.9c-8.4-3-17.2-5-25.5-8.4c-1.6-0.7-3.3-1-4.4-2.6"/>
	<path class="st0" d="M152.8,199.8c-1,2.2-3.3,2.6-5.1,3.2c-15.9,5.4-31.5,11.8-47.3,17.6c-4.1,1.5-8.3,2.8-12.4,4.3
		c-1.6,0.6-3.1,1.2-4.2,2.4c1.6,4.8,6,5.5,9.3,6.1c7.2,1.4,14.2,3.6,21,6.1c4.3,1.6,8.8,1.6,13.1,1.9c9.7,0.8,19.4,1.8,29.1,0.7
		c7-0.8,14-2.9,20.8-5.2c3.4-1.1,6.6-2.6,10.5-2.7c3.3-0.1,7.2-2.3,10.1-4.8c1.5-1.3,3.1-2.4,4.8-3.1c10.2-4.2,19.6-10.1,29.4-15
		c1.1-0.5,1.9-1.5,2.9-2.1c3.9-2.6,8-4,12.7-2.9"/>
	<path class="st0" d="M887.5,213.6c0.6-1.5,1.8-1.7,3.3-1.8c13.4-1.6,26.8-3.3,39.7-8c10.5-3.8,20.8-8,30-14.1
		c5.5-3.6,11.6-7.7,13.6-15.1c0.9-3.3-0.9-5.9-4-5c-4.1,1.2-8.3,0.7-12.4,1.2c-16.5,1.8-33.2,1.9-49.8,1.6c-2,0-4.1,0.4-5.9-1.4
		c-1.1-1.1-3.1-0.5-4.7-0.4c-5.1,0.3-10.2,0.6-15.3,0.4c-2.9-0.1-5.8,0.1-8.7,0.2c-10.4,0.3-20.9,0.1-31.3-0.7
		c-7.2-0.5-14.3-0.2-21.5-0.3c-3.4-0.1-6.4-0.7-9.1-2.9c-5.8-4.9-12.5-8.3-19.3-11.6c-1.9-0.9-3.8-1.9-5.1-3.6"/>
	<path class="st0" d="M938.1,113.2c0.8-2.8,3.5-3.9,5.5-5.4c17.4-13.2,32-29,42.1-48.5c2-3.9,3.5-8.5,1.5-13
		c-1.7-3.9-2.5-4.2-6.2-1.8c-6.7,4.3-13.5,8.4-20.8,11.6c-11.8,5.3-24,9.6-36.4,13.1c-13.1,3.6-26.1,7.5-39.6,9.6
		c-9.7,1.5-19.3,3.3-29.1,4.4c-8,0.9-16,2.1-24,3.1c-3,0.4-6.6-0.9-9.1,2"/>
	<path class="st0" d="M834,133.6c4.1,1.7,8.4,0.6,12.3,0.1c3.9-0.5,7.8-0.6,11.7-1c6.4-0.7,12.9-0.9,19.2-1.8
		c7.4-1.1,14.9-2.3,22.3-4.1c6.7-1.6,13.4-3.2,20-5.2c4.4-1.4,8.3-3.8,12.3-5.9c2.7-1.4,5.1-2.7,8.4-1.6c2.5,0.8,5.6,0.7,8.3,0.8
		c9.8,0.3,19.6,0.7,29.5,0.1c2.1-0.1,4.2-0.5,6.2-1.1c2.3-0.7,3.4-0.3,3.3,2.2c-0.3,6-2,11.4-6.6,15.6
		c-14.6,13.7-32.4,21.7-50.6,29.1c-8,3.3-16.2,5.8-24.7,7.4c-1.4,0.3-3.1,0.9-4,2.4"/>
	<path class="st0" d="M891.9,283.9c-3.5,3.5-8.4,3.8-12.8,5c-12.4,3.4-25.1,4.4-37.8,3.6c-10.7-0.6-21.1-3.2-31.3-6.5
		c-17.4-5.8-34.7-12-51.7-19c-1.6-0.6-2.9-0.5-4.4-0.6"/>
	<path class="st0" d="M188.1,235.1c-0.4,1.7-1.7,2.7-2.9,3.6c-12.8,9.3-25.7,18.5-38.5,27.7c-1.9,1.4-3.7,2.9-5.5,4.4
		c-2.9,2.4-3.1,3.4-0.3,5.8c3.8,3.3,8.5,5.2,13.4,5.8c8.7,1,17.4,1.9,26.2,2.2c11,0.4,21.6-1.6,31.3-7.2c2.7-1.5,5.1-4,8.7-3"/>
	<path class="st0" d="M685.9,244.2c3.9-1.4,7.5,1,11.3,1.2c5.1,0.3,10,1.9,15.3,0.8c2.3-0.5,5.3-0.1,7.2,2c1.1,1.2,2.6,1.9,4,2.5
		c9.2,4.1,18.1,8.9,26.9,13.8c1.6,0.9,2.9,1.8,3.7,3.6c0.6,1.6,2.2,2.4,3.6,3.3c11.8,8.2,22.2,18.1,34,26.4c-1.8,3.5-5.3,3.5-8.1,4
		c-6.2,1.1-12.4,3-18.9,2.4c-6.4-0.6-12.7-2.1-19-3.5c-12.7-2.9-23.9-8.5-34.9-15.1c-1.2-0.7-2.6-1.1-4-0.7"/>
	<path class="st0" d="M195,157.6c-1.6,3.2-6.8,6.2-10.2,5.8c-3.6-0.4-6.8,1.3-10.2,2c-5.7,1.1-11.4,2.1-17.1,2.8
		c-14.2,1.7-28.4,1.7-42.6,2.3c-11.3,0.5-21.8-1-32.5-4.7c-5.9-2-10.2-6.1-15.6-8.5c-6.1-2.7-11.6-6.5-16.2-11.1
		c-5.1-5-9.9-10.4-15.1-15.5c-0.6-0.6-0.2-1.2-0.4-1.8c2-1.4,4.3-1.3,6.6-1.5c6.8-0.7,13.6-0.6,20.4-0.7c0.2,0,0.5,0.1,0.7,0
		c7-3.5,13.6-0.3,20.4,1.1c6.5,1.4,13.1,2.4,19.6,3.3c7.4,1.1,14.8,1.6,22.2,2.7c5.1,0.7,10.4,1.4,15.6,1.5c2.7,0,5.3,0.8,8,0.9
		c1.4,0,2.5-0.6,3.6-1.1"/>
	<path class="st0" d="M76.8,164.5c-0.9,1-1.9,1.5-3.3,1.5c-5.4-0.3-10.7,0.5-16,0.7c-1.9,0.1-3.7,0.5-5.4,1.2
		c-3.9,1.4-4.7,3.8-2.5,7.2c3.1,4.8,7.5,8.5,12,12c10.6,8.2,22.8,12.6,36,14.6c9.6,1.5,19.2,0.9,28.7,0.5c6.8-0.3,13.7-1.7,20.4-3.3
		c1.6-0.4,3.7-1,5.4,0.3c0.6,0.5,1.3,0.5,1.8,0.3c4.3-1.3,8.8-2,13.1-3.3c6.6-2,13.4-3.1,20-4.6c4.6-1,9.2-1.9,13.8-3
		c1.5-0.4,3.4-0.6,2.3-3.3c-0.5-1.3,0.8-2.3,1.7-3.2c3.3-3.5,7.3-6.4,9.8-10.6c2.3-3.9,5.7-5.3,9.8-6.7c8.7-2.9,16.6-7.6,24.4-12.3
		c4.3-2.6,9-4.4,12.5-8.2c0.7-0.8,2.3-1,3.6-0.8c3.3,0.6,6.5,1.1,9.8,0.4c0.5-0.1,1.2,0.4,1.8,0.7"/>
	<path class="st0" d="M379.5,330.8c6.8,6.4,15.5,8.6,24,11.3c3.2,1,6.5,1,9.8,0.8c1.4-0.1,2.8-0.5,3.8,1.7c1.1,2.5,4.1,3.4,6.4,4.8
		c5.1,3.1,10.4,5.9,16,8c4.3,1.6,4.5,5,2.5,8.4c-2.2,3.8-5.8,5.6-9.8,6.1c-5.5,0.7-11,1.7-16.4,2.9c-0.8,0.2-1.6,0.4-2.1,0.9
		c-5.7,4.4-13,5.2-19.3,8.3c-8.5,4.2-16.8,8.6-23.7,15.3c-1.4,1.4-3.6,2.2-5.5,2.8c-4,1.4-5.2,4.5-4.9,7.8c0.3,4-2.3,8,0.1,12.1
		c0.6,0.9-0.8,2.4-1.4,3.6"/>
	<path class="st0" d="M262.7,239.1c-8.5,7.3-17,14.5-25.5,21.9c-2,1.7-4.2,3.1-6.3,4.6c-9.3,6.7-15.5,16.3-23.2,24.5
		c-2,2.2-4.4,4.1-5.9,6.8c-1,1.9-1,3.5,1.1,4.3c2,0.7,3.9,1.4,6.2,1.6c7.2,0.5,14.2-0.9,21.1-2.4c8.8-1.9,17.1-5.1,25.5-8.3
		c7.5-2.9,13.5-7.9,19-13.7c7.7-8.2,16.2-15.6,23.5-24.2c3-3.6,6.2-5.7,10.7-6.9c8.4-2.1,12.4-9.6,17.8-15.2
		c1.8-1.9,3.4-4.1,5.1-6.2c1-1.2,2.1-2.3,1.8-4"/>
	<path class="st0" d="M428.7,462.2c1.4,1,1.5,2.4,1.5,4c0,5,0,9.9,0,14.9c0,3,0.7,5.8,2.2,8.4c2,3.3,4,6.6,6.2,9.8
		c3.3,4.9,7.7,5.1,11.2,0.3c3.1-4.1,5.4-8.6,7.4-13.4c2.4-5.9,4-12.2,6.8-17.7c2.5-4.9,2.6-9.6,2.7-14.7c0.1-8.6-0.9-17.2-1-25.8
		c0-3.8-0.5-7.8,0.8-11.7c0.3-0.9,1-2.2-0.2-3.7c-5.2-6.4-8.2-13.9-11.4-21.4c-1.1-2.7-1.6-5.7-3.6-8"/>
	<path class="st0" d="M448.3,399.2c-0.2,7-0.4,14.1-0.9,21.1c-0.6,7.4-0.4,14.8-0.5,22.2c-0.1,10.1-1.3,20.1-0.8,30.2
		c0.1,2.2-0.1,4.4,0.4,6.5"/>
	<path class="st0" d="M798.7,74.6c-0.6,0.4-1.3,1.1-1.8,1c-6.2-1-12.4,0.1-18.6-0.6c-5.8-0.7-11.5-1.6-17.1-3.2
		c-4.1-1.1-8.4-1.2-12.7-1.6c-2.1-0.2-4.1-0.4-6.2-1c-1.6-0.5-3.3,0-5.1,0.6c-3.6,1.2-7.4,1.7-11.2,2.1c-1.5,0.2-2.9,0.7-4.3,0.9
		c-1.6,0.2-3.1,1.1-3.4,3.5c-0.6,4.8-3.8,8.2-7.2,11.3c-0.5,0.4-1.4,0.3-2.1,0.4c-3.1,0.4-4.9-1.9-7.4-3.1c-3.2-1.5-1.3-4.2-2.5-6"
		/>
	<path class="st0" d="M266,287.9c0.6,2.1-0.8,3.7-1.9,5.1c-3.5,4.4-6.3,9.2-9.4,13.9c-0.7,1.1-1.2,2.3-1.1,3.7
		c2.3,1.8,5.1,1.3,7.6,0.9c11.1-1.9,21.9-5.1,32.4-9.4c2.2-0.9,3.9-3,6.5-2.6"/>
	<path class="st0" d="M689.2,270.8c1.4,2.7,4.3,3.5,6.6,5.1c2.2,1.5,4.5,2.8,6.5,4.4c2.2,1.8,4.9,3.3,4.8,6.9c0,0.7,0.6,1.5,1.1,2.2
		c4,5.5,7.3,11.5,11.7,16.7c0.9,1.1,2,2.3,1.3,3.6c-0.7,1.4-2.4,1.8-3.9,1.8c-7.9,0.4-15.5-0.3-22.6-4.3c-4.5-2.5-8.6-5.9-13.2-7.9
		c-6.5-2.7-9.2-8.8-14.1-13c-1.1-1-2.1-2.1-2.6-3.6"/>
	<path class="st0" d="M824.9,250.8c0.9,1.6,2.3,2.5,4,3.3c18.7,9,37.5,17.7,56.8,25.3c2.7,1.1,4.9,3.1,7.6,4.1"/>
	<path class="st0" d="M491.2,395.6c-0.7,4.2-1.5,8.5-1.4,12.7c0.2,6.2-0.9,12.3-0.9,18.6c0.1,12.9,0.9,25.7,1.2,38.6"/>
	<path class="st0" d="M347.1,426.9c-2-3.9-3.4-8.2-7.3-10.9c-1.4-1-2.5-1.8-4.3-2.4c-3.3-1-5.5-4.1-7.4-7c-2.1-3.3-4-6.7-5.9-10.2
		c-1.8-3.3-4.4-4.3-8.3-3.3c-1.7,0.4-3.2-0.5-4.7-0.8c-1.3-0.3-2.4-1.4-3.7-2.1c-8.6-5-17.3-2-21.9,6.9c-3.3,6.3-0.1,15.2,4.1,20
		c3.9,4.6,8.8,8.2,13.4,12"/>
	<path class="st0" d="M466.1,465.8c1.4,2,1.8,4.1,1.9,6.5c0.1,3.3,1.6,6.3,3.6,8.7c4.5,5.3,8.4,11.1,13.4,16.1
		c3.1,3.1,4.6,2.6,8-0.1c1.3-1.1,2.4-2.5,3.3-4c4.2-7.5,9.5-14.2,15-20.7c0.9-1,1.2-1.8,1.1-3.3c-0.6-8.8-2.1-17.5-3-26.2
		c-1-9.8-0.7-19.6-0.7-29.5"/>
	<path class="st0" d="M525.8,400c-0.3,5.7,0.4,11.4,1,17.1c0.4,4.6,0.6,9.2,1.5,13.8c1.6,8.2,3.6,16.3,5.5,24.4
		c0.6,2.7,0.7,5.5,2.2,8"/>
	<path class="st0" d="M716.1,172.9c4.5-1.3,8.9,0.4,13.1,1.3c8.2,1.7,16.4,3.8,24.8,5c4.1,0.6,8.2,1.9,12.1,4
		c5.6,3.1,11.8,5.1,17.7,7.4c1.8,0.7,3.4,1.5,4.7,2.9c-0.5,1-0.4,2.1-1.4,3c-4.7,4.7-10.2,7.6-16.8,7.9c-4.4,0.2-8.7,1.4-13.1,0.8
		c-5.2-0.7-10.5-1.5-15.7-1.9c-4.8-0.4-9.6-2.6-14.5-1.3"/>
	<path class="st0" d="M553.5,464.4c-1.9,3.9-2.2,8.3-4.6,12.1c-3.4,5.3-6.3,10.8-9.9,15.9c-2.8,4-4.8,4.3-9.4,1.4
		c-6.7-4.1-11.4-10.1-14.2-17.4c-0.6-1.6-1.2-3.2-2.5-4.4"/>
	<path class="st0" d="M556,406.5c0,6.7,2.8,12.7,4.8,18.9c3.4,10.5,9.7,19.6,15,29.1c2.6,4.7,4.7,9.6,7.2,14.2"/>
	<path class="st0" d="M425.7,379.2c0,3,0.2,6.1-0.3,9.1c-0.6,3.2,1.7,5.7,2.3,8.7c0.6,3.3,1.6,6.5,3.6,9.7c1.4,2.3,0.9,6.4-0.1,9.6
		c-0.2,0.6-0.3,1.2-0.3,1.8c0.5,8.6-1,17.2-0.7,25.8c0.2,4.7-0.9,9.2-0.9,13.8c0,2-1.2,3.8-2.6,5.6c-3.9,5-7,10.5-10.3,15.9
		c-3.2,5.1-5.9,10.7-11.3,14.2c-3,1.9-6.1,2-8.7-0.4c-3.8-3.6-6.8-7.8-9.5-12.3c-0.6-1-0.3-2-0.3-2.9c0.1-2-0.8-3.1-2.6-3.6"/>
	<path class="st0" d="M360.2,317.4c-6,0.7-8.6,4.9-8.9,10.2c-0.2,2.8-1.9,3.2-3.5,3.5c-11.6,2.6-19.5,9.8-25.5,19.7
		c-3.2,5.2-3.4,10.8-2.7,16.4c0.5,4.2,1.3,8.8,5.3,11.7"/>
	<path class="st0" d="M544,406.5c-0.7,5.1,0.4,10.2,0.6,15.3c0.1,2.7,0.7,5.7,1,8.4c0.7,6.8,2.5,13.3,3.4,20c0.4,2.9,1.9,5.4,2,8.4
		c0.1,1.9,1.3,3.9,2.7,5.5c8.5,9.4,18.4,17.1,29.5,23.2c2.9,1.6,6,3.9,9.8,2c0.7-0.3,1.3-0.5,1.8-1.2c2.2-3.5,3.5-7.3,4.4-11.3
		c0.3-1.2-0.3-1.9-1.1-2.5c-5.1-4-4.7-9.5-3.5-14.9c0.7-3.4,1.3-6.4-1.5-9.2c-1.2-1.2-1-2.9,0-4.3c2-2.9,3.8-5.8,6.2-8.4
		c1.1-1.1,2-2.4,2.9-3.6c3.2-4.6,2.7-5.8-0.6-10.2c-4.2-5.7-9.9-10-14.5-15.4c-2-2.4-5.2-4.2-7.5-6.7"/>
	<path class="st0" d="M420.3,410.9c-5,18.3-12.6,35.8-18.3,53.8c-0.3,0.8,0.4,2.2-1,2.6"/>
	<path class="st0" d="M324.6,161.2c-9.2,2.7-16.8,9-26.2,11.3c-3.4,4.3-8.9,5.6-12.6,9.2c-6.9,6.6-14.8,11.6-23,16.3
		c-4.3,2.5-8.7,5-13.1,7.3c-2.1,1.1-2.4,3.7-4.3,5.1c-3.5,2.6-6.6,5.8-9.8,8.7c2.5,2.8,5.8,2.3,8.7,2.7c9.9,1.7,19.6,0.3,29.1-2.5
		c1.3-0.4,2.4-0.5,3.6,0"/>
	<path class="st0" d="M377.7,359.6c-1.3-2.6-3.7-2.9-6.2-2.9c-11.2-0.1-21.5,3.1-30.9,9.2c-5.2,3.4-11.2,5.9-14.6,11.6
		c-0.6,0.9-1.2,1.8-1.1,2.9"/>
	<path class="st0" d="M688.8,109.2c3.7,4.2,5.2,4.5,11.1,2.5c2.9,4.6,8.2,4.6,12.6,6.1c2.5,0.8,5.3,1.3,7.9,2
		c6.9,1.8,13.4-0.6,20-1.6c5.4-0.8,10.8-2.3,15-6.4c0.8-0.7,2.4-0.7,4,0.2c5.5,3.1,11.8,3.2,17.8,4.5c10.6,2.3,21.4,1.4,32.1,3.1
		c3.2,0.5,5.6,2.7,9.1,2.9c4.2,0.3,8.4,1.3,12.8,1.2c2.9-0.1,5.7,0.5,8.4,1.5"/>
	<path class="st0" d="M595,235.1c0.9,4.8,2.2,10.2,5.4,13.2c4.4,4.1,8.5,8.5,13.1,12.4c4.1,3.4,7.6,7.5,11.3,11.2
		c1.8,1.7,1.6,4.5,3.6,6.2c8,6.6,13.7,15.3,19.7,23.6c1.9,2.6,1.6,6,3.9,8.5c1.9,2.1,3.5,4.5,5.1,6.9c1.6,2.4,1,3.1-1.8,4.1
		c-3.7,1.3-7.2,0.2-10.6-0.9c-7-2.2-13-5.9-18.8-10.6c-4-3.3-8.7-5.8-11.4-10.4c-2.5-4.1-5.9-7.5-8.8-11.3c-1.1-1.5-1-2.9,0-4.4"/>
	<path class="st0" d="M581.5,318.8c-0.6,1.2-0.4,2.2,0.3,3.3c5.7,9.2,12.3,17.8,19.6,25.6c4.4,4.7,9.6,9.2,15.4,12.7
		c3.1,1.9,5.6,4.4,9.8,4.5c4.5,0.2,8,5.6,8,10.3c0,2.9,0.3,5.9-0.7,8.7c-0.7,2.1-1.4,4-4,4"/>
	<path class="st0" d="M272.2,126.7c-3,2.2-6.8,3.1-10.2,3.8c-3.7,0.8-6.7,2.3-9.8,4.2c-5.6,3.6-11.8,6.1-17.9,8.7
		c-9,3.8-17.8,8-27.3,10.6c-3.3,0.9-6.8,1.2-9.8,2.9c-0.7,0.4-1.9,0.7-2.5,0.3c-3.9-2-8-1.3-12-1.4c-5.7-0.1-11.5,0.1-16.7-2.9
		c-0.5-0.3-0.9,0.6-1.5,0.2"/>
	<path class="st0" d="M813.3,169.6c-5.6,5.1-12.3,7.2-19.6,8.1c-9.1,1.1-18.1,2.3-27.3,2.1c-1.3,0-2.4,0.5-3.3,1.5"/>
	<path class="st0" d="M840.6,124.7c-8,10.8-18.2,18.9-31,23c-5.7,1.8-11.8,2.2-17.8,3.2c-10,1.7-19-2.1-28.4-3.9
		c-6-1.1-12-2.2-17.8-3.9c-0.3-0.1-0.9,0.1-1.1,0c-4.8-4.2-9.7-1.4-14.6-0.4c-2.1,0.4-4.4-0.2-6.5,0.1c-9.9,1.3-18.1-3.5-26.6-7.3"
		/>
	<path class="st0" d="M796.9,76.1c-3.2,6.4-9,10.3-14.6,14.1c-5.8,4-12.4,6-19.6,6.7c-5.1,0.5-10.3,1.7-15.3,1.4
		c-12.5-0.5-24.9-2.2-36.8-6.7"/>
	<path class="st0" d="M402.8,307.2c1.3,0.7,2.6,1.6,4,2.1c2.5,0.9,3.9,2.4,3.6,5.1c-0.3,2.9-2.8,3.7-4.8,4.2
		c-2.4,0.6-5.1,0.7-6.5-2.4c-0.9-2.1-0.7-6.2,0.8-7.6c2.8-2.8,5.6-5.5,9.4-7c1.9-0.7,3.3-1,4.8,0.8c7.4,8.9,2.6,18.6-6.2,22.2
		c-7.6,3.1-14.2,1.8-19.7-4.4"/>
	<path class="st0" d="M758,224.9c0.1,1.3-0.6,1.6-1.8,1.9c-3.6,0.8-7.2,1.7-10.9,1.8c-7.2,0.3-14.3,0.9-21.5,0.7
		c-3.5-0.1-7-1.6-10.6-0.1c-0.8,0.3-2.1-0.8-3.2-1.3c-9.9-4.5-19.4-10-29.1-15c-1.8-0.9-3.2-2.2-3.8-4.7c-0.6-2.7-3.3-4.4-5-6.6
		c-6.3-8.4-14.1-15.6-20.5-23.8c-2.7-3.5-5.7-4.6-9.3-5.6"/>
	<path class="st0" d="M320.2,445.8c4.4,3.3,9.3,2.2,13.8,0.9c2.9-0.8,5.2-0.4,6.9,1c5.7,5.1,12.2,9,18.7,13c0.9,0.5,1.5,1.2,2.2,1.9
		"/>
	<path class="st0" d="M360.6,390.1c-0.5-0.6-1.1-1.2-1.4-1.8c-5.6-10.3-13.9-9.5-22.1-3.5c-2.5,1.8-4.9,4.1-6,7.5
		c-0.9,2.5-0.6,4.2,1.2,5.9c1.3,1.2,1.8,2.5,1.9,4.4c0.1,2.3,1,4.5,2,6.6c0.7,1.3,1.4,2.7,1.2,4.3"/>
	<path class="st0" d="M365,438.5c2.8,6.4,5.7,12.4,12.7,15.8c8.2,4,8.1,4.8,6.7,13.3c-1.1,6.5-3.2,12.5-6.6,18.2
		c-2.1,3.6-3.2,4.1-7.3,2.5c-1.7-0.7-3.2,0-4.7,0.1c-10,1.2-17.9-2.6-24.4-9.9c-1.7-1.9-0.7-5.1-2.9-6.9"/>
	<path class="st0" d="M213.2,106.7c-1.2-1.2-2.8-1.1-4.4-1.1c-6,0.1-12-0.7-17.9-2.1c-2.4-0.6-4.7-0.3-7.3,1.2
		c-9.1,5.3-17.7,11.1-25.4,18.3c-2.7,2.6-6.2,4.1-9.8,5.2c-0.8,0.2-2,0.1-2.2,1.4"/>
	<path class="st0" d="M708.5,265.3c-4.8,2.8-10.2,3.7-15.7,3.9c-13.2,0.5-27.8-3.4-38.6-9.3c-0.9-0.5-1.7-1.8-3.3-0.8
		c-0.9,0.5-1.8-0.3-2.5-1c-7-6.4-15.6-10.8-21.8-18.2c-3.2-3.8-6.9-7-9.2-11.6c-1.7-3.5-5.1-5.3-9-5.9"/>
	<path class="st0" d="M269.6,159.1c-8.5,8.1-17.7,15.1-28,20.7c-3.5,1.9-6.6,3.7-8.9,7.5c-3.3,5.4-8.6,9.5-13.6,13.6
		c-0.9,0.7-1.5,1.6-2.4,2.6c3,2.6,6.8,2.2,10.1,3.2c2.7,0.9,5.8,0.1,8.4,1.8"/>
	<path class="st0" d="M363.2,182.2c-6.8,5.9-13.9,11.4-21.8,15.9c-3.8,2.2-7.5,4.7-11.7,6.1c-2.9,1-4.9,3.2-7,5.3
		c-6.1,6.1-12.1,12.4-19.1,17.6c-4.1,3.1-8.4,6.3-11.5,10.3c-2.8,3.6-6,7-8.2,11.1c-0.2,0.3-0.4,1-1.1,0.7"/>
	<path class="st0" d="M664.1,373.4c-2.1-2.7-4.2-0.8-6.2,0c-8,3.4-14.1,8.6-17.2,17c-2.2,6-7,8.8-11.9,7.7"/>
	<path class="st0" d="M390.8,417.8c1.5,1.8,0.2,3.7-0.1,5.5c-1,7.6-1.8,15.2-3.6,22.6c-0.8,3.4-2,6.7-1.1,10.2"/>
	<path class="st0" d="M849,97.9c-1.4,4.8-5.5,7.1-9.1,9.8c-7.4,5.4-15.6,9-24.7,10.2c-1.2,0.2-1.8,0.9-2.5,1.5"/>
	<path class="st0" d="M522.9,347.2c1,5.8,1.9,11.6,1.8,17.5c-0.1,4.6-0.7,9.3-1.5,13.8c-1.8,10.8-5.9,20.9-10.9,30.5
		c-3,5.8-5.1,5.6-8.7,0.1c-5.5-8.4-8.3-17.8-10.3-27.4c-0.9-4.4-0.2-9.2-0.2-13.8c0-1,0-1.9,0-2.9c0-4.8-3.8-7.4-7.5-4.6
		c-3.3,2.6-7.7,1.5-10.8,4.4c-0.6,0.5-3.1-1.1-4.9-0.9"/>
	<path class="st0" d="M632.8,433.1c1.1,3.9-0.2,7.8-0.4,11.6c-0.1,1.6-0.2,3.2,0,4.7c0.4,2.7-1.5,3.5-3.3,3.9
		c-2.6,0.6-5.3,1.1-8,0.1c-2.5-1-5.1-1-7.6-1.8"/>
	<path class="st0" d="M649.9,303.2c2.1-0.2,3.3,1.3,4.7,2.5c6,5.3,12.7,9.6,20.4,12c3.9,1.2,8,1.9,12-0.3"/>
	<path class="st0" d="M667.7,413.4c7.1,5.9,9.9,14.3,12.6,22.6c0.9,2.9,0.8,6.6-1.3,9.4c-0.9,1.2-1.5,2.7-4,2.5
		c-1.8-0.2-3.8,2.1-5.8,3c-5.5,2.5-11,4.3-17.1,1.9c-2.4-0.9-3.9-2-4.3-4.5c2-0.4,3.9-1,5.8-1.6c2.3-0.7,5-1.1,6.1-4.5
		c1.2-3.6,6.5-5.1,10-4.1c4.8,1.4,5.4,3.4,5,7.7c-0.1,0.5-0.5,1,0.1,1.5"/>
	<path class="st0" d="M322.8,262.8c0,3.4-2.2,5.9-3.7,8.7c-4.4,8.7-9.9,16.7-15.9,24.4c-3.5,4.4-4.1,10.2-6.1,15.3
		c-0.8,1.9,0.2,3.1,2.8,3.4c5,0.5,8.9-2.2,13.1-3.9c5.7-2.3,10.9-5.7,16.5-8c5.2-2.1,8.7-6.5,13.7-8.7c2.9-1.3,4.8-4,6.2-6.8
		c2.3-4.6,5.8-8.6,7-13.8c0.2-0.7,0.6-1.2,1.4-1.5c4.6-1.8,9.2-3.8,14.2-4"/>
	<path class="st0" d="M621.9,418.9c-0.2-3.8,1.7-6.9,3.1-10.3c2.3-5.6,3-11.7,4-17.7c0.7-4.1,0.6-8-0.2-12c-0.7-3.4-4.4-5.5-7.6-4.3
		c-5.3,1.9-8.1,3.5-5.1,10.9c0.8,1.9,2,3.8,0.4,5.8"/>
	<path class="st0" d="M251.4,90.6c-0.9,1.7,0.2,3.7-0.9,5.5c-11.2,4.3-23,7.3-34.8,10.6c-4.2,1.2-7.7,4.1-11.6,6.2
		c-2.3,1.2-0.2,3.1,1.1,3.4c3.7,1,7.4,2.3,11.2,3.1c3,0.6,5.8,0.8,8.8,0c1.7-0.4,3.8-0.5,5.4,1"/>
	<path class="st0" d="M220.1,120.8c-4.2,4.4-10,5.8-15.3,7.9c-5.1,2-10.4,3.5-15.6,5.2c-1.2,0.4-2.3,0.9-3.3,1.8
		c-0.4,0.4-1,0.7-1,1.1c-0.3,3.4-3.1,4.7-5.1,6.5c-2.9,2.6-6.1,4.8-9.5,6.5c-1.5,0.7-2.9,1.3-3.6,3"/>
	<path class="st0" d="M650.3,220.6c3.4,3.9,8.1,6,12.4,8.7c5.7,3.7,11.2,7.7,17.1,10.9c3.2,1.8,5.3,4.5,7.7,7.2
		c5,5.6,10.5,10.8,17,14.7c1.3,0.8,2.5,1.7,2.9,3.3"/>
	<path class="st0" d="M348.2,235.5c-4.1,8.1-9.6,15.1-16.1,21.4c-2.9,2.8-2.3,7.1-5.8,9.4c3.5,2.9,6.6,1.5,9.5,1.1
		c5.6-0.7,10.7-3.2,16-5.1c0.9-0.3,1.7-0.1,2.6-0.3"/>
	<path class="st0" d="M641.9,200.9c5.1,1.3,9.5,4.4,14.5,5.9c5.4,1.6,10.6,3.8,16.4,3.6c1.4-0.1,2.7-0.3,4-0.8"/>
	<path class="st0" d="M492.7,382.5c-2.5,1.5-3.4,4.4-4.2,6.6c-3.1,9.3-10.3,15.4-16.2,22.5c-1.4,1.7-3.3,1.6-5.1,2.2"/>
	<path class="st0" d="M727.8,121.2c5,4.7,11.4,6.6,17.5,9.1c1.8,0.7,3.8,0.8,5.2,2.7c-1.3,2.8-4.2,3.9-6.7,5.2
		c-1.3,0.6-2.2,1.5-3.2,2.3"/>
	<path class="st0" d="M740.5,157.2c-1.8-0.1-3.4-0.2-5.2,1c-2.9,1.9-6.5,2.3-10.1,2.8c-5.6,0.8-11.2,0.4-16.8,0.7
		c-2.2,0.1-4.4-1.9-6.6,0"/>
	<path class="st0" d="M417.4,362.5c-0.9-2.6-3.2-3.5-5.5-4.4c-6.5-2.3-12.9-0.8-19.3,0.4c-1.4,0.2-2.8,0.5-4,1.1
		c-2.4,1.1-4.5,2.5-7,0.1c-0.6-0.6-2.6-0.6-3.5,0c-5.7,3.8-12.6,4.7-18.6,7.9c-2.2,1.1-4.6,1.8-5.4,4.4"/>
	<path class="st0" d="M662.6,163.8c8.2,6.5,16.1,13.4,25.1,18.9c1.5,0.9,3.3,1.7,4,3.6c0.2,0.4,0.7,1,1.1,1.1
		c7.3,0.7,12.5,6.2,19.3,8.1c4,1.1,7.4,3.3,11.2,4.8c3.9,1.5,6.1,5.5,9.8,7.6c7.7,4.4,15,9.5,22.7,13.9c1.4,0.8,1.6,2.9,3.6,2.7"/>
	<path class="st0" d="M601.5,371.9c1.5,1.9,2.7,4.1,4.4,5.8c2,1.9,2.8,3.9,2.5,6.6c-0.5,4.8,2,8.7,4,12.7c1.7,3.5,2.5,7,1.2,10.9
		c-0.4,1.4-1.5,2.3-2.1,4c-2.7-1.9-5.7-3-8-5.8c-3.6-4.4-8-8-11.7-12.3c-2.2-2.6-3.7-5.2-4.2-8.5"/>
	<path class="st0" d="M576.8,406.5c1.8,3.3,3.5,6.6,5.5,9.8c4.8,7.9,9.6,15.8,13.8,24"/>
	<path class="st0" d="M285.6,182.7c6.1,3.6,12.6,5.2,19.6,4c2.9-0.5,5.7-1.2,8.4-2.4c1.2-0.5,2.9-0.7,4.3,0.3"/>
	<path class="st0" d="M373.3,199.1c-8.5,7.9-17.9,14.5-28,20c-4.1,2.3-6.8,6.3-10.2,9.4c0.5,1.8,2.2,2.4,3.6,2.9
		c4.9,1.6,9.6,3.8,14.9,3.7c1.9,0,3.7,0.8,5.5,1.4"/>
	<path class="st0" d="M385.7,275.9c-3.5,5.6-8.7,9.5-13.5,13.8c-4.3,4-8.5,8.1-11.6,13.2c-1.6,2.6-4.4,3-6.6,4.3
		c-7.1,4.3-14.7,7.3-22.5,9.9c-0.9,0.3-1.7,0.2-2.6,0.3c-1.3,0.1-2.9,0.5-3.6-1.1c-0.6-1.3,0.4-2.3,1.1-3.3c1.6-2.3,3.2-4.6,4.7-6.9
		c0.7-1.1,1.4-2.2,1.1-3.6"/>
	<path class="st0" d="M186.7,164.2c0,1.4,0,2.3,1.8,3c5.5,2.4,11.1,1.8,16.8,1.3c3.8-0.3,7.4-2.2,11.3-0.7"/>
	<path class="st0" d="M143.4,129.2c3.6,0.2,5.6,3.1,8.3,4.8c1,0.6,2,1.7,3,1.7c6.3-0.3,12,2.9,18.2,2.7c2.5-0.1,4.9-0.6,7.3-1.4
		c1.3-0.4,2.9-1,4.3-0.1"/>
	<path class="st0" d="M222,127.4c3.3,2.2,7.1,2.5,10.9,3c6.2,0.9,12.4,0.5,18.6,0.6c1.2,0,2.3,0.3,3.3,1.1"/>
	<path class="st0" d="M649.9,174.7c5.4-1.1,8.4-4.8,10.5-9.5c1.1-2.3,2.1-4,5.1-4.5c3.2-0.5,5.5-4.9,5.1-8.6
		c-0.3-3.5-0.1-3.2,3.3-3.1c3,0.1,5.1,1.2,7.3,3c3.8,3,8.7,4,13,5.9c3.2,1.4,6.1,2.8,8.5,5.8c2.4,3,5.1,5.7,9,7.1
		c4.5,1.6,6.4,6.5,10.9,8.7c-3.6,3.6-7.6,4.3-11.6,4.6c-4.7,0.3-9.5,0.3-14.2-0.7c-2.1-0.5-3.7,0.2-5.5,1.1"/>
	<path class="st0" d="M649.9,259.5c0.3,1.9,1.3,3.3,2.5,4.7c4.8,5.3,8.9,11.3,14.9,15.5c-1,1.4-1.3,2.7-3.2,2.3
		c-5.6-1.1-11.4,0.3-17.1-1.1c-3.2-0.8-6.1-2.2-9.1-3.3c-1.4-0.5-2.6-1.9-4.4-1.1"/>
	<path class="st0" d="M568,278.8c2.1,1.6,4,3.3,6.5,4.4c4.4,2,6.2,6.3,8.1,10.5c2.5,5.6,6.6,10.1,10.6,14.5c3.3,3.6,6.6,7,9.4,11"/>
	<path class="st0" d="M234,183.8c-3.6-1.5-6.8,0.8-10.2,1.3c-4.1,0.6-8.2,1.5-12.4,1.2c-2.6-0.2-5.1,0.8-7.6,0"/>
	<path class="st0" d="M343.1,418.5c1.2-1.2,1.3-2.8,1.1-4.4c-1-5.8,0-11.1,3.3-16c1-1.5,0.7-3.3-0.3-4.7c-3.4-4.7-9.3-4.3-12.4,0.7
		c-0.6,1-1,2.3-2.2,2.9"/>
	<path class="st0" d="M312.6,247.1c0.6,2-0.9,3-1.8,4.4c-1.9,2.6-3.9,5.2-4.8,8.6c2.8,2.9,6.6,2,10,2.2c0.7,0,1.7-0.2,2.5-0.2
		c2.9-0.1,5.8,0.5,8-2.2c0.8-1,1.9-1.5,3.3-0.7"/>
	<path class="st0" d="M599.3,279.9c1.4,0,2.7,0.1,4.1,1c5.5,3.7,12.1,4.3,18.1,6.7c2.9,1.1,5.9,0.1,8.8,1.3c2.2,0.9,3.7-0.9,4.7-2.8
		"/>
	<path class="st0" d="M612.4,194c1.1,5.2,3.9,10.2,7.5,13.2c8.2,6.7,17,13.1,28.5,13.1c1.8,0,2.2-2.3,4-1.6"/>
	<path class="st0" d="M654.6,418.2c3.7-0.4,2.4-4.9,5-6.3c0.2-0.1,0.8-1.4,1.5-2.1c3.4-2.8,4.6-6.9,6.5-10.5
		c0.6-1.2,0.6-2.3-0.2-3.7c-1.8-3.1-1.3-6.5,0.7-9.4c1.6-2.3,8-4.1,10.5-3.3c2.8,0.9,4.8,5.4,4,8.7c-1,4.3-2.6,8.6-5.9,11.6
		c-4.6,4.2-8.3,9.3-13.8,12.4c-1.7,1-3.6,2.2-5.8,1.1"/>
	<path class="st0" d="M259.8,113.6c-6.7,3.1-13.8,4.6-21.1,5.2c-3.3,0.3-6.7,0.8-9.1,3.5c-1.9,2.2-5.5,2.1-6.9,5.1"/>
	<path class="st0" d="M299.5,442.2c-2.4,0.9-5.4,1.2-6.8,3c-3.2,4.3-6.2,9.1-5.1,14.8c0.5,2.9,1.2,5.8,3,8.5
		c1.2,1.8,3.6,1.7,4.5,3.6"/>
	<path class="st0" d="M621.2,307.5c-0.3,2.2,1,3.8,2.2,5.5c2.4,3.3,4.8,6.6,7.3,9.8c0.8,1.1,1.6,2.2,1.4,4.4
		c-10.9,1.8-19.6-4.1-28.6-8.5c-1.2,1.1-1.3,1.9-0.6,3.4c1.6,3.2,0.8,4.3-2.8,3.9c-5-0.6-9.3-3-13.5-5.8c-2.1-1.4-4.3-2.4-6.9-1.8"
		/>
	<path class="st0" d="M451.2,379.6c0,0.8,0.3,1.9-0.1,2.5c-4.4,7-8.3,14.4-14.1,20.4c-1.5,1.6-3.2,3.1-5.5,3.6"/>
	<path class="st0" d="M358.1,306.1c1.8,1.7,0.3,3.9,0.6,5.8c0.5,3.6,1.8,6.1,5.3,7.2c2.1,0.7,3.8,1.8,5.5,3.2c5.2,4.4,13.9,3,19-2.8
		c2.9-3.2,5.6-6.9,9.7-8.8"/>
	<path class="st0" d="M718,74.6c-0.9-0.5-2-0.6-2.9-0.3c-7.4,2-14.9,3.3-22.2,5.7c-7.9,2.6-14.9,7-22.2,11
		c-13.9,7.5-26.5,16.8-35.2,30.2c-6.2,9.6-11.7,19.5-16.2,30.1c-4,9.5-7.9,19-11.2,28.8c-1.8,5.4-2.7,11-4.3,16.4
		c-2.8,9.5-8.2,17.6-14.5,25.2c-5,6.1-11.3,10.8-17.4,15.3c-5.8,4.3-11.6,9.3-18.7,11.8"/>
	<path class="st0" d="M627.3,462.9c0.6,4.9-2.7,7.4-6.2,9.4c-3.3,1.8-7,3.1-10.5,4.4c-2.5,0.9-7-1.5-8-4c-1-2.6,0.3-6.2,2.9-7.6
		c2.8-1.5,5.7-2.4,8.7-0.4c2.1,1.4,4.3,0.1,6.1-0.5c3.1-0.9,7.1-0.6,8.8-4.6"/>
	<path class="st0" d="M548.4,381c-0.3,3.1,0.1,6.3,1.2,9c1.7,4.3,0.6,8.4-0.3,12.4c-0.6,3.1-4.8,4.2-7.9,2.6
		c-7.1-3.7-11.9-9.8-15.9-16.4c-0.8-1.3-1.6-2.5-2.6-3.6"/>
	<path class="st0" d="M368.2,341.4c8.4,5.2,17.7,6.9,27.3,7.3"/>
	<path class="st0" d="M795.8,79.4c3.3,2.4,7.4,2.6,11,4.3c4.4,2.1,9.8,2.3,14,4.4c5.4,2.6,11,4.4,16.6,6.1c4.2,1.3,8.5,3,13.1,3"/>
	<path class="st0" d="M422.5,243.8c-1-0.9-1.9-1.7-3.3-2.2c-4-1.6-7.6-3.7-11-6.4c-5.3-4-10.6-8-15.6-12.4
		c-6.2-5.5-10.2-12.9-15.3-19.3c-5.3-6.7-8.6-14.7-13.5-21.7c-4.2-6-8.1-12.1-12.8-17.8c-3.4-4-6.5-8.3-9.8-12.4
		c-5,3-5.2,4.7-2.5,9.3c1.6,2.7,4.3,4,6.3,6.6c-4.2,4.2-8.6,7.7-13.8,10.1c-3.3,1.6-6.5,3.4-9.8,5.1c-1.6,0.8-2.6,2.2-3.7,3.6
		c-3.2,3.7-7.5,6.3-11.2,9.5c-1.1,1-2.2,1.9-3.3,2.9c-3.1,2.8-3,4.3,0.8,5.7c2.4,0.9,4.9,1.6,7.6,1.6c4.2,0,8.6-0.9,12.7,0.6"/>
	<path class="st0" d="M290,239.1c-2.6-1.3-5.3,0-7.6,0.6c-5.6,1.3-10.9,1.2-16.4-0.1c-2.3-0.5-3.7-1.2-4.4-3.7c3-2.6,6-5.4,9.2-8
		c2.6-2.2,5.2-4.4,6.5-7.7c0.6-1.5,2-2.3,3.3-2.9c7.3-3.1,13-8.3,18.5-13.9c0.4-0.4,0.9-0.7,1.5-0.9"/>
	<path class="st0" d="M386.4,216.9c-6,4-11.1,9.1-17.1,13.2c-1.6,1.1-3.2,2.4-4.8,3.5c-3,2.1-6,4.2-7.8,8c3.1,2.1,6.8,2.5,10.4,2.9
		c3.6,0.4,7.4-0.8,10.9,0.7"/>
	<path class="st0" d="M225.6,83c1.4,2.6,4.3,1.6,6.2,2c6.6,1.1,12.9,3.1,19.3,4.9c9.2,2.6,17.5,7,26.2,10.5
		c10.9,4.4,21.1,9.7,30.2,17.2c6.3,5.2,12.7,10.4,18.5,16.1c4.9,4.8,9.1,10.3,13.5,15.6c0.6,0.7,0.8,1.6,0.7,2.5"/>
	<path class="st0" d="M383.9,253.3c-1.5,4.3-4.1,8.1-7.7,10.8c-3.9,2.9-4.6,7.4-6.7,11.1c-0.9,1.6,0.7,3,2.8,2.8
		c2.8-0.3,5.7-0.6,7.9-2.3c2.2-1.7,4.1-2.2,6.2-0.6c2.4,1.8,3.1,4.3,2.2,7.2c-0.2,0.6-0.3,1.2-0.4,1.8"/>
	<path class="st0" d="M466.1,378.5c-1.5,1-3.1,0.9-4.7,0.7c-10.4-1.1-20.9-0.8-31.3-0.6c-4.8,0.1-9.7-0.9-14.6,0.6
		c-1.4,0.4-3.1,0.2-4.3-1"/>
	<path class="st0" d="M308.9,433.8c-5.3-3.4-6-9.4-8.4-14.6c-1-2.1,0-4.2,0.5-6.2c0.6-2.5,0-4.4-1.6-6.2c-0.8-0.9-1.7-1.7-2.5-2.5
		c-3.4-3-7.1-4-11.2-1.8c-0.8,0.4-1.6,0.9-2.6,1"/>
	<path class="st0" d="M554.6,311.9c1.9,2.1,4.5,3.4,6.3,5.8c3.4,4.4,1.5,12.3-2.6,15c-4.3,2.9-8.7,3.7-13.5,2.1"/>
	<path class="st0" d="M681.6,384.7c0.8-0.8,1.7-1.4,1.1-2.9c-1.6-4.1-3.3-8.3-8-9.8c-6.3-2-10.3,0-13.1,7.3
		c-0.1,0.1-0.2,0.2-0.4,0.4"/>
	<path class="st0" d="M446.1,232.2c-2.5-8.4,1.4-15.3,10.2-17.5c4.9-1.2,12,1.5,14.9,5.4c0.6,0.8,1.1,1.7,0.6,2.5
		c-0.6,1.1-1.6,1-2.9,0.9c-3.4-0.2-6.8-0.4-10.2,0.2c-5.2,1-8,4.7-10.5,8.8"/>
	<path class="st0" d="M162.3,87.7c5.9,5.8,11.9,11.5,20.4,13.6c0.8,0.2,2.3,0.7,2.6,2.1"/>
	<path class="st0" d="M534.5,279.5c-5.8,7-11.8,13.8-14.9,22.6c-0.5,1.3-1.3,1.6-2.6,1.5"/>
	<path class="st0" d="M429.7,364.3c-3,1.3-5.8-0.4-8.3-1.3c-2.4-0.8-3.8-0.8-5.5,0.9c-5.8,5.6-13.3,7.8-20.8,9.2
		c-2.6,0.5-6-0.7-9-0.9c-6.8-0.4-13.7-1.6-20.4-0.8c-6.4,0.7-13.4-0.1-19,4.5c-0.6,0.5-0.9,1.1-1.4,1.5"/>
	<path class="st0" d="M325.7,463.3c-3,0.3-5.3,1.8-7.7,3.5c-5.4,3.8-11.5,6-18.1,2.6c-2.2-1.1-3,0.9-4.4,1.5"/>
	<path class="st0" d="M370.1,488c0-0.2-0.1-0.5,0-0.7c1.6-2.6,4-5.1,1.8-8.3c-2.5-3.6-6.1-5.5-10.5-5.8c-1.3-0.1-2.7,0-3.6,1.1
		c-2.8,3.3-6.1,2.8-9.9,1.9c-2.4-0.5-4.5-2.5-7.2-1.6"/>
	<path class="st0" d="M601.5,349c-1.3,3,0.1,5.9,0.6,8.7c0.8,4.8,0.7,9.3-0.6,13.6c-3.5,1.7-5.6-0.4-8-1.9"/>
	<path class="st0" d="M530.5,335.5c-5.6,1.3-9.8,5.6-15.3,7.4c-4,1.3-7.8,2.9-12,2.8c-1.4,0-2.2,1.1-3.3,1.8"/>
	<path class="st0" d="M699,195.8c-2.7,3-6.5,2.3-9.8,2.4c-6.7,0.1-13.2-1.2-19.3-4.2c-1-0.5-1.9-0.6-2.9,0"/>
	<path class="st0" d="M320,464.7c-2-0.5-3.8-1.6-6-1.9c-1.7-0.3-3.3-1.4-4.5-3.1c-2-2.9-5.2-4.2-8.6-3.2c-3,0.8-4.5,3.6-5.4,6.5
		c-0.7,2.3,0.8,4.4,1.4,6.5"/>
	<path class="st0" d="M713.6,229.7c0.7,1.9,2.4,2.4,4,3.3c5.4,2.9,11.2,4.7,16.4,8c1.1,0.7,2.4-0.1,3.6,0"/>
	<path class="st0" d="M399.2,230c-5.9,5.5-12,10.8-19.3,14.6c-1.9,1-2.2,3.3-3.4,5c0.2,1.6,1.4,2.2,2.6,2.2c3.1-0.1,6,1.7,9.1,0.5
		c0.9-0.4,1.6,0.6,2.5,0.7"/>
	<path class="st0" d="M394.1,373.8c-1,2.7-3.8,2.9-5.9,3.9c-5.3,2.5-9.7,6.3-14.9,8.8"/>
	<path class="st0" d="M513.4,263.9c1.7,3.3-0.1,6.4-0.8,9.4c-1.3,5-2.6,10.1-5.3,14.6c-0.2,0.4,0,1,0,1.4"/>
	<path class="st0" d="M653.2,432.7c-1.7-1.2-3.1,0.3-4.7,0.4c-4.5,0.2-8.7-0.4-12.4-3.8c-3.8,4.8-9.6,5.4-14.6,7.3
		c-3.8,1.4-7.1,3.1-9.8,6"/>
	<path class="st0" d="M524.7,222.4c-3-8.3-12.9-8.1-18.2-5.1c-0.4,0.3-0.4,0.7-0.4,1.1"/>
	<path class="st0" d="M534.9,277c-2-0.6-3.9-0.3-5.8,0.7c-5.5,2.9-11.6,4.7-17.1,7.6c-0.7,0.4-1.7,0.5-2.5,0"/>
	<path class="st0" d="M537.5,264.9c1.9,0.5,3.8-0.2,5.8,0.3c8,2,11.2,11.9,8.1,18.3c-2,4.1-4.7,6.3-8.9,7.2"/>
	<path class="st0" d="M411.2,238.4c-5.7,5.4-11.9,10.1-18.6,14.1c-0.7,0.4-1.8,0.8-1.7,1.5c0.2,3-1.9,2.1-3.3,2.2"/>
	<path class="st0" d="M506.9,351.6c-3.4-0.6-6.3,1-9.5,1.8c-3.7,1-7.4,1.9-11.3,1.8c-1.6,0-2.9,0.2-4,1.5"/>
	<path class="st0" d="M620.4,208.5c-1.5,1.7-0.2,3.3,0.4,4.7c2.3,5,4.9,9.8,6.9,14.9"/>
	<path class="st0" d="M676.5,297.3c-0.6,2.8,1.3,4.6,2.6,6.5c2.9,4.5,5.7,9,9.1,13.1"/>
	<path class="st0" d="M454.1,290.8c0.4,3.3-1.9,5.8-2.6,8.7c-0.9,3.6-2.6,7.1-1.4,10.9"/>
	<path class="st0" d="M484.3,215.5c-5.6-4.3-11.5-5.3-17.9-1.5c-0.7,0.4-1.1,0.7-1.1,1.5"/>
	<path class="st0" d="M528,347.2c1,2.9,0.2,5.8,0.3,8.7c0.2,4-0.2,8,0.4,12"/>
	<path class="st0" d="M305.3,429.8c3.5-1.8,7.3-0.6,10.9-0.9c6.8-0.4,11.7,4.5,17.8,5.7c2.1,0.4,4,1.4,6.2,1.4"/>
	<path class="st0" d="M607,291.2c-3.7,2.5-7.7,1.9-11.6,0.7c-4.1-1.3-8.2-2.7-12.4-4c-0.5-0.2-1.3-0.4-1.8,0.3"/>
	<path class="st0" d="M585.5,226.7c5.7,6.8,14.2,9.1,21.5,13.4c2,1.1,4.6,2.8,7.2,0.8"/>
	<path class="st0" d="M286.7,140.5c-0.7,0.7-1.5,1.2-2.5,1.5c-7.8,2.3-13.1,8.4-20.3,12.4c3,3.2,6.1,4.3,9.7,4.3
		c3.6,0,7.3-0.2,10.9,0.3"/>
	<path class="st0" d="M546.6,266c6.2-6.2,7.6-6.5,15.2-2.5c3.2,1.7,7,3.5,6.6,8.3c-0.3,3.1,0.7,6.3-3.5,8.2c-2.5,1.1-4.9,3.2-7,5.3
		c-2.2,2.3-4.5,2.7-7.3,1.4"/>
	<path class="st0" d="M515.6,230.7c3.4,1.8,6.9,3.1,9.5,6.1c2.3,2.7,3.1,5.4,2.1,8.8"/>
	<path class="st0" d="M541.1,294.8c7.3,3.1,10.1,7.6,9.9,15.6c0,0.6,0.2,1-0.4,1.5c-1.7,1.6-2.8,3.7-4.3,5.5c-2.3,2.6-4.5,4-8.1,2.2
		c-3.6-1.8-7.2,0.5-10.9,0.7"/>
	<path class="st0" d="M613.9,390.5c3.4,0.9,5.1,2.8,5.6,6.5c0.4,3.2,1.4,6.2,1.3,9.5c-0.1,2.1,1,3.6,2.2,5.1"/>
	<path class="st0" d="M719.4,144.1c0.9,1.3,1.7,2.5,3.2,3.4c4,2.3,7.8,5.1,11.7,7.5c0.9,0.6,1.8,1.2,2.2,2.2"/>
	<path class="st0" d="M545.1,304.1c-5.6,4.3-11.3,8.5-16.7,13c-2.3,1.9-1.8,4,1,5.8c1.5,1,2.9,2.8,5.1,1.5"/>
	<path class="st0" d="M487.2,288.6c-0.5-0.2-1.1-0.8-1.4-0.7c-5.5,1.6-11.2,0.6-16.8,1.4"/>
	<path class="st0" d="M490.2,249.3c-0.5-8-6-14.4-14.2-16.7c-4.5-1.3-10.4,1.7-13.1,6.1c-0.8,1.3-1.5,2.7-2.2,4"/>
	<path class="st0" d="M542.6,321c3.3,5.1,3.7,10.4,0.7,15.6c-3.7,6.3-8.9,10.3-16.7,9.9c-3-0.2-6.1,0-9.1,0"/>
	<path class="st0" d="M598.6,210.7c2.4,3,5,6,7.3,9.1c3.2,4.3,3.7,9.9,6.2,14.5c1.1,2,1.1,4.7,3.2,6.2"/>
	<path class="st0" d="M486.5,309.3c-3.9,3.1-4.3,8.2-6.9,12c-1.7,2.6-2.3,5.7-3.3,8.7"/>
	<path class="st0" d="M368.2,371.9c0.5,3.1-1.9,5.1-3,7.6c-1.5,3.3-1.3,7.2-3.6,10.2"/>
	<path class="st0" d="M453,239.5c-1.2-3.9-4.9-6.7-8.7-6.6c-3.3,0.2-6.5-0.1-9.9,0.6c-2.3,0.5-3.8,2.4-6.2,2.7"/>
	<path class="st0" d="M558.2,246.8c3.3,4.7,6.9,9.1,12.3,11.7c4.7,2.2,4.1,7.2,5.1,11.2c0.3,1-0.9,2.5,1.1,2.9"/>
	<path class="st0" d="M310.4,411.6c2.4,4.8,5.1,9.4,8.7,13.5c0.9,1,1.5,2.3,1.8,3.6"/>
	<path class="st0" d="M365.7,245.3c-0.2,2.4-2.1,3.7-3.3,5.4c-2.4,3.6-5.6,7-6.9,10.7c-1.3,3.9-4.6,6.1-5.8,9.7"/>
	<path class="st0" d="M625.2,172c4.6,3.7,3.7,8.3,1.6,13.2c5,4.2,9.4,8.8,13.4,13.9c0.9,1.2,1.6,2.2,1.4,3.7
		c-0.2,1.4,0.8,2.3,1.5,3.3c2.6,4.3,5.9,8.2,8,12.7"/>
	<path class="st0" d="M574.6,261.3c4.5-0.1,8.4,0.3,11.8,4.3c3.6,4.3,7.2,8.6,11.2,12.5c0.8,0.8,1.2,1.7,1.6,2.9
		c0.7,2.8,2.5,4.9,5.7,5.1"/>
	<path class="st0" d="M694.7,96.8c-1.1,3.1-1.3,6.5-3.6,9.1c-4.9,5.6-9.7,9-18.6,6.2c-0.3-0.1-0.7,0-1.1,0"/>
	<path class="st0" d="M403.9,264.9c-4.6,2.9-7.4,7.6-10.9,11.6c-1.1,1.2-1.7,3-3.6,3.3"/>
	<path class="st0" d="M422.5,244.6c-4.3,2.2-7.5,5.3-10.5,9.2c-1.9,2.4-6.3,3.2-9.9,3.8c-2,0.3-3.3,1.1-4,3c-1.2,3-4.1,4.5-6.2,6.5
		c-2.1,1.9-3.9,3.7-4.3,6.6c-0.1,0.5-0.5,1-0.7,1.5"/>
	<path class="st0" d="M514.9,232.6c1.2-3.5,0-6.4-2.6-8.7c-2.5-2.2-4.4-5.1-8.3-5.7c-1.4-0.2-3.3-1.7-4.5-3.4
		c-2.8-4-9.4-5.5-13.8-0.8c-1.1,1.2-1,2.4-1,3.7"/>
	<path class="st0" d="M619.7,363.9c-5.4,3-9.4,7.1-10.6,13.5c-0.1,0.7-1.3,0.9-1.4,1.8"/>
	<path class="st0" d="M317.3,215.8c4.1,2.8,9,3.2,13.5,4.8c3.2,1.2,6.6,0.2,9.8,1.1"/>
	<path class="st0" d="M516,248.9c7-5.1,15.1-3.9,18.9,4.4c0.9,2,2,3.9,2.3,6.2c0.5,4.7-1.3,8.6-4.9,11.2c-2.5,1.8-2.7,3.5-2.1,6"/>
	<path class="st0" d="M734.3,241.3c-2.8,3.1-6.6,3.8-10.6,4c-1.7,0.1-3.7-0.3-4.4,2"/>
	<path class="st0" d="M283.8,249.7c1.6,1.5,3.3,1.5,5.5,1.2c3.6-0.5,7.3-1.7,10.9-0.1"/>
	<path class="st0" d="M453.8,251.5c1.3,1.5,1.2,3.3,1.1,5.1c-0.2,3.9,0.4,7.6,1.5,11.3"/>
	<path class="st0" d="M651.4,123c-1.6,0.2-2.5,1.3-3.3,2.5c-2.7,4.6-7.6,5.7-12.1,7.3c-1.7,0.6-4-0.7-5.8-1.7"/>
	<path class="st0" d="M571.7,282.4c-0.5,0.8-0.6,1.8-0.3,2.5c2,5.2-0.3,9.2-3.3,13.1c-0.8,1.1-1.9,1.2-2.9,1c-1.1-0.2-1.9-1-1.8-2.1
		c0.4-4.9-2.8-7.4-6.2-9.8"/>
	<path class="st0" d="M532,325c-3.4,3.6-8,5.6-12,8.4c-1.2,0.8-2.8,1.1-2.9,2.9"/>
	<path class="st0" d="M299.1,151.4c-2.4,2.1-5.1,3.5-8,4.8c-5.9,2.6-10.1,7.5-15.6,11.5c3.3,3.6,7.4,3.5,11.2,4.1
		c3.4,0.5,7-1,10.2,1.1"/>
	<path class="st0" d="M483.2,311.5c-4.8-0.1-9.3,2.2-14.2,1.4c-0.7-0.1-1.6,0.4-2.2-0.4"/>
	<path class="st0" d="M455.8,269.3c2.8-3.5,6.7-5.7,10-8.7c3.8-3.4,3.4-3.2,2.3-8.1c-1.9-8-8.4-10.6-14.7-12.4
		c-4.2-1.2-8.6,1.2-11.6,5.1c-1.1,1.5-1.8,3.2-3.2,4.4"/>
	<path class="st0" d="M537.8,366.5c-0.4,5.4,0.8,10.7,1.5,16"/>
	<path class="st0" d="M705.6,96.5c2.1,4.6,0.2,8.4-2.5,12c-0.8,1.1-2.4,1.9-2.2,3.6"/>
	<path class="st0" d="M456.7,287.9c-0.9,2.3-3.1,2.4-5.1,2.9c-4.5,1.2-8.7,3.5-13.5,3.3"/>
	<path class="st0" d="M492,249.3c3.2-5.8,8.6-6.9,14.9-6.2c0.2-4.4-1.8-7.1-5-9.4c-5.4-3.9-11.2-3.4-17.1-1.8
		c-1.4,0.4-2.5,1.4-2.9,2.9"/>
	<path class="st0" d="M489.8,253.3c-3.9,3.6-8,6.9-12.3,9.9c-1.1,0.7-2,1.5-3.3,1.4"/>
	<path class="st0" d="M506.9,243.1c3.2,1.8,6.4,3.7,8.7,6.6c3,3.8,2,11.3-2.2,13.6c-3.6,1.9-5.7,5.1-8.9,7.2
		c-4.4,2.7-8.4,6.1-13.9,6.3c-1.7,0.1-1.4,1.3-1.5,2.4"/>
	<path class="st0" d="M653.9,125.2c5.2,0.5,9.6-0.9,13.6-4.6c2.6-2.4,2.6-5.4,3.4-8.2c0.3-1-0.4-2.8-2.4-1.8
		c-4.6,2.4-9.2,1.6-13.8,0.4"/>
	<path class="st0" d="M574.2,310.8c-0.7,0-1,0.5-1.1,1.1c-0.8,5.9-5,8.2-10.2,9.5"/>
	<path class="st0" d="M516.7,259.5c6,2.5,10.4,6.7,13.5,12.4"/>
	<path class="st0" d="M508,316.6c-1.6,3.9-5.2,6.3-7.4,9.8c-1.2,1.9-2.6,3.7-3.9,5.5"/>
	<path class="st0" d="M635.7,133.6c0,1.9,1.7,3.2,1.9,5.1c0.5,4.6-3.3,11.4-8.4,14.2c-3.2,1.8-6.4,3.9-10.2,1.5"/>
	<path class="st0" d="M301.3,151.1c0.1,1.5,1.2,2.5,1.6,4c1.1,4.1,5.8,5.4,10.1,3.3"/>
	<path class="st0" d="M537.8,275.1c-3.4,2.3-3.5,2.7-0.3,5.1c3.7,2.8,5.1,8.4,3.7,13.5c-0.4,1.3-1.6,1.3-2.2,2.2
		c-4.8,6.9-12.2,6.5-19.3,6.9"/>
	<path class="st0" d="M657.5,151.8c-0.9,3,0.4,6.5-2.5,9.2c-2.4,2.2-4.6,3.8-8.1,3.6c-5.1-0.3-5.1-0.1-5.1,5
		c0,6.7-6.2,11.8-12.7,10.6"/>
	<path class="st0" d="M624.8,155.8c1.5,2.9,3.3,5.9,2.5,9.1c-1.9,7.3-7.6,15-17.4,12.4"/>
	<path class="st0" d="M374.4,372.3c-0.8,3.6-1.7,7.3-2.5,10.9c-0.4,1.9,1.5,3.2,1.1,5.1"/>
	<path class="st0" d="M627,185.6c-1.8,0.3-2.7,2-4,3c-5.3,4-11,5.6-17.5,3.9"/>
	<path class="st0" d="M325.7,148.9c-2.8,3.8-2.3,8.7-0.4,11.8c1.7,2.8,5.4,5.7,9.8,5.3c1.8-0.1,3.4-0.6,4.7-1.9"/>
	<path class="st0" d="M490.2,276.6c-0.5-3.2-0.1-6.5,0.6-9.4c1.3-5.5-0.2-11,0.5-16.4c0.1-0.6-0.6-0.9-1.4-1.1
		c-4.4-1.1-8.7-2.6-13.1,0c-0.3,0.2-0.7,0-1.1,0"/>
	<path class="st0" d="M709.9,88.5c0.6,3.5-2.8,7.8-7.3,8.3c-3.4,0.3-7.2,1-10.2-2c-4.4,3.4-9,3.5-13.8,1.3"/>
	<path class="st0" d="M750.3,99.7c2.1,2.2,5,2.5,7.7,2.8c2.4,0.3,4.6,1.1,6.9,1.6"/>
	<path class="st0" d="M538.2,240.2c5.2,0.5,9.3,3.1,12.8,6.9c2.5,2.7,3.7,5.5,2.2,9.1c-0.5,1.1-0.2,2.7,0.3,4"/>
	<path class="st0" d="M481.4,369.4c-2.6-1-5.2-1.3-8-0.4c-3.9,1.2-8.2,0.5-12,2.3"/>
	<path class="st0" d="M675,89.6c5.5,7.8,2.4,12.3-2.2,17.5c-1,1.1-2.4,1.9-2.5,3.6"/>
	<path class="st0" d="M455.2,244.9c-0.2,3-0.8,5.6-3.9,7.4c-3.5,2.1-5.4,6.1-8.4,9c-2.7,2.6-5.4,5.2-8.8,6.9c-2,1-1.8,3-2.9,4.4"/>
	<path class="st0" d="M246.7,138.7c2.7,3.1,6.6,3.2,10.2,3.9c1.3,0.3,2.5,0.4,3.3,1.5"/>
	<path class="st0" d="M563.7,299.2c-2.2,4.3-3.4,9.1-8.5,11.5c-1.3,0.6-2.3,0.7-3.5,0.9"/>
	<path class="st0" d="M554.6,385.4c-0.7,4.9,1.3,9.3,2.5,13.8"/>
	<path class="st0" d="M411.9,396.3c0.2,3.6-1.8,6.4-3.3,9.4c-0.7,1.4-1.7,2.7-2.5,4"/>
	<path class="st0" d="M492,262c0.8,0,1.9,0.3,2.5-0.1c1.4-0.8,3.6,1.4,4.5-1.4c0.8-2.6-0.3-4.6-1.6-6.5c-1.3-1.9-3.5-2.8-5.8-3.3"/>
	<path class="st0" d="M572,237.7c3.3,2.5,6.3,5.5,9.8,7.7c1.9,1.2,2.9,3,2.6,5.4c-0.4,3.9,0.8,7.8-0.8,11.6"/>
	<path class="st0" d="M585.1,248.6c1.4-0.3,2.5,0.6,3.6,1.1c2.7,1.2,5.3,2.5,8.4,2.2c0.7-0.1,1.5,0,1.5,1.1"/>
	<path class="st0" d="M651.7,104.8c3.7,4.1,2,8.7,1,13.1c-0.3,1.3-0.7,2.9-1.8,3.8c3.5,4,3.8,10.9,0.5,15.1
		c-2.2,2.8-3.8,6.2-8.3,6.8c-1.9,0.3-3.2-0.4-4.8-0.6"/>
	<path class="st0" d="M514.9,260.2c-5-2.2-11.2-1.7-13.2,3.6c1.3,1.6,2.7,3.4,4.1,5.2"/>
	<path class="st0" d="M355.5,397.8c-0.9,6.1-5,9.8-10.9,9.8"/>
	<path class="st0" d="M327.5,136.9c-1.1,1-2.2,1.9-3.3,2.9c-10.4-1.4-17.3-8.3-16.4-15.3"/>
	<path class="st0" d="M670.3,118.3c2.5,3.3,3.4,7,1.8,10.9c-2.3,5.8-5.1,11.3-12.7,10.9c-0.4,0-0.8-0.1-1.1,0.4"/>
	<path class="st0" d="M515.6,227.8c6.3-7.7,13.8-5,19.1,1c3,3.5,3.7,7.2,2.9,11c-0.6,3.4-3.3,6.1-6,8.4"/>
	<path class="st0" d="M684.5,134.7c1.9,1.3,3,3.3,2.4,5.4c-0.7,2.8-1.9,5.4-4.6,7c-1,0.6-2.3,1-2.9,2.1"/>
	<path class="st0" d="M361.3,390.7c1,2.6,0.2,5.2,0.3,7.8c0.1,1.6,0.2,3.2,0.8,4.7"/>
	<path class="st0" d="M423.2,244.2c4.6,1.5,10.2-0.1,13.9,4.6c1.2,1.5,2.1,2.6,2.1,4.5"/>
	<path class="st0" d="M280.5,129.2c-0.7,4.4,2.9,10.1,6.9,10.9c1.4,0.3,2.9,0.3,4-1c1.1-1.4,2.3-1.4,4-1.3c1.7,0.1,3.7-0.3,5.6-1.4
		c2-1.2,5.2-0.3,7.9-0.3"/>
	<path class="st0" d="M419.6,386.9c-0.7,4.3-2.3,8.3-3.6,12.4"/>
	<path class="st0" d="M511.6,314.4c-2.6,2.4-5.9,2-8.7,1.3c-2.6-0.6-5.2-0.1-7.7-0.9"/>
	<path class="st0" d="M542.6,375.9c0.8,4.1-0.2,8.5,2.2,12.4"/>
	<path class="st0" d="M290.7,140.1c0.9,1.2,0.9,2.6,1.2,4c0.8,3.6,4.3,4.2,6.8,5.8"/>
	<path class="st0" d="M533.1,361.4c-0.6,4.4-0.2,8.7-0.4,13.1"/>
	<path class="st0" d="M361,422.2c5.8,0.8,10.8,3,14.6,7.6"/>
	<path class="st0" d="M492,221.6c-0.9-0.1-1.9-0.1-2.5-0.7c-5.1-4.6-10.2-2.8-15.3,0c-0.5,0.3-1,0.5-1.5,0.7"/>
	<path class="st0" d="M372.3,414.5c3.9,2.3,8.8,3.2,11.3,7.6"/>
	<path class="st0" d="M310.8,134.3c-2.8,2.5-0.6,5.4-0.3,8c0.2,2.2,1.9,3.9,2.8,5.8"/>
	<path class="st0" d="M425,299.9c-4.1-0.9-8-1.1-11.6,1.5"/>
	<path class="st0" d="M303.8,429.1c-4.4,0.7-7.9,3.2-10.8,6.3c-2.5,2.6-1.3,6-0.1,9"/>
	<path class="st0" d="M641.2,144.5c1.2,2,1.5,4.4,2.1,6.6c1.3,4.9-1.9,8.3-4.7,11.6c-1.6,1.8-3.8,2.9-6.4,3.6
		c-2,0.5-3.2-0.4-4.8-0.6"/>
	<path class="st0" d="M691.4,112.8c-0.9,5.4-4.2,9.2-8.4,12.4c-2.8,2.1-5.9,3.3-9.4,1.8"/>
	<path class="st0" d="M671,133.4c2.5,1.6,3.6,4.1,2.1,7.1c-2.2,4.6-4.9,8.8-10.5,10.3c-2.5,0.7-4.7,0.7-6.9-0.5"/>
	<path class="st0" d="M394.8,410.1c-0.4,0.6-0.8,1.2-1.2,1.8c-1.7,2.3-2.7,4.8-5.2,6.9c-6.4,5.4-12.8,10.9-18.1,17.5
		c-1.3,1.6-0.7,4.1-2.8,5.2"/>
	<path class="st0" d="M568,299.2c2.3,2.3,4.4,4.4,4.9,8c0.2,1.4,1,3.3,3,4.6c2.3,1.4,4.8,3.3,5.6,6.4"/>
	<path class="st0" d="M403.5,406.5c-1-0.3-1.5,0.2-1.8,1.1c-1.1,3.2-2.9,6.1-5.5,8.4"/>
	<path class="st0" d="M491.6,285c-4.3,3.1-6,8.1-9,12.1c-0.7,0.9-1.2,0.9-1.9,1"/>
	<path class="st0" d="M307.5,400.7c3.5,2.5,2.6,6.5,2.8,9.8c0.1,3.1-4.9,5.5-8.9,4.7"/>
	<path class="st0" d="M373,461.8c-3,1-6,1.9-9.1,0.4c-0.4-0.2-0.9,0-1.5,0.3c-3.3,1.6-5.6,7.3-4.3,11"/>
	<path class="st0" d="M656.8,398.5c-3,3.9-6.1,7.5-7.2,12.7c-0.6,2.6-3.7,4.8-6.2,6.7c-1.2,0.9-2.7,1.7-3.3,3.2"/>
	<path class="st0" d="M295.8,125.6c0.3,4.1,2.9,7.2,4.7,10.6"/>
	<path class="st0" d="M700.1,84.8c-1.4,4-4.8,6.8-6.6,10.6"/>
	<path class="st0" d="M604.8,408.3c-4.3,1.2-6.9,4.1-8.7,8"/>
	<path class="st0" d="M698.1,124.5c3.1,5.4-0.9,12.3-7.1,12.4c-1.2,0-2.5-0.2-3.6,0.4"/>
	<path class="st0" d="M587.7,376.7c1.9,3.4,3.1,7,4.7,10.6"/>
	<path class="st0" d="M324.2,140.1c0.6,1.2,0.2,2.4,0.4,3.6c1,5.3,4.8,8.7,10.5,9.8c0.6,0.1,1.2,0.5,1.8,0.7"/>
	<path class="st0" d="M561.5,393.4c-0.1,3.8,1.5,7.2,2.9,10.6"/>
	<path class="st0" d="M653.2,135c0.2-0.1,0.5,0,0.7,0.4c1.3,1.7,3.9,2.6,3.9,5.1c0,3.3-0.9,7.2-2.8,9.2c-2.4,2.7-6,5.7-10.6,4.3"/>
	<path class="st0" d="M577.5,330.8c2.4,3.4,4.9,6.8,7.3,10.2"/>
	<path class="st0" d="M584.8,355.6c2,3.3,5.4,5.9,5.8,10.2"/>
	<path class="st0" d="M659,425.4c-2.5,1.6-3.7,4.3-5,6.8c-1.4,2.5,0.1,6.6,2.9,8.9c0.7,0.6,1.4,1,2.2,1.5"/>
	<path class="st0" d="M689.2,124.1c-0.9,2.5-1.6,5-3.2,7.4c-2.1,3.2-4.7,4.1-8.1,3.9c-1.2,0-2.5-0.2-3.6,0.3"/>
	<path class="st0" d="M596,399.6c-3.9,1.6-6.9,4.2-8.7,8"/>
	<path class="st0" d="M317.7,435.6c4.6,6.3,3.6,10.7-4.4,14.6"/>
	<path class="st0" d="M267.8,116.5c-0.5,4.4,2.4,7.2,4.8,10.1c0.9,1.1,2.6,0.4,3.9,0.1"/>
	<path class="st0" d="M423.2,254.4c-0.8,3.5-4.5,4.5-6.2,7.3c-2.1,3.6-4.9,6.6-8,9.5c-0.9,0.9-1.8,1.9-3.3,1.8"/>
	<path class="st0" d="M514.9,231.1c-3.7,0.4-7.2,1-9.8,4"/>
	<path class="st0" d="M257.3,103.4c-1.8,6.3,2.7,12.8,9.8,12.3c3.9-0.2,5.8,0.2,8.6,2.7c1.5,1.3,5.3,0.6,7.8-0.8"/>
	<path class="st0" d="M287.1,128.1c-0.3,4.4,2.9,6.7,5.5,9.5"/>
	<path class="st0" d="M299.5,137.9c0.7,2.4,0.1,5.1,1.8,7.3c2.7,3.6,6.6,4,10.6,4.3"/>
	<path class="st0" d="M412.1,254.8c0.6,1,0.7,2.1,0.5,3.3c-0.3,2.3,0.2,4.4,1.8,6.2"/>
	<path class="st0" d="M629.2,228.9c-3.7,1.2-7.2-1.1-10.9-0.7"/>
	<path class="st0" d="M279.6,105.6c1.3,1.9,1.2,4.3,2.7,6.2c2.6,3.3,5.3,4.3,8.8,2.5c0.8-0.5,1.5-1.2,2.6-1"/>
	<path class="st0" d="M659.4,410.3c-1.6-1.3-3.2-0.2-4.7,0.3c-1.6,0.5-3.1,1-4.8,1"/>
	<path class="st0" d="M295.5,110.3c-2.4,3.2-0.5,6.2,0.7,9.1c0.5,1.1,2,1.7,1.8,3.3"/>
	<path class="st0" d="M471.6,223.8c2.5,2.4,4.9,4.9,4.7,8.7"/>
	<path class="st0" d="M692.8,187.8c0,1.6,0.6,2.8,2.2,3.7c2,1,3.5,2.6,5.1,4.2"/>
	<path class="st0" d="M431.6,259.5c1.6,2.8-0.1,6.2,1.5,9.1"/>
	<path class="st0" d="M370.4,400.3c0.6,1.5-0.3,2.9,0,4.4c0.1,0.6-0.5,1.4,0.7,1.9c0.9,0.3,3.1,0.3,2.1,2.1c-1,1.9,0.3,4.6-2.8,6
		c-3.1,1.4-5.6,4-7.3,7.1"/>
	<path class="st0" d="M475.2,246c-0.4,2.5-0.3,5.2-2.1,7.3c-0.5,0.6,0.1,1.7,0.2,2.5c0.5,3.8,1.4,7.6-0.6,11.3"/>
	<path class="st0" d="M284.6,115.4c-0.7,3.2,1.2,7.8,4,9.6c1.2,0.8,6.9,0,8.4-1.3c1-0.9,1.9-1.6,3.3-0.7c2.1,1.4,4.6,0.3,6.9,1.1
		c2.2,0.7,2.7-2.1,4.4-2.5"/>
	<path class="st0" d="M574.6,318.4c1.4,3.2,3.1,6.2,5.1,9.1"/>
	<path class="st0" d="M307.5,445.1c6.8,4,7,7.8,2.2,14.2"/>
	<path class="st0" d="M702.7,115.4c-1.1,1.3-1,3-1.8,4.4c-2.9,5.6-8.7,6.6-13.2,2.2"/>
	<path class="st0" d="M534.9,301c1.4,1.3,3.2,0.8,4.7,1.2c1.4,0.4,3.1,0.7,4,2.1"/>
	<path class="st0" d="M280.9,103c-3.1,4.2-9.6,5-13.1,1.4c-1.8-1.8-4.3-3.1-4.9-6.1c-0.3-1.3,0-2.2,0.5-3.3"/>
	<path class="st0" d="M608.1,437.1c2.9,3.9,4.6,8.2,4.7,13.1c0,0.1,0.4,0.3,0.3,0.4c-1.8,4-0.6,7.8,0.4,11.7c0.1,0.4-0.2,1-0.3,1.4"
		/>
	<path class="st0" d="M499.6,216.2c-2.8,1.4-5.9,2.5-7.4,5.9c1.2,2.9,5.6,4.2,4.5,8.3"/>
	<path class="st0" d="M421.7,258c2.1,4.8,1.8,9.5-0.4,14.2"/>
	<path class="st0" d="M590.2,372.7c-0.6-2-1.9-3.7-2.9-5.5c-0.5-1-1.2-0.6-1.9-0.7"/>
	<path class="st0" d="M374.1,312.3c-1,3.2-3.6,5.3-5.8,7.6"/>
	<path class="st0" d="M446.5,256.2c-4.6-4.3-11.1-2-15.1,2.1c-2.5,2.6-4.4,5.8-7.5,7.8"/>
	<path class="st0" d="M324.2,150c-0.8-0.8-1.7-0.1-2.5,0c-3,0.2-6.1,0.8-8.4-2.2c-2,4.8-0.9,9.1,2.2,11.8c1.1,1,2.9,1.1,3.3,2.9"/>
	<path class="st0" d="M581.5,343.9c1,3.2,4,5,5.8,7.6"/>
	<path class="st0" d="M632.4,280.6c-0.5-1.7,1.9-3.4,0-5.1c-1.8-1.5-3.4-3.4-6.2-2.6"/>
	<path class="st0" d="M351.1,330.5c1.8,1.5,2.9,3.7,5.4,4.4c0.5,0.1,0.4,1.1,0.4,1.8"/>
	<path class="st0" d="M766.7,103.7c-2.8,2.4-5.6,4.9-8.4,7.3"/>
	<path class="st0" d="M655,393c1.7,4.9,4.5,8.6,10.2,9.1"/>
	<path class="st0" d="M406.1,259.5c0.1,2.8-2,5-1.6,8c0.3,2.3,1,4.6,1.1,6.9"/>
	<path class="st0" d="M250.7,96.8c1.4,1.3,2.1,3.2,3.6,4.4c2.5,2,5.9,2.2,9.1,0.4"/>
	<path class="st0" d="M457.4,370.5c4.6-0.6,6.3,3.6,8.5,6.1c1.4,1.6,2.9,2.7,4.6,3.8"/>
	<path class="st0" d="M275.5,119c-0.7,3.6,1.5,8.2,4.4,9.5c2.3,1,7.4-0.9,8.9-3.3"/>
	<path class="st0" d="M429,227.1c0.2,1.8-1,3.2-1.5,4.7c-0.3,0.8-0.5,1.7-0.2,2.2c1.9,3.8-0.5,6.7-1.9,9.9"/>
	<path class="st0" d="M270.4,107c-1.3,2.6,0.8,4.8,0.7,7.3"/>
	<path class="st0" d="M391.2,256.2c1.7,2.4,5,0.9,6.9,2.7"/>
	<path class="st0" d="M521.8,338.8c-3.6-2.9-7.8-2.8-12-2.2"/>
	<path class="st0" d="M567.3,397c0.6,2.3,1.9,4.4,2.9,6.6"/>
	<path class="st0" d="M485.1,360.3c-2-3.8-5.5-4.9-9.5-5.1"/>
</g>
</svg>
