<?xml version="1.0" encoding="utf-8"?>
<!-- Generator: Adobe Illustrator 21.0.0, SVG Export Plug-In . SVG Version: 6.00 Build 0)  -->
<svg version="1.1" id="Layer_1" xmlns="http://www.w3.org/2000/svg" xmlns:xlink="http://www.w3.org/1999/xlink" x="0px" y="0px"
	 width="792px" height="612px" viewBox="0 0 792 612" style="enable-background:new 0 0 792 612;" xml:space="preserve">
<style type="text/css">
	.st0{fill:#FFFFFF;}
</style>
<g>
	<path class="st0" d="M91.9,298c-38.8,0-70.4-31.6-70.4-70.4c0-38.8,31.6-70.4,70.4-70.4s70.4,31.6,70.4,70.4
		C162.3,266.4,130.7,298,91.9,298z"/>
	<path d="M91.9,157.8c38.5,0,69.9,31.3,69.9,69.9s-31.3,69.9-69.9,69.9S22,266.2,22,227.6S53.4,157.8,91.9,157.8 M91.9,156.8
		c-39.1,0-70.9,31.7-70.9,70.9s31.7,70.9,70.9,70.9s70.9-31.7,70.9-70.9S131,156.8,91.9,156.8L91.9,156.8z"/>
</g>
</svg>
