<?xml version="1.0" encoding="utf-8"?>
<!-- Generator: Adobe Illustrator 21.0.0, SVG Export Plug-In . SVG Version: 6.00 Build 0)  -->
<svg version="1.1" id="Layer_1" xmlns="http://www.w3.org/2000/svg" xmlns:xlink="http://www.w3.org/1999/xlink" x="0px" y="0px"
	 width="892.9px" height="1080px" viewBox="0 0 892.9 1080" style="enable-background:new 0 0 892.9 1080;" xml:space="preserve">
<style type="text/css">
	.st0{fill:#FFFFFF;}
</style>
<g>
	<path class="st0" d="M105.4,315.4C66.6,315.4,35,283.8,35,245c0-38.8,31.6-70.4,70.4-70.4c38.8,0,70.4,31.6,70.4,70.4
		C175.7,283.8,144.2,315.4,105.4,315.4z"/>
	<path d="M105.4,175.2c38.5,0,69.9,31.3,69.9,69.9s-31.3,69.9-69.9,69.9S35.5,283.6,35.5,245S66.9,175.2,105.4,175.2 M105.4,174.2
		c-39.1,0-70.9,31.7-70.9,70.9c0,39.1,31.7,70.9,70.9,70.9s70.9-31.7,70.9-70.9C176.2,205.9,144.5,174.2,105.4,174.2L105.4,174.2z"
		/>
</g>
</svg>
