<svg width="1656" height="2003" version="1.1" xmlns="http://www.w3.org/2000/svg" desc="Created with imagetracer.js version 1.1.2" ><path desc="l 0 p 0" fill="rgb(156,156,156)" stroke="rgb(156,156,156)" stroke-width="1" opacity="0" d="M 0.5 0 L 1656 0.5 L 1655.5 2003 L 0 2002.5 L 0.5 0 Z" /><path desc="l 1 p 0" fill="rgb(0,0,0)" stroke="rgb(0,0,0)" stroke-width="1" opacity="0.8274509803921568" d="M 1255.5 46 Q 1265.9 44.6 1269 50.5 Q 1270.3 57.8 1266.5 60 L 1264 61.5 Q 1248.7 75.7 1239.5 96 L 1230.5 115 L 1225 128.5 L 1209.5 177 Q 1202.8 194.8 1199 215.5 L 1193 249.5 L 1193 255.5 L 1192 259.5 L 1191 323.5 L 1192.5 329 Q 1193.7 326.8 1198.5 328 Q 1200.8 329.8 1200 334.5 L 1196 345.5 L 1195 362.5 L 1197.5 374 L 1199 387.5 L 1200.5 402 L 1202 415.5 L 1203 428.5 L 1204 442.5 L 1206 455.5 L 1212 475.5 L 1218 494.5 L 1225 520.5 L 1229 537.5 L 1230.5 547 L 1231 557.5 L 1230 559.5 L 1231 563.5 L 1231 573.5 L 1232 609.5 Q 1229.8 610.8 1231 615.5 L 1230 631.5 L 1225.5 657 L 1220 680.5 L 1214 696.5 L 1208 710.5 L 1196 735.5 L 1183.5 759 L 1172 777.5 Q 1155.6 803.1 1134.5 824 L 1102 853.5 L 1083.5 867 Q 1077 873.5 1067 876.5 Q 1063.1 880.1 1054.5 879 L 1050 876.5 Q 1046 873 1048 863.5 L 1059 832.5 L 1067 815.5 Q 1072.7 806.7 1075 794.5 L 1077 784.5 L 1078 776.5 Q 1075.8 775.3 1077 770.5 L 1070.5 762 Q 1062.5 757 1047.5 759 L 1028.5 766 Q 1015.7 770.8 1006.5 779 Q 970.7 799.7 944 829.5 L 930 845.5 L 921 859.5 Q 928.5 868.5 928 885.5 L 927 888.5 Q 935.2 891.8 940 898.5 L 943.5 907 L 945.5 915 L 946 921.5 L 944 927.5 Q 952.3 934.7 951 951.5 L 948.5 959 L 945 966.5 Q 953 971.5 952 985.5 Q 948.9 997.4 940.5 1004 L 938 1005.5 L 942 1014.5 L 943.5 1021 L 944 1028.5 Q 941.7 1039.7 934.5 1046 L 928 1050.5 Q 925.1 1062.1 916.5 1068 L 911 1071.5 Q 911.9 1079.6 916 1084.5 Q 920.3 1096.3 927.5 1105 L 935 1114.5 L 949.5 1129 L 965 1140.5 Q 970.6 1146.4 979.5 1149 L 999 1157.5 L 1011.5 1162 L 1030.5 1163 Q 1048.2 1160.2 1058 1149.5 L 1061.5 1139 L 1063.5 1129 L 1064 1116.5 L 1057 1098.5 L 1043 1074.5 L 1035 1061.5 Q 1029.6 1058.4 1029 1050.5 L 1030 1048.5 L 1031 1045.5 L 1034.5 1042 L 1041 1040.5 L 1048.5 1040 Q 1049.8 1042.3 1054.5 1041 Q 1062.8 1039.8 1067.5 1042 L 1085 1050.5 L 1103.5 1061 Q 1114.3 1067.3 1122 1076.5 L 1134.5 1091 L 1140 1095.5 L 1160 1118.5 Q 1179.1 1139.9 1193 1166.5 L 1212.5 1207 L 1220.5 1226 L 1230 1252.5 L 1233 1261.5 L 1235 1270.5 L 1237 1278.5 L 1239 1299.5 L 1241 1311.5 Q 1239.8 1316.2 1242 1317.5 L 1244 1349.5 L 1246 1387.5 Q 1243.8 1388.8 1245 1393.5 L 1245 1401.5 L 1244 1405.5 L 1243 1418.5 L 1240 1439.5 L 1235.5 1461 L 1231 1479.5 Q 1227.3 1486.8 1229 1499.5 L 1228 1507.5 Q 1229.3 1513.8 1225.5 1515 L 1224 1515.5 L 1222 1525.5 L 1219.5 1544 L 1219 1576.5 L 1220 1579.5 L 1220 1585.5 L 1216.5 1588 L 1208.5 1583 L 1200 1608.5 L 1196.5 1619 L 1196 1630.5 L 1197 1634.5 L 1197 1643.5 L 1200.5 1673 L 1205 1707.5 L 1210 1739.5 L 1215 1766.5 L 1220 1788.5 L 1229 1822.5 Q 1237.5 1857.5 1251 1887.5 Q 1260.2 1913.3 1274.5 1934 L 1281 1944.5 Q 1284 1946.5 1283 1952.5 L 1274 1958.5 Q 1269.2 1961.7 1259.5 1960 L 1251.5 1958 L 1246.5 1956 L 1231.5 1948 Q 1195.9 1926.6 1169 1896.5 L 1142.5 1863 L 1140.5 1893 L 1140 1928.5 Q 1142.3 1929.8 1141 1934.5 L 1144 1954.5 L 1140.5 1959 L 1131.5 1960 L 1122 1957.5 Q 1109.4 1954.6 1102 1946.5 L 1089 1930.5 L 1080 1918.5 L 1069 1898.5 L 1050.5 1862 Q 1036.1 1831.9 1028.5 1795 L 1027.5 1807 L 1027 1842.5 L 1028 1847.5 L 1028 1862.5 L 1029 1865.5 L 1029 1872.5 L 1029.5 1882 L 1031 1896.5 Q 1029.8 1901.3 1032 1902.5 L 1033 1927.5 L 1030.5 1932 L 1026.5 1933 L 1017.5 1933 Q 1006.7 1928.8 1000 1920.5 Q 987.1 1908.4 979.5 1891 L 964 1857.5 Q 955.7 1839.3 951 1817.5 L 948.5 1803 L 946.5 1790 L 946 1782.5 L 944 1772.5 Q 944.8 1767.8 942.5 1766 L 933 1803.5 L 932 1810.5 L 930 1819.5 L 928 1835.5 L 927 1853.5 L 925 1877.5 Q 925.7 1889.2 918.5 1893 L 914.5 1894 L 906 1887.5 L 887 1861.5 Q 879.5 1853.5 876 1841.5 L 867.5 1819 L 863 1800.5 L 860 1779.5 L 859.5 1766 L 859 1722.5 L 860 1719.5 L 860 1712.5 L 861 1689.5 L 868 1644.5 L 867 1644.5 L 828.5 1730 L 820 1751.5 L 813 1765.5 Q 811.8 1771.3 807.5 1774 Q 802 1773.6 800 1769.5 L 793 1747.5 L 788 1724.5 L 785.5 1708 L 785 1696.5 L 785 1661.5 L 786 1657.5 L 787 1648.5 L 794 1617.5 L 805 1583.5 L 835 1504.5 L 832 1506.5 L 808.5 1538 L 778.5 1576 Q 772 1577 771 1572.5 L 767.5 1560 L 765 1548.5 L 762 1531.5 L 761 1519.5 L 762 1516.5 L 762 1509.5 L 766 1489.5 L 773 1465.5 L 776 1455.5 L 782.5 1440 Q 789.8 1422.8 800 1408.5 L 798.5 1408 L 769 1428.5 L 761.5 1434 Q 759.2 1437.2 752.5 1436 Q 747.8 1432.8 748 1424.5 L 747 1415.5 L 748 1411.5 L 748 1402.5 Q 750.2 1386.7 757.5 1376 L 774 1349.5 L 772.5 1349 L 750.5 1364 L 744.5 1368 Q 743.1 1370.6 738.5 1370 Q 732.9 1368.1 734 1359.5 L 734 1344.5 Q 742.7 1315.2 762 1296.5 L 760.5 1296 L 746 1306.5 L 740.5 1310 Q 738.2 1312.7 732.5 1312 Q 727.4 1309.6 728 1301.5 L 728 1288.5 Q 735.2 1258.2 755 1240.5 L 753.5 1240 L 735.5 1254 L 727 1259.5 Q 724.7 1262.7 718.5 1262 Q 713.9 1260.1 715 1252.5 L 716 1247.5 L 717 1238.5 L 723 1219.5 L 732 1203.5 L 730.5 1203 Q 729 1206.5 722.5 1205 L 719 1200.5 L 718 1193.5 Q 723.3 1175.3 733 1161.5 L 731.5 1161 L 703.5 1182 L 684 1198.5 L 683.5 1200 L 676 1206.5 L 662.5 1222 L 653 1237.5 L 650 1243.5 L 649 1248.5 Q 647.6 1256.6 641.5 1260 L 631.5 1265 Q 627.7 1267.7 619.5 1266 Q 617.8 1263.3 611.5 1265 L 603.5 1263 L 596 1257.5 L 594.5 1254 L 583.5 1253 L 583 1256.5 Q 585.9 1264.6 592.5 1269 Q 611.9 1274.1 622 1288.5 L 631.5 1304 Q 636.4 1309.1 635 1320.5 L 634 1322.5 Q 638.7 1326.3 637 1336.5 Q 635 1347 628.5 1353 L 617.5 1359 Q 614.6 1362.6 606.5 1361 L 600.5 1359 Q 599 1361.5 593.5 1360 L 588.5 1359 L 573.5 1352 L 559 1338.5 L 552.5 1331 Q 545.3 1339.3 535 1344.5 L 524.5 1349 Q 513 1357 492.5 1356 L 480 1347.5 L 473 1329.5 L 469.5 1320 L 467 1306.5 Q 469.3 1305.3 468 1300.5 Q 469.4 1290 476.5 1285 L 484.5 1282 L 488 1286.5 Q 485.5 1288 487 1293.5 L 491.5 1305 L 495 1302.5 L 496.5 1300 Q 501.2 1295.7 510 1295.5 Q 506.6 1290.4 508 1280.5 L 514 1264.5 Q 512.3 1261.3 505.5 1263 L 488.5 1262 Q 476.4 1263.6 471 1258.5 L 468.5 1252 L 468 1247.5 L 467 1241.5 L 471 1223.5 L 466.5 1221 Q 461.4 1224.4 453 1224.5 Q 453 1237.5 458.5 1245 Q 462.5 1247 463 1252.5 L 458.5 1255 L 446.5 1251 Q 437.2 1248.3 433 1240.5 L 426 1223.5 L 423.5 1216 L 423 1207.5 L 424 1204.5 L 424 1195.5 L 411 1191.5 Q 403 1190 399 1184.5 L 397.5 1179 L 397 1173.5 L 402 1159.5 L 411.5 1144 L 421.5 1130 L 439.5 1109 L 446 1104.5 L 430.5 1100 L 418.5 1093 L 402.5 1083 L 388 1072.5 Q 384 1069 386 1059.5 Q 393 1044.5 405.5 1035 L 417.5 1028 L 431 1021.5 Q 416.4 1007.1 398 996.5 Q 387.7 991.8 381 983.5 L 379 978.5 L 378 974.5 Q 379.1 967.1 384.5 964 L 410 943.5 Q 417.4 934.4 431.5 932 L 442 929.5 L 420.5 922 L 404.5 916 L 391 909.5 Q 380.3 904.2 373 895.5 Q 369.9 891.1 371 882.5 L 378.5 874 L 397 862.5 Q 406.6 855.1 424.5 856 L 450 855.5 L 414.5 833 Q 402.1 827.4 394 817.5 L 389 810.5 Q 385.8 807.2 387 799.5 Q 390.4 788.4 399.5 783 L 412.5 774 L 417.5 771 L 428 769.5 Q 411.8 765.7 401 756.5 Q 397.5 753 397 746.5 L 399 742.5 L 400 735.5 L 399 731.5 L 399 719.5 L 404 705.5 Q 408.3 690.8 419.5 683 Q 426.7 676.7 438.5 675 L 442 679.5 Q 429 688.5 430 711.5 L 431.5 714 L 440.5 714 L 445.5 715 L 453.5 721 L 473 690.5 L 479 683.5 L 482 678.5 L 483 674.5 Q 479.8 670.2 480 662.5 L 480 648.5 L 483 642.5 L 475.5 633 L 467.5 632 L 458.5 628 L 455.5 639 L 455 648.5 L 456 653.5 L 452.5 656 L 448 652.5 L 439 635.5 Q 435 630 434.5 621 L 434 609.5 L 437 602.5 L 434.5 599 Q 432.3 597.3 433 592.5 L 441.5 582 Q 451.2 575.2 468.5 576 L 480.5 581 L 493.5 586 Q 496.8 582.8 504.5 584 L 513 590.5 L 519.5 601 L 521 600.5 Q 529.5 587 541.5 577 L 551.5 571 L 559 567.5 L 560.5 565 Q 564 562.5 571.5 564 Q 588.1 568.4 598 579.5 Q 605.5 588 606 603.5 L 599 618.5 L 596 623.5 L 595 632.5 Q 596.3 644.8 589.5 649 L 571 659.5 Q 561.3 663.8 555 671.5 L 555.5 673 L 566.5 669 L 575 666.5 L 579.5 661 L 586.5 660 Q 602.8 662.8 610 674.5 L 618.5 691 L 623.5 690 Q 636.4 701.6 644 718.5 L 651.5 737 L 656.5 753 Q 660.4 747.4 659 736.5 L 655 716.5 L 650.5 704 L 641.5 686 L 631.5 671 L 622.5 660 Q 615.9 659.1 613 654.5 L 613.5 650 L 628.5 643 L 641 639.5 L 660.5 639 Q 674.2 641.8 682.5 650 L 699 663.5 Q 707 671.5 711 683.5 L 715 694.5 Q 715.3 699.3 718.5 701 L 730.5 704 L 739 710.5 L 742.5 718 L 748.5 716 L 755.5 715 L 757.5 716 L 758 714.5 Q 748 700.5 742 682.5 L 739 674.5 L 736.5 665 L 736 655.5 L 738.5 651 L 745.5 650 L 764.5 663 L 765 661.5 Q 753.9 646.6 748 626.5 Q 740.3 617.2 741 599.5 Q 743.4 593.9 751.5 594 L 770.5 602 L 770 600.5 Q 761.2 584.3 756 564.5 L 751.5 548 L 748.5 533 Q 745.5 525.5 747 513.5 L 750.5 509 Q 757.2 508.3 760.5 511 L 768.5 516 L 792.5 533 L 793 531.5 Q 785.2 522.3 782 508.5 L 775 487.5 Q 770.8 479.7 769.5 469 L 766.5 454 L 765.5 449 L 765 441.5 L 765 419.5 L 766 415.5 Q 767.6 408.6 773.5 406 Q 780 405 782 408.5 L 791.5 417 L 819.5 442 L 820 440.5 L 807 414.5 Q 802.3 404.7 801.5 391 L 801 360.5 Q 803.5 359 802 353.5 L 803 337.5 L 805 323.5 L 805.5 313 L 809 303.5 L 812 295.5 L 819.5 286 Q 821.8 283.3 827.5 284 L 835 290.5 L 898.5 378 L 899 376.5 L 894 363.5 L 887 340.5 L 886.5 336 L 884 327.5 L 883 315.5 L 883 294.5 L 884 291.5 L 884 285.5 L 885 262.5 Q 887.3 259.3 886 252.5 Q 886.6 241.1 891 233.5 L 900.5 200 L 903 190.5 Q 904.9 181.9 910.5 177 L 916.5 175 L 922 179.5 L 930.5 204 L 941 231.5 L 968.5 306 L 969 302.5 L 966.5 291 L 963.5 271 L 962 256.5 L 961 235.5 Q 963.5 234 962 228.5 L 962 210.5 L 966 193.5 Q 965.4 187.4 968 184.5 L 973 168.5 L 981 151.5 Q 993.8 127.8 1013.5 111 L 1021.5 107 L 1029.5 106 Q 1035.9 109.6 1038 117.5 L 1039 130.5 L 1040.5 144 L 1041.5 161 L 1056 135.5 Q 1067.9 113.9 1086.5 99 L 1091 95.5 L 1103.5 82 L 1110.5 78 L 1115 81.5 L 1117 103.5 L 1118 124.5 Q 1116.4 135.6 1119.5 142 Q 1131.7 110.2 1155.5 90 Q 1174.8 72.8 1200.5 62 Q 1216.8 53.3 1237.5 49 L 1251.5 47 L 1255.5 46 Z" /><path desc="l 0 p 1" fill="rgb(156,156,156)" stroke="rgb(156,156,156)" stroke-width="1" opacity="0" d="M 1256.5 53 L 1262 53.5 L 1260.5 56 L 1259 56.5 L 1246.5 71 Q 1239.3 78.8 1235 89.5 L 1225.5 109 L 1215 135.5 L 1201 182.5 L 1196 197.5 L 1191 219.5 L 1187 239.5 L 1185 268.5 L 1184.5 280 L 1184 324.5 L 1186 333.5 Q 1175.6 342.1 1169 354.5 Q 1162.9 361.9 1160.5 373 L 1150 356.5 L 1141.5 343 L 1130.5 330 Q 1118 321.5 1115 303.5 Q 1112.5 302 1114 296.5 Q 1115 291 1111.5 290 L 1108.5 291 L 1105 294.5 Q 1104 303 1099.5 308 L 1099 306.5 L 1100 302.5 L 1101 292.5 L 1102 277.5 L 1110.5 207 L 1116 178.5 Q 1117.2 166.2 1122 157.5 Q 1133.1 118.1 1160.5 95 Q 1179.7 77.7 1206 67.5 Q 1218.6 60.1 1235.5 57 L 1256.5 53 Z" /><path desc="l 0 p 2" fill="rgb(156,156,156)" stroke="rgb(156,156,156)" stroke-width="1" opacity="0" d="M 1107.5 88 L 1109 88.5 L 1113 162.5 L 1110 172.5 L 1106 191.5 L 1103 209.5 L 1101 227.5 L 1094 289.5 L 1092 310.5 L 1091 327.5 L 1092 332.5 L 1089 341.5 L 1088 348.5 L 1088 360.5 L 1089 365.5 L 1092 372.5 L 1081 362.5 L 1064.5 334 Q 1060 333 1059 335.5 L 1056 346.5 L 1054 364.5 L 1052.5 392 Q 1042.1 370.4 1038.5 342 L 1035 314.5 L 1034 298.5 L 1033 293.5 L 1033 282.5 L 1031 221.5 L 1032 216.5 L 1033 206.5 L 1035 195.5 L 1038 186.5 L 1049 161.5 L 1061.5 139 Q 1070.7 123.2 1083.5 111 L 1096 100.5 L 1107.5 88 Z" /><path desc="l 0 p 3" fill="rgb(156,156,156)" stroke="rgb(156,156,156)" stroke-width="1" opacity="0" d="M 1024.5 113 Q 1029.5 112.5 1030 116.5 L 1031.5 123 L 1032 128.5 L 1033 140.5 L 1034 161.5 L 1035 175.5 Q 1030 183.5 1028 194.5 L 1025 209.5 L 1024 243.5 L 1025 247.5 L 1025 257.5 L 1026 286.5 L 1026 295.5 L 1027 300.5 L 1028 314.5 L 1029 324.5 Q 1027.8 329.3 1030 330.5 L 1033 351.5 L 1039 375.5 L 1037.5 376 L 1035.5 376 L 1032 378.5 L 1029 391.5 L 1028 400.5 L 1028 417.5 L 1032 435.5 L 1030.5 436 L 1010 417.5 L 1001.5 408 L 999.5 407 L 996.5 409 L 988.5 372 L 983.5 348 L 980.5 330 L 978 314.5 L 974 294.5 L 971 272.5 L 969.5 262 L 969 249.5 L 969 212.5 L 972 197.5 Q 974.1 183.6 979 172.5 L 987.5 154 Q 998.4 134.9 1013.5 120 L 1024.5 113 Z" /><path desc="l 0 p 4" fill="rgb(156,156,156)" stroke="rgb(156,156,156)" stroke-width="1" opacity="0" d="M 914.5 183 L 916 183.5 L 932 229.5 L 943 256.5 L 961 306.5 L 973.5 345 Q 977.2 347.8 977.5 354 L 980 365.5 L 987 399.5 L 991 421.5 L 993 428.5 Q 995.3 431.7 994 438.5 L 995 452.5 L 999 469.5 L 997.5 469 L 980 453.5 L 964.5 436 Q 959 435 958 438.5 L 951.5 470 L 939 447.5 L 925.5 421 L 915 397.5 L 906.5 377 L 901.5 364 L 897 348.5 L 892 328.5 L 890.5 321 L 890 314.5 L 890 295.5 L 891 292.5 L 891 286.5 L 892 263.5 Q 894.3 260.3 893 253.5 L 895 241.5 L 898 232.5 L 903.5 217 L 907 203.5 L 910 192.5 L 914.5 183 Z" /><path desc="l 0 p 5" fill="rgb(156,156,156)" stroke="rgb(156,156,156)" stroke-width="1" opacity="0" d="M 825.5 291 Q 837.9 303.6 847 319.5 L 882 367.5 L 901 395.5 Q 903.3 403.3 908.5 408 L 912 408.5 L 925 436.5 L 940.5 464 L 949 480.5 L 953 486.5 L 955 495.5 L 944 485.5 L 934.5 474 L 928.5 473 L 926 478.5 L 924.5 489 L 922.5 505 L 922 515.5 Q 924.2 516.8 923 521.5 L 924 535.5 L 929 554.5 L 915 541.5 L 901.5 525 L 893.5 526 L 869.5 498 Q 850.2 477.8 835 453.5 Q 824.5 438 817 419.5 L 812 408.5 L 809 393.5 L 808 382.5 L 808 361.5 L 809 358.5 L 809 352.5 L 810 339.5 L 811 330.5 L 812 325.5 Q 810.3 311.8 816 305.5 L 819 298.5 L 823.5 292 L 825.5 291 Z" /><path desc="l 0 p 6" fill="rgb(156,156,156)" stroke="rgb(156,156,156)" stroke-width="1" opacity="0" d="M 1107.5 308 L 1109 308.5 Q 1111.5 322.5 1120.5 330 L 1132 343.5 L 1139 351.5 L 1149.5 369 Q 1155.6 376.4 1157 388.5 L 1154 398.5 Q 1155.8 404.8 1153 406.5 L 1151.5 428 Q 1148.1 417.4 1141.5 410 Q 1134.6 409.1 1133 413.5 Q 1130 416.5 1130 422.5 L 1126.5 433 L 1124.5 441 L 1112.5 413 L 1102 381.5 L 1097 365.5 Q 1093.3 358.3 1095 345.5 L 1098 336.5 L 1099 330.5 L 1107.5 308 Z" /><path desc="l 0 p 7" fill="rgb(156,156,156)" stroke="rgb(156,156,156)" stroke-width="1" opacity="0" d="M 1190.5 339 L 1191 340.5 Q 1186.2 348.8 1188 363.5 L 1190 371.5 Q 1187.8 372.8 1189 377.5 L 1194 406.5 L 1195.5 423 L 1196 450.5 L 1195 454.5 L 1192.5 472 L 1191 480.5 L 1188 492.5 Q 1187.7 500.7 1183.5 505 L 1177 503.5 L 1165.5 468 L 1161 448.5 L 1159 435.5 L 1159 418.5 L 1160 415.5 L 1160 408.5 L 1166 378.5 Q 1173.3 353.8 1190.5 339 Z" /><path desc="l 0 p 8" fill="rgb(156,156,156)" stroke="rgb(156,156,156)" stroke-width="1" opacity="0" d="M 1063.5 347 Q 1070.3 362.2 1081.5 373 L 1092.5 385 L 1095.5 384 L 1105 412.5 L 1115 438.5 L 1120 447.5 L 1122.5 454 Q 1126.3 455.3 1125 461.5 L 1123 460.5 L 1115.5 446 L 1112.5 445 L 1108 448.5 Q 1104.5 456.5 1104 467.5 L 1103 475.5 L 1102 488.5 L 1101.5 508 L 1098 500.5 L 1094 492.5 L 1087 478.5 L 1072 442.5 L 1065 423.5 L 1063 416.5 L 1061 405.5 L 1060 374.5 Q 1062.3 373.2 1061 368.5 L 1062 355.5 L 1063.5 347 Z" /><path desc="l 0 p 9" fill="rgb(156,156,156)" stroke="rgb(156,156,156)" stroke-width="1" opacity="0" d="M 1037.5 387 L 1052.5 408 L 1055 409.5 L 1055.5 415 L 1057 421.5 L 1061 433.5 L 1069 453.5 L 1087 496.5 L 1082.5 506 L 1078.5 522 L 1052.5 476 L 1044.5 459 L 1041.5 450 L 1039 437.5 L 1036.5 423 L 1035 411.5 L 1035 395.5 L 1037.5 387 Z" /><path desc="l 0 p 10" fill="rgb(156,156,156)" stroke="rgb(156,156,156)" stroke-width="1" opacity="0" d="M 776.5 413 L 834 465.5 Q 853 492 875 515.5 Q 884.1 522.9 890 533.5 Q 884.8 544.3 887 562.5 L 890 579.5 L 880.5 571 L 872.5 567 L 868 570.5 L 866 580.5 L 867.5 588 L 868 599.5 L 859.5 592 L 827 560.5 L 802 531.5 Q 796.3 527.2 794 519.5 L 789 508.5 L 780 480.5 L 776.5 468 L 774 452.5 Q 771.1 448.9 772 441.5 L 772 420.5 L 776.5 413 Z" /><path desc="l 0 p 11" fill="rgb(156,156,156)" stroke="rgb(156,156,156)" stroke-width="1" opacity="0" d="M 1138.5 418 Q 1150.2 438.3 1156.5 464 L 1160.5 479 L 1165.5 494 L 1168 500.5 L 1169 506.5 L 1161 513.5 L 1159.5 516 L 1153.5 515 L 1141.5 520 L 1137 505.5 L 1135 496.5 L 1133.5 487 L 1133 477.5 L 1132.5 468 L 1132 439.5 L 1138.5 418 Z" /><path desc="l 0 p 12" fill="rgb(156,156,156)" stroke="rgb(156,156,156)" stroke-width="1" opacity="0" d="M 1002.5 419 L 1010.5 428 L 1034 448.5 Q 1034.9 457.6 1039 463.5 L 1044 474.5 L 1055 495.5 L 1076.5 532 L 1078 532.5 L 1077 540.5 L 1076.5 552 Q 1070.3 539.2 1060.5 530 Q 1054 529 1053 533.5 L 1050.5 540 Q 1033.7 521.3 1020 499.5 Q 1010 488 1007 469.5 L 1002 451.5 L 1001.5 445 L 1001 422.5 L 1002.5 419 Z" /><path desc="l 0 p 13" fill="rgb(156,156,156)" stroke="rgb(156,156,156)" stroke-width="1" opacity="0" d="M 963.5 446 L 968 449.5 L 984.5 468 L 1004 484.5 Q 1010.6 501.9 1022 514.5 L 1035 532.5 L 1045 544.5 Q 1048.9 546.1 1048 552.5 L 1048 567.5 L 1046 566.5 Q 1042 557.5 1034.5 552 Q 1029 552.5 1027 556.5 L 1024 566.5 L 1022.5 574 L 1022 580.5 L 1021 590.5 L 1022 592.5 L 1019 590.5 L 1011 576.5 L 1006.5 570 L 1003 568.5 L 975.5 527 L 966 506.5 L 961 490.5 L 959.5 480 L 959 467.5 L 963.5 446 Z" /><path desc="l 0 p 14" fill="rgb(156,156,156)" stroke="rgb(156,156,156)" stroke-width="1" opacity="0" d="M 1113.5 457 L 1124 478.5 L 1126 484.5 L 1127 493.5 L 1130 505.5 L 1132.5 516 L 1136 526.5 Q 1132.6 530.1 1132.5 537 L 1124 539.5 L 1115.5 544 L 1112.5 534 L 1111 528.5 L 1110 519.5 L 1109 505.5 L 1109 481.5 L 1110 477.5 L 1111 469.5 L 1111.5 464 L 1113.5 457 Z" /><path desc="l 0 p 15" fill="rgb(156,156,156)" stroke="rgb(156,156,156)" stroke-width="1" opacity="0" d="M 1201.5 464 L 1218.5 528 L 1222.5 552 L 1223.5 561 L 1224 575.5 L 1225 608.5 L 1224 612.5 L 1223.5 620 L 1222.5 634 L 1221 643.5 L 1218 660.5 L 1213 679.5 L 1208 692.5 L 1201.5 708 L 1189.5 733 L 1167 772.5 Q 1150.6 798.1 1129.5 819 L 1099.5 846 Q 1088.6 856.6 1074.5 864 L 1064.5 870 Q 1062.2 872.7 1056.5 872 Q 1053.5 870.5 1055 864.5 L 1066 835.5 L 1074.5 815 L 1078.5 807 L 1081.5 798 Q 1085.2 788.2 1085 774.5 L 1083 767.5 Q 1080.9 759.6 1074.5 756 L 1070 754.5 L 1064 752.5 L 1058.5 752 L 1051.5 751 L 1035.5 756 L 1014 765.5 L 990 781.5 Q 961.2 799.7 939 824.5 L 926.5 839 L 915.5 854 L 907.5 851 L 900.5 850 L 895.5 852 L 888 848.5 L 892.5 838 L 899 826.5 Q 915.1 800.6 936.5 780 L 959.5 763 L 1000 738.5 L 1023 723.5 L 1051.5 701 L 1084 675.5 L 1106 656.5 L 1135 621.5 L 1152 596.5 L 1159 584.5 L 1166 569.5 L 1179 539.5 L 1183 531.5 L 1188 516.5 L 1198 483.5 L 1200 470.5 L 1201.5 464 Z" /><path desc="l 0 p 16" fill="rgb(156,156,156)" stroke="rgb(156,156,156)" stroke-width="1" opacity="0" d="M 932.5 483 L 934 483.5 L 947 498.5 L 961 515.5 L 970 530.5 L 976 541.5 L 986.5 558 L 994 568.5 Q 998.5 570.5 999 576.5 L 996.5 583 L 993.5 594 Q 990.1 601.1 992 613.5 L 998 634.5 L 996 633.5 L 971.5 603 Q 962.9 600.6 959 593.5 Q 944 579.5 937 557.5 L 932 536.5 L 930.5 530 L 930 522.5 L 929 507.5 L 930 502.5 L 932.5 483 Z" /><path desc="l 0 p 17" fill="rgb(156,156,156)" stroke="rgb(156,156,156)" stroke-width="1" opacity="0" d="M 1091.5 503 L 1103 530.5 L 1110 553.5 L 1109 557.5 Q 1109.8 561.3 1107.5 562 Q 1097 562 1092 567.5 L 1087.5 573 L 1085.5 564 L 1084.5 554 L 1084 536.5 L 1085 531.5 L 1086 523.5 Q 1086.8 511.3 1091.5 503 Z" /><path desc="l 0 p 18" fill="rgb(156,156,156)" stroke="rgb(156,156,156)" stroke-width="1" opacity="0" d="M 1175.5 511 L 1182 511.5 Q 1180.8 521.8 1175.5 528 L 1165.5 529 L 1165 521.5 Q 1166.6 514.6 1172.5 512 L 1175.5 511 Z" /><path desc="l 0 p 19" fill="rgb(156,156,156)" stroke="rgb(156,156,156)" stroke-width="1" opacity="0" d="M 754.5 516 L 776.5 530 L 788.5 539 L 822 564.5 L 853.5 597 L 871 613.5 L 872 617.5 L 875 624.5 L 873.5 624 L 862 616.5 L 856.5 613 L 850.5 612 L 848 613.5 Q 844.4 617.4 844.5 625 L 844 642.5 L 845 644.5 L 842.5 645 L 821.5 633 Q 799.5 621.5 782 605.5 L 776.5 597 L 769.5 582 L 762.5 562 L 759 549.5 L 755.5 532 Q 752.7 525.5 754.5 516 Z" /><path desc="l 0 p 20" fill="rgb(156,156,156)" stroke="rgb(156,156,156)" stroke-width="1" opacity="0" d="M 1154.5 522 L 1158 523.5 Q 1156.6 530.9 1160 533.5 L 1153.5 541 L 1148 541.5 L 1140.5 544 L 1140 533.5 L 1147.5 525 L 1154.5 522 Z" /><path desc="l 0 p 21" fill="rgb(156,156,156)" stroke="rgb(156,156,156)" stroke-width="1" opacity="0" d="M 898.5 533 L 900 533.5 Q 910.6 548.9 924.5 561 L 934 568.5 Q 937.9 581.6 947 589.5 L 961 606.5 Q 956.8 610.3 956 617.5 L 955 626.5 L 954 640.5 Q 956.3 641.8 955 646.5 L 949 641.5 L 942.5 633 L 939 631.5 L 933 625.5 L 907.5 594 L 900 584.5 L 897 576.5 L 895 569.5 L 894 544.5 L 895 541.5 L 896 536.5 L 898.5 533 Z" /><path desc="l 0 p 22" fill="rgb(156,156,156)" stroke="rgb(156,156,156)" stroke-width="1" opacity="0" d="M 1170.5 535 L 1173 535.5 L 1161.5 562 Q 1156.1 559.4 1157 550.5 Q 1159.4 541.4 1166.5 537 L 1170.5 535 Z" /><path desc="l 0 p 23" fill="rgb(156,156,156)" stroke="rgb(156,156,156)" stroke-width="1" opacity="0" d="M 1058.5 539 L 1061 540.5 L 1075 564.5 L 1080.5 574 L 1084 583.5 Q 1075.1 585.1 1070 590.5 L 1066.5 598 Q 1058.7 588.8 1056.5 574 L 1055 565.5 L 1055 551.5 L 1058.5 539 Z" /><path desc="l 0 p 24" fill="rgb(156,156,156)" stroke="rgb(156,156,156)" stroke-width="1" opacity="0" d="M 1130.5 544 L 1134 545.5 L 1133 548.5 L 1129.5 552 Q 1121.8 550.8 1118.5 554 L 1118 552.5 Q 1122.5 546.5 1130.5 544 Z" /><path desc="l 0 p 25" fill="rgb(156,156,156)" stroke="rgb(156,156,156)" stroke-width="1" opacity="0" d="M 1149.5 548 Q 1148.9 556.6 1152 561.5 L 1145.5 564 L 1136.5 570 Q 1132.3 567.2 1134 558.5 L 1138.5 553 L 1149.5 548 Z" /><path desc="l 0 p 26" fill="rgb(156,156,156)" stroke="rgb(156,156,156)" stroke-width="1" opacity="0" d="M 1123.5 559 L 1127 559.5 L 1128 570.5 L 1119 575.5 L 1117.5 578 L 1114 570.5 Q 1114.9 563.9 1119.5 561 L 1123.5 559 Z" /><path desc="l 0 p 27" fill="rgb(156,156,156)" stroke="rgb(156,156,156)" stroke-width="1" opacity="0" d="M 1033.5 561 L 1052 587.5 L 1061 605.5 Q 1053.4 606.4 1050 611.5 L 1047 618.5 L 1046 625.5 L 1048 631.5 L 1043.5 637 L 1033 613.5 L 1029.5 598 L 1029 575.5 L 1031 567.5 L 1033.5 561 Z" /><path desc="l 0 p 28" fill="rgb(156,156,156)" stroke="rgb(156,156,156)" stroke-width="1" opacity="0" d="M 1104.5 569 L 1107 569.5 L 1108 575.5 Q 1097.5 576.5 1093.5 584 L 1093 578.5 L 1096.5 573 L 1104.5 569 Z" /><path desc="l 0 p 29" fill="rgb(156,156,156)" stroke="rgb(156,156,156)" stroke-width="1" opacity="0" d="M 1152.5 569 L 1158 569.5 L 1147.5 591 L 1144 588.5 Q 1139.9 585.6 1141 577.5 L 1145.5 572 L 1152.5 569 Z" /><path desc="l 0 p 30" fill="rgb(156,156,156)" stroke="rgb(156,156,156)" stroke-width="1" opacity="0" d="M 574.5 573 Q 586.4 576.1 593 584.5 L 597 592.5 L 599 602.5 L 592 616.5 L 588 625.5 L 587 629.5 L 588 632.5 L 588 638.5 L 584.5 644 L 570.5 652 Q 558.8 656.8 551 665.5 L 545 675.5 L 542.5 681 L 520 695.5 Q 519.3 699.3 521.5 700 Q 526.3 701.2 527.5 699 L 532.5 697 L 547 694.5 L 557.5 694 Q 559.9 708.1 570.5 714 Q 574 718 582.5 717 Q 585.5 716.5 585 712.5 Q 583.6 709.4 578.5 710 L 573.5 707 L 567 700.5 L 565 694.5 L 566.5 695 L 577.5 700 Q 579.8 703.2 586.5 702 Q 593.1 701.1 596 696.5 L 599 688.5 L 600 678.5 L 592.5 670 L 589 668.5 L 591.5 668 Q 600.3 671.7 605 679.5 L 610 689.5 L 612 694.5 L 612 703.5 Q 608.7 711.7 601.5 716 L 589.5 721 L 584.5 722 L 570.5 722 Q 569.1 719.4 564.5 720 L 553.5 719 L 525.5 717 Q 522.5 717.5 523 721.5 L 528 725.5 Q 528.8 740.3 520.5 746 L 517.5 748 Q 511.4 740.1 501 736.5 L 505 733.5 Q 505.5 729.5 502.5 729 Q 489.5 728.5 484 735.5 L 473 745.5 L 465.5 758 L 459.5 767 L 450.5 768 L 434.5 764 Q 417.4 760.6 406 751.5 L 404 747.5 Q 405.3 744.8 406.5 747 Q 410.8 750.7 418.5 751 Q 426.4 748.9 430 742.5 Q 436.5 736 437 723.5 L 436 721.5 L 441.5 721 L 451 728.5 L 450 733.5 L 450 743.5 L 451 745.5 Q 450.5 750.5 454.5 751 L 459 748.5 Q 455.6 742.4 457 731.5 Q 465.5 710.5 479 694.5 L 485.5 687 L 489 681.5 L 490 673.5 Q 485 665.5 487 650.5 L 488.5 647 L 497.5 648 Q 505.3 645.8 510 640.5 Q 510.8 636.8 508.5 636 Q 503.5 635 502.5 638 Q 499.7 641.7 492.5 641 L 483 632.5 L 484 629.5 L 488 625.5 Q 491.6 623.6 492 618.5 Q 491.5 615.5 487.5 616 L 483.5 621 L 479 624.5 Q 476.9 626.9 471.5 626 L 465 622.5 Q 471.7 618.2 470 605.5 L 461.5 595 Q 456.3 590.6 445.5 592 L 441.5 594 L 441 592.5 Q 445.3 585.8 454.5 584 L 467.5 583 Q 478.9 586.1 486 593.5 L 490.5 603 L 493.5 608 Q 497.5 608.5 498 605.5 L 497 600.5 L 494 593.5 Q 496.3 590.3 502.5 591 L 508 595.5 L 515 608.5 L 509.5 617 Q 506.4 618.4 507 623.5 Q 507.5 626.5 511.5 626 L 517.5 621 L 518 624.5 Q 515.3 626.3 517 632.5 L 512 651.5 L 510.5 657 L 507 665.5 L 504 673.5 L 503 682.5 Q 503.8 684.8 507.5 684 L 511 677.5 L 512 671.5 L 514 665.5 Q 518.8 652.8 528.5 645 L 549 631.5 L 564.5 627 L 567.5 628 Q 575.1 626.1 579 620.5 Q 579.8 616.8 577.5 616 Q 572.5 615 571.5 618 Q 570.8 620.8 566.5 620 L 559.5 621 L 550 614.5 L 549 611.5 L 550.5 609 L 559.5 610 L 573 598.5 L 577 591.5 L 578 582.5 L 574.5 573 Z" /><path desc="l 0 p 31" fill="rgb(156,156,156)" stroke="rgb(156,156,156)" stroke-width="1" opacity="0" d="M 565.5 574 Q 571.4 577.6 571 587.5 Q 567 596.5 559.5 602 L 554.5 603 Q 551.5 600 545.5 600 L 525.5 607 L 526 605.5 Q 534.5 592 546.5 582 Q 549.3 577.8 555.5 577 L 565.5 574 Z" /><path desc="l 0 p 32" fill="rgb(156,156,156)" stroke="rgb(156,156,156)" stroke-width="1" opacity="0" d="M 874.5 576 L 907 604.5 L 928 629.5 L 932 634.5 L 934 638.5 L 929.5 652 L 925.5 667 L 902 648.5 L 896.5 642 L 891 637.5 L 882.5 624 Q 875.7 615.3 876 599.5 Q 873.5 598 875 592.5 L 874.5 576 Z" /><path desc="l 0 p 33" fill="rgb(156,156,156)" stroke="rgb(156,156,156)" stroke-width="1" opacity="0" d="M 1129.5 577 L 1134 577.5 L 1134 583.5 L 1135 586.5 L 1136 590.5 L 1130.5 592 L 1123.5 596 Q 1119.5 593.5 1121 585.5 L 1124.5 580 L 1129.5 577 Z" /><path desc="l 0 p 34" fill="rgb(156,156,156)" stroke="rgb(156,156,156)" stroke-width="1" opacity="0" d="M 1005.5 580 L 1024 612.5 L 1034 634.5 L 1039 643.5 L 1041 648.5 L 1042 654.5 L 1035.5 664 L 1034 669.5 L 1034 678.5 L 1037 684.5 L 1033.5 687 Q 1021 675 1014 657.5 L 1004.5 631 L 1000 615.5 Q 997.4 609.6 999 599.5 L 1003 588.5 Q 1002.3 582.3 1005.5 580 Z" /><path desc="l 0 p 35" fill="rgb(156,156,156)" stroke="rgb(156,156,156)" stroke-width="1" opacity="0" d="M 1105.5 583 Q 1112.5 581.5 1114 585.5 L 1113.5 594 Q 1102.2 594.2 1096.5 600 L 1096 593.5 L 1103.5 584 L 1105.5 583 Z" /><path desc="l 0 p 36" fill="rgb(156,156,156)" stroke="rgb(156,156,156)" stroke-width="1" opacity="0" d="M 1082.5 591 Q 1087.3 590.3 1089 592.5 L 1088.5 600 Q 1078.3 600.3 1073.5 606 L 1073 603.5 L 1076.5 594 L 1082.5 591 Z" /><path desc="l 0 p 37" fill="rgb(156,156,156)" stroke="rgb(156,156,156)" stroke-width="1" opacity="0" d="M 1137.5 597 L 1143 597.5 L 1125.5 622 L 1124 618.5 L 1123 614.5 L 1124 609.5 Q 1125 601.5 1131.5 599 L 1137.5 597 Z" /><path desc="l 0 p 38" fill="rgb(156,156,156)" stroke="rgb(156,156,156)" stroke-width="1" opacity="0" d="M 447.5 599 Q 453 597.5 454.5 600 L 462 605.5 L 463 613.5 L 459.5 618 L 453 623.5 L 448.5 638 L 444 628.5 L 441.5 620 L 441 610.5 L 447.5 599 Z" /><path desc="l 0 p 39" fill="rgb(156,156,156)" stroke="rgb(156,156,156)" stroke-width="1" opacity="0" d="M 749.5 601 Q 765 605.5 777 613.5 L 796.5 626 L 824 643.5 L 838.5 650 L 844 653.5 L 850 657.5 L 849.5 659 Q 845.5 654 837.5 653 L 833 656.5 L 832 664.5 Q 834.5 666 833 671.5 L 838.5 693 L 844 706.5 L 842.5 707 L 835.5 700 Q 833.8 697.2 828.5 698 Q 822.9 699.9 824 708.5 L 825 710.5 L 823.5 711 L 804.5 700 Q 794.5 696.5 789 688.5 L 767.5 653 Q 759.1 639.4 754 622.5 L 750 614.5 L 748 602.5 L 749.5 601 Z" /><path desc="l 0 p 40" fill="rgb(156,156,156)" stroke="rgb(156,156,156)" stroke-width="1" opacity="0" d="M 1109.5 601 Q 1116.3 599.7 1119 602.5 L 1117 608.5 L 1115.5 616 Q 1106.2 616.2 1101.5 621 L 1100 617.5 L 1099 612.5 L 1103.5 604 L 1109.5 601 Z" /><path desc="l 0 p 41" fill="rgb(156,156,156)" stroke="rgb(156,156,156)" stroke-width="1" opacity="0" d="M 1087.5 607 L 1093 608.5 L 1092 615.5 L 1093 618.5 Q 1091.8 621.3 1086.5 620 Q 1078.8 620.8 1074.5 625 L 1073 621.5 Q 1075.4 612.4 1082.5 608 L 1087.5 607 Z" /><path desc="l 0 p 42" fill="rgb(156,156,156)" stroke="rgb(156,156,156)" stroke-width="1" opacity="0" d="M 541.5 608 L 543 608.5 L 542 614.5 L 549 623.5 Q 534.1 629.6 523.5 640 L 523 636.5 L 524 631.5 L 525 619.5 L 523 616.5 L 541.5 608 Z" /><path desc="l 0 p 43" fill="rgb(156,156,156)" stroke="rgb(156,156,156)" stroke-width="1" opacity="0" d="M 967.5 610 L 969 610.5 L 992.5 640 L 1002.5 653 L 1010.5 666 Q 1016.2 680.3 1026.5 690 Q 1031.6 693.4 1033.5 700 L 1036 704.5 Q 1023.7 716.7 1007.5 725 L 993 708.5 L 985 696.5 L 973 677.5 L 967.5 667 L 964 655.5 Q 961.1 650.9 962 642.5 L 962 621.5 L 963 617.5 L 967.5 610 Z" /><path desc="l 0 p 44" fill="rgb(156,156,156)" stroke="rgb(156,156,156)" stroke-width="1" opacity="0" d="M 1061.5 612 Q 1066.3 611.3 1068 613.5 L 1066 622.5 L 1066.5 624 L 1061 624.5 L 1054.5 627 L 1053 621.5 L 1057.5 614 L 1061.5 612 Z" /><path desc="l 0 p 45" fill="rgb(156,156,156)" stroke="rgb(156,156,156)" stroke-width="1" opacity="0" d="M 852.5 620 Q 874.1 630.4 890 646.5 L 894.5 652 L 925 675.5 L 924.5 679 L 916.5 670 L 913.5 669 L 907 674.5 L 902.5 686 L 900.5 695 L 874 677.5 L 870.5 673 L 864 667.5 L 854.5 652 Q 849.1 642.9 851 626.5 L 852.5 620 Z" /><path desc="l 0 p 46" fill="rgb(156,156,156)" stroke="rgb(156,156,156)" stroke-width="1" opacity="0" d="M 1113.5 623 Q 1118.3 622.3 1119 625.5 L 1120 628.5 L 1095.5 654 Q 1092.1 651.4 1093 644.5 Q 1097.8 632.3 1107.5 625 L 1113.5 623 Z" /><path desc="l 0 p 47" fill="rgb(156,156,156)" stroke="rgb(156,156,156)" stroke-width="1" opacity="0" d="M 1086.5 627 L 1095 627.5 L 1088.5 638 Q 1085.4 641.9 1085.5 649 Q 1078.1 648.1 1074.5 651 L 1073 648.5 L 1071 639.5 L 1079.5 630 L 1086.5 627 Z" /><path desc="l 0 p 48" fill="rgb(156,156,156)" stroke="rgb(156,156,156)" stroke-width="1" opacity="0" d="M 1062.5 631 L 1067 631.5 L 1064.5 638 L 1064 642.5 L 1066 648.5 L 1064.5 649 L 1061.5 648 L 1054.5 648 L 1048.5 650 L 1049 648.5 Q 1048.5 638.5 1054.5 635 L 1062.5 631 Z" /><path desc="l 0 p 49" fill="rgb(156,156,156)" stroke="rgb(156,156,156)" stroke-width="1" opacity="0" d="M 940.5 642 L 952.5 656 L 959 665.5 L 965 678.5 L 978 698.5 Q 983.1 708.9 991 716.5 L 1001 729.5 L 981 741.5 L 973.5 745 Q 956.1 726.9 943 704.5 L 936 692.5 L 934 688.5 L 933 683.5 L 932 673.5 L 936 655.5 L 940.5 642 Z" /><path desc="l 0 p 50" fill="rgb(156,156,156)" stroke="rgb(156,156,156)" stroke-width="1" opacity="0" d="M 643.5 646 Q 655.6 644.4 663.5 647 L 676 653.5 L 694 668.5 Q 705.9 682.1 710 703.5 Q 701.9 707.4 701 718.5 L 704.5 720 L 713.5 710 L 720.5 708 Q 730.5 710 735 717.5 L 734 724.5 L 728 732.5 L 722 745.5 L 720.5 752 L 720 758.5 Q 722.5 770 729 777.5 L 723 785.5 Q 716.5 793.5 719 810.5 L 723 820.5 L 728.5 829 L 738.5 836 Q 744 841 756.5 839 Q 765.1 837.6 769.5 832 L 771 836.5 L 771 845.5 Q 769.3 852.3 772.5 854 Q 776.3 854.8 777 852.5 L 778 845.5 L 778 832.5 Q 773.4 808.6 758.5 795 L 737 775.5 L 730.5 767 Q 726.8 762.8 728 753.5 L 729 749.5 L 732.5 744 Q 738.1 744.5 740 748.5 L 746.5 753 L 752.5 754 Q 754.8 753.3 754 749.5 L 741 739.5 L 739 733.5 L 743.5 725 L 753.5 722 L 758.5 723 L 770.5 729 L 790 746.5 L 812.5 771 L 816 773.5 L 807.5 774 Q 803 773 802 775.5 Q 801.2 781.3 804.5 783 L 814.5 788 L 820 791.5 L 837 806.5 L 827.5 807 Q 822.8 806.3 821 808.5 L 820 812.5 L 827.5 821 L 837.5 830 L 851 840.5 L 850.5 842 L 837.5 841 L 826.5 839 Q 823.5 839.5 824 843.5 L 848 859.5 L 831.5 860 L 826.5 859 Q 823.5 859.5 824 863.5 L 833 870.5 L 855.5 896 L 864 903.5 L 863.5 905 L 841.5 906 Q 833.3 904.3 830 907.5 Q 829 912 831.5 913 L 836 918.5 L 856.5 941 L 858 941.5 L 845.5 942 L 835.5 940 Q 833 941 834 945.5 L 840 950.5 Q 848.3 965.7 861 976.5 L 851.5 977 L 847.5 976 L 838.5 976 L 822.5 974 L 815.5 972 L 813 975.5 Q 820.7 1004.3 840 1021.5 L 838.5 1021 L 827.5 1019 L 813 1014.5 L 803.5 1010 Q 801.2 1007.3 795.5 1008 Q 793 1009 794 1013.5 L 798 1019.5 L 802.5 1029 L 816 1060.5 L 814.5 1060 L 791 1043.5 L 781.5 1037 L 771 1031.5 L 765.5 1030 L 763 1031.5 L 762 1034.5 Q 767.8 1047.7 767 1067.5 L 764.5 1078 L 763 1077.5 L 732.5 1035 L 730.5 1034 L 727 1036.5 L 724.5 1055 L 723 1054.5 L 715.5 1042 Q 709.4 1036.1 708 1025.5 L 706 1018.5 Q 706.5 1014.5 703.5 1014 Q 699.8 1013.3 699 1015.5 L 697 1022.5 L 695.5 1034 L 690 1019.5 L 687.5 1009 L 687 1001.5 L 686 993.5 Q 687 989 684.5 988 Q 679 987 678 990.5 L 673.5 997 L 669 977.5 L 668 964.5 L 668 953.5 Q 669 949 666.5 948 Q 661.8 947.3 661 950.5 L 655.5 963 L 653 955.5 L 652 946.5 Q 653.3 939.3 649.5 937 Q 645.8 936.3 645 938.5 L 641.5 945 L 639.5 932 L 639 923.5 Q 640.5 916 637.5 913 L 634.5 912 L 622.5 926 L 622 911.5 L 623 906.5 L 623 893.5 L 623 842.5 L 622 839.5 L 622 831.5 L 623 831.5 L 628 858.5 Q 628.8 876.7 639.5 885 Q 644.2 889.8 653.5 890 Q 659.3 888.8 662 884.5 L 673.5 860 L 681.5 846 L 688.5 837 L 693 833.5 L 692 819.5 Q 696.7 791.7 709 771.5 L 714.5 764 Q 718 763 717 757.5 Q 716.3 755.3 712.5 756 Q 702.9 763.9 698 776.5 L 689.5 799 L 686 813.5 L 685 827.5 L 686 829.5 Q 675.2 838.2 669.5 852 L 654.5 882 L 651.5 883 Q 643.2 881.8 640 875.5 Q 635.4 870.1 635.5 860 L 632 841.5 L 628 825.5 L 621 808.5 Q 612.1 784.9 599.5 765 L 575 729.5 L 585.5 729 Q 587.2 731.8 593.5 730 L 606.5 733 L 615.5 736 L 623.5 740 L 630 742.5 L 629.5 747 Q 618.4 741.6 601.5 742 L 597 745.5 Q 596.4 750.6 599.5 752 L 607 760.5 Q 617.1 774.4 623 792.5 Q 628 812.5 637.5 828 L 644 835.5 Q 647.8 836.2 647 841.5 Q 644 844.5 644 850.5 L 642.5 859 L 639 861.5 L 641.5 865 Q 650.4 863.6 655.5 866 L 658 864.5 L 659 862.5 L 656.5 859 L 650 856.5 L 651 849.5 L 655 840.5 L 659 832.5 Q 667.9 821.9 665 799.5 L 663 791.5 L 662.5 787 L 660 779.5 L 657 770.5 L 663 756.5 L 665.5 748 L 666 735.5 L 662 717.5 Q 661.4 707.6 657 701.5 L 652 690.5 L 639.5 670 Q 634.9 661.1 627.5 655 L 624 653.5 L 624.5 652 L 637.5 647 Q 642.3 648.3 643.5 646 Z" /><path desc="l 0 p 51" fill="rgb(156,156,156)" stroke="rgb(156,156,156)" stroke-width="1" opacity="0" d="M 1055.5 655 Q 1062.5 653.9 1066 656.5 L 1060.5 664 L 1058 668.5 L 1056.5 674 Q 1051 672.5 1049.5 675 L 1042.5 679 L 1041 675.5 L 1041 668.5 Q 1043.6 661.1 1049.5 657 L 1055.5 655 Z" /><path desc="l 0 p 52" fill="rgb(156,156,156)" stroke="rgb(156,156,156)" stroke-width="1" opacity="0" d="M 1081.5 656 Q 1088 655 1090 658.5 L 1085.5 664 L 1066.5 679 L 1064 672.5 Q 1067.3 663.8 1074.5 659 L 1081.5 656 Z" /><path desc="l 0 p 53" fill="rgb(156,156,156)" stroke="rgb(156,156,156)" stroke-width="1" opacity="0" d="M 743.5 658 L 775 678.5 Q 780.8 692.2 791.5 701 L 827 720.5 L 833 741.5 L 831.5 742 L 819.5 736 L 814 740.5 L 813 747.5 L 814.5 754 L 820 766.5 L 818.5 767 L 786.5 733 L 769 719.5 L 767 715.5 L 762 708.5 L 755.5 696 L 749 679.5 L 745.5 672 L 743.5 664 L 743.5 658 Z" /><path desc="l 0 p 54" fill="rgb(156,156,156)" stroke="rgb(156,156,156)" stroke-width="1" opacity="0" d="M 840.5 661 Q 855.3 669.3 867 680.5 L 883 692.5 L 898 702.5 L 897 712.5 Q 897.8 716.3 895.5 717 L 894.5 715 L 891.5 713 L 887.5 712 L 885 713.5 L 881 722.5 Q 882.3 727.8 879.5 729 L 864.5 719 L 853 709.5 L 845.5 691 L 842.5 681 L 840.5 671 L 840.5 661 Z" /><path desc="l 0 p 55" fill="rgb(156,156,156)" stroke="rgb(156,156,156)" stroke-width="1" opacity="0" d="M 581.5 673 Q 589.1 674.8 593 680.5 L 592 686.5 L 588.5 694 L 582.5 695 L 571.5 689 Q 568.6 686.4 562.5 687 L 547.5 687 L 546 687.5 L 546.5 686 L 558 679.5 Q 565.3 674.8 576.5 674 L 578.5 674 L 581.5 673 Z" /><path desc="l 0 p 56" fill="rgb(156,156,156)" stroke="rgb(156,156,156)" stroke-width="1" opacity="0" d="M 913.5 678 L 917 680.5 Q 930.4 695.1 940.5 713 Q 952 733.5 968 749.5 L 938.5 770 L 918 744.5 L 908 730.5 L 904 722.5 L 903 717.5 L 906 700.5 L 908 693.5 L 911.5 682 L 913.5 678 Z" /><path desc="l 0 p 57" fill="rgb(156,156,156)" stroke="rgb(156,156,156)" stroke-width="1" opacity="0" d="M 1052.5 681 Q 1059.8 679.8 1061 684.5 L 1041.5 700 L 1039 693.5 L 1048.5 683 L 1052.5 681 Z" /><path desc="l 0 p 58" fill="rgb(156,156,156)" stroke="rgb(156,156,156)" stroke-width="1" opacity="0" d="M 426.5 687 L 427 688.5 Q 421 696.5 423 712.5 L 427.5 720 L 430 725.5 L 426.5 735 L 419.5 743 Q 410.1 744.4 408 738.5 Q 404.1 732.4 406 720.5 L 411 706.5 Q 414.7 694.2 424.5 688 L 426.5 687 Z" /><path desc="l 0 p 59" fill="rgb(156,156,156)" stroke="rgb(156,156,156)" stroke-width="1" opacity="0" d="M 619.5 696 L 626.5 715 L 629 726.5 L 630 734.5 L 628.5 735 Q 617.9 727.1 602 724.5 L 602.5 723 Q 611.3 719.3 616 711.5 Q 620.1 706.1 619.5 696 Z" /><path desc="l 0 p 60" fill="rgb(156,156,156)" stroke="rgb(156,156,156)" stroke-width="1" opacity="0" d="M 831.5 707 L 839.5 713 L 849.5 719 Q 856.7 720.3 860.5 725 L 879 737.5 L 878 750.5 L 879 752.5 L 877.5 753 L 874.5 749 L 870.5 750 L 867 753.5 L 863.5 765 Q 852.6 759.4 845 750.5 Q 839.4 745.1 839 734.5 L 833 716.5 L 831.5 707 Z" /><path desc="l 0 p 61" fill="rgb(156,156,156)" stroke="rgb(156,156,156)" stroke-width="1" opacity="0" d="M 635.5 718 L 642 732.5 L 647 746.5 L 653 763.5 L 650 768.5 L 649 773.5 Q 653.2 776.3 654 782.5 L 657 793.5 L 658 817.5 L 652.5 829 Q 646 824.5 643.5 816 L 638 801.5 L 635 777.5 Q 637.5 776 636 770.5 L 636.5 754 L 637 730.5 L 636 726.5 L 635.5 718 Z" /><path desc="l 0 p 62" fill="rgb(156,156,156)" stroke="rgb(156,156,156)" stroke-width="1" opacity="0" d="M 889.5 721 L 892 722.5 L 933 774.5 L 921 785.5 L 912.5 796 L 894 773.5 Q 886.8 766.2 886 752.5 L 886 735.5 L 888 726.5 L 889.5 721 Z" /><path desc="l 0 p 63" fill="rgb(156,156,156)" stroke="rgb(156,156,156)" stroke-width="1" opacity="0" d="M 539.5 725 L 560.5 727 Q 565 726 566 728.5 L 573 739.5 L 571.5 740 L 563.5 738 L 560 739.5 L 559 742.5 L 560 744.5 L 558.5 744 Q 552 745 551 740.5 L 542.5 730 L 540 727.5 L 539.5 725 Z" /><path desc="l 0 p 64" fill="rgb(156,156,156)" stroke="rgb(156,156,156)" stroke-width="1" opacity="0" d="M 535.5 733 L 542.5 741 Q 544.8 741.8 544 745.5 L 540 755.5 Q 538.6 761.6 533.5 764 L 529.5 762 L 523 755.5 L 522 753.5 L 528 748.5 L 533.5 738 L 535.5 733 Z" /><path desc="l 1 p 1" fill="rgb(0,0,0)" stroke="rgb(0,0,0)" stroke-width="1" opacity="0.8274509803921568" d="M 691.5 734 L 696 734.5 L 697 738.5 Q 690.5 745 688 755.5 Q 684.1 763.6 683 774.5 L 682 783.5 L 681 789.5 L 679.5 793 Q 675.8 793.8 675 791.5 L 674 787.5 L 675 783.5 L 677 768.5 Q 678.2 757.2 683 749.5 Q 685.3 739.8 691.5 734 Z" /><path desc="l 0 p 65" fill="rgb(156,156,156)" stroke="rgb(156,156,156)" stroke-width="1" opacity="0" d="M 488.5 741 L 497.5 743 L 504 745.5 L 511 751.5 L 530.5 773 L 533 774.5 L 537 779.5 L 533.5 780 L 522.5 778 L 508.5 776 L 492.5 773 L 480 770.5 L 468.5 770 Q 465.5 770.5 466 774.5 Q 467.3 778.3 473.5 777 L 492.5 780 L 504 782.5 L 527.5 786 L 544.5 789 Q 549.1 788.4 550.5 791 Q 552.8 793.7 558.5 793 L 561 789.5 L 554 784.5 L 547.5 780 L 538 770.5 L 543.5 764 L 547.5 756 L 550.5 750 L 566.5 753 L 569 749.5 L 567 746.5 L 569.5 746 L 581 749.5 L 600.5 781 L 610 804.5 Q 613.7 812.8 614 824.5 L 616 847.5 L 612.5 848 L 587.5 842 Q 585.3 842.8 586 846.5 L 590 849.5 L 567.5 855 L 562.5 858 L 557.5 859 L 544.5 859 L 540.5 858 L 529.5 858 L 505.5 857 Q 498 858.5 494.5 856 L 479.5 856 L 471.5 855 L 466.5 854 L 463.5 855 L 426 831.5 Q 410 824.5 399 812.5 L 395.5 808 Q 393.1 805.9 394 800.5 L 397 795.5 L 404.5 788 L 414 781.5 L 419 778.5 Q 421.1 776.1 426.5 777 Q 433.5 778.5 435 774.5 L 435.5 772 L 446.5 774 Q 451.2 776.2 459.5 775 L 468 768.5 L 473.5 758 Q 477.1 750.1 483.5 745 L 488.5 741 Z" /><path desc="l 0 p 66" fill="rgb(156,156,156)" stroke="rgb(156,156,156)" stroke-width="1" opacity="0" d="M 821.5 744 L 834.5 751 L 843.5 759 L 856.5 769 L 864 772.5 L 863.5 778 L 861.5 775 Q 856.8 774.3 856 777.5 L 852.5 793 Q 848 793.5 847.5 790 L 837 779.5 Q 837.5 774.5 833.5 774 L 829 772.5 L 830 769.5 L 826 763.5 L 821.5 753 L 820 745.5 L 821.5 744 Z" /><path desc="l 0 p 67" fill="rgb(156,156,156)" stroke="rgb(156,156,156)" stroke-width="1" opacity="0" d="M 608.5 749 L 612.5 750 L 620.5 751 L 629 754.5 L 627.5 783 Q 621.8 768.8 613 757.5 L 609 751.5 L 608.5 749 Z" /><path desc="l 0 p 68" fill="rgb(156,156,156)" stroke="rgb(156,156,156)" stroke-width="1" opacity="0" d="M 872.5 759 L 875 760.5 L 908 801.5 L 896.5 818 L 888 810.5 L 876 793.5 L 872 783.5 L 871 777.5 L 871 764.5 L 872.5 759 Z" /><path desc="l 0 p 69" fill="rgb(156,156,156)" stroke="rgb(156,156,156)" stroke-width="1" opacity="0" d="M 819.5 781 L 832 782.5 L 836 788.5 L 845.5 798 L 853 802.5 Q 853.9 814.1 859 821.5 L 847.5 823 L 842.5 825 L 831 814.5 L 839.5 814 L 851.5 817 Q 854.8 816.3 854 811.5 L 830.5 791 L 819 782.5 L 819.5 781 Z" /><path desc="l 0 p 70" fill="rgb(156,156,156)" stroke="rgb(156,156,156)" stroke-width="1" opacity="0" d="M 733.5 783 Q 737.5 782.5 738 785.5 L 745 791.5 L 745.5 793 L 747 793.5 L 746.5 795 Q 736.7 794.7 734 801.5 L 732 809.5 Q 733.8 819.2 740.5 824 L 749.5 825 L 757 819.5 L 761.5 810 L 768 823.5 Q 762.5 833.5 745.5 832 L 731 821.5 L 727 811.5 L 726 806.5 L 726 795.5 Q 728.3 787.8 733.5 783 Z" /><path desc="l 0 p 71" fill="rgb(156,156,156)" stroke="rgb(156,156,156)" stroke-width="1" opacity="0" d="M 860.5 788 L 862 788.5 L 883.5 816 L 889 821.5 L 891 825.5 L 883.5 840 L 879.5 833 L 871.5 825 L 868 823.5 L 861.5 808 L 859.5 800 L 859 794.5 L 860.5 788 Z" /><path desc="l 1 p 2" fill="rgb(0,0,0)" stroke="rgb(0,0,0)" stroke-width="1" opacity="0.8274509803921568" d="M 543.5 791 L 548.5 792 L 553.5 796 L 568 804.5 L 566.5 808 L 563.5 809 Q 550.4 804.6 542 795.5 Q 541.3 791.8 543.5 791 Z" /><path desc="l 1 p 3" fill="rgb(0,0,0)" stroke="rgb(0,0,0)" stroke-width="1" opacity="0.8274509803921568" d="M 442.5 800 Q 448.8 799.2 451.5 802 L 466.5 807 L 529.5 829 L 548.5 835 L 555.5 837 Q 560.5 836.5 561 840.5 L 558.5 844 L 551.5 843 L 542.5 840 L 525.5 835 L 505.5 828 L 464 813.5 L 449.5 809 L 445.5 807 L 441 803.5 L 442.5 800 Z" /><path desc="l 0 p 72" fill="rgb(156,156,156)" stroke="rgb(156,156,156)" stroke-width="1" opacity="0" d="M 743.5 802 Q 750.8 801.2 754 804.5 L 755 807.5 L 749.5 817 L 744.5 818 Q 738.8 815.2 740 805.5 L 743.5 802 Z" /><path desc="l 1 p 4" fill="rgb(0,0,0)" stroke="rgb(0,0,0)" stroke-width="1" opacity="0.8274509803921568" d="M 557.5 809 L 575.5 819 L 581.5 821 L 585 823.5 Q 585.8 827.3 583.5 828 L 577.5 827 L 570.5 824 Q 560 821 554 813.5 L 555.5 810 L 557.5 809 Z" /><path desc="l 1 p 5" fill="rgb(0,0,0)" stroke="rgb(0,0,0)" stroke-width="1" opacity="0.8274509803921568" d="M 576.5 829 L 584 830.5 L 594 833.5 Q 600.6 833.9 604 837.5 Q 604.8 841.3 602.5 842 Q 596.1 842.9 593 840.5 L 576 834.5 L 575 830.5 L 576.5 829 Z" /><path desc="l 0 p 73" fill="rgb(156,156,156)" stroke="rgb(156,156,156)" stroke-width="1" opacity="0" d="M 851.5 829 Q 863.3 827.2 868.5 832 L 876 839.5 L 877.5 850 L 878 863.5 L 870.5 873 L 867.5 874 L 864 868.5 L 867.5 868 Q 872.3 868.8 873 865.5 L 870.5 861 L 865.5 860 L 858.5 858 L 846 849.5 L 859.5 849 L 863.5 850 Q 866.8 849.3 866 844.5 L 849 830.5 L 851.5 829 Z" /><path desc="l 0 p 74" fill="rgb(156,156,156)" stroke="rgb(156,156,156)" stroke-width="1" opacity="0" d="M 615.5 855 L 616 896.5 L 614.5 896 Q 599.8 892.2 590 883.5 L 571 867.5 L 569 862.5 L 585.5 858 L 600.5 856 L 610.5 856 L 615.5 855 Z" /><path desc="l 0 p 75" fill="rgb(156,156,156)" stroke="rgb(156,156,156)" stroke-width="1" opacity="0" d="M 885.5 856 Q 894.9 857.1 899 863.5 L 901 870.5 Q 903.5 876 902 885.5 L 900 891.5 L 895.5 901 L 894 894.5 L 891 889.5 Q 888 882 881.5 878 L 878 876.5 L 882 870.5 Q 886.3 865.8 885.5 856 Z" /><path desc="l 0 p 76" fill="rgb(156,156,156)" stroke="rgb(156,156,156)" stroke-width="1" opacity="0" d="M 903.5 857 Q 912.8 858.8 917 865.5 Q 920.6 872.9 921 883.5 L 919.5 887 L 909 886.5 Q 910.4 866.5 903.5 857 Z" /><path desc="l 0 p 77" fill="rgb(156,156,156)" stroke="rgb(156,156,156)" stroke-width="1" opacity="0" d="M 458.5 862 L 527.5 865 L 551.5 866 Q 559.7 864.3 563 867.5 L 573.5 880 L 588 890.5 Q 594.8 897.2 605 900.5 L 585 908.5 L 559.5 921 L 548.5 929 L 541.5 927 L 535 926.5 L 512.5 926 Q 511.3 928.3 506.5 927 L 494 927.5 L 464.5 928 L 452.5 925 L 441.5 922 L 419.5 914 L 408 909.5 Q 390.4 903.6 379 891.5 L 378 884.5 L 387 877.5 L 399.5 870 Q 403.9 864.9 412.5 864 Q 418.7 861.2 429.5 863 L 431.5 864 Q 433.3 861.2 439.5 863 L 452.5 863 Q 457.2 864.3 458.5 862 Z" /><path desc="l 0 p 78" fill="rgb(156,156,156)" stroke="rgb(156,156,156)" stroke-width="1" opacity="0" d="M 840.5 867 L 855 868.5 L 856.5 871 L 859 872.5 L 860 886.5 L 857.5 888 L 847.5 877 L 841.5 870 L 840.5 867 Z" /><path desc="l 1 p 6" fill="rgb(0,0,0)" stroke="rgb(0,0,0)" stroke-width="1" opacity="0.8274509803921568" d="M 784.5 871 L 788 872.5 L 789.5 883 Q 790.7 892.8 795 899.5 L 798.5 908 L 800 913.5 Q 799.5 916.5 795.5 916 Q 790.4 910.6 782 908.5 L 774 905.5 L 763.5 903 L 755.5 902 Q 751 903 750 900.5 Q 749.3 895.8 752.5 895 Q 760.8 893.7 765.5 896 L 774.5 898 L 787.5 903 L 788 901.5 L 784 890.5 L 782.5 884 L 782 873.5 L 784.5 871 Z" /><path desc="l 0 p 79" fill="rgb(156,156,156)" stroke="rgb(156,156,156)" stroke-width="1" opacity="0" d="M 869.5 881 Q 879.5 883 884 890.5 Q 888 894.5 888 902.5 L 885.5 911 L 883.5 907 Q 870.2 903.8 864 893.5 Q 867.6 889.6 867.5 882 L 869.5 881 Z" /><path desc="l 1 p 7" fill="rgb(0,0,0)" stroke="rgb(0,0,0)" stroke-width="1" opacity="0.8274509803921568" d="M 424.5 888 L 496.5 889 L 526 889.5 L 532.5 890 L 551.5 891 L 570.5 892 Q 577.8 890.8 580 894.5 Q 580.8 898.3 578.5 899 L 530.5 897 L 507.5 896 L 464 895.5 L 432.5 895 L 424.5 895 Q 420.8 895.8 420 893.5 L 421.5 889 L 424.5 888 Z" /><path desc="l 0 p 80" fill="rgb(156,156,156)" stroke="rgb(156,156,156)" stroke-width="1" opacity="0" d="M 910.5 894 L 922.5 895 Q 930.6 896.4 934 902.5 L 937 909.5 L 939 919.5 Q 935.7 930.7 928.5 938 L 927 937.5 L 928 931.5 L 928 919.5 Q 925.8 906.2 917.5 899 L 913 896.5 L 910.5 894 Z" /><path desc="l 0 p 81" fill="rgb(156,156,156)" stroke="rgb(156,156,156)" stroke-width="1" opacity="0" d="M 904.5 901 Q 912.9 901.6 916 907.5 Q 919.8 912.8 920.5 921 L 921 933.5 Q 919.8 941.3 914.5 945 L 909.5 947 Q 910 930.5 900.5 924 L 890 918.5 L 893.5 910 L 902 904.5 L 904.5 901 Z" /><path desc="l 0 p 82" fill="rgb(156,156,156)" stroke="rgb(156,156,156)" stroke-width="1" opacity="0" d="M 612.5 906 L 616 906.5 L 614 927.5 L 613.5 932 L 611 940.5 L 613.5 944 Q 619.3 944.8 620 940.5 L 631.5 927 L 633.5 941 L 634 951.5 L 634 958.5 Q 633.3 963.3 636.5 964 Q 640.5 964.5 641 961.5 L 644.5 953 L 646 953.5 Q 645.3 960.2 648 963.5 L 651 972.5 L 652 979.5 L 623.5 980 L 616 978.5 Q 604.8 975.8 596.5 970 L 591.5 968 L 583.5 963 Q 576.4 960.6 572.5 955 L 554 937.5 Q 553 931 557.5 930 L 578 919.5 Q 593.8 911.3 612.5 906 Z" /><path desc="l 0 p 83" fill="rgb(156,156,156)" stroke="rgb(156,156,156)" stroke-width="1" opacity="0" d="M 852.5 912 L 868.5 912 L 875 912.5 L 881.5 914 L 884.5 912 L 885 913.5 Q 881.9 921.9 875.5 927 Q 869 932 858.5 933 L 842 913.5 L 848.5 913 L 852.5 912 Z" /><path desc="l 0 p 84" fill="rgb(156,156,156)" stroke="rgb(156,156,156)" stroke-width="1" opacity="0" d="M 886.5 925 Q 894.8 926.7 899 932.5 Q 903.5 938 902 949.5 Q 899.3 960.8 891.5 967 Q 886.5 972.5 877.5 974 L 877 971.5 Q 880.3 967.8 879 959.5 L 877 952.5 Q 882.5 953 884 949.5 Q 884.5 945.5 881.5 945 Q 871.8 944.8 867 939.5 L 867.5 938 Q 879.4 935.9 885 927.5 L 886.5 925 Z" /><path desc="l 1 p 8" fill="rgb(0,0,0)" stroke="rgb(0,0,0)" stroke-width="1" opacity="0.8274509803921568" d="M 747.5 929 Q 751.5 928.5 752 931.5 L 751 943.5 Q 753.5 945 752 950.5 L 760 973.5 Q 759.3 976.8 754.5 976 L 744.5 968 L 733 961.5 L 723.5 958 L 717 955.5 Q 712.3 955.7 711 952.5 Q 710.3 948.8 712.5 948 Q 718.3 947.3 721 949.5 L 732.5 954 L 747.5 962 L 748 960.5 L 746 954.5 L 745 948.5 L 744 934.5 L 747.5 929 Z" /><path desc="l 0 p 85" fill="rgb(156,156,156)" stroke="rgb(156,156,156)" stroke-width="1" opacity="0" d="M 514.5 933 L 534 933.5 Q 542.4 932.6 547 935.5 Q 546.2 941.3 549.5 943 L 555.5 949 L 568.5 961 L 575.5 967 L 584 971.5 L 605 982.5 L 593 985.5 Q 582.4 986.9 575.5 992 L 561.5 999 Q 553.5 1001.5 549 1007.5 L 547.5 1011 L 507 1011.5 L 491.5 1013 L 439.5 1018 L 405.5 993 Q 393.7 987.8 386 978.5 Q 384.5 970.5 389.5 969 L 413 949.5 Q 420.7 941.2 433.5 938 L 455.5 936 L 458.5 937 L 466.5 937 Q 467.3 934.3 471.5 935 L 481.5 935 L 500 934.5 L 509.5 934 L 514.5 933 Z" /><path desc="l 1 p 9" fill="rgb(0,0,0)" stroke="rgb(0,0,0)" stroke-width="1" opacity="0.8274509803921568" d="M 794.5 933 L 798 934.5 L 799 939.5 L 799 948.5 Q 797.7 956.8 800 961.5 L 803 974.5 Q 806.6 976.4 806 982.5 L 802.5 985 Q 790.4 973.1 775 964.5 L 774 961.5 L 775.5 959 Q 781.9 958.1 783.5 962 L 793.5 969 L 794 966.5 Q 791.1 961.9 792 953.5 L 792 944.5 L 791 939.5 L 792 937.5 Q 791.5 933.5 794.5 933 Z" /><path desc="l 0 p 86" fill="rgb(156,156,156)" stroke="rgb(156,156,156)" stroke-width="1" opacity="0" d="M 940.5 934 L 943.5 943 L 944 950.5 L 943 954.5 L 938.5 962 Q 937.7 950.8 932 944.5 L 940.5 934 Z" /><path desc="l 0 p 87" fill="rgb(156,156,156)" stroke="rgb(156,156,156)" stroke-width="1" opacity="0" d="M 923.5 946 L 926 947.5 Q 931.1 953.4 931 964.5 Q 926.8 979.3 915.5 987 L 913.5 988 L 913 976.5 Q 912.8 964.2 906 958.5 L 908.5 955 Q 918.6 953.1 923.5 946 Z" /><path desc="l 0 p 88" fill="rgb(156,156,156)" stroke="rgb(156,156,156)" stroke-width="1" opacity="0" d="M 848.5 949 L 862.5 950 Q 868 949 869 952.5 L 871.5 960 L 872 966.5 L 868.5 973 L 856 961.5 L 848.5 949 Z" /><path desc="l 0 p 89" fill="rgb(156,156,156)" stroke="rgb(156,156,156)" stroke-width="1" opacity="0" d="M 901.5 966 L 904 967.5 Q 906.6 970.4 906 976.5 L 906 987.5 Q 904 999.5 895.5 1005 Q 894.1 1007.6 889.5 1007 L 890 1005.5 L 889.5 999 L 886 989.5 L 881.5 982 L 879 981.5 L 879.5 980 L 884 979.5 L 891.5 976 L 900 968.5 L 901.5 966 Z" /><path desc="l 0 p 90" fill="rgb(156,156,156)" stroke="rgb(156,156,156)" stroke-width="1" opacity="0" d="M 660.5 970 L 662 970.5 L 662.5 980 L 664.5 990 L 668 1003.5 Q 667 1010 670.5 1012 Q 674.3 1012.8 675 1010.5 L 678.5 1002 L 680 1002.5 L 681 1012.5 L 685 1027.5 L 683.5 1028 L 681.5 1027 Q 676.7 1030.7 677.5 1040 L 674.5 1039 Q 672.2 1042.2 665.5 1041 L 654.5 1042 L 634.5 1042 L 607.5 1037 L 595.5 1033 L 578 1026.5 L 564.5 1021 L 555 1014.5 Q 554.3 1008.8 558.5 1008 L 580.5 997 L 599.5 991 L 612.5 989 L 624.5 988 L 642.5 988 L 652.5 987 Q 657.3 987.8 659 985.5 L 660 982.5 L 659 980.5 L 660 977.5 L 660 975.5 L 660.5 970 Z" /><path desc="l 1 p 10" fill="rgb(0,0,0)" stroke="rgb(0,0,0)" stroke-width="1" opacity="0.8274509803921568" d="M 510.5 972 L 531 972.5 L 558.5 974 L 573.5 975 L 581.5 976 Q 586.3 975.3 587 978.5 Q 587.5 982.5 584.5 983 L 568 981.5 L 546 980.5 L 478.5 980 Q 476.7 982.8 470.5 981 L 458.5 981 L 451.5 982 L 448 980.5 L 447 977.5 Q 451.8 972.3 463.5 974 L 496.5 973 L 505.5 973 L 510.5 972 Z" /><path desc="l 0 p 91" fill="rgb(156,156,156)" stroke="rgb(156,156,156)" stroke-width="1" opacity="0" d="M 936.5 972 Q 942 971 943 974.5 Q 945.7 977.8 945 984.5 L 940.5 993 L 933.5 982 L 931 980.5 L 936.5 972 Z" /><path desc="l 0 p 92" fill="rgb(156,156,156)" stroke="rgb(156,156,156)" stroke-width="1" opacity="0" d="M 822.5 981 L 844 983.5 L 845 992.5 L 836.5 1003 L 833 1002.5 Q 824.9 992.5 822.5 981 Z" /><path desc="l 0 p 93" fill="rgb(156,156,156)" stroke="rgb(156,156,156)" stroke-width="1" opacity="0" d="M 852.5 984 Q 859.9 983.1 864 985.5 Q 864.5 989.5 861.5 990 Q 858.6 992.6 852.5 992 L 852 988.5 L 852 986.5 L 852.5 984 Z" /><path desc="l 1 p 11" fill="rgb(0,0,0)" stroke="rgb(0,0,0)" stroke-width="1" opacity="0.8274509803921568" d="M 743.5 985 Q 747.5 984.5 748 987.5 L 746.5 1000 L 746 1010.5 L 750 1021.5 L 747.5 1025 Q 741.8 1025.8 741 1021.5 L 728.5 1008 L 707 991.5 Q 706.3 987.8 708.5 987 Q 713 986 714 988.5 L 719.5 992 L 738.5 1008 L 740 994.5 Q 739.3 987.3 743.5 985 Z" /><path desc="l 0 p 94" fill="rgb(156,156,156)" stroke="rgb(156,156,156)" stroke-width="1" opacity="0" d="M 925.5 987 Q 930.3 986.3 931 989.5 Q 934.4 992.1 933 999.5 Q 929.4 1012.4 920.5 1020 L 912.5 1023 Q 911.4 1011.6 905 1005.5 L 912.5 995 Q 917.1 995.6 918.5 993 L 925.5 987 Z" /><path desc="l 0 p 95" fill="rgb(156,156,156)" stroke="rgb(156,156,156)" stroke-width="1" opacity="0" d="M 871.5 988 Q 877.4 988.6 880 992.5 Q 883 996.5 883 1003.5 Q 880.9 1016.4 872.5 1023 Q 869.6 1027.6 862.5 1028 L 857 1025.5 Q 859.5 1020 858 1010.5 Q 855.6 1003.4 850 999.5 Q 863.5 1000 869 992.5 L 871.5 988 Z" /><path desc="l 0 p 96" fill="rgb(156,156,156)" stroke="rgb(156,156,156)" stroke-width="1" opacity="0" d="M 844.5 1005 L 849 1008.5 Q 852.3 1012.2 851 1020.5 L 849.5 1021 L 839 1009.5 L 844.5 1005 Z" /><path desc="l 0 p 97" fill="rgb(156,156,156)" stroke="rgb(156,156,156)" stroke-width="1" opacity="0" d="M 898.5 1011 L 903 1014.5 L 905 1023.5 Q 902.3 1025.3 904 1031.5 Q 900.5 1041.5 892.5 1047 L 883.5 1049 Q 883.9 1035.1 878 1027.5 L 887.5 1015 Q 894.7 1014.7 898.5 1011 Z" /><path desc="l 0 p 98" fill="rgb(156,156,156)" stroke="rgb(156,156,156)" stroke-width="1" opacity="0" d="M 934.5 1014 L 936 1019.5 L 937 1027.5 Q 935.1 1036.1 929.5 1041 L 928 1040.5 Q 926.6 1033 921.5 1029 L 920 1028.5 L 927 1023.5 L 934.5 1014 Z" /><path desc="l 0 p 99" fill="rgb(156,156,156)" stroke="rgb(156,156,156)" stroke-width="1" opacity="0" d="M 509.5 1018 L 538.5 1018 L 545.5 1018 Q 549.8 1017.3 550.5 1020 L 556.5 1025 Q 576.8 1035.7 601 1042.5 Q 582.4 1051.9 570 1067.5 L 562.5 1080 L 543.5 1081 L 531.5 1082 L 523.5 1083 L 518.5 1084 L 506.5 1085 L 491.5 1088 L 454 1094.5 Q 451.5 1098.5 443.5 1097 Q 414.8 1085.8 393 1067.5 Q 391.5 1062 394 1060.5 L 397 1054.5 L 410.5 1040 L 429.5 1030 L 436.5 1027 L 447.5 1025 L 455.5 1025 L 459.5 1024 L 467 1022.5 L 497 1019.5 L 504.5 1019 L 509.5 1018 Z" /><path desc="l 0 p 100" fill="rgb(156,156,156)" stroke="rgb(156,156,156)" stroke-width="1" opacity="0" d="M 806.5 1019 Q 816.6 1025.4 831.5 1027 L 842.5 1029 L 848 1031.5 Q 844.9 1042.4 836.5 1048 L 832.5 1050 L 825.5 1052 L 820.5 1053 L 810 1027.5 L 807 1022.5 L 806.5 1019 Z" /><path desc="l 0 p 101" fill="rgb(156,156,156)" stroke="rgb(156,156,156)" stroke-width="1" opacity="0" d="M 685.5 1029 Q 691.8 1046.7 701.5 1061 Q 706 1062 707 1059.5 Q 707.8 1053.8 705.5 1051 L 703 1038.5 L 705 1037.5 L 706 1040.5 L 710 1046.5 L 722.5 1067 L 727.5 1068 L 730 1062.5 Q 729.3 1058.8 731.5 1058 L 733 1068.5 L 730.5 1075 L 725.5 1081 L 719 1082.5 L 712.5 1083 Q 698.6 1079.4 691 1069.5 Q 685.8 1062.2 685 1050.5 Q 687.3 1049.2 686 1044.5 Q 683.7 1043.3 685 1038.5 L 686 1035.5 L 686 1033.5 L 685.5 1029 Z" /><path desc="l 0 p 102" fill="rgb(156,156,156)" stroke="rgb(156,156,156)" stroke-width="1" opacity="0" d="M 872.5 1032 L 875.5 1040 L 876 1048.5 Q 874.4 1057.4 867.5 1061 L 859.5 1065 Q 856.2 1067.7 849.5 1067 L 843.5 1065 Q 837 1063.5 834 1058.5 L 835.5 1056 L 842.5 1052 L 850 1044.5 L 855.5 1034 L 858.5 1035 L 866.5 1035 L 872.5 1032 Z" /><path desc="l 0 p 103" fill="rgb(156,156,156)" stroke="rgb(156,156,156)" stroke-width="1" opacity="0" d="M 911.5 1032 L 918 1035.5 Q 922.5 1040 921 1050.5 Q 918.4 1057.9 912.5 1062 L 906.5 1066 Q 903.2 1069.2 895.5 1068 L 889.5 1066 Q 883 1064.5 880 1059.5 L 881.5 1056 L 890.5 1055 Q 900.3 1052.3 905 1044.5 L 911.5 1032 Z" /><path desc="l 0 p 104" fill="rgb(156,156,156)" stroke="rgb(156,156,156)" stroke-width="1" opacity="0" d="M 771.5 1040 Q 792.5 1050.5 809 1065.5 L 808 1070.5 L 804.5 1074 Q 799 1076.5 789.5 1075 L 780 1067.5 L 775.5 1061 L 774 1060.5 L 773 1049.5 L 771.5 1040 Z" /><path desc="l 1 p 12" fill="rgb(0,0,0)" stroke="rgb(0,0,0)" stroke-width="1" opacity="0.8274509803921568" d="M 573.5 1044 L 578 1046.5 Q 578.8 1050.3 576.5 1051 Q 573 1053.5 565.5 1052 L 540.5 1053 Q 539.2 1055.2 534.5 1054 L 522.5 1055 L 506.5 1059 L 451.5 1071 L 449 1067.5 L 455.5 1063 L 462 1061.5 L 484.5 1056 L 514.5 1050 L 521 1048.5 L 532.5 1047 Q 537.3 1048.3 538.5 1046 L 562.5 1045 L 569.5 1045 L 573.5 1044 Z" /><path desc="l 0 p 105" fill="rgb(156,156,156)" stroke="rgb(156,156,156)" stroke-width="1" opacity="0" d="M 611.5 1046 Q 620.5 1045 625.5 1048 L 632 1048.5 L 660.5 1049 Q 662 1046.5 667.5 1048 Q 674.9 1048.9 678.5 1046 L 679 1047.5 L 677.5 1051 L 674.5 1050 L 668.5 1050 L 641.5 1050 L 637 1052.5 Q 636.3 1056.3 638.5 1057 L 666.5 1057 Q 674.7 1058.7 678.5 1056 Q 680.9 1073.1 692.5 1081 L 701 1086.5 L 700 1091.5 L 700 1102.5 Q 704.4 1114.1 713.5 1121 L 720.5 1123 L 729 1124.5 Q 731.2 1135.3 739 1140.5 Q 732.5 1140.5 729.5 1144 L 717 1151.5 L 716 1156.5 Q 716.8 1158.8 720.5 1158 L 740 1145.5 L 740.5 1142 L 748 1144.5 L 742.5 1150 Q 741.8 1152.8 737.5 1152 L 729 1154.5 L 696.5 1179 L 689.5 1184 L 678.5 1190 Q 671.5 1194 661.5 1195 L 643.5 1196 L 640.5 1195 Q 636.8 1195.8 636 1193.5 Q 635.2 1188.2 638 1186.5 L 641 1180.5 L 639.5 1178 Q 634 1177 633 1180.5 L 630 1185.5 L 629 1190.5 Q 630 1196 626.5 1197 L 611.5 1207 L 609.5 1206 Q 608 1208.5 602.5 1207 Q 592.5 1208 586.5 1213 L 578.5 1217 L 562.5 1218 L 558 1215.5 Q 567.5 1201 580.5 1190 L 593 1179.5 Q 595.4 1173.9 603.5 1174 L 603.5 1175 Q 599.5 1174.5 599 1177.5 Q 598.3 1181.3 600.5 1182 L 606.5 1181 L 613.5 1178 Q 621.3 1176.3 626 1171.5 Q 626.8 1167.8 624.5 1167 L 619.5 1168 L 608.5 1173 L 609 1171.5 Q 609.8 1166.8 606.5 1166 L 596.5 1168 L 590 1172.5 L 579.5 1182 Q 577 1174 570.5 1170 L 566 1167.5 L 575 1158.5 Q 579 1157.5 578 1151.5 Q 577.3 1149.3 573.5 1150 L 536.5 1188 L 521.5 1200 L 517 1197.5 L 511.5 1194 L 502 1187.5 L 510.5 1184 L 519.5 1178 L 553.5 1158 L 560.5 1154 L 567 1149.5 L 565.5 1145 Q 559.3 1143.8 558 1147.5 L 546 1154.5 L 518.5 1171 Q 508.8 1178.8 494.5 1182 Q 490.3 1176.2 481.5 1175 L 476.5 1178 Q 473.7 1181.7 467.5 1182 L 458.5 1180 Q 452.6 1177.4 442.5 1179 L 436.5 1181 L 431.5 1185 L 428.5 1188 L 425.5 1189 Q 413.2 1186.8 405 1180.5 L 404 1174.5 Q 409.5 1156.5 420.5 1144 Q 430.7 1127.2 444.5 1114 L 457.5 1105 L 462.5 1103 L 471 1100.5 L 471.5 1099 L 496.5 1094 L 515.5 1091 L 538 1088.5 L 561.5 1087 Q 562.6 1093.4 567.5 1096 L 580 1099.5 Q 585.3 1099.3 587.5 1102 L 606.5 1096 Q 616 1098 618 1092.5 L 615.5 1089 L 605 1089.5 L 598.5 1091 L 592 1092.5 L 582.5 1093 Q 581.3 1090.8 576.5 1092 L 574.5 1091 Q 569.5 1091.5 569 1087.5 Q 568.4 1081.4 571 1078.5 L 577 1070.5 L 589.5 1058 L 611.5 1046 Z" /><path desc="l 0 p 106" fill="rgb(156,156,156)" stroke="rgb(156,156,156)" stroke-width="1" opacity="0" d="M 1042.5 1047 L 1056.5 1048 L 1062.5 1049 Q 1072.2 1049.8 1077.5 1055 L 1100 1067.5 Q 1110.2 1072.8 1117 1081.5 L 1129.5 1096 L 1135 1100.5 L 1154.5 1123 Q 1173.3 1144.3 1187 1170.5 L 1203 1203.5 L 1209.5 1219 L 1216.5 1235 L 1224.5 1258 L 1227.5 1268 L 1229.5 1280 L 1232.5 1305 L 1234.5 1324 L 1236 1345.5 L 1237.5 1372 L 1238 1398.5 Q 1235.8 1399.8 1237 1404.5 L 1236 1417.5 L 1233 1437.5 L 1228.5 1459 L 1223 1431.5 L 1215 1395.5 L 1213 1384.5 L 1210 1374.5 L 1198.5 1350 L 1179 1315.5 L 1165.5 1297 L 1142.5 1272 L 1109 1249.5 L 1093.5 1241 L 1070.5 1230 L 1050.5 1221 L 1024.5 1211 L 1010 1206.5 L 1002 1203.5 L 1000.5 1201 L 980.5 1198 Q 971 1197 965 1192.5 Q 934.1 1178.4 914 1153.5 L 884 1110.5 L 884 1108.5 L 882.5 1106 L 879 1103.5 Q 880.5 1097 885.5 1094 Q 893.2 1087.7 894.5 1075 L 905 1075.5 L 906 1079.5 L 909.5 1088 L 921 1107.5 Q 923.4 1114.6 929 1118.5 L 944.5 1134 Q 958.5 1147 976.5 1156 L 1005.5 1167 L 1015 1169.5 L 1031.5 1170 L 1041 1167.5 Q 1055.1 1164.1 1063 1154.5 Q 1067.8 1148.3 1069 1138.5 L 1070.5 1130 L 1071 1115.5 Q 1069.2 1104.8 1064 1097.5 L 1051 1073.5 L 1041 1058.5 L 1038.5 1055 Q 1036 1054 1037 1049.5 L 1042.5 1047 Z" /><path desc="l 1 p 13" fill="rgb(0,0,0)" stroke="rgb(0,0,0)" stroke-width="1" opacity="0.8274509803921568" d="M 631.5 1058 Q 641.8 1056.7 648.5 1059 Q 654.3 1058.2 656 1061.5 Q 656.8 1065.3 654.5 1066 L 632.5 1065 L 628.5 1066 Q 625.3 1065.3 626 1060.5 L 631.5 1058 Z" /><path desc="l 0 p 107" fill="rgb(156,156,156)" stroke="rgb(156,156,156)" stroke-width="1" opacity="0" d="M 739.5 1058 L 762.5 1089 L 767.5 1090 Q 771.5 1087.5 771.5 1081 L 773.5 1071 L 775 1071.5 L 780 1078.5 L 772.5 1089 L 767.5 1092 Q 764.6 1094.6 758.5 1094 L 751.5 1092 Q 744.1 1089.9 740 1084.5 L 737 1078.5 L 739.5 1071 L 740 1065.5 Q 737.2 1063.7 739.5 1058 Z" /><path desc="l 0 p 108" fill="rgb(156,156,156)" stroke="rgb(156,156,156)" stroke-width="1" opacity="0" d="M 823.5 1059 L 837 1070.5 Q 839.9 1074.1 839 1081.5 Q 836.4 1088.9 830.5 1093 Q 825.5 1098 815.5 1098 Q 803.7 1095.8 798 1087.5 L 796 1082.5 L 797.5 1083 Q 809.6 1081.6 815 1073.5 L 815.5 1072 Q 818.3 1076.2 824.5 1077 Q 828 1076 827 1070.5 L 823.5 1059 Z" /><path desc="l 0 p 109" fill="rgb(156,156,156)" stroke="rgb(156,156,156)" stroke-width="1" opacity="0" d="M 874.5 1064 Q 878.8 1069.8 886 1072.5 L 887 1078.5 Q 883.1 1088.6 875.5 1095 Q 871.5 1101 859.5 1099 Q 850.5 1095.5 845 1088.5 L 844 1086.5 L 846 1079.5 L 846.5 1073 L 849.5 1074 L 855.5 1074 Q 867.1 1071.1 874.5 1064 Z" /><path desc="l 1 p 14" fill="rgb(0,0,0)" stroke="rgb(0,0,0)" stroke-width="1" opacity="0.8274509803921568" d="M 630.5 1068 L 638.5 1068 Q 643.3 1067.3 644 1070.5 Q 644.5 1074.5 641.5 1075 L 632 1075.5 L 617 1077.5 L 622.5 1078 Q 627.3 1077.3 628 1080.5 Q 628.5 1084.5 625.5 1085 L 616.5 1085 L 610.5 1086 L 597.5 1088 L 596 1085.5 L 599.5 1081 L 608.5 1079 L 612 1077.5 Q 609.3 1076.8 610 1072.5 L 618.5 1070 L 626.5 1069 L 630.5 1068 Z" /><path desc="l 0 p 110" fill="rgb(156,156,156)" stroke="rgb(156,156,156)" stroke-width="1" opacity="0" d="M 786.5 1082 L 793 1093.5 Q 796.7 1097.8 795 1107.5 L 790.5 1115 Q 786.2 1119.2 777.5 1119 Q 765 1116.5 758 1108.5 L 756 1100.5 L 757.5 1101 Q 772.8 1101.3 779 1092.5 L 779.5 1091 L 782 1089.5 L 786.5 1082 Z" /><path desc="l 0 p 111" fill="rgb(156,156,156)" stroke="rgb(156,156,156)" stroke-width="1" opacity="0" d="M 731.5 1085 L 737.5 1092 L 746 1097.5 Q 746.8 1103.8 744 1106.5 L 737.5 1114 L 732.5 1116 L 724.5 1117 L 720.5 1116 Q 714.4 1114.6 712 1109.5 L 708 1102.5 Q 705.3 1100.8 707 1094.5 L 707 1092.5 L 707.5 1089 L 719.5 1090 L 722.5 1089 L 726.5 1088 L 731.5 1085 Z" /><path desc="l 0 p 112" fill="rgb(156,156,156)" stroke="rgb(156,156,156)" stroke-width="1" opacity="0" d="M 839.5 1094 L 844 1099.5 L 845 1107.5 L 844 1112.5 L 836.5 1126 Q 833.6 1129.6 825.5 1128 Q 817.1 1124.9 812 1118.5 L 806 1109.5 L 802 1101.5 L 804.5 1101 L 811.5 1104 L 820.5 1105 Q 833 1102.5 839.5 1094 Z" /><path desc="l 1 p 15" fill="rgb(0,0,0)" stroke="rgb(0,0,0)" stroke-width="1" opacity="0.8274509803921568" d="M 594.5 1101 L 601.5 1101 Q 606.3 1100.3 607 1103.5 L 605.5 1107 L 599.5 1108 Q 593.4 1107.4 590.5 1110 L 576.5 1113 Q 574.3 1112.3 575 1108.5 Q 576.8 1105.3 581.5 1105 L 594.5 1101 Z" /><path desc="l 1 p 16" fill="rgb(0,0,0)" stroke="rgb(0,0,0)" stroke-width="1" opacity="0.8274509803921568" d="M 556.5 1104 Q 563.2 1102.3 565 1105.5 L 566 1107.5 L 563.5 1111 Q 523.1 1117.1 495.5 1136 L 475 1147.5 L 441.5 1164 L 439 1162.5 L 438 1160.5 L 440.5 1157 L 468.5 1143 L 491 1130.5 L 509 1120.5 L 520 1115.5 L 532 1111.5 L 556.5 1104 Z" /><path desc="l 0 p 113" fill="rgb(156,156,156)" stroke="rgb(156,156,156)" stroke-width="1" opacity="0" d="M 857.5 1106 L 865.5 1107 Q 866.8 1104.8 871.5 1106 L 874 1110.5 Q 863.9 1115.4 858 1124.5 L 850.5 1137 Q 843 1143 829.5 1143 L 829 1138.5 L 830.5 1135 L 837.5 1134 L 843 1129.5 L 849.5 1117 Q 851.1 1109.1 857.5 1106 Z" /><path desc="l 0 p 114" fill="rgb(156,156,156)" stroke="rgb(156,156,156)" stroke-width="1" opacity="0" d="M 750.5 1110 L 755.5 1116 Q 761.9 1122.1 772 1124.5 Q 772.1 1132.6 766.5 1135 L 758 1137.5 L 752.5 1138 L 747.5 1137 Q 741.4 1135.6 739 1130.5 L 737 1126.5 L 736 1122.5 Q 744.2 1119.2 749 1112.5 L 750.5 1110 Z" /><path desc="l 0 p 115" fill="rgb(156,156,156)" stroke="rgb(156,156,156)" stroke-width="1" opacity="0" d="M 799.5 1114 L 801 1114.5 L 806.5 1122 Q 809.8 1123.7 809 1129.5 Q 806.1 1134.1 799.5 1135 L 794.5 1136 L 791.5 1135 L 782 1130.5 L 779 1126.5 L 786.5 1125 L 797 1118.5 L 799.5 1114 Z" /><path desc="l 1 p 17" fill="rgb(0,0,0)" stroke="rgb(0,0,0)" stroke-width="1" opacity="0.8274509803921568" d="M 582.5 1115 Q 589.3 1113.3 591 1116.5 Q 591.8 1120.3 589.5 1121 L 567.5 1128 Q 564.5 1127.5 565 1123.5 Q 567.4 1119.4 573 1118.5 L 582.5 1115 Z" /><path desc="l 0 p 116" fill="rgb(156,156,156)" stroke="rgb(156,156,156)" stroke-width="1" opacity="0" d="M 876.5 1117 L 878 1117.5 L 893 1137.5 L 877.5 1157 L 870.5 1159 L 864.5 1160 L 852.5 1160 L 852 1154.5 Q 857.1 1130.1 874.5 1118 L 876.5 1117 Z" /><path desc="l 1 p 18" fill="rgb(0,0,0)" stroke="rgb(0,0,0)" stroke-width="1" opacity="0.8274509803921568" d="M 579.5 1127 Q 584.8 1125.8 586 1128.5 Q 586.8 1132.3 584.5 1133 L 575.5 1137 Q 573.2 1139.7 567.5 1139 L 566 1135.5 L 568.5 1132 L 579.5 1127 Z" /><path desc="l 0 p 117" fill="rgb(156,156,156)" stroke="rgb(156,156,156)" stroke-width="1" opacity="0" d="M 776.5 1135 Q 783.3 1142.7 797.5 1143 L 802.5 1142 L 801 1144.5 L 798.5 1149 Q 774.6 1159.1 757.5 1176 L 747.5 1185 L 742.5 1189 L 738.5 1191 L 726.5 1198 L 725 1194.5 Q 733.9 1165.4 754.5 1148 L 759.5 1145 L 765.5 1143 Q 773 1141 776.5 1135 Z" /><path desc="l 0 p 118" fill="rgb(156,156,156)" stroke="rgb(156,156,156)" stroke-width="1" opacity="0" d="M 821.5 1135 L 823 1135.5 Q 820.5 1139 822 1146.5 L 824.5 1150 L 827.5 1151 L 846.5 1147 L 847 1148.5 L 845 1155.5 Q 845.8 1161.3 841.5 1162 L 821.5 1178 L 809 1187.5 L 792.5 1202 L 791 1198.5 L 791 1189.5 L 801.5 1160 Q 805.4 1145.9 816.5 1139 L 821.5 1135 Z" /><path desc="l 0 p 119" fill="rgb(156,156,156)" stroke="rgb(156,156,156)" stroke-width="1" opacity="0" d="M 896.5 1144 L 900 1146.5 L 913 1164.5 L 906.5 1173 L 891.5 1183 Q 884.3 1188.8 871.5 1189 L 872 1187.5 Q 871 1179 875 1175.5 L 882 1162.5 L 896.5 1144 Z" /><path desc="l 1 p 19" fill="rgb(0,0,0)" stroke="rgb(0,0,0)" stroke-width="1" opacity="0.8274509803921568" d="M 711.5 1146 Q 715.3 1145.3 716 1147.5 Q 717 1154 712.5 1155 L 699.5 1164 L 696.5 1166 L 691.5 1167 Q 689.3 1166.3 690 1162.5 L 711.5 1146 Z" /><path desc="l 1 p 20" fill="rgb(0,0,0)" stroke="rgb(0,0,0)" stroke-width="1" opacity="0.8274509803921568" d="M 683.5 1155 Q 687.3 1154.3 688 1156.5 Q 688.8 1161.3 685.5 1162 L 678.5 1169 L 675.5 1171 L 670.5 1172 Q 668.3 1171.3 669 1167.5 L 683.5 1155 Z" /><path desc="l 1 p 21" fill="rgb(0,0,0)" stroke="rgb(0,0,0)" stroke-width="1" opacity="0.8274509803921568" d="M 663.5 1160 Q 668.3 1159.3 669 1162.5 L 665.5 1168 L 655.5 1175 L 650.5 1178 L 645.5 1179 L 643 1175.5 L 645.5 1172 Q 656.2 1167.7 663.5 1160 Z" /><path desc="l 0 p 120" fill="rgb(156,156,156)" stroke="rgb(156,156,156)" stroke-width="1" opacity="0" d="M 792.5 1160 L 794 1160.5 L 786.5 1182 Q 782.2 1188.7 784 1201.5 L 785 1204.5 Q 784.4 1209.1 787 1210.5 Q 784.3 1214.3 778.5 1215 L 758.5 1229 L 723.5 1253 L 723 1241.5 L 729 1225.5 L 733 1215.5 L 739 1205.5 L 759.5 1183 L 771 1173.5 Q 780.3 1165.3 792.5 1160 Z" /><path desc="l 1 p 22" fill="rgb(0,0,0)" stroke="rgb(0,0,0)" stroke-width="1" opacity="0.8274509803921568" d="M 642.5 1164 L 646 1165.5 Q 647 1172 642.5 1173 Q 637.5 1178 627.5 1178 L 626 1174.5 L 632.5 1170 L 642.5 1164 Z" /><path desc="l 0 p 121" fill="rgb(156,156,156)" stroke="rgb(156,156,156)" stroke-width="1" opacity="0" d="M 847.5 1166 Q 855.8 1168.7 868.5 1167 L 870.5 1166 L 871 1167.5 Q 866 1173.5 865 1183.5 L 863 1192.5 L 865.5 1196 L 868 1196.5 L 837.5 1229 L 799.5 1258 L 799 1252.5 L 801 1242.5 L 801.5 1237 L 804 1229.5 L 807.5 1219 Q 811.9 1201.9 822.5 1191 L 847.5 1166 Z" /><path desc="l 0 p 122" fill="rgb(156,156,156)" stroke="rgb(156,156,156)" stroke-width="1" opacity="0" d="M 918.5 1170 Q 929.4 1181.6 944 1189.5 L 941.5 1193 L 920 1206.5 L 892.5 1218 L 892 1215.5 Q 902.6 1190.1 918.5 1170 Z" /><path desc="l 0 p 123" fill="rgb(156,156,156)" stroke="rgb(156,156,156)" stroke-width="1" opacity="0" d="M 559.5 1174 Q 568.5 1174 571 1180.5 L 572 1188.5 L 563.5 1198 L 561 1196.5 Q 559.4 1189.6 553.5 1187 L 550 1185.5 L 559.5 1174 Z" /><path desc="l 0 p 124" fill="rgb(156,156,156)" stroke="rgb(156,156,156)" stroke-width="1" opacity="0" d="M 482.5 1182 L 502 1196.5 L 515.5 1205 Q 518.2 1207.8 524.5 1207 L 544.5 1191 L 546.5 1192 L 549.5 1193 L 554 1197.5 L 556 1205.5 L 551 1212.5 Q 548.3 1213.3 549 1217.5 L 558 1223.5 L 564.5 1225 L 575.5 1225 Q 585.1 1223.1 591.5 1218 Q 600.1 1212.1 616.5 1214 L 623.5 1216 Q 633.6 1218.4 639 1225.5 Q 645.4 1231.1 643 1245.5 Q 641.5 1252 636.5 1255 L 629.5 1258 L 621.5 1259 Q 620.3 1256.8 615.5 1258 Q 608.6 1258.9 606 1255.5 L 616.5 1255 Q 625.5 1254 629 1247.5 Q 632.1 1243.1 631 1234.5 Q 628.3 1224.8 620.5 1220 L 614.5 1219 L 600.5 1224 L 597.5 1219 Q 589.6 1218.1 588 1223.5 L 585.5 1228 L 568.5 1231 L 552.5 1233 L 543.5 1233 Q 538 1232 537 1235.5 Q 536.3 1239.3 538.5 1240 L 565 1248.5 L 572 1250.5 L 577 1252.5 L 576 1257.5 Q 579.8 1268.8 588.5 1275 Q 607.3 1279.7 617 1293.5 Q 625.2 1301.8 628 1315.5 L 626.5 1316 L 621.5 1312 L 615.5 1311 Q 613.3 1311.8 614 1315.5 L 619.5 1319 L 629 1327.5 L 630 1335.5 L 629 1339.5 L 624.5 1347 Q 620.8 1346.3 620 1348.5 L 612.5 1354 L 613 1352.5 Q 615.7 1349.2 615 1342.5 L 613 1335.5 Q 610.9 1327.6 604.5 1324 Q 599 1319.5 587.5 1321 L 580.5 1324 L 577 1321.5 L 578 1316.5 L 580.5 1312 L 589.5 1306 Q 595 1307 596 1303.5 Q 596.5 1299.5 593.5 1299 L 580.5 1301 L 577 1298.5 L 580.5 1294 L 583 1292.5 Q 583.8 1288.8 581.5 1288 Q 573.4 1287.9 571 1293.5 L 570.5 1295 L 554.5 1285 L 550.5 1283 L 546 1279.5 L 537.5 1269 Q 533.5 1268.5 533 1271.5 Q 532.3 1275.8 535 1276.5 L 543.5 1287 Q 551.3 1294.3 554 1306.5 L 549.5 1303 L 546 1300.5 Q 544.3 1298.3 539.5 1299 L 537 1303.5 L 543.5 1320 L 547 1326.5 L 534 1336.5 L 521.5 1342 Q 516.7 1346.7 508.5 1348 L 494.5 1349 L 488 1345.5 Q 498.3 1344.8 503 1338.5 L 506 1331.5 L 507 1325.5 L 506 1322.5 L 503 1315.5 L 500.5 1312 L 499 1308.5 L 501.5 1305 Q 504.5 1302 511.5 1303 L 523 1310.5 Q 523.8 1313.8 528.5 1313 Q 530.8 1312.3 530 1308.5 L 525.5 1303 L 518 1298.5 L 515.5 1290 L 515 1281.5 L 519.5 1270 Q 521.7 1273.7 528.5 1273 Q 530.8 1272.3 530 1268.5 L 518 1258.5 Q 512.6 1251.4 510.5 1241 Q 508 1226 499 1217.5 L 507 1211.5 Q 507.8 1207.8 505.5 1207 L 500.5 1208 L 494 1211.5 L 487.5 1214 L 481 1215.5 L 474.5 1216 L 477 1212.5 L 479.5 1209 Q 481.8 1207.3 481 1202.5 Q 480.3 1200.3 476.5 1201 L 466.5 1213 Q 462.7 1216.7 455.5 1217 L 454 1208.5 L 449.5 1199 Q 445.8 1193.7 435.5 1195 L 431.5 1197 L 431 1195.5 L 435.5 1190 Q 441.5 1184.5 454.5 1186 Q 461 1189 470.5 1189 Q 478.4 1187.4 482.5 1182 Z" /><path desc="l 0 p 125" fill="rgb(156,156,156)" stroke="rgb(156,156,156)" stroke-width="1" opacity="0" d="M 897.5 1188 L 898 1189.5 L 889.5 1203 L 884 1220.5 L 888.5 1227 L 892.5 1226 L 897.5 1224 L 921.5 1213 L 922 1214.5 L 916.5 1222 Q 892.6 1237.1 875 1258.5 L 865 1271.5 Q 861.7 1279.7 854.5 1284 Q 832.3 1299.8 814 1319.5 L 813.5 1321 Q 810.8 1319.8 812 1314.5 L 813 1309.5 L 813 1297.5 L 814 1289.5 L 816 1280.5 L 822.5 1266 Q 829.4 1249.4 841 1237.5 L 858 1218.5 L 880.5 1195 Q 890.6 1193.1 897.5 1188 Z" /><path desc="l 0 p 126" fill="rgb(156,156,156)" stroke="rgb(156,156,156)" stroke-width="1" opacity="0" d="M 950.5 1195 L 954.5 1196 L 962 1199.5 L 973.5 1204 L 981 1206.5 L 979.5 1215 L 967 1221.5 L 956 1226.5 L 916.5 1244 L 916 1242.5 Q 923.6 1217.1 941.5 1202 L 950.5 1195 Z" /><path desc="l 0 p 127" fill="rgb(156,156,156)" stroke="rgb(156,156,156)" stroke-width="1" opacity="0" d="M 808.5 1197 L 806.5 1200 L 808.5 1197 Z" /><path desc="l 0 p 128" fill="rgb(156,156,156)" stroke="rgb(156,156,156)" stroke-width="1" opacity="0" d="M 669.5 1200 L 672 1200.5 L 657 1217.5 L 649.5 1229 L 640.5 1217 L 623 1207.5 L 629 1203.5 Q 630.4 1200.4 635.5 1201 L 642 1202.5 L 653.5 1203 Q 654.8 1200.8 659.5 1202 Q 666.2 1202.7 669.5 1200 Z" /><path desc="l 0 p 129" fill="rgb(156,156,156)" stroke="rgb(156,156,156)" stroke-width="1" opacity="0" d="M 436.5 1202 Q 441.2 1200.8 442.5 1203 L 446 1206.5 Q 448.7 1209.8 448 1216.5 L 445 1225.5 L 447 1234.5 L 450 1243.5 L 447.5 1244 L 439 1236.5 L 432.5 1221 L 430.5 1215 L 430 1209.5 L 436.5 1202 Z" /><path desc="l 0 p 130" fill="rgb(156,156,156)" stroke="rgb(156,156,156)" stroke-width="1" opacity="0" d="M 987.5 1208 L 1011 1214.5 L 1011 1224.5 Q 1010.3 1230.7 1013.5 1233 L 1022 1242.5 Q 1018.3 1247.8 1007.5 1246 Q 1000.2 1243.8 996 1238.5 L 989 1224.5 L 987.5 1218 L 987.5 1208 Z" /><path desc="l 0 p 131" fill="rgb(156,156,156)" stroke="rgb(156,156,156)" stroke-width="1" opacity="0" d="M 801.5 1210 L 803 1210.5 L 796 1230.5 Q 793 1237 793 1246.5 L 792 1259.5 L 797 1265.5 L 781 1276.5 L 774.5 1281 L 768.5 1284 L 752.5 1293 L 742 1300.5 L 735.5 1304 L 735 1290.5 Q 740 1267.5 753 1252.5 L 773.5 1230 Q 785.8 1218.3 801.5 1210 Z" /><path desc="l 0 p 132" fill="rgb(156,156,156)" stroke="rgb(156,156,156)" stroke-width="1" opacity="0" d="M 1018.5 1216 L 1055 1230.5 Q 1055.9 1238.9 1051.5 1242 Q 1047.5 1245 1039.5 1244 Q 1027 1240 1020 1230.5 Q 1017.4 1229.1 1018 1224.5 L 1018.5 1216 Z" /><path desc="l 0 p 133" fill="rgb(156,156,156)" stroke="rgb(156,156,156)" stroke-width="1" opacity="0" d="M 487.5 1221 Q 494.4 1220.1 496 1224.5 Q 501.1 1230.9 503 1240.5 Q 504.5 1249.5 509 1255.5 L 499.5 1256 L 495.5 1255 L 486.5 1255 Q 478.9 1256.1 476 1252.5 Q 473.5 1247 475 1237.5 L 479.5 1223 L 487.5 1221 Z" /><path desc="l 0 p 134" fill="rgb(156,156,156)" stroke="rgb(156,156,156)" stroke-width="1" opacity="0" d="M 979.5 1222 L 981 1222.5 Q 982.4 1232.6 988 1238.5 L 994 1247.5 Q 983.6 1261.6 966.5 1269 L 935.5 1289 L 935 1279.5 L 937 1269.5 Q 940.8 1258.3 948 1250.5 L 965.5 1231 L 979.5 1222 Z" /><path desc="l 0 p 135" fill="rgb(156,156,156)" stroke="rgb(156,156,156)" stroke-width="1" opacity="0" d="M 615.5 1226 L 620 1228.5 Q 625.1 1231.9 624 1241.5 L 620.5 1246 Q 612.6 1249.6 599.5 1248 L 594.5 1247 L 580.5 1245 L 560 1239.5 L 573.5 1238 L 585 1235.5 L 600 1231.5 L 615.5 1226 Z" /><path desc="l 0 p 136" fill="rgb(156,156,156)" stroke="rgb(156,156,156)" stroke-width="1" opacity="0" d="M 910.5 1234 L 911 1236.5 L 908 1248.5 L 911.5 1254 Q 916 1255 917 1252.5 L 922.5 1249 L 948.5 1237 L 949 1238.5 L 938.5 1251 Q 931.4 1259.9 929 1273.5 L 928 1282.5 Q 929 1287 926.5 1288 L 924 1292.5 L 914.5 1308 L 895 1337.5 Q 887.8 1353.3 874.5 1363 Q 855.8 1379.3 842.5 1401 L 839 1387.5 L 838 1378.5 L 838 1360.5 L 839 1358.5 L 838 1356.5 L 842 1338.5 Q 845.5 1320 853.5 1306 L 868 1280.5 L 872 1275.5 L 875 1269.5 L 903.5 1240 L 910.5 1234 Z" /><path desc="l 0 p 137" fill="rgb(156,156,156)" stroke="rgb(156,156,156)" stroke-width="1" opacity="0" d="M 1063.5 1234 L 1087.5 1246 L 1095.5 1250 L 1101 1253.5 L 1100 1256.5 Q 1100.5 1261.5 1096.5 1262 Q 1093.3 1265.8 1085.5 1265 Q 1074.6 1261.4 1068 1253.5 L 1064 1246.5 L 1063 1241.5 L 1063.5 1234 Z" /><path desc="l 0 p 138" fill="rgb(156,156,156)" stroke="rgb(156,156,156)" stroke-width="1" opacity="0" d="M 1027.5 1247 L 1033 1249.5 Q 1031.4 1260.1 1035.5 1265 L 1039 1271.5 Q 1036 1274.5 1028.5 1273 Q 1019.9 1271.1 1015 1265.5 Q 1011.8 1261.2 1012 1253.5 Q 1022.7 1253.2 1027.5 1247 Z" /><path desc="l 0 p 139" fill="rgb(156,156,156)" stroke="rgb(156,156,156)" stroke-width="1" opacity="0" d="M 1056.5 1247 L 1066.5 1262 L 1078 1269.5 L 1076.5 1272 Q 1070.5 1276 1060.5 1276 Q 1050.9 1273.1 1045 1266.5 L 1041 1260.5 L 1040 1251.5 Q 1050.8 1251.8 1056.5 1247 Z" /><path desc="l 0 p 140" fill="rgb(156,156,156)" stroke="rgb(156,156,156)" stroke-width="1" opacity="0" d="M 821.5 1250 L 823 1250.5 L 820.5 1254 L 818 1253.5 L 821.5 1250 Z" /><path desc="l 0 p 141" fill="rgb(156,156,156)" stroke="rgb(156,156,156)" stroke-width="1" opacity="0" d="M 1001.5 1251 L 1005 1252.5 Q 1004.7 1266.8 1012.5 1273 L 1021 1277.5 L 1019 1284.5 Q 1019.5 1288.5 1016.5 1289 L 998.5 1303 L 954.5 1342 Q 951.7 1337.9 953 1329.5 L 956 1317.5 L 964.5 1294 Q 966.5 1286 972 1281.5 L 985.5 1266 L 992 1260.5 L 999.5 1252 L 1001.5 1251 Z" /><path desc="l 0 p 142" fill="rgb(156,156,156)" stroke="rgb(156,156,156)" stroke-width="1" opacity="0" d="M 1107.5 1257 L 1123.5 1267 Q 1141.1 1277.9 1154 1293.5 L 1153.5 1295 L 1148.5 1296 L 1138.5 1296 Q 1121.3 1291.7 1112 1279.5 L 1108 1270.5 L 1107 1265.5 L 1107.5 1257 Z" /><path desc="l 0 p 143" fill="rgb(156,156,156)" stroke="rgb(156,156,156)" stroke-width="1" opacity="0" d="M 815.5 1263 L 815 1264.5 L 810 1278.5 Q 807 1281.5 807 1287.5 L 806 1295.5 Q 807.4 1304.4 805 1309.5 L 806 1311.5 L 805 1314.5 Q 805.8 1320.3 801.5 1321 L 792.5 1329 L 789.5 1332 L 786.5 1333 L 779.5 1337 L 741.5 1361 L 741 1345.5 Q 746.3 1326.8 757 1313.5 L 779.5 1287 Q 794.7 1272.2 815.5 1263 Z" /><path desc="l 0 p 144" fill="rgb(156,156,156)" stroke="rgb(156,156,156)" stroke-width="1" opacity="0" d="M 1099.5 1268 L 1102 1275.5 Q 1105.5 1285.5 1113.5 1291 L 1117 1293.5 L 1116.5 1295 L 1105.5 1296 Q 1093.3 1292.3 1086 1283.5 L 1084 1275.5 L 1086.5 1272 L 1092 1271.5 L 1099.5 1268 Z" /><path desc="l 0 p 145" fill="rgb(156,156,156)" stroke="rgb(156,156,156)" stroke-width="1" opacity="0" d="M 1044.5 1276 L 1057 1282.5 Q 1055.8 1291.7 1060 1295.5 L 1064 1302.5 L 1054.5 1303 L 1046 1296.5 Q 1041.1 1292.4 1043 1281.5 L 1044.5 1276 Z" /><path desc="l 0 p 146" fill="rgb(156,156,156)" stroke="rgb(156,156,156)" stroke-width="1" opacity="0" d="M 963.5 1279 L 964 1280.5 L 956.5 1295 L 948.5 1319 L 946.5 1328 L 946 1340.5 L 947 1343.5 L 943 1348.5 L 938 1359.5 L 914 1403.5 Q 905.9 1413.4 901 1426.5 L 888.5 1453 Q 883.8 1444.8 884 1431.5 L 883 1419.5 L 882 1400.5 Q 884.3 1399.3 883 1394.5 L 886 1374.5 Q 889.8 1356.8 899 1344.5 L 929.5 1298 Q 930.3 1300.8 934.5 1300 L 945.5 1291 L 963.5 1279 Z" /><path desc="l 0 p 147" fill="rgb(156,156,156)" stroke="rgb(156,156,156)" stroke-width="1" opacity="0" d="M 1028.5 1280 L 1036 1280.5 Q 1034.1 1292.4 1038.5 1298 L 1044.5 1305 L 1046 1305.5 L 1043.5 1309 Q 1036.4 1310.1 1034.5 1306 L 1027 1300.5 Q 1024.2 1297.8 1025 1291.5 L 1026 1287.5 Q 1025.5 1282 1028.5 1280 Z" /><path desc="l 0 p 148" fill="rgb(156,156,156)" stroke="rgb(156,156,156)" stroke-width="1" opacity="0" d="M 1075.5 1280 L 1078 1280.5 Q 1077.4 1285.1 1080 1286.5 L 1085.5 1293 L 1093 1298.5 L 1090.5 1302 L 1083.5 1304 Q 1072.6 1301.9 1067 1294.5 L 1065 1290.5 L 1064 1283.5 L 1075.5 1280 Z" /><path desc="l 0 p 149" fill="rgb(156,156,156)" stroke="rgb(156,156,156)" stroke-width="1" opacity="0" d="M 479.5 1292 L 481.5 1299 Q 483.6 1309.4 490.5 1315 Q 495.3 1315.3 497 1318.5 Q 500.5 1322.5 499 1331.5 L 495.5 1336 L 489.5 1338 L 484 1334.5 L 479.5 1328 L 476 1317.5 Q 473.2 1311.3 475 1300.5 L 479.5 1292 Z" /><path desc="l 0 p 150" fill="rgb(156,156,156)" stroke="rgb(156,156,156)" stroke-width="1" opacity="0" d="M 558.5 1295 L 576 1306.5 L 569.5 1319 L 561 1312.5 L 562 1307.5 L 558.5 1295 Z" /><path desc="l 0 p 151" fill="rgb(156,156,156)" stroke="rgb(156,156,156)" stroke-width="1" opacity="0" d="M 850.5 1296 L 850 1297.5 L 840.5 1319 L 835 1336.5 L 833 1344.5 L 832 1354.5 L 831 1357.5 Q 829.8 1364.3 825.5 1368 L 808.5 1395 L 801.5 1398 L 789 1406.5 Q 771.3 1416.3 756.5 1429 Q 753.5 1427.5 755 1421.5 L 755 1401.5 Q 758.5 1384 768 1372.5 Q 782.9 1345.4 805.5 1326 L 808 1327.5 L 809.5 1330 L 812.5 1331 L 819 1325.5 L 833.5 1310 L 850.5 1296 Z" /><path desc="l 0 p 152" fill="rgb(156,156,156)" stroke="rgb(156,156,156)" stroke-width="1" opacity="0" d="M 1017.5 1296 Q 1019.6 1305.4 1026.5 1310 L 1037 1315.5 L 1025 1331.5 L 1009.5 1350 Q 992.5 1365.5 979.5 1385 Q 975.3 1376.2 977 1361.5 Q 979.5 1360 978 1354.5 L 983 1338.5 Q 984.2 1330.2 989.5 1326 Q 996.4 1312.4 1008.5 1304 L 1017.5 1296 Z" /><path desc="l 0 p 153" fill="rgb(156,156,156)" stroke="rgb(156,156,156)" stroke-width="1" opacity="0" d="M 1124.5 1299 L 1141 1303.5 L 1139.5 1310 L 1139 1321.5 L 1142 1328.5 L 1136.5 1329 Q 1128.3 1325.7 1124 1318.5 Q 1119.8 1314.2 1120 1305.5 L 1124.5 1299 Z" /><path desc="l 0 p 154" fill="rgb(156,156,156)" stroke="rgb(156,156,156)" stroke-width="1" opacity="0" d="M 1157.5 1300 L 1161 1302.5 L 1171 1316.5 L 1184 1339.5 Q 1178.9 1344.4 1167.5 1343 Q 1158.6 1339.4 1153 1332.5 L 1148 1324.5 Q 1144.5 1320.5 1146 1311.5 L 1149.5 1303 Q 1155.6 1303.6 1157.5 1300 Z" /><path desc="l 0 p 155" fill="rgb(156,156,156)" stroke="rgb(156,156,156)" stroke-width="1" opacity="0" d="M 1100.5 1302 L 1114 1303.5 Q 1111.5 1305 1113 1310.5 L 1114 1314.5 L 1117 1319.5 L 1126 1331.5 L 1120.5 1333 L 1111.5 1333 L 1100 1326.5 L 1093 1320.5 L 1091 1312.5 L 1093.5 1308 L 1100.5 1302 Z" /><path desc="l 0 p 156" fill="rgb(156,156,156)" stroke="rgb(156,156,156)" stroke-width="1" opacity="0" d="M 1071.5 1307 L 1084 1311.5 Q 1083.7 1326.3 1093.5 1331 L 1097 1333.5 Q 1095.3 1335.8 1090.5 1335 Q 1080.4 1331.1 1074 1323.5 L 1071 1318.5 L 1070 1309.5 L 1071.5 1307 Z" /><path desc="l 0 p 157" fill="rgb(156,156,156)" stroke="rgb(156,156,156)" stroke-width="1" opacity="0" d="M 1053.5 1310 L 1060.5 1311 L 1062.5 1310 Q 1062.5 1322.5 1069 1328.5 L 1057.5 1329 L 1052 1324.5 Q 1049 1321.5 1050 1314.5 L 1053.5 1310 Z" /><path desc="l 0 p 158" fill="rgb(156,156,156)" stroke="rgb(156,156,156)" stroke-width="1" opacity="0" d="M 547.5 1311 L 565 1324.5 L 575.5 1331 Q 578.8 1334.2 586.5 1333 L 589 1331.5 L 589.5 1328 Q 601.8 1326.8 605 1334.5 L 608 1346.5 L 601.5 1351 Q 599.8 1353.8 594.5 1353 L 586 1350.5 L 576.5 1345 L 564 1333.5 L 554.5 1323 Q 549 1318 547.5 1311 Z" /><path desc="l 0 p 159" fill="rgb(156,156,156)" stroke="rgb(156,156,156)" stroke-width="1" opacity="0" d="M 1042.5 1321 L 1045 1325.5 L 1050.5 1333 L 1057.5 1336 L 1062.5 1337 L 1066.5 1336 L 1067 1343.5 Q 1057.9 1353.4 1054 1368.5 L 1046.5 1385 L 1043 1387.5 L 1032 1400.5 L 1009.5 1430 L 1006 1420.5 L 1004 1405.5 L 1005 1400.5 L 1006 1389.5 Q 1006.2 1379.2 1010 1372.5 Q 1013.5 1359.5 1020.5 1350 L 1042.5 1321 Z" /><path desc="l 0 p 160" fill="rgb(156,156,156)" stroke="rgb(156,156,156)" stroke-width="1" opacity="0" d="M 977.5 1330 L 979 1330.5 L 975 1339.5 L 972.5 1348 L 970.5 1359 L 970 1377.5 L 972 1383.5 Q 972.7 1391.3 977.5 1395 Q 983.3 1395.8 984 1391.5 L 990.5 1382 L 990 1383.5 L 983.5 1396 L 978 1409.5 L 968.5 1427 L 956 1447.5 L 922.5 1501 L 919 1494.5 L 918 1487.5 L 917 1475.5 L 916 1433.5 L 917 1429.5 L 918 1419.5 L 919 1414.5 L 923 1404.5 L 929.5 1390 L 950.5 1351 Q 955.3 1352.3 956.5 1350 L 960 1346.5 L 977.5 1330 Z" /><path desc="l 0 p 161" fill="rgb(156,156,156)" stroke="rgb(156,156,156)" stroke-width="1" opacity="0" d="M 1075.5 1335 L 1086 1340.5 L 1094 1342.5 L 1093 1348.5 L 1094 1351.5 Q 1093.4 1356.1 1096 1357.5 Q 1093.5 1362 1085.5 1361 L 1078 1355.5 Q 1072.8 1350.2 1074 1338.5 L 1075.5 1335 Z" /><path desc="l 0 p 162" fill="rgb(156,156,156)" stroke="rgb(156,156,156)" stroke-width="1" opacity="0" d="M 1133.5 1335 L 1139 1336.5 L 1137.5 1343 L 1137 1350.5 L 1138 1355.5 L 1145 1367.5 Q 1142.6 1370.1 1136.5 1369 Q 1127.1 1364.4 1121 1356.5 L 1117 1350.5 L 1116 1341.5 L 1122.5 1340 L 1126.5 1339 L 1133.5 1335 Z" /><path desc="l 0 p 163" fill="rgb(156,156,156)" stroke="rgb(156,156,156)" stroke-width="1" opacity="0" d="M 1104.5 1337 L 1109 1339.5 Q 1107.2 1351.8 1113 1356.5 L 1119 1364.5 L 1115.5 1365 Q 1107.4 1362.6 1103 1356.5 Q 1100.4 1355.1 1101 1350.5 L 1101 1341.5 L 1104.5 1337 Z" /><path desc="l 0 p 164" fill="rgb(156,156,156)" stroke="rgb(156,156,156)" stroke-width="1" opacity="0" d="M 1146.5 1337 L 1150 1338.5 L 1154.5 1343 Q 1159.8 1349.2 1170 1350.5 L 1168.5 1357 L 1168 1363.5 L 1172 1374.5 L 1165.5 1375 Q 1154.1 1370.4 1148 1360.5 Q 1144 1354.5 1144 1344.5 L 1146.5 1337 Z" /><path desc="l 0 p 165" fill="rgb(156,156,156)" stroke="rgb(156,156,156)" stroke-width="1" opacity="0" d="M 1186.5 1346 L 1189 1347.5 L 1200.5 1372 L 1205 1385.5 L 1199.5 1387 Q 1186.2 1384.3 1180 1374.5 Q 1175 1369.5 1175 1359.5 L 1176 1356.5 L 1177 1353.5 L 1180.5 1349 L 1186.5 1346 Z" /><path desc="l 0 p 166" fill="rgb(156,156,156)" stroke="rgb(156,156,156)" stroke-width="1" opacity="0" d="M 1068.5 1354 L 1076.5 1364 Q 1081.3 1368.7 1091 1368.5 Q 1088.5 1370 1090 1375.5 L 1092 1379.5 L 1093 1384.5 L 1088.5 1394 L 1083 1408.5 L 1082.5 1412 L 1080 1417.5 L 1075.5 1426 L 1055.5 1457 L 1054 1456.5 L 1051 1444.5 L 1050 1433.5 L 1049 1419.5 L 1049 1417.5 Q 1048.4 1397.4 1055 1384.5 L 1061 1367.5 L 1064 1360.5 L 1068.5 1354 Z" /><path desc="l 0 p 167" fill="rgb(156,156,156)" stroke="rgb(156,156,156)" stroke-width="1" opacity="0" d="M 1100.5 1364 Q 1106.1 1370.4 1116 1372.5 L 1115 1380.5 Q 1116 1385 1113.5 1386 Q 1108.3 1387.3 1107 1384.5 L 1099 1378.5 L 1097 1370.5 L 1098 1368.5 Q 1097.5 1364.5 1100.5 1364 Z" /><path desc="l 0 p 168" fill="rgb(156,156,156)" stroke="rgb(156,156,156)" stroke-width="1" opacity="0" d="M 880.5 1367 L 881 1368.5 L 879 1374.5 L 877 1385.5 L 875.5 1397 L 875 1414.5 L 876 1417.5 L 856 1457.5 L 850 1470.5 L 841.5 1483 L 829 1499.5 L 777.5 1566 L 776 1565.5 L 770 1540.5 L 769.5 1535 L 769 1510.5 L 774 1485.5 Q 778.2 1477.7 779.5 1467 Q 786.1 1443.1 798.5 1425 L 830.5 1374 L 832 1388.5 L 834.5 1400 Q 834.8 1406.2 838.5 1409 L 843.5 1410 L 855.5 1395 Q 866.5 1379.5 880.5 1367 Z" /><path desc="l 0 p 169" fill="rgb(156,156,156)" stroke="rgb(156,156,156)" stroke-width="1" opacity="0" d="M 1126.5 1371 Q 1130 1376 1138 1376.5 Q 1136.7 1384.8 1140 1388.5 Q 1138.3 1391.8 1132.5 1391 L 1123 1384.5 L 1122 1375.5 L 1126.5 1371 Z" /><path desc="l 0 p 170" fill="rgb(156,156,156)" stroke="rgb(156,156,156)" stroke-width="1" opacity="0" d="M 1149.5 1373 Q 1156 1381.5 1170 1382.5 L 1169 1393.5 L 1170 1398.5 Q 1169 1401 1164.5 1400 Q 1154 1397.5 1148 1390.5 L 1145.5 1384 L 1145 1379.5 L 1149.5 1373 Z" /><path desc="l 0 p 171" fill="rgb(156,156,156)" stroke="rgb(156,156,156)" stroke-width="1" opacity="0" d="M 999.5 1382 L 1000 1383.5 L 999 1387.5 L 998 1396.5 L 997 1409.5 L 998 1413.5 L 999 1419.5 L 1002 1429.5 Q 1002.9 1436.1 1007.5 1439 Q 1014 1440 1015 1435.5 L 1020.5 1427 L 1021 1429.5 L 1009 1483.5 L 1008 1493.5 Q 1008.8 1497.3 1006.5 1498 L 1001.5 1512 L 990 1543.5 L 981.5 1561 L 975 1555.5 L 968 1541.5 L 965 1528.5 L 964 1521.5 L 964 1493.5 L 965 1490.5 L 965 1484.5 L 966.5 1477 L 969 1460.5 L 971 1448.5 L 975.5 1436 L 983.5 1414 L 990 1398.5 L 999.5 1382 Z" /><path desc="l 0 p 172" fill="rgb(156,156,156)" stroke="rgb(156,156,156)" stroke-width="1" opacity="0" d="M 1177.5 1383 L 1192 1392.5 Q 1186.8 1397.3 1186.5 1407 L 1180 1402.5 Q 1175.6 1396.9 1176 1386.5 L 1177.5 1383 Z" /><path desc="l 0 p 173" fill="rgb(156,156,156)" stroke="rgb(156,156,156)" stroke-width="1" opacity="0" d="M 1098.5 1388 L 1105.5 1392 Q 1108.7 1394.3 1115.5 1393 L 1119.5 1391 Q 1124.3 1397.2 1134 1398.5 L 1129 1412.5 L 1122.5 1433 L 1118.5 1446 L 1113.5 1456 L 1101.5 1485 L 1100 1484.5 Q 1094 1476 1091 1464.5 Q 1087.1 1456.9 1086.5 1446 L 1086 1427.5 L 1090 1412.5 Q 1092.5 1398.5 1098.5 1388 Z" /><path desc="l 0 p 174" fill="rgb(156,156,156)" stroke="rgb(156,156,156)" stroke-width="1" opacity="0" d="M 1202.5 1393 Q 1207 1392 1208 1394.5 L 1214 1422.5 L 1211.5 1423 Q 1201.6 1419.9 1196 1412.5 Q 1193 1409.5 1194 1402.5 L 1200.5 1394 L 1202.5 1393 Z" /><path desc="l 0 p 175" fill="rgb(156,156,156)" stroke="rgb(156,156,156)" stroke-width="1" opacity="0" d="M 1142.5 1397 L 1145.5 1398 L 1151.5 1402 Q 1157.7 1407.3 1169.5 1407 L 1173.5 1406 L 1177.5 1410 L 1179 1413.5 L 1177 1417.5 L 1174.5 1427 L 1170 1447.5 L 1168 1461.5 L 1163 1483.5 L 1156.5 1513 L 1149 1502.5 Q 1149.8 1497.8 1146.5 1497 L 1144 1495.5 L 1137 1480.5 L 1133 1462.5 L 1132 1451.5 L 1132 1430.5 L 1134 1423.5 L 1135 1415.5 L 1139.5 1403 L 1142.5 1397 Z" /><path desc="l 0 p 176" fill="rgb(156,156,156)" stroke="rgb(156,156,156)" stroke-width="1" opacity="0" d="M 1042.5 1399 L 1043 1404.5 Q 1040.8 1405.8 1042 1410.5 L 1042 1427.5 L 1043 1430.5 L 1043 1438.5 L 1045 1450.5 L 1047 1458.5 L 1052.5 1471 L 1054.5 1472 L 1058 1469.5 Q 1060.5 1459 1067 1452.5 L 1078.5 1434 L 1080 1450.5 L 1084 1466.5 L 1082 1467.5 L 1077.5 1482 L 1074.5 1496 L 1069 1520.5 L 1067 1527.5 L 1066 1535.5 L 1064 1544.5 L 1063 1549.5 L 1059 1559.5 L 1047.5 1583 Q 1040.6 1597.6 1030.5 1609 L 1024 1598.5 L 1021 1592.5 L 1019 1585.5 L 1017 1570.5 L 1016 1565.5 L 1014 1539.5 L 1013 1514.5 L 1014 1511.5 L 1014 1502.5 L 1017 1481.5 L 1020 1467.5 L 1026 1440.5 L 1028 1427.5 L 1032 1415.5 L 1033 1411.5 Q 1032.5 1407.5 1035.5 1407 L 1042.5 1399 Z" /><path desc="l 0 p 177" fill="rgb(156,156,156)" stroke="rgb(156,156,156)" stroke-width="1" opacity="0" d="M 1185.5 1414 L 1189 1415.5 L 1193.5 1420 Q 1201.8 1428.7 1216 1431.5 L 1219 1446.5 L 1221 1460.5 L 1222 1474.5 L 1221 1479.5 L 1220 1489.5 L 1219 1502.5 L 1215.5 1522 L 1212.5 1543 L 1211.5 1555 L 1211 1569.5 L 1212 1574.5 L 1210.5 1575 Q 1198.6 1565.9 1190.5 1553 Q 1182.6 1543.9 1179.5 1530 L 1177 1519.5 L 1176 1507.5 Q 1173.3 1503.7 1175 1495.5 L 1175 1463.5 L 1177 1455.5 L 1176 1452.5 L 1180 1435.5 L 1185.5 1414 Z" /><path desc="l 0 p 178" fill="rgb(156,156,156)" stroke="rgb(156,156,156)" stroke-width="1" opacity="0" d="M 909.5 1425 L 910 1431.5 Q 907.2 1433.3 909 1439.5 L 909 1461.5 Q 911.8 1463.3 910 1469.5 L 911 1486.5 L 912 1494.5 L 914 1500.5 Q 908.3 1508.8 906 1520.5 L 895.5 1553 L 885.5 1580 L 870.5 1619 Q 862.9 1641.4 852 1660.5 L 822.5 1726 L 814 1747.5 L 805.5 1764 L 799 1742.5 L 795 1723.5 L 793 1711.5 L 792 1695.5 L 792 1663.5 L 794 1653.5 L 794.5 1648 L 796 1641.5 L 801.5 1619 L 806 1604.5 L 813 1584.5 L 828 1541.5 L 848 1493.5 L 876.5 1434 L 878 1442.5 L 880 1449.5 Q 881.5 1460.5 888.5 1466 L 893 1464.5 Q 898.8 1442.3 909.5 1425 Z" /><path desc="l 0 p 179" fill="rgb(156,156,156)" stroke="rgb(156,156,156)" stroke-width="1" opacity="0" d="M 962.5 1450 L 963 1454.5 Q 960.1 1459.1 961 1467.5 L 960 1471.5 L 958 1487.5 L 957 1500.5 L 957 1525.5 L 960 1537.5 L 958 1541.5 L 957 1546.5 L 953 1559.5 L 950 1571.5 L 949 1580.5 L 947 1590.5 L 945 1602.5 L 944 1614.5 L 942 1638.5 Q 943.3 1645.3 941 1648.5 L 941 1725.5 L 942 1730.5 L 942 1742.5 Q 937.5 1751 936 1762.5 L 931 1782.5 Q 931 1789.5 928 1793.5 L 924 1815.5 L 922 1826.5 L 920 1842.5 L 919 1870.5 Q 916.7 1871.8 918 1876.5 Q 918.9 1883.4 915.5 1886 L 910 1881.5 L 894 1859.5 L 883 1840.5 L 873.5 1814 L 869 1793.5 L 867.5 1783 L 867 1774.5 L 866 1724.5 Q 868.8 1722.8 867 1716.5 L 868 1697.5 L 869 1685.5 L 870 1678.5 L 871.5 1666 L 876 1641.5 L 886 1608.5 L 897 1572.5 L 908 1537.5 L 917.5 1509 L 924.5 1510 L 962.5 1450 Z" /><path desc="l 0 p 180" fill="rgb(156,156,156)" stroke="rgb(156,156,156)" stroke-width="1" opacity="0" d="M 1124.5 1451 L 1127 1469.5 Q 1128.6 1481.9 1133.5 1491 L 1138 1498.5 Q 1140.8 1500.2 1140 1505.5 L 1135.5 1517 L 1133 1527.5 L 1132 1535.5 L 1128 1562.5 L 1126 1589.5 Q 1127.8 1596.8 1124 1598.5 L 1121 1609.5 Q 1121 1619 1118 1625.5 L 1115.5 1661 Q 1099.5 1646.5 1087 1628.5 Q 1080.3 1620.2 1078 1607.5 L 1074 1593.5 Q 1071.3 1587.3 1071.5 1578 L 1071 1547.5 L 1076 1526.5 L 1080.5 1506 L 1083.5 1491 L 1087.5 1476 Q 1091.7 1487.8 1100.5 1495 Q 1106 1496 1107 1492.5 Q 1112.7 1468.7 1124.5 1451 Z" /><path desc="l 0 p 181" fill="rgb(156,156,156)" stroke="rgb(156,156,156)" stroke-width="1" opacity="0" d="M 1167.5 1496 L 1169 1512.5 L 1170 1519.5 Q 1173.2 1544.3 1186.5 1559 L 1197.5 1572 L 1201 1575.5 L 1202 1580.5 Q 1197.4 1599.9 1189 1615.5 L 1178.5 1648 L 1169.5 1680 L 1160 1671.5 Q 1148.4 1658.6 1142 1640.5 Q 1136.3 1630.7 1135 1616.5 L 1133.5 1605 L 1133 1584.5 Q 1135.5 1583 1134 1577.5 L 1135 1563.5 L 1138.5 1539 Q 1139.4 1521.9 1145.5 1510 L 1157.5 1524 L 1160.5 1525 Q 1165.3 1523.7 1164 1516.5 L 1165 1507.5 L 1167.5 1496 Z" /><path desc="l 0 p 182" fill="rgb(156,156,156)" stroke="rgb(156,156,156)" stroke-width="1" opacity="0" d="M 1005.5 1522 L 1007 1539.5 L 1007.5 1549 L 1009 1562.5 L 1011 1581.5 L 1013.5 1591 L 1017 1600.5 L 1023.5 1611 Q 1027.5 1613.5 1026 1621.5 L 1025 1625.5 L 1025 1635.5 L 1024 1673.5 L 1023.5 1684 L 1023 1721.5 L 1022 1782.5 L 1020.5 1805 L 1020 1844.5 Q 1022.2 1845.7 1021 1850.5 L 1021 1864.5 L 1022 1868.5 L 1022 1879.5 L 1024.5 1903 L 1026 1925.5 L 1018.5 1926 Q 1009.8 1921.8 1004 1914.5 Q 990.1 1901.4 983 1881.5 L 970 1853.5 Q 963.1 1839.9 960 1822.5 L 955.5 1802 L 951 1770.5 L 949.5 1756 L 948.5 1724 L 948 1649.5 Q 950.7 1647.8 949 1641.5 L 950 1625.5 L 951 1616.5 L 953 1596.5 L 955.5 1584 L 958 1568.5 L 963.5 1549 Q 967 1559 974.5 1565 L 983.5 1569 L 988 1565.5 L 1005.5 1522 Z" /><path desc="l 0 p 183" fill="rgb(156,156,156)" stroke="rgb(156,156,156)" stroke-width="1" opacity="0" d="M 1063.5 1567 L 1066 1592.5 Q 1069.2 1596.8 1069 1604.5 L 1074 1619.5 L 1083.5 1635 L 1091 1645.5 L 1095 1650.5 Q 1097.3 1655.3 1096 1663.5 L 1097 1678.5 L 1100 1712.5 L 1103 1741.5 L 1106.5 1764 L 1113.5 1797 L 1120 1820.5 L 1125 1834.5 L 1130 1843.5 L 1133 1848.5 Q 1135.8 1851.2 1135 1857.5 L 1135 1874.5 L 1134 1879.5 L 1133.5 1892 L 1133 1930.5 L 1134 1935.5 L 1136 1952.5 L 1132.5 1953 L 1126.5 1951 L 1118 1948.5 L 1107 1941.5 Q 1089.5 1924 1078 1900.5 Q 1062.7 1875.3 1051.5 1846 L 1042.5 1820 L 1039 1807.5 L 1034 1784.5 L 1032 1764.5 L 1031 1758.5 L 1030.5 1748 L 1030 1732.5 L 1030 1686.5 Q 1032.3 1685.3 1031 1680.5 L 1031.5 1667 L 1032 1642.5 L 1032 1628.5 L 1032.5 1623 L 1034.5 1616 L 1041.5 1606 Q 1054.6 1588.6 1063.5 1567 Z" /><path desc="l 0 p 184" fill="rgb(156,156,156)" stroke="rgb(156,156,156)" stroke-width="1" opacity="0" d="M 1127.5 1617 L 1130 1626.5 L 1133.5 1639 L 1137 1646.5 Q 1144.1 1665.9 1157.5 1679 L 1165 1685.5 L 1168.5 1688 L 1173.5 1689 Q 1176.5 1688.5 1176 1684.5 L 1178 1674.5 Q 1182.3 1654.8 1189.5 1638 L 1193 1670.5 L 1198 1708.5 L 1202 1734.5 L 1208 1769.5 L 1216 1801.5 L 1227 1842.5 L 1244.5 1890 Q 1246.3 1899.3 1251 1905.5 L 1266 1934.5 L 1272 1942.5 L 1275 1949.5 Q 1271.3 1954.8 1260.5 1953 L 1255.5 1952 Q 1247.3 1950.7 1242.5 1946 L 1231.5 1940 Q 1198.3 1919.2 1173 1890.5 L 1160.5 1875 Q 1148.4 1862.6 1140 1846.5 L 1132.5 1833 Q 1125.2 1819.8 1122 1802.5 L 1113 1761.5 L 1109 1733.5 L 1107 1712.5 L 1104 1678.5 L 1103 1659.5 L 1113.5 1669 L 1119.5 1671 L 1122 1669.5 Q 1124.3 1666.3 1123 1659.5 L 1124 1639.5 Q 1124 1626.5 1127.5 1617 Z" /></svg>