<svg width="620" height="750" version="1.1" xmlns="http://www.w3.org/2000/svg" desc="Created with imagetracer.js version 1.1.2" ><path desc="l 0 p 0" fill="rgb(64,64,64)" stroke="rgb(64,64,64)" stroke-width="1" opacity="0.00392156862745098" d="M 0.5 0 L 620 0.5 L 619.5 302 L 614.5 298 Q 611.3 294.2 602.5 296 L 595.5 300 Q 591 295.5 581.5 296 L 570.5 301 L 565.5 299 L 558.5 301 Q 552 302.5 549 307.5 L 547.5 311 Q 540 309.5 536.5 312 L 526.5 315 Q 508.4 302.1 494 285.5 L 477 261.5 Q 466.3 248.7 463 228.5 L 464 223.5 L 467.5 217 Q 471.8 213.3 481.5 215 L 496 219.5 L 509.5 226 L 522 230.5 Q 527.3 234.2 536.5 234 L 539 232.5 L 541 226.5 Q 537.9 215.6 531 208.5 L 519.5 194 L 498.5 172 L 475.5 155 L 450.5 140 Q 426.3 125.2 393 119.5 L 382.5 118 L 358.5 116 Q 357 118.5 351.5 117 L 341.5 117 L 336.5 118 Q 334.7 115.3 328.5 117 L 307.5 122 L 285.5 129 L 271 132.5 L 262 134.5 L 254.5 135 L 241.5 136 L 228.5 138 L 225.5 137 L 215.5 139 Q 210.4 141.4 201.5 140 L 195.5 138 L 189.5 137 L 188 139.5 L 189 141.5 L 183 142.5 L 173.5 143 L 171.5 142 L 168.5 143 L 159.5 143 L 155.5 142 L 145.5 142 L 127.5 140 L 108.5 136 L 75 125.5 Q 44.4 118.1 23.5 101 L 17.5 95 L 12.5 92 L 10 93.5 Q 7 95.5 8 101.5 Q 16.1 149.4 46.5 175 Q 56.6 183.4 70 188.5 L 45.5 190 L 34.5 191 Q 29.8 190.3 29 193.5 L 30.5 197 L 37.5 205 L 45 211.5 L 52.5 220 L 67.5 230 L 82 238.5 L 59.5 240 Q 50.3 239.8 47 245.5 L 46 247.5 Q 49.1 258.4 57.5 264 Q 67.1 273.4 80.5 279 L 87.5 282 L 103 286.5 L 115 288.5 L 122.5 289 L 145.5 289 Q 147.3 286.3 153.5 288 L 175.5 284 L 175.5 285 Q 144.3 294.3 116.5 307 L 100 312.5 Q 93.5 313 91 317.5 Q 90.3 323.3 94.5 324 L 112 329.5 L 127.5 334 Q 131.8 337.2 139.5 337 L 150.5 338 L 158 338.5 L 186.5 339 L 197.5 336 L 207 333.5 L 221.5 328 L 219.5 331 Q 188.8 350.8 161 373.5 L 160 376.5 L 164.5 383 L 176.5 388 L 187 389.5 L 210 391.5 L 226.5 392 L 236.5 390 L 247.5 386 L 261.5 379 L 256 385.5 L 244.5 399 L 238 408.5 L 240.5 412 Q 244 415.5 251.5 415 L 264.5 415 L 276.5 412 L 287 409.5 L 299 405.5 Q 312.2 402.7 320.5 395 L 320 396.5 L 311 409.5 L 304 423.5 Q 304.5 426.5 308.5 426 L 317.5 426 L 339 420.5 Q 352.9 417.4 363.5 411 L 363 412.5 L 360 420.5 L 359 427.5 Q 361.3 431.3 368.5 430 Q 387.6 424.1 402.5 414 L 403 415.5 L 397 423.5 L 394 430.5 Q 394.5 433.5 398.5 433 L 405.5 433 Q 422.7 427.7 436.5 419 L 436 420.5 Q 435.2 426.8 438 429.5 L 434.5 431 L 430 435.5 L 425.5 446 Q 407.7 450.2 398 462.5 L 391 473.5 L 388 480.5 L 387 490.5 Q 389.3 491.8 388 496.5 Q 389.3 506.7 395.5 512 L 399 510.5 Q 399.9 503.4 405.5 501 L 423 490.5 Q 428.8 486.3 437.5 485 L 445 483.5 L 458.5 483 L 459.5 485 L 452.5 487 L 439 492.5 Q 427.2 496.7 420 505.5 L 421 508.5 Q 409.2 512.2 403 521.5 Q 400.1 525.1 401 532.5 L 403.5 536 L 406 537.5 L 406.5 542 Q 406.7 547.3 410 549.5 L 408.5 550 L 399.5 538 L 392.5 526 Q 389.8 523.2 383.5 524 Q 378.8 525.3 377.5 523 L 372.5 521 Q 369.4 515.6 359.5 517 Q 349.6 519.1 345 526.5 L 341 534.5 Q 338.4 537.4 339 543.5 L 340.5 546 L 342 546.5 Q 342.9 553.6 347.5 557 L 353.5 564 L 363 571.5 L 353 579.5 L 352 585.5 L 353 590.5 L 349 600.5 Q 346 603.5 347 610.5 L 348.5 616 Q 349.9 623.1 355.5 626 L 360.5 627 L 362.5 625 L 364.5 625 L 369.5 626 L 377.5 626 L 397 616.5 L 398 614.5 Q 396.8 611.8 391.5 613 Q 383.6 613.9 380 610.5 L 384.5 599 L 390.5 595 Q 391.9 597.6 396.5 597 L 405.5 597 L 411.5 595 L 428 606.5 L 440 613.5 Q 433.9 617.9 434.5 629 L 428.5 630 L 417 625.5 Q 416.5 621.5 411.5 622 L 410 624.5 Q 413.1 634.9 420.5 641 Q 429.8 649.2 447.5 649 L 452.5 648 Q 453.9 650.6 458.5 650 L 464 645.5 L 470.5 630 Q 470.2 637.8 474.5 641 L 484.5 654 Q 487.4 657.6 495.5 656 L 505 648.5 L 525.5 616 L 526 632.5 L 526.5 640 L 530 648.5 Q 534.2 658.8 541.5 666 L 547.5 667 Q 553.6 665.6 556 660.5 L 563.5 646 L 573.5 621 Q 573.8 635.7 582 642.5 L 599.5 662 Q 606 663 608 659.5 L 613 654.5 L 619.5 643 L 620 749.5 L 0.5 750 L 0.5 0 Z" /><path desc="l 1 p 0" fill="rgb(0,0,0)" stroke="rgb(0,0,0)" stroke-width="1" opacity="0.9098039215686274" d="M 12.5 92 L 17.5 95 L 23.5 101 Q 34.9 111.6 51.5 117 L 72.5 125 L 103.5 134 L 118.5 138 L 145.5 142 L 170.5 143 L 172.5 142 L 175.5 143 L 182.5 143 L 189 141.5 L 188 138.5 Q 189 136 193.5 137 Q 200 141.5 212.5 140 L 227.5 137 L 229.5 138 L 240.5 136 L 253.5 135 L 262 134.5 L 271 132.5 L 284.5 129 L 298 124.5 L 311.5 121 L 319.5 119 L 328 117.5 L 335.5 117 L 337.5 117 L 365.5 116 L 370.5 117 L 392.5 119 Q 425.6 124.9 449.5 140 Q 486.6 156.9 512 185.5 L 527.5 204 L 536 215.5 L 541 228.5 L 538.5 233 L 532.5 234 L 499.5 222 Q 490.1 213.9 471.5 215 L 466 218.5 Q 462.9 223.9 463 232.5 Q 469.6 254.9 483 270.5 Q 495.3 289.7 512.5 304 Q 518.7 311.3 528.5 315 Q 535.4 309.9 548 310.5 L 553.5 303 L 566.5 299 L 571.5 301 Q 576 295.5 586.5 296 L 596.5 300 Q 600.2 294.2 611.5 296 L 620 302.5 L 619.5 308 L 613.5 307 L 610 309.5 L 609 311.5 Q 614 315 615.5 322 L 620 324.5 L 619.5 329 Q 614 323.5 602.5 324 L 596 326.5 L 600.5 332 Q 605.5 335 605.5 343 L 608.5 339 L 619.5 335 L 620 338.5 Q 613.9 339.4 611 343.5 L 610 346.5 L 615 350.5 Q 618 354 617.5 361 L 620 359.5 L 619.5 369 L 616.5 365 L 609.5 363 L 607 364.5 L 606 377.5 L 607.5 378 Q 615.3 376.3 619.5 371 L 620 375.5 Q 613.3 381.8 602.5 384 L 600 380.5 Q 602.6 379.1 602 374.5 L 603 370.5 Q 601.3 359.7 604 353.5 L 597.5 359 L 581.5 371 Q 579.3 370.3 580 366.5 L 581 363.5 L 581 355.5 L 580 355.5 L 574.5 362 L 564.5 370 Q 564 373.5 559.5 373 Q 556.5 371.5 558 365.5 L 557.5 357 L 556.5 351 L 533 373.5 L 530.5 377 L 528 375.5 L 529 361.5 L 527 362.5 L 517.5 377 L 515 375.5 L 516.5 369 L 517 359.5 L 514 361.5 L 508.5 369 L 498.5 379 L 495 377.5 L 494.5 368 L 486 377.5 L 478.5 390 L 474.5 391 L 473.5 382 L 449 405.5 L 443 414.5 Q 439.3 417.3 440 424.5 L 443.5 430 L 447.5 432 L 454 428.5 L 458.5 422 L 461 423.5 L 454 435.5 Q 457.1 439.9 465.5 439 Q 473.3 435.8 478 429.5 L 491.5 415 L 502 409.5 Q 509.1 405.1 522.5 407 Q 527 409 523.5 411 L 510 411.5 Q 516.4 416.1 515 428.5 L 506.5 440 Q 499.8 445.8 485.5 444 L 475.5 437 L 469.5 441 L 462.5 444 L 459.5 443 L 456 442.5 L 449 439.5 L 442.5 435 L 437.5 434 L 435 435.5 L 431 444.5 L 435.5 451 L 439 453.5 L 437.5 456 L 434.5 455 L 430.5 452 Q 429.8 449.3 425.5 450 L 414.5 455 L 407 459.5 L 400 466.5 L 394.5 475 Q 391.3 477.3 392 483.5 L 392 496.5 L 395.5 505 L 397 504.5 L 402.5 498 L 421.5 487 Q 427.5 482 437.5 481 L 454.5 478 L 472.5 484 Q 477.2 480.2 485.5 480 Q 491.8 477.2 502.5 479 L 514 484.5 L 518.5 487 L 527.5 488 L 529.5 483 L 532 484.5 L 531 490.5 L 532 493.5 L 529.5 495 Q 528.8 491.2 523.5 492 L 514.5 490 Q 505.6 500.6 489.5 504 Q 475.7 507.2 466.5 515 L 459.5 520 L 455.5 522 Q 452.4 520.6 453 515.5 L 456 501.5 L 453.5 501 L 447 514.5 L 445.5 523 L 445 536.5 L 449.5 533 L 469.5 520 L 495.5 507 L 515.5 500 L 528.5 498 Q 538.1 497.6 542 491.5 L 543 485.5 L 525 476.5 L 511 467.5 L 509.5 465 L 501.5 466 L 480.5 460 Q 470 456.5 463 449.5 L 462 447.5 L 465.5 446 Q 480.6 459.4 506.5 462 L 511.5 461 L 516.5 467 L 545 481.5 Q 548.2 483.8 547 490.5 L 541.5 498 L 534.5 501 L 526.5 502 L 508 506.5 L 512.5 507 L 516.5 506 L 525.5 506 L 564.5 506 Q 566 508.5 571.5 507 L 569.5 504 L 562 498.5 L 563.5 496 L 583 494.5 L 582.5 493 L 578 490.5 L 579.5 488 L 586.5 487 L 594 485.5 L 593.5 484 L 585 479.5 L 586.5 477 L 602 476.5 L 616 473.5 L 611 469.5 L 610 467.5 Q 611.8 463.3 619.5 465 L 620 468.5 L 619 470.5 Q 621.3 471.7 620 476.5 L 609 479.5 L 598 481.5 L 603.5 483 L 605.5 483 Q 609.3 482.3 610 484.5 L 610.5 510 L 612 519.5 L 615 529.5 L 618.5 538 Q 621.5 541 620 548.5 L 619 548.5 L 609 526.5 L 606.5 517 Q 601.4 531.9 591.5 542 L 581.5 553 L 576 554.5 L 575 578.5 L 576 583.5 L 576 596.5 L 576 602.5 L 577 605.5 L 578 608.5 L 577 611.5 L 577 619.5 Q 579.2 620.8 578 625.5 Q 579 634.5 584.5 639 L 599.5 657 L 603.5 658 L 611.5 649 L 619.5 637 L 620 642.5 Q 615.4 653.9 606.5 661 L 599.5 662 L 582.5 643 Q 573.8 636.2 573.5 621 L 563 646.5 Q 559.3 658.8 550.5 666 L 543.5 667 L 538 662.5 L 530 648.5 Q 525.3 643.7 526 633.5 L 525.5 616 L 511 638.5 Q 507.8 646.8 501.5 652 Q 498.1 657.6 487.5 656 L 481 650.5 L 474.5 641 Q 470.2 637.8 470.5 630 L 465 642.5 L 460.5 649 L 455.5 650 Q 453.8 647.2 448.5 648 L 445.5 649 L 439.5 649 Q 424.3 646.2 416 636.5 L 410 624.5 L 411.5 622 Q 416.5 621.5 417 625.5 Q 422.2 629.3 430.5 630 L 435 628.5 Q 433.3 622.3 436 620.5 L 440 613.5 Q 428.8 609.2 421 601.5 Q 417.1 596.4 409.5 595 Q 404.5 599 393.5 597 L 389.5 595 L 383 600.5 L 380 610.5 Q 383.2 613.8 390.5 613 Q 396.5 611.5 398 614.5 L 396.5 617 L 385.5 623 Q 379 627.5 366.5 626 L 363.5 624 Q 362.8 627.8 357.5 627 L 350 620.5 L 347.5 611 L 347 604.5 L 350.5 597 L 352.5 591 L 353 586.5 L 352 582.5 L 356.5 576 L 363 571.5 L 350 560.5 Q 343.9 555.1 341.5 546 L 340 545.5 L 339 539.5 Q 342 527.5 350.5 521 L 357.5 518 L 366.5 517 L 374 521.5 Q 376.6 524.9 383.5 524 Q 390.4 523.1 393 526.5 L 399.5 538 L 408.5 550 L 410 549.5 Q 406.8 547.7 407 542.5 L 404.5 536 L 402 534.5 L 401 526.5 Q 403.7 517.2 411.5 513 L 421 508.5 L 420 505.5 Q 427.2 496.7 439 492.5 L 460 484.5 Q 459.3 482.3 455.5 483 L 445.5 483 Q 416.9 488.9 400 506.5 L 398.5 511 L 395.5 512 L 392 507.5 L 388 497.5 L 387 483.5 L 389.5 476 L 394.5 467 L 405.5 455 L 427 444.5 L 429 437.5 L 435.5 430 L 438 429.5 Q 435.2 426.8 436 420.5 L 436.5 419 L 415.5 429 L 407.5 432 Q 404 434.5 396.5 433 Q 393.5 432.5 394 428.5 L 403 414.5 L 400.5 416 L 379.5 426 L 373.5 428 Q 369.9 430.9 362.5 430 L 359 427.5 L 360 420.5 L 364 411.5 L 362.5 411 Q 353.2 417.7 339.5 420 L 333 422.5 L 320.5 425 Q 315.4 427.4 306.5 426 Q 303.5 425.5 304 421.5 L 320 396.5 L 317.5 398 L 303.5 404 L 288.5 409 L 270 413.5 Q 261.3 416.8 247.5 415 L 245.5 414 L 239 410.5 L 238 407.5 L 261 380.5 L 259.5 380 L 244.5 388 L 227 391.5 L 210.5 392 Q 209 389.5 203.5 391 L 187 389.5 Q 170.5 389 162 380.5 L 160 375.5 L 163.5 371 L 221 329.5 L 219.5 329 Q 208.3 334.8 193.5 337 L 187 338.5 L 179.5 339 L 158.5 339 Q 157.3 336.7 152.5 338 L 139.5 337 L 125.5 334 L 117.5 331 L 107.5 328 Q 96.4 327.1 91 320.5 Q 90.3 314.8 94.5 314 L 127 302.5 L 176 284.5 L 171.5 284 L 163.5 286 L 146 288.5 L 115.5 289 L 104.5 287 L 87.5 282 L 73.5 275 Q 59.9 267.6 50 256.5 L 46 247.5 L 50.5 242 Q 53.4 239.4 59.5 240 L 82 238.5 L 67.5 230 Q 54.2 223.3 45 212.5 L 38.5 205 L 32 199.5 L 29 193.5 Q 29.5 190.5 33.5 191 L 44.5 190 L 70 188.5 Q 47.2 179.3 33 161.5 Q 23.3 149.7 17.5 134 L 10 113.5 L 8 96.5 L 10.5 93 L 12.5 92 Z" /><path desc="l 0 p 1" fill="rgb(64,64,64)" stroke="rgb(64,64,64)" stroke-width="1" opacity="0.00392156862745098" d="M 12.5 97 Q 21.9 107.6 35.5 114 L 64.5 127 L 96 136.5 L 117.5 142 L 132 144.5 L 148.5 146 L 184.5 147 L 191.5 145 Q 196.8 152.2 205.5 156 L 217 162.5 Q 201.9 169.4 191 180.5 Q 184.9 188.9 173 191.5 L 168.5 192 Q 164.8 191.3 164 193.5 L 166.5 197 L 175 200.5 L 168.5 201 L 163.5 200 L 153.5 199 L 107.5 194 L 89.5 190 L 75.5 186 Q 49.6 177.4 35 157.5 Q 26.5 147 21.5 133 L 14 112.5 L 12.5 97 Z" /><path desc="l 0 p 2" fill="rgb(64,64,64)" stroke="rgb(64,64,64)" stroke-width="1" opacity="0.00392156862745098" d="M 361.5 120 L 380.5 122 L 389.5 123 L 402 125.5 L 421.5 131 L 448 143.5 Q 485.9 161.6 512 191.5 Q 527.5 206.5 537 227.5 L 535.5 230 Q 526.9 229.6 521.5 226 L 502.5 218 L 491.5 213 L 483 211.5 L 470.5 211 L 462 217.5 L 459.5 226 L 459 232.5 Q 463 248.5 471 260.5 Q 486.3 285.7 507.5 305 L 525 318.5 L 522 327.5 L 524 331.5 L 521.5 336 L 510 331.5 L 501.5 326 L 478 306.5 Q 463.4 288.6 452 267.5 Q 442 247.5 427 232.5 L 410.5 211 L 394.5 194 L 378.5 181 Q 366 169 349 161.5 L 319.5 148 L 303 142.5 L 290.5 139 L 275 136.5 L 275.5 135 L 293 130.5 L 300 128.5 L 304.5 128 L 317.5 124 L 342.5 121 L 355.5 121 Q 360.2 122.2 361.5 120 Z" /><path desc="l 0 p 3" fill="rgb(64,64,64)" stroke="rgb(64,64,64)" stroke-width="1" opacity="0.00392156862745098" d="M 248.5 139 L 262.5 139 L 271.5 140 Q 288.4 141.1 301 146.5 L 300.5 152 L 274.5 160 L 263 162.5 L 242.5 163 L 237.5 162 L 221 158.5 Q 211.8 156.8 205.5 152 L 197 145.5 L 196.5 144 L 195 143.5 L 195.5 142 Q 201.6 145.9 213.5 144 L 216.5 143 L 218.5 144 L 228.5 142 L 242.5 140 Q 247.2 141.2 248.5 139 Z" /><path desc="l 0 p 4" fill="rgb(64,64,64)" stroke="rgb(64,64,64)" stroke-width="1" opacity="0.00392156862745098" d="M 305.5 148 L 316 151.5 L 317 158.5 L 314.5 160 L 312.5 159 L 309.5 158 L 306 154.5 L 305.5 148 Z" /><path desc="l 0 p 5" fill="rgb(64,64,64)" stroke="rgb(64,64,64)" stroke-width="1" opacity="0.00392156862745098" d="M 320.5 154 L 338 161.5 Q 336.3 165.8 328.5 164 L 322 158.5 L 320.5 154 Z" /><path desc="l 0 p 6" fill="rgb(64,64,64)" stroke="rgb(64,64,64)" stroke-width="1" opacity="0.00392156862745098" d="M 300.5 156 L 303 156.5 L 307.5 162 L 309 162.5 L 308 166.5 L 312 173.5 L 308 175.5 L 298.5 178 L 289 179.5 L 280.5 180 L 256.5 180 L 246 176.5 L 246.5 175 L 271.5 165 L 280.5 163 L 300.5 156 Z" /><path desc="l 0 p 7" fill="rgb(64,64,64)" stroke="rgb(64,64,64)" stroke-width="1" opacity="0.00392156862745098" d="M 319.5 162 L 325 166.5 L 326 174.5 L 321.5 176 L 314 170.5 L 312 165.5 L 319.5 162 Z" /><path desc="l 0 p 8" fill="rgb(64,64,64)" stroke="rgb(64,64,64)" stroke-width="1" opacity="0.00392156862745098" d="M 224.5 164 L 236.5 166 L 253 167.5 L 241 174.5 L 243.5 180 L 252 182.5 L 261 184.5 Q 244.5 194.5 222.5 199 L 212.5 203 Q 207.4 205.4 198.5 204 Q 194.5 201 187.5 201 L 175 195.5 Q 188.8 190.8 197 180.5 Q 208.7 170.2 224.5 164 Z" /><path desc="l 0 p 9" fill="rgb(64,64,64)" stroke="rgb(64,64,64)" stroke-width="1" opacity="0.00392156862745098" d="M 342.5 164 Q 351.9 165.1 357 170.5 Q 354.9 174.9 348.5 175 L 344 171.5 L 342.5 164 Z" /><path desc="l 0 p 10" fill="rgb(64,64,64)" stroke="rgb(64,64,64)" stroke-width="1" opacity="0.00392156862745098" d="M 337.5 167 L 343 177.5 Q 341.5 180.5 335.5 179 L 333 177.5 Q 329.3 174.7 329 168.5 L 337.5 167 Z" /><path desc="l 0 p 11" fill="rgb(64,64,64)" stroke="rgb(64,64,64)" stroke-width="1" opacity="0.00392156862745098" d="M 360.5 173 L 377 184.5 Q 374.6 187.1 368.5 186 L 361 180.5 L 360.5 173 Z" /><path desc="l 0 p 12" fill="rgb(64,64,64)" stroke="rgb(64,64,64)" stroke-width="1" opacity="0.00392156862745098" d="M 355.5 177 L 360 185.5 L 354.5 188 L 348 183.5 L 347 179.5 Q 353 180 355.5 177 Z" /><path desc="l 0 p 13" fill="rgb(64,64,64)" stroke="rgb(64,64,64)" stroke-width="1" opacity="0.00392156862745098" d="M 312.5 178 Q 319.1 177.4 322 180.5 L 327 190.5 L 319.5 193 L 310 194.5 L 284.5 195 L 270 192.5 Q 279.1 185.1 293.5 183 Q 304.9 182.4 312.5 178 Z" /><path desc="l 0 p 14" fill="rgb(64,64,64)" stroke="rgb(64,64,64)" stroke-width="1" opacity="0.00392156862745098" d="M 327.5 179 Q 331.5 178.5 332 181.5 L 331 183.5 L 333 189.5 L 328 185.5 L 326 180.5 L 327.5 179 Z" /><path desc="l 0 p 15" fill="rgb(64,64,64)" stroke="rgb(64,64,64)" stroke-width="1" opacity="0.00392156862745098" d="M 336.5 183 L 338.5 184 L 343.5 183 L 348 189.5 L 342.5 192 L 336 186.5 L 336.5 183 Z" /><path desc="l 0 p 16" fill="rgb(64,64,64)" stroke="rgb(64,64,64)" stroke-width="1" opacity="0.00392156862745098" d="M 273.5 184 L 275 184.5 L 264 191.5 L 265.5 195 L 274 197.5 L 278.5 198 L 305 199.5 L 293.5 205 L 265.5 217 L 247.5 224 L 239 225.5 L 231.5 226 L 208.5 226 L 200 224.5 L 200.5 223 Q 215.3 217.3 224 205.5 L 224.5 203 L 255 192.5 L 273.5 184 Z" /><path desc="l 0 p 17" fill="rgb(64,64,64)" stroke="rgb(64,64,64)" stroke-width="1" opacity="0.00392156862745098" d="M 378.5 188 L 382.5 189 L 385.5 192 L 397 203.5 Q 394.9 205.9 389.5 205 L 379 197.5 Q 376.3 195.2 377 189.5 L 378.5 188 Z" /><path desc="l 0 p 18" fill="rgb(64,64,64)" stroke="rgb(64,64,64)" stroke-width="1" opacity="0.00392156862745098" d="M 363.5 189 L 373 190.5 Q 372.2 197.2 376 199.5 Q 374.5 202.5 368.5 201 L 364 197.5 L 362 190.5 L 363.5 189 Z" /><path desc="l 0 p 19" fill="rgb(64,64,64)" stroke="rgb(64,64,64)" stroke-width="1" opacity="0.00392156862745098" d="M 357.5 191 Q 358.7 198.3 363 202.5 L 359.5 204 L 352 198.5 L 351 193.5 L 357.5 191 Z" /><path desc="l 0 p 20" fill="rgb(64,64,64)" stroke="rgb(64,64,64)" stroke-width="1" opacity="0.00392156862745098" d="M 73.5 192 Q 81 190.5 84.5 193 L 100.5 197 L 170.5 205 L 186.5 206 L 195.5 207 L 200.5 208 L 210.5 208 L 217.5 205 L 210.5 213 L 192 223.5 L 193.5 227 L 206 229.5 L 214.5 230 Q 222.7 228.3 226.5 231 L 229.5 230 L 228.5 232 L 212.5 237 L 190.5 241 L 172.5 243 Q 167 241.5 165.5 244 L 117.5 245 L 108.5 243 L 97.5 241 L 88.5 237 L 70 226.5 Q 54.3 218.7 44 205.5 L 42.5 203 L 34 195.5 Q 39.9 192.9 49.5 194 L 61 193.5 L 68.5 193 L 73.5 192 Z" /><path desc="l 0 p 21" fill="rgb(64,64,64)" stroke="rgb(64,64,64)" stroke-width="1" opacity="0.00392156862745098" d="M 331.5 194 L 338 195.5 Q 338.5 205 345 208.5 L 336 210.5 L 319.5 211 L 314.5 210 L 308.5 209 L 300 206.5 Q 313.8 198.3 331.5 194 Z" /><path desc="l 0 p 22" fill="rgb(64,64,64)" stroke="rgb(64,64,64)" stroke-width="1" opacity="0.00392156862745098" d="M 346.5 195 Q 347.6 201.4 352 204.5 L 349.5 206 L 343 200.5 L 342 196.5 L 346.5 195 Z" /><path desc="l 0 p 23" fill="rgb(64,64,64)" stroke="rgb(64,64,64)" stroke-width="1" opacity="0.00392156862745098" d="M 379.5 204 L 394 210.5 L 394 212.5 L 395 217.5 Q 392.3 219.8 386.5 219 L 380 211.5 L 379.5 204 Z" /><path desc="l 0 p 24" fill="rgb(64,64,64)" stroke="rgb(64,64,64)" stroke-width="1" opacity="0.00392156862745098" d="M 367.5 205 L 375 205.5 L 376 211.5 L 378 217.5 L 374.5 218 L 368 213.5 Q 365.7 210.6 367.5 205 Z" /><path desc="l 0 p 25" fill="rgb(64,64,64)" stroke="rgb(64,64,64)" stroke-width="1" opacity="0.00392156862745098" d="M 399.5 207 L 405 211.5 L 413 222.5 L 408.5 224 L 400 217.5 Q 397.2 214.8 398 208.5 L 399.5 207 Z" /><path desc="l 0 p 26" fill="rgb(64,64,64)" stroke="rgb(64,64,64)" stroke-width="1" opacity="0.00392156862745098" d="M 357.5 208 L 363 208.5 Q 362.2 215.2 366 217.5 L 363.5 218 L 358 215.5 L 356 209.5 L 357.5 208 Z" /><path desc="l 0 p 27" fill="rgb(64,64,64)" stroke="rgb(64,64,64)" stroke-width="1" opacity="0.00392156862745098" d="M 294.5 209 L 312 214.5 Q 298.9 224.4 282.5 231 L 272 236.5 L 262.5 239 L 251.5 241 L 242 242.5 L 234.5 243 L 226 240.5 L 239 231.5 L 240.5 229 L 246 228.5 L 252.5 227 L 268 220.5 L 294.5 209 Z" /><path desc="l 0 p 28" fill="rgb(64,64,64)" stroke="rgb(64,64,64)" stroke-width="1" opacity="0.00392156862745098" d="M 350.5 211 L 352 211.5 L 356.5 220 L 362 221.5 L 348.5 228 L 342 229.5 L 332.5 230 L 323 227.5 L 324.5 225 L 337.5 217 L 350.5 211 Z" /><path desc="l 0 p 29" fill="rgb(64,64,64)" stroke="rgb(64,64,64)" stroke-width="1" opacity="0.00392156862745098" d="M 318.5 215 L 333 215.5 L 318 225.5 L 317 227.5 L 324 232.5 L 299 251.5 Q 290.7 258.7 277.5 261 L 266 263.5 L 246.5 264 L 257 252.5 L 264.5 243 Q 270.5 243 273.5 240 L 291 231.5 L 318.5 215 Z" /><path desc="l 0 p 30" fill="rgb(64,64,64)" stroke="rgb(64,64,64)" stroke-width="1" opacity="0.00392156862745098" d="M 370.5 221 L 378 222.5 Q 377.2 227.8 380 229.5 Q 379.3 231.8 375.5 231 L 370 226.5 L 370.5 221 Z" /><path desc="l 0 p 31" fill="rgb(64,64,64)" stroke="rgb(64,64,64)" stroke-width="1" opacity="0.00392156862745098" d="M 382.5 221 Q 384.8 224.2 391.5 223 L 393.5 222 L 394 223.5 Q 391.8 224.8 393 229.5 L 394 233.5 L 392.5 234 L 388.5 233 L 384 229.5 Q 380.9 226.5 382.5 221 Z" /><path desc="l 0 p 32" fill="rgb(64,64,64)" stroke="rgb(64,64,64)" stroke-width="1" opacity="0.00392156862745098" d="M 398.5 222 Q 402.1 227.4 410 228.5 Q 409.2 235.2 413 237.5 Q 411.3 239.8 406.5 239 L 398 232.5 L 397 224.5 L 398.5 222 Z" /><path desc="l 0 p 33" fill="rgb(64,64,64)" stroke="rgb(64,64,64)" stroke-width="1" opacity="0.00392156862745098" d="M 364.5 225 L 366 225.5 Q 366.5 231.1 370.5 233 Q 373.2 235.8 379.5 235 L 382.5 234 L 386 236.5 L 374 242.5 L 360.5 246 L 352.5 247 L 341.5 245 L 337 243.5 L 364.5 225 Z" /><path desc="l 0 p 34" fill="rgb(64,64,64)" stroke="rgb(64,64,64)" stroke-width="1" opacity="0.00392156862745098" d="M 415.5 226 L 421 230.5 L 426 238.5 L 421.5 240 L 416.5 235 Q 413.2 233.3 414 227.5 L 415.5 226 Z" /><path desc="l 0 p 35" fill="rgb(64,64,64)" stroke="rgb(64,64,64)" stroke-width="1" opacity="0.00392156862745098" d="M 330.5 233 L 334.5 234 L 342 234.5 L 332 242.5 Q 331.5 246.5 334.5 247 L 340.5 249 L 346.5 250 L 356.5 251 L 358 250.5 L 357.5 252 L 344 259.5 L 338.5 266 L 315.5 280 Q 301.9 291.4 276.5 291 L 263 287.5 L 282 269.5 L 289.5 261 L 297 257.5 L 311.5 248 L 330.5 233 Z" /><path desc="l 0 p 36" fill="rgb(64,64,64)" stroke="rgb(64,64,64)" stroke-width="1" opacity="0.00392156862745098" d="M 391.5 238 Q 398.8 236.8 401 240.5 Q 403.9 244.1 411.5 243 L 416.5 241 L 418 243.5 Q 407.9 253.9 392 258.5 L 381 262.5 L 370.5 265 L 363.5 266 L 349 261.5 L 370 249.5 L 391.5 238 Z" /><path desc="l 0 p 37" fill="rgb(64,64,64)" stroke="rgb(64,64,64)" stroke-width="1" opacity="0.00392156862745098" d="M 219.5 239 L 219 240.5 L 220.5 244 L 233 246.5 L 242.5 247 L 257.5 244 L 255 247.5 L 239 265.5 L 240 267.5 L 212.5 273 L 171 280.5 L 152.5 284 L 145 284.5 L 116.5 285 L 105.5 283 L 88.5 278 L 75.5 272 Q 62.4 264.6 53 253.5 Q 50.4 252.1 51 247.5 Q 55 242.5 65 243.5 L 76.5 243 L 84.5 242 L 87.5 243 L 90.5 242 Q 100.1 247.9 115 248.5 L 141.5 249 L 144.5 248 L 152.5 248 L 179.5 247 L 190.5 245 Q 207.2 244.2 219.5 239 Z" /><path desc="l 0 p 38" fill="rgb(64,64,64)" stroke="rgb(64,64,64)" stroke-width="1" opacity="0.00392156862745098" d="M 428.5 242 L 433 245.5 Q 439 251.5 442 260.5 Q 429.8 272.8 413.5 281 L 399.5 288 L 390.5 289 L 374.5 289 L 368 285.5 L 385.5 271 Q 392.3 263.3 402.5 259 Q 412.6 255.1 419 247.5 Q 421.9 242.9 428.5 242 Z" /><path desc="l 0 p 39" fill="rgb(64,64,64)" stroke="rgb(64,64,64)" stroke-width="1" opacity="0.00392156862745098" d="M 443.5 264 L 446 264.5 L 455 281.5 L 431.5 300 L 420.5 306 Q 415.5 310 404.5 308 L 394 304.5 L 389 302.5 L 396.5 296 L 405.5 290 L 417.5 283 Q 432.8 275.8 443.5 264 Z" /><path desc="l 0 p 40" fill="rgb(64,64,64)" stroke="rgb(64,64,64)" stroke-width="1" opacity="0.00392156862745098" d="M 276.5 265 L 280 265.5 L 269.5 277 L 258 286.5 L 257 288.5 L 258.5 291 L 280 295.5 L 254 309.5 L 227 321.5 Q 213.8 328.8 196.5 332 L 188.5 334 L 179.5 335 L 160.5 335 Q 159.3 332.8 154.5 334 L 140.5 333 Q 132 333 127 329.5 L 108.5 324 Q 99.3 323.7 95 318.5 L 174 289.5 L 192 283.5 L 200 280.5 Q 201.8 278.3 206.5 279 L 221 275.5 L 246.5 270 L 251.5 269 L 259.5 268 L 267 267.5 L 276.5 265 Z" /><path desc="l 0 p 41" fill="rgb(64,64,64)" stroke="rgb(64,64,64)" stroke-width="1" opacity="0.00392156862745098" d="M 345.5 265 L 358 268.5 Q 361.8 270.8 368.5 270 L 376.5 268 L 385.5 265 L 384.5 267 L 364 283.5 L 361.5 288 L 360 288.5 L 359.5 290 Q 351 300.5 336 304.5 L 320.5 309 L 299.5 310 L 287 307.5 L 304.5 292 L 316.5 285 L 345.5 265 Z" /><path desc="l 0 p 42" fill="rgb(64,64,64)" stroke="rgb(64,64,64)" stroke-width="1" opacity="0.00392156862745098" d="M 457.5 285 L 471 303.5 L 451.5 319 Q 447.1 325.6 437.5 327 L 433.5 326 L 425.5 325 L 418 322.5 L 412 319.5 Q 420.8 309.8 433 303.5 Q 447 296 457.5 285 Z" /><path desc="l 0 p 43" fill="rgb(64,64,64)" stroke="rgb(64,64,64)" stroke-width="1" opacity="0.00392156862745098" d="M 365.5 289 L 373 292.5 L 378.5 293 L 388.5 294 L 392.5 293 L 389.5 297 L 383 302.5 L 379.5 307 L 358.5 324 Q 353.4 330.4 343.5 332 L 328.5 333 L 325.5 332 Q 320.4 332.6 319 329.5 L 333 317.5 L 341.5 307 Q 356.6 301.1 365.5 289 Z" /><path desc="l 0 p 44" fill="rgb(64,64,64)" stroke="rgb(64,64,64)" stroke-width="1" opacity="0.00392156862745098" d="M 294.5 293 L 297 293.5 L 282 306.5 L 281 309.5 Q 281.8 312.8 286.5 312 L 293.5 313 L 298 313.5 L 316.5 314 L 333.5 309 L 334 310.5 L 314 328.5 L 315 332.5 L 295.5 350 L 277.5 364 Q 266.6 373.1 252.5 379 Q 244.5 385 232.5 387 L 211.5 388 Q 210 385.5 204.5 387 L 188 385.5 Q 172.2 385.8 165 377.5 Q 164.5 373.5 167.5 373 L 212.5 341 Q 223.6 330.1 239 323.5 L 240.5 320 Q 259.8 312.8 275.5 302 L 287 296.5 Q 287.5 293.5 291.5 294 L 294.5 293 Z" /><path desc="l 0 p 45" fill="rgb(64,64,64)" stroke="rgb(64,64,64)" stroke-width="1" opacity="0.00392156862745098" d="M 582.5 300 L 587 300.5 L 594 303.5 L 593.5 305 Q 588.8 303.8 587.5 306 L 582.5 308 L 576 303.5 L 576.5 302 L 582.5 300 Z" /><path desc="l 0 p 46" fill="rgb(64,64,64)" stroke="rgb(64,64,64)" stroke-width="1" opacity="0.00392156862745098" d="M 603.5 300 Q 611.5 298.5 614 302.5 L 605.5 309 L 600 305.5 Q 599.3 301.8 601.5 301 L 603.5 300 Z" /><path desc="l 0 p 47" fill="rgb(64,64,64)" stroke="rgb(64,64,64)" stroke-width="1" opacity="0.00392156862745098" d="M 561.5 304 Q 568.3 302.7 571 305.5 L 579 310.5 L 578.5 312 L 574.5 311 L 565.5 311 Q 556.3 312.8 552 319.5 L 550.5 323 L 550 315.5 L 553.5 308 L 561.5 304 Z" /><path desc="l 0 p 48" fill="rgb(64,64,64)" stroke="rgb(64,64,64)" stroke-width="1" opacity="0.00392156862745098" d="M 386.5 306 L 405 312.5 Q 396.5 326 384.5 336 Q 377.8 342.3 366.5 344 L 347.5 346 L 347 343.5 L 363.5 325 L 386.5 306 Z" /><path desc="l 0 p 49" fill="rgb(64,64,64)" stroke="rgb(64,64,64)" stroke-width="1" opacity="0.00392156862745098" d="M 473.5 307 L 488 320.5 L 473.5 332 Q 466.8 340.3 449.5 338 L 439 335.5 L 453.5 323 L 473.5 307 Z" /><path desc="l 0 p 50" fill="rgb(64,64,64)" stroke="rgb(64,64,64)" stroke-width="1" opacity="0.00392156862745098" d="M 613.5 307 Q 618.3 306.3 620 308.5 L 619.5 324 L 615 321.5 Q 614 314.5 609 311.5 L 610.5 309 L 613.5 307 Z" /><path desc="l 0 p 51" fill="rgb(64,64,64)" stroke="rgb(64,64,64)" stroke-width="1" opacity="0.00392156862745098" d="M 589.5 309 Q 597.6 307.4 600.5 311 L 610 318.5 L 609.5 321 Q 607.8 318.3 601.5 320 L 591.5 325 L 589 323.5 Q 588 316.5 583 313.5 L 589.5 309 Z" /><path desc="l 0 p 52" fill="rgb(64,64,64)" stroke="rgb(64,64,64)" stroke-width="1" opacity="0.00392156862745098" d="M 410.5 312 L 414 312.5 L 407 318.5 L 408 321.5 L 411.5 325 L 423 328.5 L 412.5 345 L 409 347.5 L 406.5 351 L 396.5 357 Q 391 362 378.5 360 L 374 358.5 L 392.5 334 L 395 332.5 L 410.5 312 Z" /><path desc="l 0 p 53" fill="rgb(64,64,64)" stroke="rgb(64,64,64)" stroke-width="1" opacity="0.00392156862745098" d="M 539.5 315 L 546 315.5 L 545.5 323 Q 537.3 321.3 533.5 324 L 526.5 327 L 527 325.5 Q 527.7 319.2 532.5 317 L 539.5 315 Z" /><path desc="l 0 p 54" fill="rgb(64,64,64)" stroke="rgb(64,64,64)" stroke-width="1" opacity="0.00392156862745098" d="M 566.5 315 Q 580.1 312.9 584 320.5 L 585 322.5 Q 571.8 321.8 568 330.5 L 565.5 335 L 560 332.5 L 556.5 327 L 554 325.5 Q 555.4 319.4 560.5 317 L 566.5 315 Z" /><path desc="l 0 p 55" fill="rgb(64,64,64)" stroke="rgb(64,64,64)" stroke-width="1" opacity="0.00392156862745098" d="M 491.5 323 L 502 330.5 L 496.5 337 L 488 342.5 L 478.5 347 L 471.5 348 L 467.5 347 Q 463.8 347.8 463 345.5 L 491.5 323 Z" /><path desc="l 0 p 56" fill="rgb(64,64,64)" stroke="rgb(64,64,64)" stroke-width="1" opacity="0.00392156862745098" d="M 602.5 324 Q 614.5 323.5 620 329.5 L 619.5 335 Q 611.4 335.9 607 340.5 L 605.5 343 Q 605.5 335.5 601 332.5 L 596 326.5 L 602.5 324 Z" /><path desc="l 0 p 57" fill="rgb(64,64,64)" stroke="rgb(64,64,64)" stroke-width="1" opacity="0.00392156862745098" d="M 536.5 327 Q 549.4 325.6 555 331.5 Q 545.7 333.2 541 339.5 L 538.5 343 Q 534.5 337.5 525 337.5 L 530.5 329 L 536.5 327 Z" /><path desc="l 0 p 58" fill="rgb(64,64,64)" stroke="rgb(64,64,64)" stroke-width="1" opacity="0.00392156862745098" d="M 578.5 327 Q 588.3 325.7 592.5 330 L 600 337.5 L 601 343.5 L 599.5 343 L 592.5 342 L 587.5 344 L 585.5 339 L 583 340.5 Q 583 347 579.5 350 L 578 349.5 Q 576.8 342.8 572.5 339 L 570 337.5 Q 570.7 331.7 574.5 329 L 578.5 327 Z" /><path desc="l 0 p 59" fill="rgb(64,64,64)" stroke="rgb(64,64,64)" stroke-width="1" opacity="0.00392156862745098" d="M 428.5 329 L 437 330.5 L 434 336.5 L 439.5 340 L 445 341.5 L 432.5 359 L 421.5 363 L 414 365.5 L 401.5 368 L 401 366.5 L 428.5 329 Z" /><path desc="l 0 p 60" fill="rgb(64,64,64)" stroke="rgb(64,64,64)" stroke-width="1" opacity="0.00392156862745098" d="M 349.5 334 L 346 338.5 L 343.5 342 Q 341 343 342 347.5 Q 344.6 350.9 351.5 350 L 362.5 348 L 363 349.5 Q 345.6 369.6 324.5 386 Q 318.1 394.6 307 398.5 L 287.5 405 L 269 409.5 L 263 410.5 L 248.5 411 L 243 408.5 L 245 404.5 L 249.5 399 L 281.5 366 L 307.5 345 Q 311.5 337.5 320.5 335 Q 326.6 338.4 337.5 337 L 349.5 334 Z" /><path desc="l 0 p 61" fill="rgb(64,64,64)" stroke="rgb(64,64,64)" stroke-width="1" opacity="0.00392156862745098" d="M 505.5 334 L 516 338.5 L 515.5 340 L 509 343.5 L 504.5 350 Q 497.5 354.5 486.5 355 L 482 353.5 L 505.5 334 Z" /><path desc="l 0 p 62" fill="rgb(64,64,64)" stroke="rgb(64,64,64)" stroke-width="1" opacity="0.00392156862745098" d="M 553.5 336 L 561.5 338 Q 568.5 339.5 572 344.5 L 574.5 351 L 575 355.5 L 562.5 366 L 561 347.5 L 563 340.5 Q 560.5 335.5 558 340.5 L 555.5 346 L 549.5 352 Q 547.3 349.3 542 349.5 Q 542 340.5 548.5 338 L 553.5 336 Z" /><path desc="l 0 p 63" fill="rgb(64,64,64)" stroke="rgb(64,64,64)" stroke-width="1" opacity="0.00392156862745098" d="M 618.5 339 L 620 339.5 L 620 353.5 Q 621.3 359.8 617.5 361 Q 618 351.5 612.5 348 L 610 346.5 L 613.5 341 L 618.5 339 Z" /><path desc="l 0 p 64" fill="rgb(64,64,64)" stroke="rgb(64,64,64)" stroke-width="1" opacity="0.00392156862745098" d="M 450.5 342 L 461 342.5 L 458 344.5 Q 457.3 348.3 459.5 349 L 468 351.5 Q 464.8 359.3 458.5 364 Q 455 367.5 448.5 368 L 430.5 373 L 430 371.5 Q 436.1 367.6 438.5 360 L 450.5 342 Z" /><path desc="l 0 p 65" fill="rgb(64,64,64)" stroke="rgb(64,64,64)" stroke-width="1" opacity="0.00392156862745098" d="M 524.5 342 Q 535.1 341.4 538 348.5 L 537.5 350 L 533.5 352 L 533 350.5 L 534 348.5 Q 531.5 343.5 529 348.5 L 526.5 357 L 521.5 364 L 521 354.5 L 522 352.5 Q 520 348 518 351.5 L 512 357.5 L 509.5 362 L 509 350.5 L 514.5 344 L 524.5 342 Z" /><path desc="l 0 p 66" fill="rgb(64,64,64)" stroke="rgb(64,64,64)" stroke-width="1" opacity="0.00392156862745098" d="M 378.5 344 L 377 346.5 L 373 352.5 Q 369.4 354.4 370 360.5 Q 373.2 364.3 380.5 364 L 392 364.5 L 381.5 383 Q 374.1 397.1 362.5 407 L 340.5 416 L 322 420.5 L 317 421.5 L 309.5 422 L 309 420.5 Q 322.3 397.3 339.5 378 L 360 358.5 L 370.5 347 L 378.5 344 Z" /><path desc="l 0 p 67" fill="rgb(64,64,64)" stroke="rgb(64,64,64)" stroke-width="1" opacity="0.00392156862745098" d="M 593.5 346 Q 599 345.5 601 348.5 L 593.5 357 L 585.5 362 L 585 355.5 L 586 352.5 Q 585.3 348.8 587.5 348 L 593.5 346 Z" /><path desc="l 0 p 68" fill="rgb(64,64,64)" stroke="rgb(64,64,64)" stroke-width="1" opacity="0.00392156862745098" d="M 474.5 351 L 477 351.5 Q 471.2 354.3 476.5 357 L 482.5 358 L 486 359.5 L 483.5 363 L 478 367.5 L 477.5 369 L 474 370.5 L 472.5 374 Q 466.4 373.4 464.5 377 L 459.5 379 L 454.5 380 L 454 378.5 L 462.5 366 L 472.5 352 L 474.5 351 Z" /><path desc="l 0 p 69" fill="rgb(64,64,64)" stroke="rgb(64,64,64)" stroke-width="1" opacity="0.00392156862745098" d="M 556.5 351 L 558 364.5 Q 556.3 371.3 559.5 373 L 562.5 372 L 566 368.5 L 580 356.5 L 580.5 355 L 581 365.5 L 580 369.5 L 582.5 371 L 603.5 353 L 604 355.5 L 603 359.5 L 603 369.5 L 602 374.5 L 600 381.5 L 603.5 384 L 619.5 376 L 620 426.5 L 613.5 427 L 610.5 426 L 609 428.5 Q 612 432.5 620 431.5 Q 620.8 436.8 618 438.5 Q 612.2 442.7 610 450.5 L 612.5 452 L 619.5 443 L 620 464.5 L 615.5 465 Q 610.8 464.3 610 467.5 L 611.5 470 L 616 473.5 L 605.5 476 L 594.5 477 L 588.5 477 L 585 478.5 L 586.5 481 L 594 484.5 L 593.5 486 L 587.5 487 L 581.5 488 L 578 489.5 L 579.5 492 L 583 493.5 L 582.5 495 L 568.5 496 Q 563.3 494.8 562 497.5 L 563.5 500 L 572 506.5 L 565.5 507 L 561.5 506 L 552.5 506 L 513.5 506 L 508.5 507 L 508.5 506 L 526 502.5 Q 538.5 502.5 544 495.5 Q 548.1 492.6 547 484.5 L 544.5 481 L 527.5 473 Q 518.4 470.1 513 463.5 L 511.5 461 L 502.5 462 L 488.5 458 L 473 451.5 L 467.5 448 L 463.5 446 Q 460.7 447.2 463 448.5 L 465.5 452 Q 474.3 458.7 486.5 462 Q 494.8 466.2 507.5 466 L 509.5 465 L 513.5 470 L 543 485.5 Q 543.9 493.4 538.5 495 L 528.5 498 L 515.5 500 L 497 506.5 L 484 512.5 L 466.5 522 L 445.5 537 L 445 523.5 L 448 513.5 L 453.5 501 L 456 501.5 L 453 518.5 L 455.5 522 L 459.5 520 L 465.5 515 Q 475.5 507.5 489.5 504 Q 501.5 501.5 509.5 495 L 513 491.5 L 516.5 490 L 523.5 492 L 527.5 493 L 530.5 495 L 532 491.5 L 531 489.5 L 532 484.5 L 529.5 483 L 527.5 488 Q 520.7 489.3 518 486.5 L 510.5 483 Q 503.8 476.7 488.5 479 L 470.5 484 Q 463.5 479 452.5 478 L 441.5 480 Q 427.3 481.8 418 488.5 L 405.5 496 L 397 503.5 L 396.5 505 L 395 504.5 Q 389.7 495.8 392 479.5 Q 398.4 465.9 409.5 457 L 420.5 452 L 428.5 450 Q 431.4 454.6 437.5 456 L 439 453.5 L 432 447.5 L 431 443.5 L 435.5 435 L 440.5 434 L 448.5 439 L 456.5 443 Q 461.3 441.7 462.5 444 L 469.5 441 L 475.5 437 L 482.5 443 Q 488 445.5 497.5 444 Q 505.8 442.3 510 436.5 L 514 430.5 Q 516.3 427.3 515 420.5 L 510 411.5 L 519.5 411 Q 524 412 525 409.5 Q 524.3 406.3 519.5 407 L 508.5 407 Q 488.6 413.1 478 428.5 L 472.5 435 L 467.5 438 L 460.5 439 L 454 435.5 L 461 423.5 L 458.5 422 L 452.5 430 L 447.5 432 L 441 427.5 L 440 420.5 Q 446.1 405.1 458.5 396 L 473.5 382 L 474.5 391 L 479 389.5 L 486 377.5 L 494.5 368 L 495 374.5 Q 494.3 378.3 496.5 379 Q 501 379.5 501.5 376 L 512 365.5 L 516.5 359 L 517 368.5 L 515 375.5 L 517.5 377 L 528.5 361 L 529 371.5 L 528 375.5 L 530.5 377 L 537.5 369 L 556.5 351 Z" /><path desc="l 0 p 70" fill="rgb(64,64,64)" stroke="rgb(64,64,64)" stroke-width="1" opacity="0.00392156862745098" d="M 608.5 351 L 612 353.5 L 613 358.5 L 607.5 359 L 607 357.5 L 608.5 351 Z" /><path desc="l 0 p 71" fill="rgb(64,64,64)" stroke="rgb(64,64,64)" stroke-width="1" opacity="0.00392156862745098" d="M 537.5 354 L 543.5 354 L 547 355.5 L 533.5 367 L 533 358.5 L 537.5 354 Z" /><path desc="l 0 p 72" fill="rgb(64,64,64)" stroke="rgb(64,64,64)" stroke-width="1" opacity="0.00392156862745098" d="M 502.5 355 L 505 355.5 L 504 357.5 L 506 366.5 L 499 372.5 Q 498 364.5 501 360.5 L 499.5 358 L 496 359.5 L 478.5 381 L 478 372.5 L 490 361.5 L 492.5 358 L 502.5 355 Z" /><path desc="l 0 p 73" fill="rgb(64,64,64)" stroke="rgb(64,64,64)" stroke-width="1" opacity="0.00392156862745098" d="M 399.5 360 L 400 361.5 L 396 368.5 Q 397.9 372.1 403.5 372 L 411.5 370 Q 418.5 370 422.5 367 L 430.5 364 L 431 365.5 Q 426.3 367.7 425 373.5 L 426.5 376 L 431.5 377 L 433 376.5 Q 428.6 391.1 418.5 400 L 394.5 414 Q 387.2 419.7 376.5 422 Q 372.2 426.2 363.5 426 L 363 423.5 Q 368.4 406.9 378.5 395 Q 387.4 384.4 393 370.5 Q 394.5 363.6 399.5 360 Z" /><path desc="l 0 p 74" fill="rgb(64,64,64)" stroke="rgb(64,64,64)" stroke-width="1" opacity="0.00392156862745098" d="M 609.5 363 L 613.5 364 L 619 367.5 L 620 370.5 Q 615.5 376.5 606.5 378 L 606 372.5 L 607.5 364 L 609.5 363 Z" /><path desc="l 0 p 75" fill="rgb(64,64,64)" stroke="rgb(64,64,64)" stroke-width="1" opacity="0.00392156862745098" d="M 451.5 371 L 453 371.5 L 451 375.5 L 450 381.5 Q 451.7 384.8 457.5 384 L 469.5 379 L 466 383.5 L 461.5 389 L 448 400.5 L 439.5 412 L 429.5 418 L 412.5 426 L 406.5 428 L 399.5 429 L 399 427.5 L 412.5 408 Q 421.5 404.5 427 397.5 L 439.5 375 L 451.5 371 Z" /><path desc="l 1 p 1" fill="rgb(0,0,0)" stroke="rgb(0,0,0)" stroke-width="1" opacity="0.9098039215686274" d="M 604.5 389 L 608 390.5 L 594.5 409 L 592 407.5 L 598 396.5 L 596.5 396 L 589 397.5 L 577.5 398 Q 573 396 576.5 394 L 582.5 393 L 586.5 394 Q 588 391.5 593.5 393 L 597.5 392 L 604.5 389 Z" /><path desc="l 1 p 2" fill="rgb(0,0,0)" stroke="rgb(0,0,0)" stroke-width="1" opacity="0.9098039215686274" d="M 560.5 393 L 564 393.5 L 558 407.5 L 556 414.5 L 554.5 424 L 551 422.5 L 551.5 416 L 553 409.5 L 556 400.5 L 554.5 400 L 546.5 403 L 537.5 404 L 536 401.5 L 539.5 400 L 545.5 399 L 560.5 393 Z" /><path desc="l 0 p 76" fill="rgb(64,64,64)" stroke="rgb(64,64,64)" stroke-width="1" opacity="0.00392156862745098" d="M 503.5 413 Q 508.5 412.5 509 416.5 Q 511.9 420.1 511 427.5 L 503.5 437 Q 498 441.5 486.5 440 L 479 434.5 L 486.5 426 Q 487 432.5 491.5 435 Q 503.3 436.8 506 429.5 Q 507 423 503.5 421 L 497 417.5 L 497.5 416 L 503.5 413 Z" /><path desc="l 1 p 3" fill="rgb(0,0,0)" stroke="rgb(0,0,0)" stroke-width="1" opacity="0.9098039215686274" d="M 600.5 418 Q 604.7 419.7 602 421.5 L 591.5 439 L 587.5 449 L 585 448.5 Q 586.4 434.4 594 426.5 L 591.5 426 L 585 427.5 L 575.5 428 L 573 426.5 L 573.5 424 L 575.5 423 Q 577.3 425.8 583.5 424 L 590 422.5 L 600.5 418 Z" /><path desc="l 0 p 77" fill="rgb(64,64,64)" stroke="rgb(64,64,64)" stroke-width="1" opacity="0.00392156862745098" d="M 493.5 421 Q 499.4 421.6 502 425.5 L 500.5 430 L 493.5 431 Q 490.3 430.3 491 425.5 L 493.5 421 Z" /><path desc="l 1 p 4" fill="rgb(0,0,0)" stroke="rgb(0,0,0)" stroke-width="1" opacity="0.9098039215686274" d="M 610.5 426 L 620 427.5 L 619.5 431 Q 611.5 432.5 609 428.5 L 610.5 426 Z" /><path desc="l 1 p 5" fill="rgb(0,0,0)" stroke="rgb(0,0,0)" stroke-width="1" opacity="0.9098039215686274" d="M 619.5 436 L 620 442.5 L 612.5 452 L 610 450.5 L 612 445.5 L 619.5 436 Z" /><path desc="l 1 p 6" fill="rgb(0,0,0)" stroke="rgb(0,0,0)" stroke-width="1" opacity="0.9098039215686274" d="M 449.5 459 L 455 461.5 Q 462 466.5 473.5 467 L 478.5 468 Q 484.3 467.2 486 470.5 Q 485.5 473.5 481.5 473 L 465.5 470 Q 454.7 467.8 448 461.5 L 449.5 459 Z" /><path desc="l 0 p 78" fill="rgb(64,64,64)" stroke="rgb(64,64,64)" stroke-width="1" opacity="0.00392156862745098" d="M 618.5 477 L 620 477.5 L 619.5 540 Q 610.4 526.1 610 503.5 L 610 489.5 Q 611.3 484.3 608.5 483 L 604.5 482 L 602.5 483 L 598 481.5 L 608.5 480 L 618.5 477 Z" /><path desc="l 0 p 79" fill="rgb(64,64,64)" stroke="rgb(64,64,64)" stroke-width="1" opacity="0.00392156862745098" d="M 489.5 483 Q 502.9 481.1 509 486.5 L 508.5 488 Q 500.2 495.2 486.5 497 L 478.5 498 L 463.5 498 L 458.5 497 L 443.5 497 L 436.5 499 L 437.5 497 L 449 492.5 Q 453.8 489.3 461.5 489 Q 463.2 486.2 468.5 487 L 472.5 489 L 481.5 485 L 489.5 483 Z" /><path desc="l 0 p 80" fill="rgb(64,64,64)" stroke="rgb(64,64,64)" stroke-width="1" opacity="0.00392156862745098" d="M 600.5 487 L 605 487.5 L 605 503.5 L 604 511.5 L 599 523.5 Q 595.7 533.2 588.5 539 L 578.5 550 Q 573.8 550.8 573 547.5 L 566.5 535 L 561 520.5 Q 557.3 517.7 558 510.5 L 562.5 510 Q 563.7 512.2 568.5 511 L 574 511.5 L 580.5 513 L 582 509.5 L 571 500.5 L 578.5 499 L 590.5 498 L 592.5 499 Q 597.5 496.5 592.5 494 L 587 491.5 Q 595.6 491.1 600.5 487 Z" /><path desc="l 0 p 81" fill="rgb(64,64,64)" stroke="rgb(64,64,64)" stroke-width="1" opacity="0.00392156862745098" d="M 445.5 501 L 449 501.5 Q 443.6 509.1 441.5 520 L 434.5 511 Q 433.1 508.4 428.5 509 L 423 508.5 L 436.5 503 L 445.5 501 Z" /><path desc="l 0 p 82" fill="rgb(64,64,64)" stroke="rgb(64,64,64)" stroke-width="1" opacity="0.00392156862745098" d="M 461.5 501 L 466.5 502 L 472.5 502 L 476.5 503 L 478.5 502 L 479 503.5 L 469 508.5 L 457.5 516 L 458 514.5 Q 457.6 505.6 461.5 501 Z" /><path desc="l 0 p 83" fill="rgb(64,64,64)" stroke="rgb(64,64,64)" stroke-width="1" opacity="0.00392156862745098" d="M 514.5 510 L 522 510.5 L 520 515.5 L 517 527.5 L 520.5 529 L 521.5 527 L 523 527.5 L 523.5 533 L 526 540.5 L 528 547.5 L 528 559.5 L 527 562.5 L 527 570.5 L 526 598.5 L 525 605.5 Q 526 610.5 523 611.5 L 518 619.5 L 507 637.5 L 498.5 649 Q 496.3 653.3 488.5 652 Q 479 645 475 632.5 Q 476.3 627.3 473.5 626 L 472 626.5 L 473 620.5 L 474 610.5 L 468.5 604 Q 460.8 601.8 456 596.5 L 452 590.5 Q 454.1 578.1 463.5 573 L 477.5 560 L 478 561.5 L 473 589.5 L 471.5 597 L 471 604.5 L 473.5 606 Q 475.8 605.3 475 601.5 L 476 593.5 L 478.5 583 L 481 568.5 L 483 555.5 L 486 547.5 L 482.5 546 Q 479.3 555.3 471.5 560 Q 466.2 554.8 458 552.5 L 460 542.5 L 457.5 541 L 455 542.5 L 456 536.5 L 459.5 531 L 476.5 521 L 486.5 516 L 503 511.5 L 510.5 511 L 514.5 510 Z" /><path desc="l 0 p 84" fill="rgb(64,64,64)" stroke="rgb(64,64,64)" stroke-width="1" opacity="0.00392156862745098" d="M 525.5 510 L 552 510.5 L 548.5 519 L 545 524.5 L 532.5 540 L 530.5 541 Q 525.8 532.8 526 519.5 Q 526.4 512.7 525.5 510 Z" /><path desc="l 0 p 85" fill="rgb(64,64,64)" stroke="rgb(64,64,64)" stroke-width="1" opacity="0.00392156862745098" d="M 420.5 513 Q 433.1 510.9 436 518.5 L 440 527.5 L 441 530.5 L 441 538.5 Q 438.2 540.2 439 545.5 L 438 558.5 L 437 567.5 L 440.5 569 L 442.5 566 Q 453.3 565.8 457 572.5 Q 451.5 577 449.5 585 L 446.5 581 Q 443.8 582.3 445 587.5 Q 449.3 598.3 458.5 604 L 469 609.5 L 470 616.5 L 467 628.5 L 463 637.5 Q 461.8 643.3 457.5 646 L 455 645.5 Q 459.1 642.6 458 634.5 L 455.5 631 Q 450.5 624.5 439 624.5 Q 439.7 618.7 443.5 616 L 452.5 616 L 458 614.5 L 457.5 611 L 445.5 612 Q 432.8 606.7 423.5 598 L 417.5 593 Q 414.8 590.2 408.5 591 Q 404.2 594.7 394.5 593 L 392 591.5 L 393 586.5 Q 391.8 580.8 387.5 578 L 385 579.5 L 389 588.5 L 382.5 596 L 378 591.5 Q 377.3 589.3 373.5 590 L 373 592.5 Q 378.7 594.8 379 602.5 L 376.5 607 Q 374 602.5 365.5 604 L 359 609.5 Q 356.4 612.4 357 618.5 L 359 622.5 L 357.5 622 L 355 620.5 Q 350.8 615.2 351 605.5 Q 353.1 596.6 359.5 592 L 367 588.5 L 365.5 586 Q 359.4 585.4 357.5 589 L 356 582.5 L 362.5 577 L 368.5 575 L 376.5 580 Q 380.8 578.3 378 576.5 L 375.5 573 L 384 573.5 L 395.5 577 L 401 578.5 L 413.5 583 L 416 581.5 L 415.5 579 Q 398.7 576.3 390 565.5 Q 382.7 558.3 380 546.5 Q 381.2 537.8 376.5 535 L 373.5 534 L 373 537.5 L 376 542.5 L 376 544.5 Q 375.4 550.4 371.5 553 L 368 552.5 L 369 547.5 L 361.5 538 Q 358.3 533.7 349.5 535 L 344.5 538 L 344 536.5 L 346.5 532 L 353.5 524 L 360 521.5 L 365.5 521 L 375 526.5 Q 377.1 528.9 382.5 528 Q 387.9 527.1 390 529.5 Q 395.6 542.4 404.5 552 L 414 556.5 L 422.5 571 L 424.5 572 Q 426.8 571.3 426 567.5 L 423 558.5 L 422 547.5 Q 429.1 547.1 432 542.5 L 435.5 538 Q 437.8 536.3 437 531.5 L 434.5 530 Q 432.3 530.8 433 534.5 L 426.5 542 L 422.5 543 L 423 541.5 L 425 535.5 Q 428.5 534 427 527.5 L 423.5 523 L 413.5 520 L 407 525.5 L 405.5 529 L 405 526.5 L 410.5 519 L 420.5 513 Z" /><path desc="l 0 p 86" fill="rgb(64,64,64)" stroke="rgb(64,64,64)" stroke-width="1" opacity="0.00392156862745098" d="M 554.5 517 L 560 530.5 L 568 545.5 L 573 553.5 L 571.5 559 L 571 564.5 L 571 580.5 Q 573.8 582.3 572 588.5 L 572 609.5 L 568 624.5 L 562 638.5 Q 558.4 653.4 548.5 662 L 544.5 663 L 533.5 647 L 530.5 639 L 530 630.5 L 531 626.5 L 530 623.5 L 530 616.5 L 530 588.5 L 531 585.5 L 531 578.5 L 532 553.5 Q 530 544 535.5 542 L 541 537.5 L 554.5 517 Z" /><path desc="l 0 p 87" fill="rgb(64,64,64)" stroke="rgb(64,64,64)" stroke-width="1" opacity="0.00392156862745098" d="M 606.5 517 L 610 527.5 Q 611 536 615.5 541 L 619 547.5 L 620 554.5 L 620 570.5 L 620 636.5 L 612.5 647 L 603.5 658 L 599 656.5 L 583.5 638 Q 578.5 633.5 578 624.5 L 577 609.5 L 578 606.5 L 576 602.5 L 576 593.5 L 575 561.5 L 576.5 554 Q 582.7 554.7 584 550.5 Q 599.2 537.7 606.5 517 Z" /><path desc="l 1 p 7" fill="rgb(0,0,0)" stroke="rgb(0,0,0)" stroke-width="1" opacity="0.9098039215686274" d="M 514.5 518 L 517 519.5 L 515 527.5 L 511.5 536 L 509 535.5 Q 510 525 514.5 518 Z" /><path desc="l 0 p 88" fill="rgb(64,64,64)" stroke="rgb(64,64,64)" stroke-width="1" opacity="0.00392156862745098" d="M 414.5 524 L 419.5 526 L 423 528.5 L 422 532.5 L 420 537.5 Q 416 542.5 418 553.5 L 419 555.5 L 416 553.5 L 412.5 546 L 410 537.5 L 409 530.5 L 414.5 524 Z" /><path desc="l 1 p 8" fill="rgb(0,0,0)" stroke="rgb(0,0,0)" stroke-width="1" opacity="0.9098039215686274" d="M 604.5 529 L 607 530.5 L 605.5 552 L 605 601.5 L 606 605.5 L 606 616.5 L 603.5 618 Q 600.8 616.8 602 611.5 L 601 591.5 L 601 551.5 L 602 548.5 L 602 540.5 Q 601.1 532.6 604.5 529 Z" /><path desc="l 1 p 9" fill="rgb(0,0,0)" stroke="rgb(0,0,0)" stroke-width="1" opacity="0.9098039215686274" d="M 505.5 530 L 508 531.5 L 505.5 539 L 499.5 549 L 496 547.5 L 505.5 530 Z" /><path desc="l 1 p 10" fill="rgb(0,0,0)" stroke="rgb(0,0,0)" stroke-width="1" opacity="0.9098039215686274" d="M 551.5 533 L 554 536.5 L 553 539.5 L 553 546.5 L 552 574.5 L 551 606.5 L 551 626.5 Q 552.8 633.3 549.5 635 L 547 633.5 L 547.5 570 L 548 553.5 Q 550.7 549.7 549 541.5 Q 547.5 534.5 551.5 533 Z" /><path desc="l 0 p 89" fill="rgb(64,64,64)" stroke="rgb(64,64,64)" stroke-width="1" opacity="0.00392156862745098" d="M 451.5 537 L 452 539.5 L 451 544.5 L 453.5 546 L 455 545.5 L 453.5 551 L 442.5 560 L 442 552.5 L 443 547.5 Q 442 543 444.5 542 L 451.5 537 Z" /><path desc="l 0 p 90" fill="rgb(64,64,64)" stroke="rgb(64,64,64)" stroke-width="1" opacity="0.00392156862745098" d="M 350.5 539 Q 355.3 537.8 356.5 540 L 364 546.5 L 365 548.5 Q 361.6 551.1 363 558.5 L 367 568.5 L 364.5 567 L 351 555.5 Q 345.8 551.2 346 541.5 L 350.5 539 Z" /><path desc="l 1 p 11" fill="rgb(0,0,0)" stroke="rgb(0,0,0)" stroke-width="1" opacity="0.9098039215686274" d="M 493.5 541 Q 495.8 541.8 495 545.5 L 487.5 557 L 484 555.5 L 493.5 541 Z" /><path desc="l 1 p 12" fill="rgb(0,0,0)" stroke="rgb(0,0,0)" stroke-width="1" opacity="0.9098039215686274" d="M 515.5 546 L 518 546.5 Q 514.8 566.8 507 582.5 L 499.5 604 L 495.5 616 L 492.5 622 L 490 620.5 L 498 596.5 L 509 566.5 L 512 555.5 L 515.5 546 Z" /><path desc="l 0 p 91" fill="rgb(64,64,64)" stroke="rgb(64,64,64)" stroke-width="1" opacity="0.00392156862745098" d="M 376.5 553 L 378 553.5 Q 381.7 563.3 389 569.5 L 385.5 570 L 382.5 569 L 374.5 569 L 372.5 570 L 367 557.5 Q 374.7 558.2 376.5 553 Z" /><path desc="l 0 p 92" fill="rgb(64,64,64)" stroke="rgb(64,64,64)" stroke-width="1" opacity="0.00392156862745098" d="M 453.5 556 Q 462.8 556.8 467 562.5 L 465.5 566 L 460.5 571 L 456.5 566 L 447 562.5 L 450.5 558 L 453.5 556 Z" /><path desc="l 0 p 93" fill="rgb(64,64,64)" stroke="rgb(64,64,64)" stroke-width="1" opacity="0.00392156862745098" d="M 366.5 608 Q 373.8 606.8 375 611.5 L 375.5 613 L 381.5 616 L 387 617.5 L 379.5 621 Q 375.7 623.7 367.5 622 L 361 617.5 Q 361.3 611.8 364.5 609 L 366.5 608 Z" /><path desc="l 0 p 94" fill="rgb(64,64,64)" stroke="rgb(64,64,64)" stroke-width="1" opacity="0.00392156862745098" d="M 440.5 629 L 445.5 630 L 449 631.5 L 454 635.5 Q 454.8 641.3 451.5 643 Q 447.9 645.9 440.5 645 L 430 641.5 Q 422 639 418 632.5 L 417 630.5 L 418.5 631 L 427 633.5 L 431.5 634 L 435.5 633 L 440.5 629 Z" /></svg>