<svg width="911" height="2048" version="1.1" xmlns="http://www.w3.org/2000/svg" desc="Created with imagetracer.js version 1.1.2" ><path desc="l 0 p 0" fill="rgb(0,0,0)" stroke="rgb(0,0,0)" stroke-width="1" opacity="0.00392156862745098" d="M 0.5 0 L 911 0.5 L 910.5 326 L 886.5 320 L 878.5 319 L 868.5 317 L 854 314.5 L 846.5 314 L 802.5 310 L 798.5 311 L 791 311.5 L 776.5 312 L 743.5 313 L 740.5 312 L 732.5 312 L 682 323.5 L 666 327.5 L 651 332.5 L 611.5 344 L 588.5 350 Q 582.3 348.3 580.5 351 L 578.5 350 Q 576.7 352.7 570.5 351 L 549.5 352 L 546.5 353 L 539.5 353 L 519.5 356 L 508.5 357 L 505.5 356 Q 500.9 358.9 492.5 358 L 480.5 361 L 459.5 363 L 446.5 360 L 429.5 355 L 424 358.5 Q 423.3 364.2 426 366.5 L 416 367.5 L 401.5 368 L 359.5 368 L 356.5 367 L 349.5 367 L 318.5 365 L 294.5 362 L 281 359.5 Q 258.9 356.6 240 350.5 L 175.5 331 L 153.5 324 L 135.5 317 L 122.5 311 L 91.5 296 Q 75.6 289.9 65.5 278 L 50 264.5 Q 46.9 259.1 39.5 258 L 33 262.5 L 30 271.5 L 31 274.5 L 31 280.5 L 33 291.5 L 34 300.5 L 40 321.5 L 44.5 335 Q 52.9 358.1 65 377.5 Q 82.9 413.1 112.5 437 Q 127.1 449.4 145.5 458 L 167 468.5 L 156 469.5 L 141.5 470 L 110.5 471 Q 109.3 473.2 104.5 472 L 90.5 473 L 83.5 474 L 77 476.5 L 76 482.5 L 84.5 493 L 99.5 508 L 102 509.5 L 125.5 535 Q 139.8 548.7 158.5 558 L 192 576.5 Q 186.4 579.4 176.5 578 L 146.5 580 L 134 581.5 Q 120.5 583 115 592.5 L 114 600.5 Q 117.3 612.7 125.5 620 L 137.5 632 Q 158.9 651.1 185.5 665 L 202.5 672 L 228.5 680 L 246.5 684 L 259.5 686 L 270.5 687 L 313.5 688 L 317.5 687 L 326.5 687 L 359 682.5 L 403.5 675 L 403.5 676 Q 379 682.5 357.5 692 L 267.5 726 L 231.5 739 Q 218.5 740.5 212 748.5 L 211 754.5 L 216.5 762 L 229 768.5 L 243.5 773 L 250.5 774 L 260 776.5 L 291.5 786 Q 299.8 791.2 312.5 792 L 335.5 794 L 365.5 796 L 404.5 798 L 407.5 797 L 413.5 797 L 427.5 794 L 461.5 786 L 497.5 773 L 495.5 776 L 412.5 836 L 386 855.5 Q 373.3 862.8 364 873.5 L 363 879.5 Q 365.2 887.9 371.5 892 L 387.5 900 Q 394.9 905.1 406.5 906 L 415 906.5 L 422.5 908 L 452.5 910 L 458.5 911 L 471 911.5 L 506.5 912 L 529.5 908 Q 544.8 905.8 555.5 899 L 585.5 884 L 577 893.5 L 547 927.5 L 539.5 936 L 534.5 944 L 533 949.5 L 540.5 958 Q 546.8 961.8 556 962.5 L 577.5 963 Q 579 960.5 584.5 962 L 592 961.5 L 597 960.5 L 617.5 957 L 649.5 948 L 678.5 938 L 696.5 930 L 713.5 920 L 712 922.5 L 691 952.5 L 680.5 970 L 677.5 977 L 677 981.5 L 680.5 986 Q 687.7 989.3 699.5 988 L 715.5 984 L 732.5 981 L 749.5 977 L 768.5 970 Q 790.4 963.9 807.5 953 L 808 955.5 L 801.5 969 L 798 978.5 Q 795.7 981.7 797 988.5 L 802.5 995 L 810.5 996 L 819 994.5 Q 831.2 992.7 839.5 987 Q 869.1 976.6 893.5 961 L 893 962.5 L 881 980.5 L 875.5 990 L 874 995.5 L 876.5 1000 L 882.5 1002 L 888.5 1003 Q 890 1000.5 895.5 1002 Q 904.6 1001.1 910.5 997 L 911 1043.5 Q 896.5 1050 887 1061.5 L 870 1084.5 L 862.5 1099 L 859.5 1112 L 859 1128.5 L 860 1132.5 L 861 1140.5 Q 864.5 1162 876.5 1175 Q 882.9 1174.4 885 1169.5 Q 887.8 1157.3 897.5 1152 L 910.5 1144 L 911 1178.5 L 896 1192.5 Q 887.9 1201.4 889 1219.5 L 894.5 1227 L 899 1229.5 L 900 1236.5 L 902 1245.5 L 908 1258.5 L 906.5 1258 L 895 1247.5 L 881 1224.5 L 875.5 1215 Q 872.9 1208.1 867.5 1204 L 859 1201.5 L 847.5 1201 L 843.5 1202 L 821.5 1191 L 812.5 1187 L 803.5 1186 L 796.5 1188 Q 779.1 1191.1 770 1202.5 Q 763 1210 759.5 1221 L 755 1232.5 L 754 1244.5 L 757.5 1250 L 761 1251.5 Q 762.8 1263.8 769.5 1271 L 788.5 1291 L 807 1305.5 Q 795 1311.5 786 1320.5 Q 781.5 1325 782 1334.5 Q 785.2 1337.8 784 1345.5 L 781 1353.5 L 780 1357.5 L 776 1364.5 Q 770.5 1373 771 1387.5 L 774 1400.5 Q 776.7 1415.8 787.5 1423 L 791.5 1425 L 798.5 1426 L 805 1422.5 Q 805.8 1420.3 809.5 1421 L 816.5 1424 L 828.5 1425 L 838.5 1423 Q 848 1422 854 1417.5 Q 868.6 1411.6 880 1402.5 L 881 1398.5 L 875.5 1395 Q 870.5 1398 861.5 1397 Q 860.3 1394.7 855.5 1396 L 848 1393.5 L 842 1390.5 L 849 1374.5 Q 848.3 1368.8 850.5 1366 L 858.5 1361 Q 860.4 1357.3 865.5 1357 Q 874.5 1363 891.5 1361 Q 892.7 1358.8 897.5 1360 L 910.5 1356 L 911 1417.5 Q 908.5 1419 910 1424.5 L 911 1427.5 L 911 1434.5 L 911 1463.5 L 911 1580.5 L 911 2047.5 L 0.5 2048 L 0.5 0 Z" /><path desc="l 1 p 0" fill="rgb(0,0,0)" stroke="rgb(0,0,0)" stroke-width="1" opacity="0.9019607843137255" d="M 39.5 258 Q 46.9 259.1 50 264.5 L 64.5 278 Q 79.2 291.8 99.5 300 L 123.5 312 Q 138.9 320.1 157.5 325 L 221.5 345 L 242.5 351 L 271.5 358 L 301.5 363 L 322 365.5 L 340 366.5 L 359 367.5 L 415.5 368 L 419.5 367 L 426 366.5 Q 423.3 364.2 424 358.5 L 429.5 355 L 446.5 360 L 459 362.5 L 466.5 363 L 475.5 361 L 507.5 356 Q 509.2 358.8 515.5 357 L 523 355.5 L 542.5 353 Q 548 354.5 549.5 352 L 563 351.5 L 573.5 351 L 579.5 350 L 581.5 350 L 590 349.5 L 596.5 348 L 610.5 344 L 627 339.5 L 660 329.5 L 675.5 325 L 707 317.5 L 728.5 313 L 742.5 312 L 745.5 313 L 753.5 313 Q 754.8 310.7 759.5 312 L 776.5 312 L 791 311.5 L 807.5 310 L 811.5 311 L 819 311.5 L 845.5 314 L 854 314.5 L 863.5 316 L 878.5 319 L 894.5 322 L 911 326.5 L 910.5 335 L 896.5 331 L 885.5 329 L 865.5 325 L 846.5 322 L 834 321.5 L 823.5 320 L 796.5 319 L 792.5 320 L 781.5 321 L 762.5 321 L 749 321.5 L 733.5 323 L 720.5 325 L 709.5 327 L 702.5 329 L 680.5 334 Q 663.5 336 650.5 342 L 629.5 348 Q 618.4 348.9 611 353.5 L 630.5 357 L 650.5 361 L 664.5 365 Q 686.6 369.9 705 378.5 L 712 380.5 L 715.5 383 L 720.5 385 L 765.5 405 L 794.5 419 L 807.5 427 L 839 450.5 L 872.5 479 L 894 498.5 L 907 514.5 L 909.5 518 L 911 523.5 L 911 533.5 L 903 526.5 L 887.5 508 L 883 511.5 L 881 518.5 L 883.5 525 Q 886.3 533.2 892.5 538 L 900.5 543 Q 903.6 546.4 911 545.5 L 910.5 568 Q 906.8 563.2 907.5 554 Q 898.7 553.8 894 549.5 L 883.5 541 Q 880.4 542.4 881 547.5 L 881 559.5 Q 882.9 567.1 888.5 571 L 898 576.5 L 903.5 578 L 911 578.5 Q 912.8 585.3 909.5 587 L 901 586.5 L 891 582.5 L 883.5 578 Q 883 574.5 878.5 575 L 873.5 576 L 868.5 577 L 863 579.5 L 849.5 587 L 835 593.5 Q 826.9 594.9 822.5 600 L 795.5 615 L 775 627.5 L 783 630.5 L 794 633.5 L 807 636.5 L 815.5 637 L 828 634.5 Q 837.3 633.8 843.5 630 L 863.5 624 L 880.5 617 Q 897.5 611 910.5 601 L 911 610.5 L 892 621.5 Q 885.6 622.6 882.5 627 L 867.5 638 L 817 679.5 L 819.5 683 Q 826.5 687.5 837.5 688 L 842 688.5 L 863.5 689 L 867.5 688 L 875.5 687 L 881.5 686 L 893.5 682 L 904 677.5 L 910.5 674 L 911 683.5 L 897 690.5 Q 885.5 694.5 878.5 703 L 862 716.5 L 862.5 719 L 867.5 720 L 873.5 722 L 883.5 725 Q 890.8 728.6 901.5 729 L 909.5 730 L 911 729.5 L 910.5 738 L 908 738.5 L 904.5 745 L 897.5 754 L 869.5 788 L 865 791.5 Q 850.5 807 839 825.5 L 835 831.5 L 831 840.5 L 836.5 842 L 845.5 843 L 862.5 843 Q 863.8 840.7 868.5 842 L 883.5 835 L 893.5 828 L 906 817.5 L 910.5 812 L 911 825.5 L 888 858.5 L 899.5 859 L 910.5 857 L 911 864.5 L 907.5 866 L 900.5 867 L 887.5 868 L 885.5 867 Q 880.5 867.5 880 863.5 L 879 857.5 L 888 843.5 L 885.5 843 L 880 846.5 L 870 866.5 Q 869.7 872.7 866 875.5 Q 854.5 901 838 921.5 Q 816.9 948.4 805 984.5 L 806.5 987 L 815 986.5 L 827.5 983 L 838.5 978 Q 867 968.5 889.5 953 L 910.5 940 L 911 952.5 L 891 981.5 L 886 988.5 L 884 993.5 L 893.5 994 L 910.5 988 L 911 996.5 L 905 999.5 L 896.5 1002 L 886.5 1003 L 883.5 1002 Q 878 1002.5 876 999.5 L 874 992.5 L 894 961.5 L 892.5 961 L 876 970.5 L 840.5 987 L 832 990.5 Q 825.4 994.4 815.5 995 L 805.5 996 L 798 990.5 Q 795.7 987.3 797 980.5 L 808 953.5 L 806.5 954 L 784 964.5 L 754.5 975 L 743 978.5 L 730.5 981 L 709 985.5 L 702.5 987 Q 697 989.5 687.5 988 L 683.5 987 L 678 983.5 L 677 977.5 Q 682.2 963.7 691 953.5 L 714 920.5 L 712.5 920 Q 706.3 926.8 696.5 930 L 678.5 938 L 646.5 949 L 623 955.5 L 599.5 960 L 592 961.5 L 578 962.5 L 556.5 963 L 545.5 960 Q 537.6 957.9 534 951.5 L 533 946.5 Q 539.5 933.5 550 924.5 L 586 884.5 L 584.5 884 L 550.5 901 Q 544.3 905.8 534.5 907 L 512.5 911 L 498.5 912 L 471.5 912 L 467.5 911 L 456.5 911 L 418.5 907 L 409.5 906 Q 396 906 388.5 900 L 378.5 896 Q 370.8 892.8 366 886.5 L 363.5 880 L 363 875.5 L 372.5 865 L 497 774.5 L 494.5 774 L 481.5 779 L 447.5 790 L 436.5 792 L 429.5 794 L 410.5 797 L 393.5 798 L 388.5 797 L 376.5 797 L 373.5 796 L 365.5 796 L 336.5 794 L 313.5 792 L 300.5 790 L 289.5 786 L 269.5 779 L 243 772.5 L 229.5 769 L 218 762.5 L 213 758.5 Q 210.3 756.2 211 750.5 L 216.5 744 L 247 733.5 L 292 716.5 L 361.5 691 Q 381.2 681.7 404 675.5 L 399.5 675 L 377.5 680 L 365 681.5 L 352.5 684 L 346 684.5 L 338.5 686 L 314 687.5 L 294.5 688 Q 293.3 685.8 288.5 687 L 271.5 687 L 252.5 685 L 232.5 681 L 202.5 672 L 192.5 668 L 176 659.5 Q 144.8 642.2 122 616.5 L 117.5 609 L 114.5 601 L 114 594.5 L 121.5 586 Q 126.7 581.7 135.5 581 L 149.5 580 L 165 578.5 L 176.5 578 Q 186.4 579.4 192 576.5 L 155.5 556 Q 130.2 542.3 112 521.5 L 100.5 508 L 80 488.5 L 77.5 485 Q 75.3 483.3 76 478.5 L 78.5 475 L 90.5 473 L 103.5 472 Q 109 473.5 110.5 471 L 141.5 470 L 156 469.5 L 167 468.5 L 142.5 456 Q 109.8 439.8 88 412.5 Q 64.6 384.4 50 347.5 L 41 325.5 L 37 312.5 L 34.5 301 L 30 270.5 Q 31.2 262.7 36.5 259 L 39.5 258 Z" /><path desc="l 0 p 1" fill="rgb(0,0,0)" stroke="rgb(0,0,0)" stroke-width="1" opacity="0.00392156862745098" d="M 40.5 268 L 63.5 288 Q 74.3 298.2 89 304.5 L 116.5 318 Q 135.1 328.4 158.5 334 L 234 357.5 L 257 363.5 L 277 367.5 L 296.5 371 L 310.5 373 L 322.5 374 L 335.5 375 L 355.5 376 L 382.5 377 Q 384 374.5 389.5 376 L 409.5 376 L 422 375.5 L 428.5 374 L 431.5 373 L 441.5 384 L 461.5 398 L 476 405.5 L 489 410.5 L 461 426.5 L 445.5 437 L 430.5 450 L 418 461.5 Q 407.2 471.2 390.5 475 L 380.5 475 Q 374.3 474.3 372 477.5 Q 370.8 483.8 374.5 485 L 398 495.5 L 389.5 496 L 384.5 495 L 364.5 493 L 299.5 486 L 273.5 483 L 258.5 481 L 253.5 480 L 242 478.5 L 219.5 474 L 208 471.5 L 187 465.5 Q 159.9 458.1 139 444.5 Q 114.3 430.7 97 409.5 Q 86.3 398.3 78.5 384 L 65 360.5 L 56.5 341 L 47.5 317 L 43 299.5 L 41 287.5 L 39 269.5 L 40.5 268 Z" /><path desc="l 0 p 2" fill="rgb(0,0,0)" stroke="rgb(0,0,0)" stroke-width="1" opacity="0.00392156862745098" d="M 796.5 319 L 822.5 320 L 834 321.5 L 845.5 322 L 867 325.5 L 885.5 329 Q 900 330.5 911 335.5 L 910.5 520 Q 898.1 500.9 881.5 486 L 832.5 446 Q 815.7 430.8 795 419.5 Q 779.2 409.8 760.5 403 L 721 385.5 L 712.5 381 Q 710.8 378.2 705.5 379 L 690.5 373 L 665.5 365 L 650.5 361 L 631.5 357 L 611 353.5 Q 611.8 351.3 615.5 352 L 628.5 348 L 639 345.5 L 649.5 342 L 661 338.5 L 679.5 334 L 702.5 329 L 719.5 325 L 733.5 323 L 749 321.5 L 762.5 321 L 780.5 321 L 788 320.5 L 796.5 319 Z" /><path desc="l 0 p 3" fill="rgb(0,0,0)" stroke="rgb(0,0,0)" stroke-width="1" opacity="0.00392156862745098" d="M 557.5 360 L 585.5 360 L 599.5 361 L 621.5 364 Q 638.8 365.7 653 370.5 Q 663.6 371.9 671 376.5 Q 672.2 384.2 669.5 388 L 635 398.5 Q 627.3 402.8 616.5 404 L 591.5 411 L 582.5 412 L 572.5 413 L 553.5 413 L 548.5 412 L 533.5 411 L 510.5 407 L 505.5 405 L 495.5 403 L 479 397.5 L 467 391.5 L 452.5 381 L 440 370.5 L 438 367.5 L 441.5 367 L 447.5 369 L 455 370.5 L 472.5 371 Q 480.8 367.3 494.5 369 L 537.5 362 L 550.5 361 Q 556 362.5 557.5 360 Z" /><path desc="l 0 p 4" fill="rgb(0,0,0)" stroke="rgb(0,0,0)" stroke-width="1" opacity="0.00392156862745098" d="M 680.5 379 L 694.5 383 L 704 388.5 L 703 393.5 L 706 403.5 Q 702.9 405.9 696.5 405 Q 687.3 403.3 683 396.5 L 680 391.5 Q 677.7 388.3 679 381.5 L 680.5 379 Z" /><path desc="l 0 p 5" fill="rgb(0,0,0)" stroke="rgb(0,0,0)" stroke-width="1" opacity="0.00392156862745098" d="M 712.5 392 L 716.5 393 L 725 396.5 L 743 404.5 Q 749.1 405.4 752 409.5 L 747 413.5 Q 742.5 416.5 733.5 415 Q 722.1 412.4 717 403.5 L 713.5 397 L 712.5 392 Z" /><path desc="l 0 p 6" fill="rgb(0,0,0)" stroke="rgb(0,0,0)" stroke-width="1" opacity="0.00392156862745098" d="M 670.5 397 Q 675.5 396.5 676 400.5 L 683.5 409 L 688 411.5 L 686 419.5 L 693 436.5 L 687.5 439 L 670.5 444 L 655.5 447 L 639.5 449 L 600.5 451 L 596.5 450 L 584.5 450 L 574.5 449 L 565 446.5 L 556 443.5 L 549 440.5 Q 558.9 432.9 572.5 429 L 612.5 415 Q 632.5 412 648.5 405 L 670.5 397 Z" /><path desc="l 0 p 7" fill="rgb(0,0,0)" stroke="rgb(0,0,0)" stroke-width="1" opacity="0.00392156862745098" d="M 709.5 411 Q 714.3 410.3 715 413.5 L 722 419.5 L 723 425.5 L 723.5 430 L 726 438.5 Q 721.5 441 713.5 440 Q 704.4 437.5 700 430.5 Q 695 425.5 695 415.5 Q 696 412 701.5 413 Q 707.2 413.7 709.5 411 Z" /><path desc="l 0 p 8" fill="rgb(0,0,0)" stroke="rgb(0,0,0)" stroke-width="1" opacity="0.00392156862745098" d="M 761.5 413 L 779.5 421 L 792 428.5 L 790.5 432 L 783.5 436 Q 781.5 440 773.5 438 L 765 432.5 Q 759.7 426.3 760 414.5 L 761.5 413 Z" /><path desc="l 0 p 9" fill="rgb(0,0,0)" stroke="rgb(0,0,0)" stroke-width="1" opacity="0.00392156862745098" d="M 504.5 414 L 517.5 417 L 530.5 419 L 547 420.5 L 566 421.5 L 565.5 423 Q 550.2 427.2 540 436.5 L 539 441.5 L 542.5 447 L 552 451.5 L 563.5 455 L 574 457.5 L 584 459.5 L 565.5 469 L 540.5 479 L 500 491.5 L 480.5 499 L 469 501.5 L 448.5 502 L 437 498.5 L 425.5 496 Q 407.3 491.7 393 483.5 L 402.5 480 L 409.5 477 L 422.5 469 L 441 452.5 Q 453.5 439.5 470.5 431 L 485 422.5 L 494.5 418 L 504.5 414 Z" /><path desc="l 0 p 10" fill="rgb(0,0,0)" stroke="rgb(0,0,0)" stroke-width="1" opacity="0.00392156862745098" d="M 750.5 421 L 752 421.5 Q 753.8 435.7 763 442.5 L 761.5 445 Q 757.4 449.9 746.5 448 L 740 443.5 L 734.5 435 Q 731.3 431.3 731 424.5 Q 732.3 421.8 733.5 424 Q 744.7 425.2 750.5 421 Z" /><path desc="l 0 p 11" fill="rgb(0,0,0)" stroke="rgb(0,0,0)" stroke-width="1" opacity="0.00392156862745098" d="M 800.5 433 L 836 459.5 Q 833.7 462.7 827.5 462 L 815.5 462 L 804 453.5 Q 800.5 450 800 443.5 L 799 434.5 L 800.5 433 Z" /><path desc="l 0 p 12" fill="rgb(0,0,0)" stroke="rgb(0,0,0)" stroke-width="1" opacity="0.00392156862745098" d="M 788.5 443 L 791 443.5 Q 792.6 455.4 800 461.5 Q 796.3 467.8 784.5 466 Q 777.8 463.8 774 458.5 L 772 454.5 L 771 448.5 Q 772 446 776.5 447 Q 785.4 447.9 788.5 443 Z" /><path desc="l 0 p 13" fill="rgb(0,0,0)" stroke="rgb(0,0,0)" stroke-width="1" opacity="0.00392156862745098" d="M 699.5 444 L 703.5 445 L 710.5 448 Q 715.8 446.8 717 449.5 Q 716.2 457.3 720 460.5 L 727 473.5 L 711.5 478 L 703.5 480 L 694.5 481 L 681.5 482 L 643.5 483 L 638.5 482 L 621.5 480 L 608.5 478 L 602 475.5 L 618.5 467 L 633.5 461 L 638 458.5 Q 640.1 456.1 645.5 457 L 656.5 456 L 671.5 453 L 699.5 444 Z" /><path desc="l 0 p 14" fill="rgb(0,0,0)" stroke="rgb(0,0,0)" stroke-width="1" opacity="0.00392156862745098" d="M 730.5 446 L 735 450.5 Q 738 451.5 737 456.5 L 738 462.5 L 741 470.5 L 739.5 471 L 730 462.5 L 725 449.5 L 730.5 446 Z" /><path desc="l 0 p 15" fill="rgb(0,0,0)" stroke="rgb(0,0,0)" stroke-width="1" opacity="0.00392156862745098" d="M 760.5 455 L 764 456.5 Q 766.6 465.9 774 470.5 Q 770.6 476.6 759.5 475 Q 752.8 472.8 749 467.5 L 746 457.5 Q 755.3 458.3 760.5 455 Z" /><path desc="l 0 p 16" fill="rgb(0,0,0)" stroke="rgb(0,0,0)" stroke-width="1" opacity="0.00392156862745098" d="M 603.5 459 L 614 459.5 L 601 466.5 L 589 474.5 Q 588.3 479.3 590.5 481 Q 604.2 488.3 624.5 489 L 633.5 490 L 649.5 491 L 680 491.5 L 664.5 498 Q 657.1 499.1 654 504.5 L 591.5 532 L 557 544.5 L 542.5 548 L 533 549.5 L 525.5 550 L 518 550.5 L 489.5 551 Q 488 548.5 482.5 550 L 466.5 549 L 457.5 548 L 448 545.5 Q 469.8 536.8 485 521.5 L 502 505.5 Q 500.8 500.3 503.5 499 L 516 495.5 L 544.5 486 Q 577.3 475.8 603.5 459 Z" /><path desc="l 0 p 17" fill="rgb(0,0,0)" stroke="rgb(0,0,0)" stroke-width="1" opacity="0.00392156862745098" d="M 842.5 466 L 845.5 467 L 848.5 470 L 880 500.5 Q 876.3 505.8 866.5 505 Q 850.3 498.7 840 486.5 L 837 479.5 L 836 470.5 L 842.5 466 Z" /><path desc="l 0 p 18" fill="rgb(0,0,0)" stroke="rgb(0,0,0)" stroke-width="1" opacity="0.00392156862745098" d="M 807.5 468 Q 814.9 472.1 827 471.5 L 828 478.5 L 830 484.5 L 834 493.5 Q 829.5 498 818.5 496 Q 811.8 493.8 808 488.5 L 806 483.5 L 804 473.5 L 807.5 468 Z" /><path desc="l 0 p 19" fill="rgb(0,0,0)" stroke="rgb(0,0,0)" stroke-width="1" opacity="0.00392156862745098" d="M 794.5 474 Q 796.8 474.8 796 478.5 L 797 482.5 L 801 493.5 L 805 499.5 Q 802.3 502.3 795.5 501 Q 786.5 497 781 489.5 L 779 481.5 L 782.5 475 L 790.5 475 L 794.5 474 Z" /><path desc="l 0 p 20" fill="rgb(0,0,0)" stroke="rgb(0,0,0)" stroke-width="1" opacity="0.00392156862745098" d="M 174.5 476 L 187.5 476 L 193 476.5 L 200.5 479 L 234.5 486 L 260.5 490 L 293.5 494 L 368.5 502 L 378.5 503 L 393.5 505 L 424.5 506 L 429.5 505 L 444.5 510 L 449 510.5 L 466.5 511 Q 467.8 508.7 472.5 510 L 488.5 505 L 475.5 519 L 463 527.5 L 449 535.5 L 439.5 540 L 433 544.5 Q 432.3 549.3 434.5 551 Q 442.6 554.9 453.5 556 L 471.5 558 L 514.5 560 L 516 559.5 L 515.5 561 Q 500.7 568.2 483 572.5 L 463 577.5 L 439.5 582 L 388.5 588 L 331.5 590 L 319 590.5 L 267.5 591 L 262.5 590 L 253.5 589 L 249.5 588 Q 237.1 587.4 228.5 583 L 208 574.5 L 177.5 559 L 161 549.5 Q 136.8 536.2 119 516.5 L 105.5 501 L 87 483.5 L 87.5 482 L 103 480.5 L 120 479.5 L 142.5 479 L 156.5 478 L 165 477.5 L 170.5 477 L 174.5 476 Z" /><path desc="l 0 p 21" fill="rgb(0,0,0)" stroke="rgb(0,0,0)" stroke-width="1" opacity="0.00392156862745098" d="M 736.5 480 L 751 482.5 Q 751.8 501.2 763.5 509 L 767 511.5 L 766.5 513 L 749.5 516 L 723.5 518 Q 722.3 515.8 717.5 517 L 699.5 515 L 693 514.5 L 685.5 513 L 674 509.5 L 668 506.5 Q 691.7 493.7 720 485.5 L 730 482.5 L 736.5 480 Z" /><path desc="l 0 p 22" fill="rgb(0,0,0)" stroke="rgb(0,0,0)" stroke-width="1" opacity="0.00392156862745098" d="M 768.5 483 L 771 483.5 Q 770.7 490.3 774 493.5 L 779.5 501 L 783 503.5 L 782.5 505 Q 775 506.5 771.5 504 L 764 497.5 L 761 490.5 L 760 484.5 L 768.5 483 Z" /><path desc="l 0 p 23" fill="rgb(0,0,0)" stroke="rgb(0,0,0)" stroke-width="1" opacity="0.00392156862745098" d="M 842.5 501 L 855.5 509 Q 862 514 873 514.5 L 874 523.5 L 876 531.5 L 868.5 534 L 857.5 535 L 846 524.5 L 842 516.5 L 841 503.5 L 842.5 501 Z" /><path desc="l 0 p 24" fill="rgb(0,0,0)" stroke="rgb(0,0,0)" stroke-width="1" opacity="0.00392156862745098" d="M 815.5 504 L 825.5 505 Q 826.8 502.7 831.5 504 L 833 513.5 L 835.5 522 L 840 530.5 L 836.5 532 L 830.5 532 Q 821.6 528.4 816 521.5 Q 812.7 516.8 814 507.5 L 815.5 504 Z" /><path desc="l 0 p 25" fill="rgb(0,0,0)" stroke="rgb(0,0,0)" stroke-width="1" opacity="0.00392156862745098" d="M 886.5 508 L 893 513.5 L 907 530.5 Q 913.5 533 911 544.5 L 903.5 545 L 888 533.5 Q 882.3 527.2 881 516.5 Q 882.3 510.8 886.5 508 Z" /><path desc="l 0 p 26" fill="rgb(0,0,0)" stroke="rgb(0,0,0)" stroke-width="1" opacity="0.00392156862745098" d="M 793.5 509 L 802.5 510 L 804.5 509 Q 805 524 813 531.5 L 804.5 532 L 795 527.5 L 792 520.5 L 791 513.5 L 793.5 509 Z" /><path desc="l 0 p 27" fill="rgb(0,0,0)" stroke="rgb(0,0,0)" stroke-width="1" opacity="0.00392156862745098" d="M 657.5 512 Q 669.9 518.6 685.5 522 L 691.5 523 Q 695.3 522.3 696 524.5 L 676.5 536 L 630.5 562 L 608 572.5 L 597 576.5 L 580.5 580 L 565 582.5 L 553.5 585 L 547 585.5 L 518.5 586 L 505 582.5 L 535 560.5 L 537.5 557 L 550.5 555 L 563.5 551 L 585 543.5 L 599 537.5 L 657.5 512 Z" /><path desc="l 0 p 28" fill="rgb(0,0,0)" stroke="rgb(0,0,0)" stroke-width="1" opacity="0.00392156862745098" d="M 781.5 516 L 785 525.5 Q 786.9 533.2 792.5 537 L 803 540.5 Q 793.1 548.6 779.5 553 Q 766.8 558.3 749.5 559 L 746.5 558 L 738.5 558 L 727.5 556 L 718 552.5 L 721.5 548 L 752 529.5 Q 759.3 523.3 770 520.5 L 781.5 516 Z" /><path desc="l 0 p 29" fill="rgb(0,0,0)" stroke="rgb(0,0,0)" stroke-width="1" opacity="0.00392156862745098" d="M 709.5 525 L 740 526.5 Q 721 535.5 707 549.5 Q 705.5 557.5 710.5 559 L 721 563.5 L 719.5 566 L 663.5 608 L 646 617.5 L 635 622.5 L 623.5 626 L 616.5 627 L 607.5 629 Q 598.5 632.5 586.5 633 L 571.5 634 Q 570.3 631.7 565.5 633 L 550 632.5 L 590.5 587 L 600 584.5 L 609.5 581 L 626 573.5 L 672.5 549 L 708 527.5 L 709.5 525 Z" /><path desc="l 0 p 30" fill="rgb(0,0,0)" stroke="rgb(0,0,0)" stroke-width="1" opacity="0.00392156862745098" d="M 822.5 538 Q 828.6 541.4 838 541.5 L 840 553.5 Q 842.6 554.9 842 559.5 L 831.5 560 L 823 554.5 Q 819.3 550.2 821 540.5 L 822.5 538 Z" /><path desc="l 0 p 31" fill="rgb(0,0,0)" stroke="rgb(0,0,0)" stroke-width="1" opacity="0.00392156862745098" d="M 848.5 539 Q 852.7 545.2 864.5 544 L 872.5 542 L 873 544.5 L 872 548.5 L 872 557.5 L 875 566.5 L 869.5 567 L 863 565.5 Q 854.4 563.6 851 556.5 L 848 549.5 L 847 540.5 L 848.5 539 Z" /><path desc="l 0 p 32" fill="rgb(0,0,0)" stroke="rgb(0,0,0)" stroke-width="1" opacity="0.00392156862745098" d="M 883.5 541 L 894 549.5 L 900.5 553 L 908 554.5 L 909 565.5 Q 912.8 568.7 911 577.5 L 900.5 578 Q 890.4 574.1 884 566.5 Q 878.7 559.3 881 544.5 L 883.5 541 Z" /><path desc="l 0 p 33" fill="rgb(0,0,0)" stroke="rgb(0,0,0)" stroke-width="1" opacity="0.00392156862745098" d="M 811.5 547 Q 812.9 557.6 819.5 563 L 828 567.5 Q 832.2 570.4 840.5 569 L 848.5 567 L 857 573.5 L 840.5 582 L 825.5 588 L 814 591.5 L 800.5 594 L 791.5 595 L 774.5 595 L 771.5 594 L 762.5 593 L 749 588.5 L 754.5 582 Q 781.3 562.8 811.5 547 Z" /><path desc="l 0 p 34" fill="rgb(0,0,0)" stroke="rgb(0,0,0)" stroke-width="1" opacity="0.00392156862745098" d="M 732.5 566 L 738 566.5 L 759.5 567 L 761 566.5 L 759.5 569 Q 747.5 575 739 584.5 L 738 589.5 L 742.5 595 Q 749.2 599.3 759 600.5 L 771.5 603 L 793.5 604 L 796.5 603 L 794.5 606 L 774.5 617 L 764 624.5 L 758.5 632 L 724.5 656 L 701 669.5 L 675 682.5 L 651 689.5 L 638 691.5 L 617.5 692 L 588 685.5 L 594.5 678 L 620 654.5 L 641.5 629 Q 669.1 617.1 690.5 599 L 732.5 566 Z" /><path desc="l 0 p 35" fill="rgb(0,0,0)" stroke="rgb(0,0,0)" stroke-width="1" opacity="0.00392156862745098" d="M 878.5 575 L 882 576.5 L 890.5 582 Q 896.6 587.9 909.5 587 L 911 586.5 L 911 596.5 Q 912 601 909.5 602 Q 895.1 612.1 877 618.5 L 843.5 630 Q 836.2 634.2 825.5 635 L 816 636.5 L 807.5 637 L 791 632.5 L 783.5 631 L 775 627.5 L 795.5 615 L 822 600.5 Q 826.1 595.1 834.5 594 L 849.5 587 L 862.5 580 L 867.5 577 L 873.5 576 L 878.5 575 Z" /><path desc="l 0 p 36" fill="rgb(0,0,0)" stroke="rgb(0,0,0)" stroke-width="1" opacity="0.00392156862745098" d="M 490.5 579 L 492 579.5 L 491 585.5 Q 493.8 589.8 499.5 591 L 505.5 592 L 521 594.5 L 543.5 595 L 563 591.5 L 575.5 590 L 574 592.5 Q 559.8 612.3 541.5 628 L 537 631.5 L 536 637.5 Q 539.8 639.3 536.5 641 L 509.5 646 L 481.5 652 L 462.5 656 L 440.5 660 L 393.5 668 L 348 675.5 L 334 677.5 L 323 678.5 L 310.5 679 L 273.5 679 L 270.5 678 L 262.5 678 L 246.5 675 L 231.5 672 L 205.5 664 L 195.5 660 L 178.5 651 Q 150 635 129 611.5 L 125.5 606 Q 122.4 603.1 123 596.5 Q 126.5 591.6 133.5 590 L 140.5 589 L 158.5 588 Q 162 585.5 169.5 587 L 193.5 586 L 210.5 585 Q 222.5 592 238.5 595 L 261.5 599 L 272 599.5 L 304.5 600 Q 306 597.5 311.5 599 L 329.5 599 L 345.5 598 L 392.5 596 L 416 593.5 L 426 592.5 L 433.5 591 L 448.5 589 L 464.5 586 L 490.5 579 Z" /><path desc="l 0 p 37" fill="rgb(0,0,0)" stroke="rgb(0,0,0)" stroke-width="1" opacity="0.00392156862745098" d="M 910.5 611 L 911 673.5 L 905.5 677 L 894.5 682 L 884.5 685 L 877.5 687 L 864 688.5 L 842.5 689 Q 841 686.5 835.5 688 Q 824.5 687 818 681.5 L 817 679.5 Q 839.5 658 865.5 640 L 882 627.5 Q 884.9 622.9 891.5 622 L 910.5 611 Z" /><path desc="l 0 p 38" fill="rgb(0,0,0)" stroke="rgb(0,0,0)" stroke-width="1" opacity="0.00392156862745098" d="M 622.5 634 L 624 634.5 L 615.5 646 L 602.5 660 L 576 683.5 L 575 688.5 L 581.5 693 L 588.5 695 L 625 701.5 L 589.5 721 Q 559.5 738.5 525.5 752 L 497.5 764 L 471.5 773 L 445 781.5 L 429.5 785 L 411 788.5 L 384.5 789 Q 383 786.5 377.5 788 L 360.5 787 L 349 786.5 L 331.5 785 L 318.5 784 L 313 783.5 L 306.5 782 L 292.5 778 L 272.5 771 L 256 766.5 L 247.5 765 L 232.5 761 L 221 754.5 L 220 752.5 L 236.5 746 L 266.5 736 L 329 711.5 L 395.5 687 L 445.5 671 L 449.5 669 Q 452.1 665.1 459 665.5 L 470.5 663 L 520 652.5 L 556.5 645 L 564 643.5 L 571.5 642 L 584.5 642 L 602.5 639 L 622.5 634 Z" /><path desc="l 0 p 39" fill="rgb(0,0,0)" stroke="rgb(0,0,0)" stroke-width="1" opacity="0.00392156862745098" d="M 767.5 635 Q 773.2 634.3 775.5 637 L 794.5 643 L 803 644.5 L 820.5 645 L 835.5 642 L 855.5 635 L 851.5 640 L 809 674.5 Q 808.7 679.7 805 681.5 L 796.5 691 L 781.5 704 Q 766 717 743.5 723 L 713.5 731 L 706.5 732 L 694.5 733 L 673.5 734 L 669.5 733 L 653.5 731 L 645.5 730 Q 640.8 730.8 639 728.5 L 662.5 707 L 686 688.5 L 694.5 683 L 706 676.5 Q 740 659 767.5 635 Z" /><path desc="l 0 p 40" fill="rgb(0,0,0)" stroke="rgb(0,0,0)" stroke-width="1" opacity="0.00392156862745098" d="M 910.5 684 L 911 728.5 L 907.5 730 Q 905.8 727.3 899.5 729 L 878.5 724 L 870.5 721 L 862 718.5 L 863.5 715 Q 874.3 708.8 882 699.5 L 895.5 691 L 910.5 684 Z" /><path desc="l 0 p 41" fill="rgb(0,0,0)" stroke="rgb(0,0,0)" stroke-width="1" opacity="0.00392156862745098" d="M 811.5 688 Q 823.7 697.3 845.5 697 L 872 697.5 L 852 713.5 L 848 720.5 L 840.5 728 L 799.5 762 L 785.5 772 Q 779.5 778.5 768.5 780 L 747.5 783 L 735.5 784 L 730.5 783 L 722.5 782 L 714 779.5 L 709 776.5 L 711.5 773 Q 731.9 758.9 748 740.5 L 758.5 727 Q 774.9 720.9 787 710.5 L 811.5 688 Z" /><path desc="l 0 p 42" fill="rgb(0,0,0)" stroke="rgb(0,0,0)" stroke-width="1" opacity="0.00392156862745098" d="M 659.5 696 L 662 696.5 L 628 727.5 L 627 732.5 L 629.5 736 L 658.5 741 L 668 741.5 L 698.5 742 L 708.5 740 L 722 737.5 L 742.5 732 L 741 734.5 L 725.5 751 L 700 772.5 L 701 783.5 L 661 817.5 Q 645.3 833.8 626 846.5 Q 599.3 868.3 566.5 884 L 542.5 896 L 518.5 902 L 496.5 904 L 492.5 903 L 489.5 904 L 482.5 904 Q 481.3 901.8 476.5 903 L 465.5 902 Q 452.8 903.7 444.5 901 L 421.5 899 Q 418 896.5 410.5 898 L 405.5 897 L 400.5 896 L 392 892.5 L 382.5 888 L 373 881.5 L 372 877.5 Q 391.5 859.5 414.5 845 L 479 798.5 Q 495.9 783.9 516.5 773 L 534 763.5 L 535.5 757 L 593.5 728 L 621 713.5 L 642 701.5 L 642.5 700 L 659.5 696 Z" /><path desc="l 0 p 43" fill="rgb(0,0,0)" stroke="rgb(0,0,0)" stroke-width="1" opacity="0.00392156862745098" d="M 856.5 725 L 867.5 729 L 889 735.5 L 895.5 737 L 899 738.5 L 883 758.5 L 870.5 773 L 867 775.5 L 855.5 788 L 838.5 799 Q 832.3 803.8 823 805.5 L 809 808.5 L 771.5 812 L 769 810.5 L 806.5 767 L 856.5 725 Z" /><path desc="l 0 p 44" fill="rgb(0,0,0)" stroke="rgb(0,0,0)" stroke-width="1" opacity="0.00392156862745098" d="M 908.5 738 L 911 738.5 Q 912.3 743.2 910 744.5 L 906.5 748 L 903 750.5 L 902 756.5 L 907.5 763 L 911 765.5 L 911 799.5 L 911 808.5 Q 911.8 813.3 908.5 814 L 898.5 825 L 878.5 838 Q 873.1 842.6 863 842.5 L 840.5 843 L 831 840.5 L 835 832.5 L 839 825.5 Q 851.8 804.8 868.5 788 L 876 781.5 L 899 752.5 L 908.5 738 Z" /><path desc="l 1 p 1" fill="rgb(0,0,0)" stroke="rgb(0,0,0)" stroke-width="1" opacity="0.9019607843137255" d="M 910.5 744 L 911 764.5 L 908.5 763 L 903 758.5 L 902 752.5 L 905.5 748 L 910.5 744 Z" /><path desc="l 0 p 45" fill="rgb(0,0,0)" stroke="rgb(0,0,0)" stroke-width="1" opacity="0.00392156862745098" d="M 774.5 787 L 777 787.5 L 764.5 802 Q 759.1 805.1 759 813.5 L 761.5 817 Q 764.5 820 770.5 820 L 781.5 820 L 785.5 819 L 792 818.5 L 805.5 818 L 800 824.5 L 760.5 866 L 710 911.5 Q 696.7 923.7 676.5 929 L 647 939.5 L 623.5 947 L 599 951.5 L 586 953.5 L 578.5 954 L 554.5 954 L 550.5 953 L 543 948.5 Q 542.3 944.8 544.5 944 L 550 937.5 L 563.5 922 Q 591.9 887.9 624.5 858 Q 643.2 846.7 658.5 832 L 681 811.5 L 701 794.5 L 707 789.5 Q 708 787 712.5 788 L 718.5 790 L 728 791.5 L 748.5 792 L 755 790.5 L 762.5 790 L 774.5 787 Z" /><path desc="l 0 p 46" fill="rgb(0,0,0)" stroke="rgb(0,0,0)" stroke-width="1" opacity="0.00392156862745098" d="M 839.5 808 L 840 809.5 L 827.5 828 L 824 833.5 Q 821 836.5 822 843.5 L 824.5 847 L 832.5 850 L 842 851.5 L 856.5 852 L 859.5 851 L 868.5 851 L 868 852.5 L 850 885.5 Q 833.7 915.7 811.5 940 Q 794 953.5 770 960.5 L 749.5 967 L 741.5 970 L 723.5 974 L 705.5 977 Q 699.4 980.9 687.5 979 Q 684.7 977.8 687 976.5 Q 704.7 943.7 728 916.5 L 748 890.5 L 763.5 874 L 788 850.5 L 821.5 815 L 832 811.5 L 839.5 808 Z" /><path desc="l 0 p 47" fill="rgb(0,0,0)" stroke="rgb(0,0,0)" stroke-width="1" opacity="0.00392156862745098" d="M 910.5 826 L 911 856.5 L 900 858.5 L 888.5 859 L 889 857.5 Q 898.3 840.3 910.5 826 Z" /><path desc="l 0 p 48" fill="rgb(0,0,0)" stroke="rgb(0,0,0)" stroke-width="1" opacity="0.00392156862745098" d="M 885.5 843 L 888 843.5 L 882 851.5 Q 878.3 854.3 879 861.5 L 883.5 867 L 896.5 868 L 910.5 865 L 911 939.5 L 883.5 957 Q 863.3 969.7 838.5 978 L 827.5 983 L 815 986.5 L 806.5 987 L 805 983.5 Q 816.7 948.2 838 922.5 Q 854.1 901.1 866 875.5 L 880.5 846 L 885.5 843 Z" /><path desc="l 0 p 49" fill="rgb(0,0,0)" stroke="rgb(0,0,0)" stroke-width="1" opacity="0.00392156862745098" d="M 910.5 953 L 911 987.5 Q 901.7 994.7 884.5 994 L 884 991.5 L 910.5 953 Z" /><path desc="l 1 p 2" fill="rgb(0,0,0)" stroke="rgb(0,0,0)" stroke-width="1" opacity="0.9019607843137255" d="M 909.5 1044 L 911 1044.5 Q 913 1053 908.5 1055 Q 897.5 1061.5 890 1071.5 L 876 1090.5 L 870.5 1102 L 868.5 1109 L 868 1115.5 L 868 1134.5 L 870 1144.5 L 877.5 1161 L 879 1160.5 L 884 1153.5 L 892.5 1145 L 910.5 1133 L 911 1143.5 L 902 1149.5 Q 893.1 1153.6 888 1161.5 Q 886.5 1170 880.5 1174 L 876.5 1175 L 873.5 1172 L 872 1168.5 L 864.5 1154 Q 860.4 1146 860 1134.5 L 859 1112.5 L 861 1105.5 Q 861.7 1096.7 866 1091.5 L 871 1082.5 L 888.5 1060 Q 897.4 1050.4 909.5 1044 Z" /><path desc="l 0 p 50" fill="rgb(0,0,0)" stroke="rgb(0,0,0)" stroke-width="1" opacity="0.00392156862745098" d="M 910.5 1053 L 911 1132.5 L 897 1142.5 Q 886.9 1147.4 881 1156.5 L 878.5 1161 L 877 1160.5 L 872.5 1151 L 869 1137.5 L 868 1128.5 L 868 1109.5 Q 872.3 1091.8 883.5 1081 Q 891.1 1068.1 902.5 1059 L 910.5 1053 Z" /><path desc="l 1 p 3" fill="rgb(0,0,0)" stroke="rgb(0,0,0)" stroke-width="1" opacity="0.9019607843137255" d="M 910.5 1179 L 911 1189.5 Q 899.5 1196 898 1212.5 L 899 1212.5 Q 902.1 1201.6 910.5 1196 L 911 1207.5 L 907 1214.5 L 906 1220.5 L 908 1225.5 L 907 1229.5 L 910 1241.5 L 911 1249.5 L 911 1269.5 L 909.5 1270 Q 896 1264 888 1252.5 L 863.5 1212 Q 859.2 1208.3 849.5 1210 Q 841.3 1211.2 836.5 1209 L 827.5 1204 L 816.5 1198 Q 811.7 1193.3 800.5 1195 Q 782.6 1198.6 774 1211.5 L 765 1230.5 L 766.5 1230 L 776.5 1226 L 788.5 1225 L 802 1232.5 L 811 1240.5 L 816 1248.5 Q 819.2 1250.8 818 1257.5 Q 815.7 1258.8 817 1263.5 L 822.5 1265 L 829 1259.5 L 832 1254.5 L 833 1249.5 L 833 1237.5 L 830 1233.5 Q 826.4 1232.1 827 1226.5 Q 827.8 1223.3 832.5 1224 Q 841.1 1228.9 842 1241.5 Q 840.5 1251 845 1254.5 Q 845 1264 849.5 1269 Q 859.4 1287.1 873.5 1301 Q 883.8 1310.2 898.5 1315 L 911 1319.5 L 910.5 1328 Q 893.2 1324.3 880.5 1316 L 873.5 1315 L 861.5 1311 L 848.5 1309 L 832.5 1308 L 832 1309.5 L 838 1314.5 L 839 1320.5 Q 838.3 1323.8 833.5 1323 L 821 1314.5 L 815.5 1312 L 809 1314.5 L 793 1325.5 Q 790.2 1328.2 791 1334.5 L 793.5 1343 L 801.5 1339 Q 804.8 1336.3 811.5 1337 Q 814.8 1337.8 814 1342.5 Q 812.1 1346.1 806.5 1346 Q 795.5 1350 789 1358.5 L 783 1370.5 Q 778.5 1377 780 1389.5 L 782.5 1400 Q 784.7 1410.8 792.5 1416 L 796.5 1417 L 796 1415.5 L 793 1401.5 L 795 1394.5 Q 797.8 1384.3 805.5 1379 L 818.5 1375 L 823.5 1376 Q 831.7 1377.8 836.5 1383 L 839 1377.5 L 840.5 1372 L 841 1366.5 L 832.5 1355 L 828 1351.5 Q 827 1347 829.5 1346 Q 835.5 1345 837.5 1348 L 844 1354.5 L 846.5 1358 L 852.5 1355 L 860 1347.5 Q 862.6 1344.6 862 1338.5 L 857 1329.5 Q 854.2 1327.8 855 1322.5 Q 855.8 1319.3 860.5 1320 L 867.5 1330 Q 871.7 1335.3 870 1346.5 L 869 1348.5 Q 871.1 1352.4 877.5 1352 L 884.5 1353 L 889.5 1352 L 895 1351.5 L 900.5 1350 L 910.5 1348 L 911 1355.5 Q 910.3 1357.8 906.5 1357 Q 902.5 1360 895.5 1360 Q 888 1362.5 876.5 1361 L 863.5 1357 Q 858.5 1363.5 850 1366.5 L 848 1378.5 L 842 1390.5 Q 852 1397.5 869.5 1397 L 876.5 1395 L 881 1398.5 Q 880.8 1403.3 877.5 1405 L 854 1417.5 Q 848.3 1421.8 839.5 1423 L 829 1424.5 L 819.5 1425 L 806.5 1421 Q 803 1426.5 793.5 1426 Q 784.8 1422.8 780 1415.5 Q 770.9 1402.6 771 1380.5 L 772 1377.5 L 773 1372.5 L 777 1362.5 L 781 1354.5 L 783 1347.5 L 784 1338.5 Q 781.2 1335.8 782 1329.5 Q 783.7 1321.2 789.5 1317 L 807 1305.5 Q 788.6 1292.9 774 1276.5 Q 766.5 1270 763 1259.5 L 759.5 1250 L 756 1248.5 Q 752.5 1244.5 754 1235.5 Q 759.5 1213 773.5 1199 Q 785.3 1186.3 809.5 1186 L 819 1189.5 L 829.5 1196 L 837 1199.5 L 846.5 1202 L 850.5 1201 L 858.5 1201 L 863.5 1203 Q 869.9 1203.7 872 1208.5 L 887.5 1236 Q 894.4 1249.1 905.5 1258 L 907.5 1259 L 908 1257.5 Q 902.5 1249.5 900 1238.5 L 899 1232.5 Q 899.8 1228.8 897.5 1228 L 891 1223.5 Q 887.3 1219.2 889 1209.5 L 890 1204.5 L 897.5 1191 L 908.5 1180 L 910.5 1179 Z" /><path desc="l 0 p 51" fill="rgb(0,0,0)" stroke="rgb(0,0,0)" stroke-width="1" opacity="0.00392156862745098" d="M 910.5 1190 L 911 1195.5 Q 902.1 1201.6 898.5 1213 L 898 1207.5 Q 901.8 1196.3 910.5 1190 Z" /><path desc="l 0 p 52" fill="rgb(0,0,0)" stroke="rgb(0,0,0)" stroke-width="1" opacity="0.00392156862745098" d="M 800.5 1195 Q 810.2 1193.3 814.5 1197 L 826 1203.5 L 836 1208.5 Q 840.5 1211.5 849.5 1210 Q 860.9 1208.1 865 1213.5 L 880.5 1241 Q 888.2 1255.3 900.5 1265 L 911 1270.5 L 910.5 1319 Q 883.8 1312.7 868 1295.5 L 855.5 1279 L 846.5 1263 L 845 1256.5 Q 845.8 1252.3 843 1251.5 Q 840.7 1248.3 842 1241.5 Q 841.1 1228.9 832.5 1224 Q 827.8 1223.3 827 1226.5 Q 826.3 1232.7 830.5 1234 Q 833.6 1235.4 833 1240.5 L 833 1252.5 L 824.5 1264 L 819.5 1265 L 817 1263.5 L 818 1251.5 L 808.5 1238 L 796.5 1229 Q 791.5 1223.5 779.5 1225 L 765.5 1231 L 765 1228.5 L 771 1216.5 L 783.5 1202 Q 790.4 1196.9 800.5 1195 Z" /><path desc="l 0 p 53" fill="rgb(0,0,0)" stroke="rgb(0,0,0)" stroke-width="1" opacity="0.00392156862745098" d="M 910.5 1208 L 911 1242.5 L 910 1242.5 L 907 1226.5 L 908 1224.5 Q 905.3 1222.2 906 1216.5 L 910.5 1208 Z" /><path desc="l 0 p 54" fill="rgb(0,0,0)" stroke="rgb(0,0,0)" stroke-width="1" opacity="0.00392156862745098" d="M 778.5 1234 L 785.5 1234 L 789.5 1235 L 796.5 1239 L 807 1249.5 Q 810 1251.5 809 1257.5 L 806 1263.5 L 805 1270.5 Q 808.1 1287.4 816 1299.5 L 814.5 1300 Q 795.7 1287.8 781 1271.5 L 774 1262.5 L 769 1250.5 L 768 1240.5 Q 771.5 1235.6 778.5 1234 Z" /><path desc="l 0 p 55" fill="rgb(0,0,0)" stroke="rgb(0,0,0)" stroke-width="1" opacity="0.00392156862745098" d="M 836.5 1263 L 838 1263.5 L 842.5 1274 L 851 1286.5 L 862 1301.5 L 857.5 1302 L 853.5 1301 L 844.5 1300 L 832.5 1299 L 827.5 1302 Q 818.4 1290.6 815 1273.5 L 818.5 1273 L 821.5 1274 Q 831.5 1272 836 1264.5 L 836.5 1263 Z" /><path desc="l 0 p 56" fill="rgb(0,0,0)" stroke="rgb(0,0,0)" stroke-width="1" opacity="0.00392156862745098" d="M 832.5 1308 L 847.5 1309 L 860.5 1311 L 873.5 1315 L 880.5 1316 L 902.5 1326 L 907.5 1327 L 911 1328.5 L 910.5 1348 L 900.5 1350 L 890.5 1352 L 882.5 1353 L 878.5 1352 Q 871.3 1352.7 869 1348.5 L 870 1344.5 L 870 1335.5 Q 867.1 1325.9 860.5 1320 Q 855.8 1319.3 855 1322.5 L 856 1327.5 L 858 1330.5 Q 862 1334.5 862 1342.5 L 858 1349.5 L 850.5 1357 L 846.5 1358 L 837.5 1348 Q 835.5 1345 829.5 1346 Q 827 1347 828 1351.5 L 837 1359.5 L 840 1364.5 L 841 1371.5 L 836.5 1383 L 824.5 1376 L 817.5 1375 L 810.5 1377 Q 802.6 1379.1 799 1385.5 Q 794.8 1389.8 794 1397.5 L 793 1404.5 L 794 1409.5 L 797 1416.5 L 794.5 1417 L 787 1410.5 Q 779 1399 780 1378.5 Q 784.3 1361.8 795.5 1352 L 806 1346.5 Q 811.7 1346.2 814 1342.5 Q 814.8 1337.8 811.5 1337 L 803.5 1338 L 793.5 1343 L 792 1336.5 L 791 1329.5 L 794.5 1324 L 802 1318.5 L 810.5 1314 L 817.5 1312 L 828 1319.5 L 831.5 1322 L 836.5 1323 Q 840 1322 839 1316.5 L 836.5 1313 L 832 1309.5 L 832.5 1308 Z" /><path desc="l 0 p 57" fill="rgb(0,0,0)" stroke="rgb(0,0,0)" stroke-width="1" opacity="0.00392156862745098" d="M 815.5 1384 Q 825.6 1382.9 829 1388.5 Q 830.4 1394.6 835.5 1397 L 848.5 1403 L 854.5 1404 L 859 1405.5 L 847 1411.5 Q 841.2 1415.2 832 1415.5 L 818.5 1416 L 810 1411.5 L 803 1408.5 Q 800.7 1405.3 802 1398.5 Q 804.5 1390.5 810.5 1386 L 815.5 1384 Z" /><path desc="l 1 p 4" fill="rgb(0,0,0)" stroke="rgb(0,0,0)" stroke-width="1" opacity="0.9019607843137255" d="M 910.5 1418 L 911 1424.5 L 910 1424.5 L 910.5 1418 Z" /></svg>