<svg width="620" height="750" version="1.1" xmlns="http://www.w3.org/2000/svg" desc="Created with imagetracer.js version 1.1.2" ><path desc="l 0 p 0" fill="rgb(80,80,80)" stroke="rgb(80,80,80)" stroke-width="1" opacity="0.00784313725490196" d="M 0.5 0 L 620 0.5 L 619.5 750 L 0 749.5 L 0 669.5 L 0 649.5 Q -1.4 642.1 2 639.5 L 11.5 628 L 15 635.5 Q 18.6 644.4 25.5 650 L 33 655.5 Q 35.7 658.3 42.5 657 Q 53.6 646.1 60 630.5 L 63 625.5 L 64.5 619 Q 74.9 631.6 89.5 640 L 102 647.5 Q 105.6 650.9 113.5 650 L 118 646.5 L 123.5 633 L 134.5 634 L 147.5 629 L 157 621.5 L 161 610.5 Q 158.8 605.8 156.5 610 Q 151.1 614.6 141.5 615 Q 141.8 608.8 139 605.5 L 141.5 602 L 147.5 604 Q 150.7 606.3 157.5 605 L 164 601.5 L 165 593.5 L 166 581.5 Q 164.8 576.3 167.5 575 Q 172.8 580.2 184.5 579 L 187.5 578 Q 187 585.5 191.5 588 L 194 589.5 Q 188.7 593.7 179 593.5 Q 179.3 600.8 184.5 603 Q 189.2 606.3 198.5 605 L 204.5 603 L 214.5 599 Q 220.9 598.4 223 593.5 Q 226 590.5 226 584.5 Q 222 563.5 210 550.5 L 220.5 540 Q 227.1 534.6 228 523.5 L 229 512.5 L 226 506.5 L 219.5 499 Q 215.5 496 207.5 497 L 203.5 499 Q 202.3 496.8 197.5 498 Q 186.4 501.9 179 509.5 L 174 516.5 L 172 521.5 L 165.5 530 L 159.5 531 L 160 529.5 L 160.5 523 L 163 522.5 L 166 517.5 L 167 512.5 L 168 501.5 L 161.5 491 L 155.5 489 Q 151.3 489.8 150.5 487 Q 141.4 483.6 135.5 477 L 117 458.5 L 100 434.5 L 102.5 436 Q 111.4 442.6 124.5 445 L 129 441.5 Q 129.6 436.9 127 435.5 L 129.5 437 L 151.5 446 L 158.5 446 L 161.5 447 L 165 444.5 L 164 440.5 L 159 432.5 L 150 420.5 L 156.5 426 Q 168.3 436.7 188.5 439 L 191.5 438 Q 196.3 438.8 197 435.5 L 196 431.5 L 193 425.5 L 186 416.5 L 187.5 416 Q 194.7 424.3 205.5 429 L 213.5 433 L 220 434.5 L 229.5 435 L 234 432.5 L 233 427.5 L 230 423.5 L 219 407.5 L 220.5 408 Q 229.5 416 241.5 421 Q 247 425 256 425.5 L 271.5 426 L 277 422.5 L 276 418.5 L 272 413.5 L 258 392.5 L 259.5 392 Q 270.6 400.9 285.5 406 L 296.5 410 L 306.5 413 L 321.5 416 Q 328.2 418.3 338.5 417 L 354 413.5 Q 362.3 413.3 366 408.5 Q 366.5 403.5 362.5 403 L 318 369.5 L 319.5 369 L 354.5 383 L 379.5 392 L 408.5 400 L 420 401.5 L 451.5 402 L 472.5 398 L 484.5 394 L 492 390.5 L 493 388.5 L 491.5 386 L 465 374.5 Q 435.1 362.9 408 348.5 L 409.5 348 L 420 350.5 L 438.5 353 L 475.5 355 L 478.5 354 L 484.5 354 L 500 353.5 L 504.5 353 Q 529.8 349.3 547 337.5 Q 560 331 569 320.5 Q 570 316 567.5 315 Q 563.6 311.9 556 312.5 L 539 311.5 L 513.5 308 L 487 301.5 L 490.5 300 L 496.5 300 L 517.5 296 L 530.5 293 L 543.5 289 L 564.5 279 Q 581.9 272.4 592 258.5 L 594.5 252 L 595 247.5 L 592.5 244 L 576 244.5 L 564.5 246 L 552 246.5 L 505.5 247 L 505.5 246 Q 565.2 232.7 604 198.5 Q 611.2 191.2 612 177.5 L 609.5 173 L 598 174.5 L 588.5 175 L 561.5 175 L 557.5 174 L 550 173.5 Q 569.9 159.4 586 141.5 L 603.5 117 L 610 105.5 L 612 92.5 L 607.5 84 Q 602.2 83.2 600.5 86 L 594.5 90 L 566.5 104 L 559.5 107 L 534 115.5 L 505 123.5 L 477 129.5 L 447.5 134 L 429.5 136 L 421.5 138 L 391.5 139 L 379.5 134 L 370 131.5 L 372 128.5 L 373 124.5 L 366.5 124 L 363.5 125 L 361.5 124 L 357.5 125 L 347.5 125 L 342.5 124 L 328.5 122 Q 328 118.5 323.5 119 L 315.5 119 L 302 116.5 L 287.5 113 L 262.5 109 L 249.5 108 L 225.5 108 L 221.5 109 L 212.5 109 L 205.5 110 L 184.5 112 L 173.5 114 L 151 120.5 L 123 132.5 L 106.5 140 Q 77.1 156.1 55 179.5 L 54.5 181 L 43 190.5 Q 34.1 201.1 28.5 215 Q 21.6 222.6 24 239.5 L 27.5 245 L 31.5 246 L 50.5 234 L 61.5 228 Q 66.9 223.4 76.5 223 L 88.5 226 Q 94.9 226.1 97 230.5 Q 101.3 235.7 102 244.5 L 103 250.5 L 102 254.5 Q 100.7 264.7 96 271.5 Q 93.5 282 87 288.5 L 72.5 306 Q 60.9 316.9 43.5 322 L 37.5 314 L 28 308.5 L 24.5 304 Q 20 299.5 9.5 301 L 1.5 304 Q -1.3 302.8 0 297.5 L 0 283.5 L 0 226.5 L 0.5 0 Z" /><path desc="l 1 p 0" fill="rgb(0,0,0)" stroke="rgb(0,0,0)" stroke-width="1" opacity="0.9450980392156862" d="M 603.5 84 L 608 84.5 L 611.5 92 L 612 97.5 L 610.5 104 Q 608.2 112.2 603 117.5 Q 589.5 141 569.5 158 L 550 173.5 L 561 174.5 L 597.5 175 L 601.5 174 L 609.5 173 L 612 179.5 L 611 184.5 Q 608.9 193.4 603.5 199 Q 564.3 232.8 505 246.5 L 551.5 247 Q 552.7 244.7 557.5 246 L 570.5 245 L 592.5 244 Q 595.8 245.7 595 251.5 L 589.5 261 L 580.5 270 L 566.5 278 L 553 284.5 L 540.5 290 L 529.5 293 L 515.5 297 L 500.5 299 L 496.5 300 L 490.5 300 L 487 301.5 L 513 307.5 L 533.5 311 L 542.5 312 Q 552.8 310.7 559.5 313 Q 566.8 312.2 569 316.5 Q 570 321.5 567 322.5 L 561.5 328 L 544.5 340 L 524.5 348 L 510.5 352 L 498.5 354 L 464.5 355 Q 462.8 352.3 456.5 354 L 439.5 353 L 429.5 352 L 410.5 349 L 410.5 350 L 492 386.5 L 493 388.5 L 490.5 392 L 477 396.5 L 461.5 400 L 452 401.5 L 443.5 402 L 420.5 402 L 407.5 399 L 401.5 398 L 392 395.5 L 375.5 390 Q 346.4 381.6 320.5 370 L 321.5 372 L 366 406.5 Q 366.5 410.5 363.5 411 L 344.5 416 L 325.5 417 L 310.5 414 L 296.5 410 Q 274.8 403.7 258.5 392 L 259 393.5 L 272 412.5 L 276 418.5 L 277 422.5 Q 274.9 426.4 268.5 426 L 256.5 426 L 251.5 425 L 239.5 420 L 220.5 408 L 221 409.5 L 230 423.5 L 232.5 427 L 234 432.5 Q 230.1 436.6 220.5 435 Q 199.6 429.4 186.5 416 L 188 418.5 L 192.5 425 L 196 430.5 L 197 435.5 Q 196.5 438.5 192.5 438 L 187.5 439 L 178.5 437 Q 161.4 432.6 151.5 421 L 151 422.5 L 160.5 434 L 164 439.5 L 165 444.5 L 161.5 447 L 158.5 446 L 151.5 446 L 138.5 441 L 128.5 436 L 128 437.5 L 129 441.5 Q 127.3 444.8 122.5 445 Q 109.3 441.7 100.5 434 L 100 435.5 Q 115.7 460.3 137.5 479 L 149.5 487 L 154.5 489 L 158.5 490 L 164 493.5 L 167 499.5 L 168 508.5 L 167 512.5 L 166 516.5 L 162.5 523 L 160 523.5 Q 161.5 529 159 530.5 L 163.5 531 L 170 525.5 Q 172.9 514.4 180.5 508 L 191.5 501 Q 194.7 497.2 202.5 498 L 204.5 499 Q 207.1 495.6 214.5 497 Q 222.4 499.1 226 505.5 L 229 515.5 Q 226.3 517.3 228 523.5 Q 227.1 535.1 220 540.5 L 210 551.5 Q 218 558.5 221.5 570 L 225 578.5 L 226 587.5 Q 223.8 594.3 218.5 598 L 205.5 603 L 199 604.5 L 189.5 605 Q 183 603.5 180 598.5 L 179 593.5 Q 188.7 593.7 194 589.5 L 190 586.5 Q 187 584 187.5 578 L 176.5 579 L 167.5 575 Q 164.8 576.3 166 581.5 L 165 593.5 Q 166.3 600.8 162.5 603 Q 158.1 606.1 149.5 605 L 141.5 602 L 139 606.5 Q 142 609 141.5 615 Q 153 614.5 158.5 608 L 161 611.5 L 158.5 618 L 151.5 627 L 132.5 634 L 129.5 633 L 123.5 633 Q 121.2 642.7 115.5 649 L 107.5 650 Q 95.1 645.9 86.5 638 Q 73.7 630.3 64.5 619 L 63 624.5 L 60 630.5 Q 53.6 646.1 42.5 657 Q 33.1 658.4 30 653.5 L 22 646.5 L 15.5 636 L 11.5 628 L 0.5 642 L 0 635.5 L 5.5 629 L 9 624.5 L 10 618.5 L 9 614.5 L 8 605.5 L 6 584.5 L 4.5 553 L 0 549.5 L 0.5 542 L 4.5 549 Q 9.3 549.8 10 546.5 L 15.5 534 L 19.5 523 L 21 516.5 L 24 504.5 L 25 495.5 L 25 476.5 L 23 472.5 L 24 470.5 L 19.5 470 L 16 468.5 L 17.5 466 L 29.5 466 Q 40.2 466.2 45 460.5 L 49.5 453 Q 52.5 450 51 442.5 L 48.5 438 L 40.5 435 L 35 436.5 L 41 438.5 Q 41.8 442.3 39.5 443 L 21 453.5 L 21.5 455 L 35.5 452 L 37 454.5 Q 28.6 462.1 16 465.5 L 8.5 468 L 0.5 469 L 0 465.5 L 10.5 463 L 21 458.5 L 19.5 458 L 15.5 459 L 12.5 458 L 7 455.5 L 8.5 453 L 18 450.5 L 22.5 448 L 33 441.5 L 32.5 440 Q 24.2 440.8 20 437.5 L 22.5 434 Q 36.9 426.4 48 415.5 Q 47.3 413.3 43.5 414 Q 38 415.5 36.5 413 L 32.5 414 L 18.5 416 L 17 413.5 Q 25.3 395.8 38 382.5 L 36.5 382 L 4.5 396 L 3 393.5 L 7.5 384 L 12 367.5 L 10.5 367 L 0.5 376 L 0 358.5 Q 1.4 355.4 6.5 356 L 15 355.5 L 16 350.5 L 9.5 343 L 0 339.5 L 0.5 335 L 2.5 336 L 3 334.5 Q -0.8 332.3 0 325.5 Q 1.8 327.1 3.5 324 L 13 320.5 Q 12.4 314.2 7.5 312 L 0 307.5 L 0.5 303 L 3.5 304 Q 8 299.5 18.5 301 L 28 307.5 L 30.5 311 L 40 316.5 L 43.5 322 Q 62.1 316.6 74 304.5 L 87 288.5 L 93 278.5 L 98.5 266 L 102 254.5 L 103 248.5 Q 100.8 247.2 102 242.5 Q 100.2 232.3 93.5 227 L 80.5 224 L 74.5 223 L 69.5 224 L 61.5 228 L 46.5 236 L 37 242.5 L 29.5 246 L 25 242.5 L 24 236.5 L 24 224.5 Q 31.8 203.3 45.5 188 L 55 180.5 L 60.5 174 Q 79.9 154.9 104.5 141 L 131 128.5 L 161.5 117 L 173.5 114 L 190.5 112 L 194.5 111 L 204.5 110 L 225 108.5 L 257.5 108 L 268.5 110 L 282.5 112 L 295.5 115 L 303.5 117 L 313.5 118 Q 315.3 120.7 321.5 119 Q 326 118 327 120.5 Q 327.8 122.8 331.5 122 Q 337.8 124.8 347 124.5 L 360.5 125 L 362.5 124 L 365.5 125 Q 367 122.5 372.5 124 L 373 127.5 L 370 131.5 L 384.5 136 L 391 138.5 L 396.5 139 L 411.5 139 L 416.5 138 L 424.5 137 L 454.5 133 L 468.5 131 L 488.5 127 L 497 125.5 L 514.5 121 L 538.5 114 L 566.5 104 Q 587.4 96.4 603.5 84 Z" /><path desc="l 0 p 1" fill="rgb(80,80,80)" stroke="rgb(80,80,80)" stroke-width="1" opacity="0.00784313725490196" d="M 604.5 88 L 606 88.5 L 608 96.5 L 606.5 103 L 601 113.5 Q 590.5 131.5 576.5 146 Q 562.4 160.4 545 171.5 Q 533.9 180.4 518.5 185 L 491.5 191 L 475.5 194 L 457.5 196 L 435.5 198 L 419.5 199 L 426 191.5 L 427 188.5 Q 426.5 185.5 422.5 186 L 415.5 186 L 406 185.5 L 392 183.5 Q 393 181 397.5 182 L 408.5 178 Q 425.6 172.1 436 159.5 Q 438.6 158.1 438 153.5 L 434.5 152 L 428.5 151 L 405 143.5 L 453 137.5 L 486.5 132 L 515.5 125 L 538 118.5 L 569 107.5 Q 589 100 604.5 88 Z" /><path desc="l 0 p 2" fill="rgb(80,80,80)" stroke="rgb(80,80,80)" stroke-width="1" opacity="0.00784313725490196" d="M 238.5 112 L 253 112.5 L 264 113.5 L 280.5 116 L 293 118.5 L 277 121.5 L 249.5 128 L 242.5 129 L 236 131.5 L 222.5 138 Q 193.3 150.8 173 172.5 L 157 196.5 L 147 215.5 L 139 233.5 L 128.5 264 L 127 264.5 L 124.5 279 Q 122.2 290.2 115.5 297 Q 109.4 308.9 99.5 317 L 63.5 343 L 51 333.5 Q 46.4 334.1 45 331.5 L 46 327.5 Q 43.8 326.3 46.5 325 Q 71.2 317.2 85 298.5 L 91 290.5 Q 98.4 280.9 102 267.5 L 106 256.5 L 107 247.5 Q 104.8 246.3 106 241.5 L 102 231.5 L 97.5 225 L 92 222.5 L 82.5 220 L 73.5 219 Q 48.4 226.9 30.5 242 Q 26.3 239.2 28 230.5 L 29 226.5 L 30 221.5 L 33.5 214 Q 39.1 198.6 50.5 189 L 77 165.5 Q 89.9 153.4 106.5 145 L 129.5 134 L 142 128.5 L 158 122.5 Q 164.7 118.7 174.5 118 L 187.5 116 L 222.5 113 L 233.5 113 L 238.5 112 Z" /><path desc="l 0 p 3" fill="rgb(80,80,80)" stroke="rgb(80,80,80)" stroke-width="1" opacity="0.00784313725490196" d="M 299.5 122 L 335.5 127 L 351.5 129 L 366 129.5 L 358.5 138 Q 347.9 148.4 330.5 152 L 323 152.5 L 294.5 153 L 290.5 152 L 282.5 151 L 263 146.5 L 263.5 143 L 268 139.5 L 274.5 126 L 293.5 123 Q 298.2 124.2 299.5 122 Z" /><path desc="l 0 p 4" fill="rgb(80,80,80)" stroke="rgb(80,80,80)" stroke-width="1" opacity="0.00784313725490196" d="M 268.5 127 L 269 129.5 L 261.5 140 L 255.5 141 L 249 135.5 L 249.5 132 L 268.5 127 Z" /><path desc="l 0 p 5" fill="rgb(80,80,80)" stroke="rgb(80,80,80)" stroke-width="1" opacity="0.00784313725490196" d="M 244.5 133 L 245 140.5 L 237.5 150 L 231 152.5 L 226.5 153 L 221 149.5 L 219 144.5 L 235 136.5 L 244.5 133 Z" /><path desc="l 0 p 6" fill="rgb(80,80,80)" stroke="rgb(80,80,80)" stroke-width="1" opacity="0.00784313725490196" d="M 366.5 135 L 376.5 137 L 387 141.5 L 433 156.5 Q 424.2 168.2 409 173.5 Q 400.2 178.7 386.5 179 L 373.5 180 Q 371.7 177.3 365.5 179 L 347.5 177 L 340.5 176 Q 330.6 175.4 324 171.5 L 333 163.5 L 331.5 160 L 323 159.5 L 314 157.5 L 335.5 155 Q 355.6 149.6 366.5 135 Z" /><path desc="l 0 p 7" fill="rgb(80,80,80)" stroke="rgb(80,80,80)" stroke-width="1" opacity="0.00784313725490196" d="M 248.5 142 L 252 143.5 L 259 145.5 L 255.5 150 Q 251.5 153 243.5 152 Q 240.8 150.8 243 149.5 L 247 145.5 L 248.5 142 Z" /><path desc="l 0 p 8" fill="rgb(80,80,80)" stroke="rgb(80,80,80)" stroke-width="1" opacity="0.00784313725490196" d="M 214.5 147 L 216 147.5 Q 218.6 150.4 218 156.5 Q 215.4 163.9 209.5 168 Q 205.4 172.9 194.5 171 L 192 169.5 L 189 163.5 Q 199.8 153.3 214.5 147 Z" /><path desc="l 0 p 9" fill="rgb(80,80,80)" stroke="rgb(80,80,80)" stroke-width="1" opacity="0.00784313725490196" d="M 261.5 149 L 266 151.5 L 272.5 153 L 287.5 156 L 327 164.5 L 316 170.5 L 313.5 174 L 306.5 177 L 298.5 179 L 288 180.5 L 278.5 181 L 263.5 178 L 252 173.5 L 255.5 167 L 257.5 161 L 258 155.5 L 257 153.5 L 261.5 149 Z" /><path desc="l 0 p 10" fill="rgb(80,80,80)" stroke="rgb(80,80,80)" stroke-width="1" opacity="0.00784313725490196" d="M 237.5 154 L 238 159.5 L 233.5 166 Q 229.2 172.2 219.5 173 L 213 170.5 L 219 163.5 L 222.5 155 Q 224.8 158.2 231.5 157 L 237.5 154 Z" /><path desc="l 0 p 11" fill="rgb(80,80,80)" stroke="rgb(80,80,80)" stroke-width="1" opacity="0.00784313725490196" d="M 252.5 155 Q 254.8 155.8 254 159.5 Q 252.8 167.8 246.5 171 L 240.5 172 L 236 168.5 Q 241.8 164.8 242.5 156 L 248.5 156 L 252.5 155 Z" /><path desc="l 0 p 12" fill="rgb(80,80,80)" stroke="rgb(80,80,80)" stroke-width="1" opacity="0.00784313725490196" d="M 185.5 166 L 187 166.5 L 188 174.5 Q 185.5 186.5 177.5 193 L 169.5 196 L 165.5 197 L 162 195.5 Q 171.1 178.1 185.5 166 Z" /><path desc="l 0 p 13" fill="rgb(80,80,80)" stroke="rgb(80,80,80)" stroke-width="1" opacity="0.00784313725490196" d="M 232.5 172 L 234 172.5 Q 235.5 178.5 232.5 180 L 225.5 188 Q 222.5 191 216.5 191 Q 213.8 189.8 216 188.5 Q 215.5 182 212 178.5 L 213.5 175 L 221.5 177 L 224.5 176 L 232.5 172 Z" /><path desc="l 0 p 14" fill="rgb(80,80,80)" stroke="rgb(80,80,80)" stroke-width="1" opacity="0.00784313725490196" d="M 192.5 174 L 201.5 176 L 208.5 174 L 209 176.5 L 202.5 185 Q 199.7 188.7 192.5 188 L 189 185.5 L 192.5 174 Z" /><path desc="l 0 p 15" fill="rgb(80,80,80)" stroke="rgb(80,80,80)" stroke-width="1" opacity="0.00784313725490196" d="M 245.5 175 L 248 176.5 Q 248.8 183.8 244.5 186 L 238.5 187 L 236 185.5 L 235 183.5 Q 238.4 181.4 238.5 176 Q 244 177.5 245.5 175 Z" /><path desc="l 0 p 16" fill="rgb(80,80,80)" stroke="rgb(80,80,80)" stroke-width="1" opacity="0.00784313725490196" d="M 318.5 175 L 330.5 178 L 343 180.5 L 356.5 183 L 374.5 184 Q 379.2 182.8 380.5 185 L 387.5 187 L 400.5 189 L 421 190.5 L 420.5 192 L 410 200.5 L 408.5 203 L 401 208.5 Q 394.1 214.1 383.5 216 L 375.5 218 L 366.5 219 L 355.5 220 L 338.5 217 L 322 213.5 L 302 208.5 L 314 200.5 Q 314.8 196.8 312.5 196 Q 297.2 192.8 286 185.5 L 292.5 184 L 299.5 183 L 306.5 181 L 318.5 175 Z" /><path desc="l 0 p 17" fill="rgb(80,80,80)" stroke="rgb(80,80,80)" stroke-width="1" opacity="0.00784313725490196" d="M 606.5 177 Q 609.3 178.2 607 179.5 Q 607.5 187 604 190.5 L 598.5 198 Q 573 220 537.5 232 L 530.5 235 L 513.5 240 L 496.5 244 L 484.5 245 L 443.5 246 L 440.5 245 L 432.5 245 L 404.5 244 L 396.5 244 L 392.5 243 L 386.5 239 Q 375.3 230.3 361 224.5 L 361.5 223 L 363.5 224 L 368.5 223 L 375.5 222 L 384.5 220 Q 397 217.5 405 210.5 L 411.5 205 Q 414.4 201.4 422.5 203 L 436.5 202 L 452.5 200 L 468.5 199 L 482.5 197 Q 504.8 194.3 523 187.5 L 537.5 181 Q 539.7 177.3 546.5 178 L 558.5 178 L 561.5 179 L 569.5 179 L 598.5 179 L 606.5 177 Z" /><path desc="l 0 p 18" fill="rgb(80,80,80)" stroke="rgb(80,80,80)" stroke-width="1" opacity="0.00784313725490196" d="M 252.5 179 L 273.5 185 L 289 191.5 L 309 199.5 Q 296.3 210.8 271.5 210 L 264.5 208 Q 253.5 206.5 246 201.5 Q 250.1 198.6 249 190.5 L 248 187.5 L 252.5 179 Z" /><path desc="l 0 p 19" fill="rgb(80,80,80)" stroke="rgb(80,80,80)" stroke-width="1" opacity="0.00784313725490196" d="M 209.5 184 L 211 184.5 Q 212.7 192.7 210 196.5 L 203.5 205 L 195.5 206 L 192.5 202 Q 190 201 191 196.5 L 192 193.5 L 191.5 192 Q 198.9 192.9 202.5 190 L 209.5 184 Z" /><path desc="l 0 p 20" fill="rgb(80,80,80)" stroke="rgb(80,80,80)" stroke-width="1" opacity="0.00784313725490196" d="M 231.5 188 L 232 189.5 Q 230.2 196.7 224.5 200 L 219.5 201 L 214 198.5 L 215.5 195 Q 222.8 195.8 226 192.5 L 231.5 188 Z" /><path desc="l 0 p 21" fill="rgb(80,80,80)" stroke="rgb(80,80,80)" stroke-width="1" opacity="0.00784313725490196" d="M 185.5 189 L 187 192.5 L 187 198.5 L 180.5 209 L 173.5 211 L 169 200.5 Q 177.6 199.6 182 194.5 L 185.5 189 Z" /><path desc="l 0 p 22" fill="rgb(80,80,80)" stroke="rgb(80,80,80)" stroke-width="1" opacity="0.00784313725490196" d="M 236.5 190 L 245 191.5 Q 245.1 199.6 239.5 202 L 235.5 203 L 230 200.5 L 236.5 190 Z" /><path desc="l 0 p 23" fill="rgb(80,80,80)" stroke="rgb(80,80,80)" stroke-width="1" opacity="0.00784313725490196" d="M 159.5 200 L 163.5 201 L 167 204.5 L 168 209.5 L 159.5 222 L 153 224.5 L 148.5 225 L 148 222.5 L 159.5 200 Z" /><path desc="l 0 p 24" fill="rgb(80,80,80)" stroke="rgb(80,80,80)" stroke-width="1" opacity="0.00784313725490196" d="M 211.5 202 L 212 208.5 L 204.5 218 Q 201.8 220.8 195.5 220 Q 192.8 218.8 195 217.5 L 196 213.5 L 197.5 210 L 199.5 211 Q 206.1 210.1 209 205.5 L 211.5 202 Z" /><path desc="l 0 p 25" fill="rgb(80,80,80)" stroke="rgb(80,80,80)" stroke-width="1" opacity="0.00784313725490196" d="M 226.5 203 Q 229.8 204.7 229 210.5 L 225.5 215 L 216.5 218 L 212 216.5 L 217.5 204 L 222.5 205 L 226.5 203 Z" /><path desc="l 0 p 26" fill="rgb(80,80,80)" stroke="rgb(80,80,80)" stroke-width="1" opacity="0.00784313725490196" d="M 188.5 205 L 192 207.5 L 191 216.5 L 186.5 222 L 179.5 224 L 177 215.5 Q 183.8 213.3 187 207.5 L 188.5 205 Z" /><path desc="l 0 p 27" fill="rgb(80,80,80)" stroke="rgb(80,80,80)" stroke-width="1" opacity="0.00784313725490196" d="M 241.5 205 L 247 206.5 L 258.5 211 Q 265.9 211.6 269.5 216 L 291 229.5 L 283.5 232 L 273.5 233 L 253.5 233 L 238 227.5 L 224 221.5 L 224.5 220 L 230 216.5 Q 233.8 213.3 233.5 206 L 237.5 207 L 241.5 205 Z" /><path desc="l 0 p 28" fill="rgb(80,80,80)" stroke="rgb(80,80,80)" stroke-width="1" opacity="0.00784313725490196" d="M 294.5 211 Q 303.9 215.6 316.5 217 L 335.5 221 L 348.5 224 Q 358.1 225.9 364.5 231 Q 377.6 235.9 387 244.5 L 385.5 247 L 371.5 253 L 354.5 255 L 341.5 256 L 317.5 256 L 272.5 247 L 262.5 244 L 259 242.5 L 253 237.5 L 260.5 237 L 262.5 238 L 266.5 237 L 277.5 237 Q 291.1 236.6 299 230.5 L 298.5 228 L 288.5 223 L 275 214.5 L 286.5 213 L 294.5 211 Z" /><path desc="l 0 p 29" fill="rgb(80,80,80)" stroke="rgb(80,80,80)" stroke-width="1" opacity="0.00784313725490196" d="M 170.5 214 Q 174.7 217.8 175 225.5 Q 172.6 233.6 166.5 238 L 158.5 239 Q 159 232 156 228.5 L 165 222.5 L 170.5 214 Z" /><path desc="l 0 p 30" fill="rgb(80,80,80)" stroke="rgb(80,80,80)" stroke-width="1" opacity="0.00784313725490196" d="M 207.5 220 Q 210.5 221.5 209 227.5 L 206.5 231 Q 204.8 233.8 199.5 233 L 196 230.5 L 196.5 224 Q 204.9 224.9 207.5 220 Z" /><path desc="l 0 p 31" fill="rgb(80,80,80)" stroke="rgb(80,80,80)" stroke-width="1" opacity="0.00784313725490196" d="M 213.5 221 Q 219.3 221.3 222 224.5 Q 227.6 229.4 236.5 231 L 241.5 233 L 250.5 241 L 273 258.5 L 263 261.5 L 250.5 262 L 239.5 260 L 228.5 255 L 218.5 249 L 203 237.5 L 212 230.5 L 213.5 221 Z" /><path desc="l 0 p 32" fill="rgb(80,80,80)" stroke="rgb(80,80,80)" stroke-width="1" opacity="0.00784313725490196" d="M 190.5 223 L 192 223.5 Q 193.1 229.6 190.5 232 L 185.5 237 L 174 236.5 L 178.5 228 Q 183.3 229.3 184.5 227 L 190.5 223 Z" /><path desc="l 0 p 33" fill="rgb(80,80,80)" stroke="rgb(80,80,80)" stroke-width="1" opacity="0.00784313725490196" d="M 145.5 229 Q 151 228.5 153 231.5 L 154 240.5 Q 151.4 247.9 145.5 252 L 140.5 254 L 136 252.5 L 145.5 229 Z" /><path desc="l 0 p 34" fill="rgb(80,80,80)" stroke="rgb(80,80,80)" stroke-width="1" opacity="0.00784313725490196" d="M 193.5 235 L 195 235.5 L 196 239.5 L 189.5 248 L 184.5 249 L 177 246.5 L 177.5 241 Q 190.6 243.1 193.5 235 Z" /><path desc="l 0 p 35" fill="rgb(80,80,80)" stroke="rgb(80,80,80)" stroke-width="1" opacity="0.00784313725490196" d="M 170.5 239 L 172 239.5 L 173 246.5 Q 171.5 253 166.5 256 L 160.5 257 Q 159.8 249.8 155 246.5 L 157.5 243 L 160.5 244 L 163.5 243 Q 168.7 242.7 170.5 239 Z" /><path desc="l 0 p 36" fill="rgb(80,80,80)" stroke="rgb(80,80,80)" stroke-width="1" opacity="0.00784313725490196" d="M 199.5 241 Q 213.2 248.8 223.5 260 L 244 277.5 Q 242.3 279.8 237.5 279 L 223.5 279 L 214 275.5 Q 206 273.5 201.5 268 L 187 253.5 L 196 247.5 L 199.5 241 Z" /><path desc="l 0 p 37" fill="rgb(80,80,80)" stroke="rgb(80,80,80)" stroke-width="1" opacity="0.00784313725490196" d="M 391.5 247 Q 392.7 249.3 397.5 248 L 405.5 248 L 410.5 249 L 412.5 249 L 474.5 250 L 476.5 250 L 500 250.5 L 534.5 252 L 539.5 251 L 551.5 251 L 572.5 249 L 589.5 248 Q 592.3 249.2 590 250.5 Q 590.7 257.2 586 258.5 L 576.5 268 L 542.5 285 L 517.5 292 L 503 294.5 L 488.5 296 Q 487 298.5 481.5 297 L 465 297.5 L 408.5 298 L 403.5 297 Q 396 298.5 392.5 296 L 384 295.5 L 372 293.5 L 349 288.5 L 349.5 287 Q 356.7 285.2 360 279.5 L 361 274.5 L 355 270.5 L 348 267.5 L 331 260.5 L 333.5 260 L 335.5 260 L 351 259.5 L 355.5 259 L 366.5 258 Q 382.8 256.3 391.5 247 Z" /><path desc="l 0 p 38" fill="rgb(80,80,80)" stroke="rgb(80,80,80)" stroke-width="1" opacity="0.00784313725490196" d="M 152.5 251 L 155 252.5 L 156 258.5 Q 154.2 265.7 148.5 269 L 139 272.5 L 131.5 273 L 131 270.5 L 133.5 262 L 135.5 257 Q 137 259.5 142.5 258 L 152.5 251 Z" /><path desc="l 0 p 39" fill="rgb(80,80,80)" stroke="rgb(80,80,80)" stroke-width="1" opacity="0.00784313725490196" d="M 175.5 251 Q 182.8 251.3 185 256.5 L 217 293.5 Q 214.6 296.1 208.5 295 L 191.5 290 L 184.5 287 L 174 279.5 L 159 265.5 L 158 263.5 L 159.5 261 Q 170.4 261.4 174 254.5 L 175.5 251 Z" /><path desc="l 0 p 40" fill="rgb(80,80,80)" stroke="rgb(80,80,80)" stroke-width="1" opacity="0.00784313725490196" d="M 271.5 251 L 308 258.5 Q 314.2 257.8 317 260.5 L 332.5 266 L 346.5 271 L 357 276.5 L 354.5 280 Q 347.9 285.4 337.5 287 L 328.5 288 L 313.5 288 L 309.5 287 L 297.5 286 L 279.5 282 L 263.5 276 Q 250.7 271.8 241 264.5 L 242.5 264 Q 250.4 267.6 263.5 266 L 271 263.5 L 278 260.5 L 279 257.5 L 274.5 254 L 271.5 251 Z" /><path desc="l 0 p 41" fill="rgb(80,80,80)" stroke="rgb(80,80,80)" stroke-width="1" opacity="0.00784313725490196" d="M 155.5 268 L 157 268.5 L 157.5 270 L 162 273.5 L 162.5 275 L 164 275.5 L 183 305.5 L 173.5 306 L 165.5 303 L 157.5 298 L 146 287.5 L 140 276.5 Q 150 274.5 155.5 268 Z" /><path desc="l 0 p 42" fill="rgb(80,80,80)" stroke="rgb(80,80,80)" stroke-width="1" opacity="0.00784313725490196" d="M 239.5 268 Q 249.3 275.7 262.5 280 L 282.5 291 L 319 314.5 L 310.5 317 L 297.5 318 L 277.5 319 L 268.5 317 Q 255.8 316.2 248.5 310 L 239 305.5 L 222 296.5 L 223 294.5 L 208 278.5 L 209.5 278 L 220.5 282 L 226.5 283 L 237.5 284 L 250 279.5 Q 250.8 275.8 248.5 275 Q 241.4 272.7 239.5 268 Z" /><path desc="l 0 p 43" fill="rgb(80,80,80)" stroke="rgb(80,80,80)" stroke-width="1" opacity="0.00784313725490196" d="M 129.5 277 L 136 277.5 L 154 317.5 L 150.5 318 Q 136.8 313.2 128 303.5 L 122 294.5 Q 128 288 129.5 277 Z" /><path desc="l 0 p 44" fill="rgb(80,80,80)" stroke="rgb(80,80,80)" stroke-width="1" opacity="0.00784313725490196" d="M 176.5 287 Q 184.5 293 196 295.5 L 204.5 298 L 215.5 299 L 217.5 298 L 256.5 320 Q 270.3 329.7 288 335.5 L 280 338.5 L 273.5 339 L 248.5 340 L 236.5 337 L 233 336.5 L 227.5 334 L 211.5 325 L 188 309.5 Q 191.5 308 189 306.5 L 180 293.5 L 176.5 287 Z" /><path desc="l 0 p 45" fill="rgb(80,80,80)" stroke="rgb(80,80,80)" stroke-width="1" opacity="0.00784313725490196" d="M 285.5 288 L 307.5 291 L 317.5 292 L 334.5 292 L 342.5 290 Q 351 294.5 362.5 296 L 386.5 300 L 405 301.5 L 432.5 302 L 463.5 302 Q 473.1 300.4 478 303.5 L 497.5 308 L 518.5 313 L 537 315.5 L 554 316.5 L 559.5 317 L 565 318.5 L 563.5 321 L 546 333.5 L 533 340.5 L 511.5 348 L 496.5 350 L 479.5 350 L 471.5 351 L 468.5 350 L 461.5 350 L 436.5 349 L 418.5 346 Q 405.5 344.5 395.5 340 L 363 330.5 L 323 317.5 L 324 313.5 L 296.5 296 L 289 290.5 Q 284.8 289.9 285.5 288 Z" /><path desc="l 0 p 46" fill="rgb(80,80,80)" stroke="rgb(80,80,80)" stroke-width="1" opacity="0.00784313725490196" d="M 149.5 296 L 160.5 305 Q 164.3 308.7 171.5 309 L 176.5 310 Q 181 309 182 311.5 L 194 318.5 L 215 332.5 Q 224.9 336.7 230.5 345 Q 241.1 356.9 255 365.5 L 248 367.5 L 243.5 368 L 230.5 369 L 214.5 366 Q 201.9 364.1 193.5 358 L 181.5 352 L 173.5 346 Q 161.4 339.1 153 328.5 L 147 321.5 L 148.5 321 Q 151.8 323.7 158.5 323 Q 160.8 322.3 160 318.5 Q 152.5 308.4 149.5 296 Z" /><path desc="l 0 p 47" fill="rgb(80,80,80)" stroke="rgb(80,80,80)" stroke-width="1" opacity="0.00784313725490196" d="M 119.5 300 Q 126.6 306.4 130.5 316 L 138 333.5 L 135.5 334 Q 119.1 326.9 106 316.5 L 119.5 300 Z" /><path desc="l 0 p 48" fill="rgb(80,80,80)" stroke="rgb(80,80,80)" stroke-width="1" opacity="0.00784313725490196" d="M 10.5 305 Q 16.8 303.3 18.5 306 L 25 310.5 L 17 314.5 L 16.5 316 L 12.5 311 L 7 307.5 L 7.5 306 L 10.5 305 Z" /><path desc="l 0 p 49" fill="rgb(80,80,80)" stroke="rgb(80,80,80)" stroke-width="1" opacity="0.00784313725490196" d="M 0.5 308 L 12 316.5 L 13 320.5 Q 5.7 321.7 1.5 326 Q -1 325 0 320.5 L 0.5 308 Z" /><path desc="l 0 p 50" fill="rgb(80,80,80)" stroke="rgb(80,80,80)" stroke-width="1" opacity="0.00784313725490196" d="M 134.5 314 L 140 317.5 L 143 322.5 L 149 329.5 L 159.5 341 L 179 356.5 Q 189.9 372.1 204 384.5 L 191.5 385 L 186.5 384 Q 180.2 384.8 177.5 382 L 166.5 378 L 147.5 365 L 122 340.5 L 118 329.5 L 120.5 331 L 127 334.5 Q 131 339 140.5 338 Q 143.5 337.5 143 333.5 L 134.5 314 Z" /><path desc="l 0 p 51" fill="rgb(80,80,80)" stroke="rgb(80,80,80)" stroke-width="1" opacity="0.00784313725490196" d="M 23.5 315 Q 29.7 313.3 31.5 316 L 38 320.5 Q 41.7 323.3 42 329.5 L 41 334.5 L 35.5 342 L 33 340.5 Q 34.5 332.5 30.5 330 L 24.5 324 L 18 321.5 L 21.5 316 L 23.5 315 Z" /><path desc="l 0 p 52" fill="rgb(80,80,80)" stroke="rgb(80,80,80)" stroke-width="1" opacity="0.00784313725490196" d="M 102.5 320 L 110 325.5 Q 117.8 332.7 119 346.5 L 114.5 347 Q 99.7 341.3 90 330.5 L 90.5 329 L 102.5 320 Z" /><path desc="l 0 p 53" fill="rgb(80,80,80)" stroke="rgb(80,80,80)" stroke-width="1" opacity="0.00784313725490196" d="M 315.5 320 L 320.5 321 L 328 323.5 L 358 333.5 L 394.5 347 L 418.5 358 L 455.5 375 L 487 388.5 Q 476.8 393.8 463 395.5 L 450 397.5 L 421.5 398 L 408.5 395 L 402.5 394 L 393 391.5 L 376.5 386 L 331.5 370 L 275 343.5 Q 288.8 342.8 296 335.5 L 294.5 333 Q 279.2 329.3 268 321.5 L 269.5 322 L 289.5 323 L 292.5 322 L 299.5 322 L 308 321.5 L 315.5 320 Z" /><path desc="l 0 p 54" fill="rgb(80,80,80)" stroke="rgb(80,80,80)" stroke-width="1" opacity="0.00784313725490196" d="M 11.5 325 L 16.5 326 L 21.5 327 L 26 330.5 L 27.5 333 Q 30.3 334.3 29 339.5 Q 19.9 338.9 15.5 343 L 7 336.5 L 5 328.5 L 11.5 325 Z" /><path desc="l 0 p 55" fill="rgb(80,80,80)" stroke="rgb(80,80,80)" stroke-width="1" opacity="0.00784313725490196" d="M 0.5 330 L 3 335.5 L 1.5 336 Q -1.4 334.6 0.5 330 Z" /><path desc="l 0 p 56" fill="rgb(80,80,80)" stroke="rgb(80,80,80)" stroke-width="1" opacity="0.00784313725490196" d="M 85.5 333 L 99 343.5 L 101 356.5 L 99.5 360 Q 80.5 357 72 343.5 L 85.5 333 Z" /><path desc="l 0 p 57" fill="rgb(80,80,80)" stroke="rgb(80,80,80)" stroke-width="1" opacity="0.00784313725490196" d="M 44.5 337 Q 50.5 336 52.5 339 L 61 346.5 L 62 352.5 Q 60.8 360.8 54.5 364 L 46.5 363 L 45 363.5 Q 46.5 356 43.5 353 L 39 344.5 L 44.5 337 Z" /><path desc="l 0 p 58" fill="rgb(80,80,80)" stroke="rgb(80,80,80)" stroke-width="1" opacity="0.00784313725490196" d="M 0.5 340 L 7.5 342 L 15 348.5 L 16 353.5 L 14.5 356 L 6.5 356 Q 1.9 355.4 0.5 358 L 0.5 340 Z" /><path desc="l 0 p 59" fill="rgb(80,80,80)" stroke="rgb(80,80,80)" stroke-width="1" opacity="0.00784313725490196" d="M 232.5 340 Q 241.9 344.6 256.5 344 L 262.5 344 L 266.5 345 L 272.5 348 Q 297.6 356.4 315.5 372 L 360 406.5 L 359.5 408 L 343.5 412 L 326.5 413 L 311.5 410 L 297.5 406 Q 281.7 402.2 270.5 394 L 237 373.5 L 247.5 372 Q 255.9 371.4 260 366.5 Q 260.5 361.5 256.5 361 Q 241.3 352.8 232.5 340 Z" /><path desc="l 0 p 60" fill="rgb(80,80,80)" stroke="rgb(80,80,80)" stroke-width="1" opacity="0.00784313725490196" d="M 22.5 344 Q 32.2 342.8 36 347.5 Q 41 352.5 41 362.5 Q 39.8 368.3 35.5 371 L 34 370.5 L 31 365.5 L 25.5 360 L 20 357.5 Q 21.6 349.4 18 346.5 L 22.5 344 Z" /><path desc="l 0 p 61" fill="rgb(80,80,80)" stroke="rgb(80,80,80)" stroke-width="1" opacity="0.00784313725490196" d="M 68.5 345 L 78.5 356 L 86 360.5 L 89 368.5 L 90 373.5 L 85.5 374 L 80.5 365 L 72.5 361 L 65 355.5 L 66 348.5 L 65 346.5 L 68.5 345 Z" /><path desc="l 0 p 62" fill="rgb(80,80,80)" stroke="rgb(80,80,80)" stroke-width="1" opacity="0.00784313725490196" d="M 104.5 347 Q 111 351.5 121.5 352 L 123.5 348 L 144 367.5 L 163 392.5 L 154.5 393 L 137 387.5 L 132.5 386 L 124 381.5 L 105 363.5 L 104 359.5 L 105 356.5 L 105 350.5 L 104.5 347 Z" /><path desc="l 0 p 63" fill="rgb(80,80,80)" stroke="rgb(80,80,80)" stroke-width="1" opacity="0.00784313725490196" d="M 4.5 360 L 12 360.5 L 6.5 366 L 4 367.5 L 1 364.5 L 4.5 360 Z" /><path desc="l 0 p 64" fill="rgb(80,80,80)" stroke="rgb(80,80,80)" stroke-width="1" opacity="0.00784313725490196" d="M 187.5 360 Q 200.4 368.1 218.5 371 L 225.5 372 Q 231.3 372.7 234 376.5 L 251 387.5 L 252 390.5 L 256 396.5 L 272 420.5 Q 271.3 422.8 267.5 422 L 258.5 422 Q 257.3 419.7 252.5 421 L 241.5 417 L 228 408.5 L 206 388.5 Q 209.5 388 209 383.5 L 198 373.5 L 187.5 360 Z" /><path desc="l 0 p 65" fill="rgb(80,80,80)" stroke="rgb(80,80,80)" stroke-width="1" opacity="0.00784313725490196" d="M 18.5 361 L 27 366.5 Q 32 370.5 32 379.5 L 10.5 389 L 10 387.5 L 12.5 382 L 15 372.5 L 17 364.5 L 18.5 361 Z" /><path desc="l 0 p 66" fill="rgb(80,80,80)" stroke="rgb(80,80,80)" stroke-width="1" opacity="0.00784313725490196" d="M 92.5 362 L 96.5 363 L 101 365.5 L 107 371.5 Q 115.6 386.4 128 397.5 L 122.5 399 L 115.5 397 L 104.5 393 Q 91.8 390.8 86 381.5 L 84 378.5 L 89.5 378 Q 93.3 378.8 94 376.5 L 92.5 362 Z" /><path desc="l 0 p 67" fill="rgb(80,80,80)" stroke="rgb(80,80,80)" stroke-width="1" opacity="0.00784313725490196" d="M 61.5 364 Q 75 363 80 370.5 Q 79.9 382.9 71.5 387 L 66.5 390 L 62.5 391 L 63 389.5 L 64.5 384 L 65 378.5 L 58 366.5 L 61.5 364 Z" /><path desc="l 0 p 68" fill="rgb(80,80,80)" stroke="rgb(80,80,80)" stroke-width="1" opacity="0.00784313725490196" d="M 10.5 367 L 12 367.5 Q 9.7 383.2 3 394.5 L 6.5 396 Q 20.4 387.4 37.5 382 L 34 386.5 L 25 399.5 L 17 414.5 Q 18 417 22.5 416 L 36.5 413 Q 37.8 415.3 42.5 414 Q 47 413 48 415.5 L 20 436.5 L 21.5 439 L 33 440.5 L 31.5 443 L 23.5 448 L 15 451.5 L 7 454.5 L 8.5 457 L 18.5 459 L 20.5 458 L 19.5 460 Q 11.9 464.4 0.5 465 L 0 441.5 L 14 426.5 L 10.5 425 Q 7.5 428 0.5 427 L 0 376.5 L 10.5 367 Z" /><path desc="l 0 p 69" fill="rgb(80,80,80)" stroke="rgb(80,80,80)" stroke-width="1" opacity="0.00784313725490196" d="M 46.5 367 Q 55.5 368 59 374.5 Q 61.6 377.4 61 383.5 L 55.5 393 L 50.5 395 L 50 392.5 L 49 387.5 L 46.5 384 L 44 382.5 L 47 376.5 L 43.5 375 L 36.5 378 L 36 376.5 L 43.5 368 L 46.5 367 Z" /><path desc="l 0 p 70" fill="rgb(80,80,80)" stroke="rgb(80,80,80)" stroke-width="1" opacity="0.00784313725490196" d="M 157.5 377 L 161 379.5 L 160.5 382 L 157.5 377 Z" /><path desc="l 0 p 71" fill="rgb(80,80,80)" stroke="rgb(80,80,80)" stroke-width="1" opacity="0.00784313725490196" d="M 166.5 382 Q 173.3 386.7 183.5 388 L 190.5 389 L 198.5 389 Q 202.3 388.3 203 390.5 L 213 403.5 L 224 422.5 L 227.5 427 L 229 430.5 L 222.5 431 Q 207.8 428.2 198.5 420 L 181 405.5 Q 170.8 395.5 166.5 382 Z" /><path desc="l 0 p 72" fill="rgb(80,80,80)" stroke="rgb(80,80,80)" stroke-width="1" opacity="0.00784313725490196" d="M 40.5 386 L 45 388.5 L 47 394.5 L 46 397.5 L 45 401.5 L 40.5 406 L 38 407.5 L 37.5 409 L 23.5 411 L 24 409.5 Q 30.6 396.1 40.5 386 Z" /><path desc="l 0 p 73" fill="rgb(80,80,80)" stroke="rgb(80,80,80)" stroke-width="1" opacity="0.00784313725490196" d="M 79.5 386 L 83 388.5 Q 85.8 391.2 85 397.5 Q 83.8 403.3 79.5 406 L 78 405.5 Q 78.3 395.3 71 392.5 L 79.5 386 Z" /><path desc="l 0 p 74" fill="rgb(80,80,80)" stroke="rgb(80,80,80)" stroke-width="1" opacity="0.00784313725490196" d="M 123.5 386 L 126 387.5 L 127 389.5 L 123.5 386 Z" /><path desc="l 0 p 75" fill="rgb(80,80,80)" stroke="rgb(80,80,80)" stroke-width="1" opacity="0.00784313725490196" d="M 88.5 390 L 95 395.5 Q 100.3 410.2 111 419.5 L 116.5 426 Q 119.5 426.5 119 430.5 L 125 439.5 Q 123.7 442.2 122.5 440 Q 103.4 435.6 93 422.5 L 89 414.5 L 84 407.5 Q 89.5 403 89 392.5 L 88.5 390 Z" /><path desc="l 0 p 76" fill="rgb(80,80,80)" stroke="rgb(80,80,80)" stroke-width="1" opacity="0.00784313725490196" d="M 132.5 390 L 142.5 394 L 153 396.5 L 164.5 397 Q 166.8 391.8 169 395.5 L 193 433.5 L 180.5 434 L 169.5 429 L 157 420.5 L 141 405.5 L 135.5 397 L 133 393.5 L 132.5 390 Z" /><path desc="l 0 p 77" fill="rgb(80,80,80)" stroke="rgb(80,80,80)" stroke-width="1" opacity="0.00784313725490196" d="M 62.5 395 Q 69 395 72 398.5 Q 75 401.5 74 408.5 Q 72.1 416.2 66.5 420 L 62.5 421 Q 63.4 413.6 60 410.5 L 53.5 403 L 50 401.5 L 57.5 397 L 62.5 395 Z" /><path desc="l 0 p 78" fill="rgb(80,80,80)" stroke="rgb(80,80,80)" stroke-width="1" opacity="0.00784313725490196" d="M 100.5 396 L 113 400.5 L 117.5 402 L 124.5 403 L 132.5 401 L 160 441.5 L 152.5 442 Q 125.9 435.1 112 415.5 L 105 405.5 L 101 399.5 L 100.5 396 Z" /><path desc="l 0 p 79" fill="rgb(80,80,80)" stroke="rgb(80,80,80)" stroke-width="1" opacity="0.00784313725490196" d="M 47.5 405 Q 54.4 406.6 57 412.5 Q 59.3 415.7 58 422.5 L 49.5 433 L 44 431.5 L 37.5 431 L 34.5 432 L 35.5 430 L 55 415.5 L 53.5 412 L 43 409.5 L 47.5 405 Z" /><path desc="l 0 p 80" fill="rgb(80,80,80)" stroke="rgb(80,80,80)" stroke-width="1" opacity="0.00784313725490196" d="M 77.5 410 Q 83.1 410.5 85 414.5 L 86 426.5 L 81.5 432 L 76.5 434 L 69.5 425 L 68 424.5 L 68.5 423 L 74 418.5 L 77.5 410 Z" /><path desc="l 1 p 1" fill="rgb(0,0,0)" stroke="rgb(0,0,0)" stroke-width="1" opacity="0.9450980392156862" d="M 10.5 425 L 14 426.5 L 0.5 441 L 0 435.5 L 3.5 431 L 0 430.5 L 0.5 427 Q 7.5 428 10.5 425 Z" /><path desc="l 0 p 81" fill="rgb(80,80,80)" stroke="rgb(80,80,80)" stroke-width="1" opacity="0.00784313725490196" d="M 90.5 425 L 94.5 430 L 96 430.5 L 95 433.5 Q 101.6 446.9 111.5 457 L 116.5 464 L 120 471.5 Q 125.3 480.2 123 496.5 L 119.5 498 L 116.5 496 L 112.5 495 L 112 497.5 L 118 501.5 Q 123.5 501 125 504.5 L 128.5 510 L 130 513.5 L 131 518.5 Q 130.7 526.3 135 529.5 L 137.5 538 L 138 542.5 L 136.5 547 L 133.5 546 L 128.5 542 L 118 531.5 L 112.5 525 L 109 520.5 L 107.5 515 L 105 515.5 Q 104.1 524.4 109 527.5 L 115 533.5 L 106 540.5 L 105.5 542 L 96.5 534 L 94 537.5 L 119 561.5 L 124 567.5 L 126 571.5 L 118.5 583 L 117 582.5 L 111 570.5 L 93.5 542 L 91 542.5 L 92 546.5 L 94 549.5 L 104 567.5 L 109.5 576 L 113 582.5 L 114 588.5 L 110 596.5 L 112.5 600 L 114 603.5 L 114 609.5 L 113 613.5 L 113 622.5 L 117 628.5 Q 119.7 629.3 119 633.5 L 116 640.5 L 112.5 646 Q 105.9 646.6 103 643.5 L 92.5 637 L 71 620.5 L 66 613.5 L 62 603.5 L 60 597.5 L 58 585.5 L 56 574.5 L 55 565.5 L 54.5 561 L 54 544.5 L 59 541.5 L 61 534.5 Q 60.4 529.9 63 528.5 L 60 519.5 L 58.5 510 L 56.5 509 Q 53.5 510.5 55 516.5 L 58 528.5 L 57 532.5 Q 57.8 538.3 54.5 540 Q 46.4 541.1 44.5 536 L 35 527.5 L 30.5 520 L 27.5 513 L 27 508.5 L 28.5 503 L 29 496.5 L 29 476.5 L 27 470.5 L 30.5 470 L 30 471.5 L 30 487.5 Q 29.1 494.4 32.5 497 Q 35.5 495.5 34 489.5 L 34 471.5 L 33.5 470 Q 46 468.5 51 459.5 L 53.5 455 L 56.5 456 L 64.5 456 L 73 450.5 L 76 445.5 L 77.5 438 Q 84.5 436.5 88 431.5 L 90.5 425 Z" /><path desc="l 0 p 82" fill="rgb(80,80,80)" stroke="rgb(80,80,80)" stroke-width="1" opacity="0.00784313725490196" d="M 60.5 427 Q 69.5 427 72 433.5 L 73 441.5 L 68.5 449 Q 64.7 453.7 54.5 452 L 55 450.5 Q 56.7 440.3 52 436.5 L 60.5 427 Z" /><path desc="l 0 p 83" fill="rgb(80,80,80)" stroke="rgb(80,80,80)" stroke-width="1" opacity="0.00784313725490196" d="M 0.5 431 L 4 431.5 L 0 434.5 L 0.5 431 Z" /><path desc="l 0 p 84" fill="rgb(80,80,80)" stroke="rgb(80,80,80)" stroke-width="1" opacity="0.00784313725490196" d="M 40.5 435 Q 46.3 435.3 49 438.5 Q 52.3 442.2 51 450.5 L 44.5 461 L 36.5 465 L 27.5 466 L 20.5 466 Q 16.8 465.3 16 467.5 L 17.5 470 L 24 470.5 L 23 472.5 Q 26 475.5 25 482.5 L 25 501.5 L 20 521.5 L 13 539.5 Q 12.1 546.1 7.5 549 L 4 548.5 L 1 543.5 L 0 537.5 L 0 525.5 L 0 477.5 Q 4.7 477.7 6 474.5 L 0 470.5 L 0.5 469 L 7.5 468 L 16 465.5 Q 28.6 462.1 37 454.5 L 35.5 452 L 21.5 455 L 21 453.5 L 41 441.5 L 40.5 438 L 35 436.5 L 40.5 435 Z" /><path desc="l 1 p 2" fill="rgb(0,0,0)" stroke="rgb(0,0,0)" stroke-width="1" opacity="0.9450980392156862" d="M 93.5 446 L 97 448.5 L 105 461.5 L 102.5 463 L 95 452.5 Q 91.5 452 92 447.5 L 93.5 446 Z" /><path desc="l 1 p 3" fill="rgb(0,0,0)" stroke="rgb(0,0,0)" stroke-width="1" opacity="0.9450980392156862" d="M 98.5 464 L 107 471.5 L 108 475.5 L 105.5 476 L 100 470.5 L 97 465.5 L 98.5 464 Z" /><path desc="l 1 p 4" fill="rgb(0,0,0)" stroke="rgb(0,0,0)" stroke-width="1" opacity="0.9450980392156862" d="M 0.5 471 L 6 474.5 Q 5.3 477.8 0.5 477 L 0.5 471 Z" /><path desc="l 0 p 85" fill="rgb(80,80,80)" stroke="rgb(80,80,80)" stroke-width="1" opacity="0.00784313725490196" d="M 125.5 473 Q 133 483 145 488.5 L 137 494.5 Q 132.7 498.7 131.5 506 L 130 505.5 L 126 498.5 Q 128.2 497.3 127 492.5 L 127 478.5 L 125.5 473 Z" /><path desc="l 1 p 5" fill="rgb(0,0,0)" stroke="rgb(0,0,0)" stroke-width="1" opacity="0.9450980392156862" d="M 101.5 477 Q 105.5 476.5 106 479.5 L 110 486.5 Q 112.8 487.3 112 491.5 L 109.5 492 L 104 483.5 Q 99.6 482.1 101.5 477 Z" /><path desc="l 1 p 6" fill="rgb(0,0,0)" stroke="rgb(0,0,0)" stroke-width="1" opacity="0.9450980392156862" d="M 37.5 485 L 40 485.5 L 40 498.5 Q 41 503 38.5 504 L 36 502.5 L 35 497.5 Q 37.5 496 36 490.5 Q 35 486 37.5 485 Z" /><path desc="l 1 p 7" fill="rgb(0,0,0)" stroke="rgb(0,0,0)" stroke-width="1" opacity="0.9450980392156862" d="M 104.5 491 L 108 492.5 L 112 501.5 L 108.5 503 L 103 492.5 L 104.5 491 Z" /><path desc="l 1 p 8" fill="rgb(0,0,0)" stroke="rgb(0,0,0)" stroke-width="1" opacity="0.9450980392156862" d="M 42.5 493 L 46 494.5 L 47.5 511 L 48 506.5 L 49.5 503 L 52 504.5 Q 50.7 511.3 53 514.5 L 54 521.5 Q 52 525 50 520.5 L 47.5 512 L 46.5 514 L 43 511.5 L 42.5 493 Z" /><path desc="l 0 p 86" fill="rgb(80,80,80)" stroke="rgb(80,80,80)" stroke-width="1" opacity="0.00784313725490196" d="M 145.5 493 Q 157.4 490.6 161 496.5 L 163 500.5 L 164 506.5 L 163 511.5 Q 164 516 161.5 517 Q 162.5 506 156.5 502 Q 153.3 499.7 146.5 501 L 141 504.5 L 138 510.5 L 141 520.5 L 138 522.5 L 142.5 529 L 144 529.5 L 146 541.5 L 147 552.5 Q 145.5 559.5 149.5 561 L 152 557.5 L 154 551.5 L 157 541.5 L 159.5 535 L 161.5 536 Q 169.1 534.1 173 528.5 L 176 521.5 L 183.5 511 Q 189.7 504.2 200.5 502 L 199 504.5 Q 196.4 505.9 197 510.5 L 199.5 511 L 206.5 502 L 213.5 501 L 220 504.5 L 221.5 508 L 225 512.5 L 223.5 513 Q 221.8 510.2 216.5 511 L 212 512.5 L 206 516.5 L 203 526.5 L 205 533.5 Q 203.2 537.8 201.5 535 L 197 532.5 L 191.5 523 L 189 526.5 L 191 532.5 L 189.5 535 L 186 533.5 L 184.5 531 L 182 532.5 L 184.5 538 L 187 539.5 L 181 548.5 L 173.5 558 L 171 559.5 L 170 561.5 L 173.5 563 Q 181.4 553.4 194.5 549 L 192 552.5 L 189 558.5 Q 190 561 194.5 560 L 206.5 554 L 212 559.5 Q 214.6 560.9 214 565.5 L 221 579.5 Q 219.5 585 222 586.5 L 218.5 593 Q 218.9 584.6 213.5 582 L 205.5 580 Q 198.9 581.4 195.5 586 Q 190.3 584.3 192 575.5 L 198 566.5 L 195.5 565 L 188.5 573 Q 184.9 575.9 177.5 575 L 170 571.5 L 173 567.5 Q 170.5 562.5 168 567.5 L 163.5 573 L 151.5 578 L 143.5 581 L 136.5 585 L 133.5 580 L 130 581.5 L 135 592.5 L 136 600.5 L 132.5 598 L 127.5 597 L 127 599.5 L 135 606.5 L 137 612.5 L 131.5 614 L 124 618.5 L 123 626.5 L 124 628.5 L 121.5 627 L 119 625.5 Q 115.3 621.2 117 611.5 L 118 608.5 L 118 600.5 L 114 595.5 L 124 582.5 L 128.5 575 Q 130.8 573.3 130 568.5 L 124 561.5 L 120 555.5 L 123.5 550 L 129.5 548 L 136.5 553 Q 143 549 142 537.5 L 137.5 526 L 135 519.5 L 134 512.5 L 135.5 506 Q 137.4 497.9 143.5 494 L 145.5 493 Z" /><path desc="l 0 p 87" fill="rgb(80,80,80)" stroke="rgb(80,80,80)" stroke-width="1" opacity="0.00784313725490196" d="M 147.5 505 Q 154.5 503.5 156 507.5 L 157 520.5 Q 154.2 522.2 156 528.5 L 151.5 546 Q 149.3 545.3 150 541.5 Q 151.3 536.7 149 535.5 L 148.5 530 L 147 523.5 L 144.5 517 Q 142.3 514.3 143 508.5 L 147.5 505 Z" /><path desc="l 0 p 88" fill="rgb(80,80,80)" stroke="rgb(80,80,80)" stroke-width="1" opacity="0.00784313725490196" d="M 217.5 515 L 221 516.5 Q 224.6 518.4 224 524.5 Q 221.7 534.2 215.5 540 L 207.5 547 L 196.5 555 L 198 552.5 L 206 541.5 Q 210.7 537.7 211 529.5 L 208 527.5 L 207 524.5 L 211.5 517 L 217.5 515 Z" /><path desc="l 1 p 9" fill="rgb(0,0,0)" stroke="rgb(0,0,0)" stroke-width="1" opacity="0.9450980392156862" d="M 64.5 516 L 66 516.5 L 70 535.5 L 67.5 536 Q 64.3 533.3 64 527.5 L 63 517.5 L 64.5 516 Z" /><path desc="l 0 p 89" fill="rgb(80,80,80)" stroke="rgb(80,80,80)" stroke-width="1" opacity="0.00784313725490196" d="M 25.5 519 Q 30.7 531.3 40.5 539 L 50 545.5 L 50 547.5 Q 48.5 559 51 566.5 L 54 590.5 Q 57.5 599.5 58 611.5 L 59 614.5 Q 61.5 616 60 621.5 Q 52.9 639.4 41.5 653 Q 35.5 654 33.5 651 L 23 641.5 L 16.5 628 Q 13.2 624.8 14 617.5 Q 14.9 610.1 12 606.5 L 10 582.5 L 9.5 576 L 9 553.5 Q 14.7 549.2 17 541.5 L 25.5 519 Z" /><path desc="l 1 p 10" fill="rgb(0,0,0)" stroke="rgb(0,0,0)" stroke-width="1" opacity="0.9450980392156862" d="M 73.5 526 Q 76.8 526.8 76 531.5 L 80 540.5 Q 77.5 545.5 75 540.5 L 73 534.5 L 72 527.5 L 73.5 526 Z" /><path desc="l 1 p 11" fill="rgb(0,0,0)" stroke="rgb(0,0,0)" stroke-width="1" opacity="0.9450980392156862" d="M 80.5 530 L 83 530.5 L 87 540.5 L 84.5 542 Q 79.9 538.6 79 531.5 L 80.5 530 Z" /><path desc="l 1 p 12" fill="rgb(0,0,0)" stroke="rgb(0,0,0)" stroke-width="1" opacity="0.9450980392156862" d="M 91.5 531 Q 93.8 531.8 93 535.5 Q 91 539 89 534.5 L 91.5 531 Z" /><path desc="l 1 p 13" fill="rgb(0,0,0)" stroke="rgb(0,0,0)" stroke-width="1" opacity="0.9450980392156862" d="M 27.5 535 L 31 536.5 L 32 557.5 L 33 567.5 L 36 582.5 L 43 615.5 Q 41 619 39 614.5 L 31 579.5 L 29 569.5 L 28 560.5 L 27.5 554 L 27.5 535 Z" /><path desc="l 0 p 90" fill="rgb(80,80,80)" stroke="rgb(80,80,80)" stroke-width="1" opacity="0.00784313725490196" d="M 193.5 536 L 202 539.5 L 197.5 546 L 193.5 545 L 186.5 548 L 188 545.5 L 193.5 536 Z" /><path desc="l 0 p 91" fill="rgb(80,80,80)" stroke="rgb(80,80,80)" stroke-width="1" opacity="0.00784313725490196" d="M 114.5 538 Q 119 537 120 539.5 L 125 544.5 L 118 549.5 L 116.5 553 L 109 546.5 Q 108.4 541.4 111.5 540 L 114.5 538 Z" /><path desc="l 1 p 14" fill="rgb(0,0,0)" stroke="rgb(0,0,0)" stroke-width="1" opacity="0.9450980392156862" d="M 65.5 543 L 69 544.5 L 70 550.5 L 72.5 560 L 78 575.5 L 86 590.5 Q 96.7 603.8 102 622.5 Q 100 626 98 621.5 L 90 605.5 L 80.5 588 Q 72.8 578.2 69.5 564 L 64 545.5 L 65.5 543 Z" /><path desc="l 0 p 92" fill="rgb(80,80,80)" stroke="rgb(80,80,80)" stroke-width="1" opacity="0.00784313725490196" d="M 0.5 550 L 5 553.5 L 6 589.5 L 7 593.5 L 7.5 600 L 10 622.5 L 0.5 635 L 0.5 550 Z" /><path desc="l 0 p 93" fill="rgb(80,80,80)" stroke="rgb(80,80,80)" stroke-width="1" opacity="0.00784313725490196" d="M 160.5 579 L 162 579.5 L 161 592.5 Q 162.5 598.5 159.5 600 L 150.5 601 L 140 597.5 L 139 589.5 Q 143 584 151 582.5 L 160.5 579 Z" /><path desc="l 0 p 94" fill="rgb(80,80,80)" stroke="rgb(80,80,80)" stroke-width="1" opacity="0.00784313725490196" d="M 206.5 584 Q 212.1 584.5 214 588.5 Q 215 594 211.5 595 Q 204.8 601.8 190.5 601 L 184 597.5 L 190.5 596 Q 196.3 594.8 199 590.5 L 201.5 586 L 206.5 584 Z" /><path desc="l 0 p 95" fill="rgb(80,80,80)" stroke="rgb(80,80,80)" stroke-width="1" opacity="0.00784313725490196" d="M 153.5 616 L 155 616.5 L 150.5 623 L 133.5 630 L 127 625.5 Q 126 620 129.5 619 L 135.5 617 Q 138.5 620 145.5 619 L 153.5 616 Z" /></svg>