<svg width="911" height="2048" version="1.1" xmlns="http://www.w3.org/2000/svg" desc="Created with imagetracer.js version 1.1.2" ><path desc="l 0 p 0" fill="rgb(0,0,0)" stroke="rgb(0,0,0)" stroke-width="1" opacity="0.023529411764705882" d="M 0.5 0 L 911 0.5 L 910.5 296 L 877.5 299 L 865.5 302 L 857 302.5 L 850.5 304 L 838.5 305 Q 828.8 305.3 822 308.5 L 786.5 320 L 764.5 328 L 733 342.5 L 694.5 361 Q 670.8 370.8 652.5 386 Q 634.3 396.8 619 410.5 L 583 442.5 L 571.5 455 L 553 470.5 Q 535 491 523 517.5 L 515 533.5 L 511 543.5 L 510 555.5 L 509 575.5 L 510 580.5 Q 511.5 587.4 516.5 591 Q 520.3 593.7 528.5 592 Q 552.1 572.6 581.5 559 L 600 549.5 Q 605.2 545.7 613.5 545 L 629.5 544 L 646 547.5 Q 659.4 549.6 667 557.5 Q 673.5 565.5 676.5 577 L 680 590.5 Q 682.4 597.6 681 608.5 L 677.5 623 L 673 636.5 L 666 652.5 Q 658.2 675.7 643.5 692 L 612.5 727 Q 600.7 737.7 585.5 745 L 565 755.5 Q 560 759 551.5 759 L 540.5 745 L 520 733.5 L 517 728.5 L 509.5 721 L 499.5 716 Q 496.6 713.4 490.5 714 L 479.5 714 L 472 716.5 L 466.5 718 L 460.5 722 L 458 720.5 L 449.5 711 L 438.5 705 Q 436.2 702.3 430.5 703 L 419.5 703 Q 411.8 705.3 407 710.5 L 405.5 713 L 398 708.5 L 388.5 705 L 382.5 704 L 370.5 704 L 356 709.5 L 348.5 714 Q 343.7 709.3 332.5 711 L 318.5 716 Q 309.9 717.9 305 723.5 L 296.5 737 L 282.5 736 L 272 738.5 L 262.5 742 L 259 743.5 L 253.5 745 Q 237.2 736.3 225.5 723 Q 204.4 706.6 187 686.5 Q 163.5 660 144.5 629 Q 130.1 611.4 122 587.5 L 116 571.5 Q 112 563.5 114 549.5 Q 116.2 537.2 123.5 530 Q 131.9 523.9 147.5 525 L 165.5 529 Q 179 531 188 537.5 Q 200 545 215 549.5 Q 231.4 553.6 244.5 561 L 255 564.5 L 266 566.5 L 273.5 567 L 280 562.5 Q 283 558.5 283 551.5 Q 276.1 527.9 261.5 512 Q 245.4 487.6 225 467.5 L 194.5 436 L 165 411.5 L 137.5 393 L 106.5 374 L 69 354.5 L 46 343.5 Q 38.3 338.3 27.5 336 L 0 326.5 L 0.5 0 Z" /><path desc="l 1 p 0" fill="rgb(0,0,0)" stroke="rgb(0,0,0)" stroke-width="1" opacity="0.9647058823529412" d="M 905.5 296 L 911 296.5 L 910.5 306 L 895.5 307 L 875.5 309 L 851.5 312 L 835.5 314 L 820 317.5 L 787.5 328 L 749.5 344 L 704 365.5 Q 678.5 376 658.5 392 L 625.5 416 L 586 451.5 L 577.5 461 L 558 477.5 Q 539.9 498.9 528 526.5 L 520 543.5 Q 521.3 548.3 519 549.5 L 518 578.5 L 521.5 584 Q 528.9 584.9 530.5 580 L 539.5 574 L 561 560.5 L 581.5 549 L 598.5 541 Q 604.8 537.3 614 536.5 L 632.5 536 L 652.5 541 Q 668.6 543.9 676 555.5 L 686 577.5 L 688.5 591 L 689 611.5 L 687 618.5 Q 686.4 627.9 682.5 634 L 675 652.5 L 667 671.5 L 656.5 689 L 646.5 701 L 640 709.5 L 620.5 731 Q 606.3 744.3 588 753.5 Q 574.2 762.7 556 767.5 L 556.5 783 Q 572.5 784 580.5 793 L 590 801.5 Q 590.5 805.5 595.5 805 L 602 799.5 L 603.5 797 L 609.5 796 L 614.5 792 L 630.5 781 L 644.5 772 L 663.5 757 Q 680 746 692 730.5 Q 707.1 714.1 717 692.5 Q 727.4 677.9 731 656.5 L 732 648.5 L 734.5 634 L 738 632.5 L 745 607.5 L 758 572.5 L 778 527.5 L 789 504.5 Q 793.5 493 801 484.5 L 814.5 462 Q 830.5 435 853.5 415 L 886.5 390 L 910.5 375 L 911 384.5 L 893.5 396 L 870 412.5 L 876.5 427 L 888 430.5 L 899.5 431 L 910.5 426 L 911 434.5 Q 903.1 441.6 885.5 439 L 876.5 436 L 874 442.5 L 869 460.5 L 875.5 465 Q 878.4 468.6 886.5 467 L 894.5 463 L 905 455.5 L 910.5 448 L 911 460.5 Q 901.4 473.9 880.5 476 L 875.5 475 L 874 488.5 L 873 494.5 L 881 501.5 L 884.5 506 Q 888 508.5 895.5 507 Q 904.1 504.6 908 497.5 L 910.5 493 L 911 506.5 Q 906.5 512.5 898.5 515 L 886 516.5 Q 885.2 527.7 880 534.5 L 885.5 537 L 890.5 538 Q 903.3 535.3 910 526.5 L 910.5 525 L 911 536.5 Q 903 546.5 885 546.5 L 885 554.5 L 884 559.5 L 888.5 563 Q 891.7 566.8 900.5 565 L 910 558.5 L 910.5 557 L 911 568.5 Q 907.5 573 900 573.5 L 903.5 578 L 911 583.5 L 910.5 595 L 893.5 582 L 887 593.5 L 877.5 604 L 866 608.5 L 868 612.5 L 874 618.5 L 895.5 642 L 911 652.5 L 910.5 675 L 893.5 655 L 877 636.5 Q 863.5 624.5 854.5 608 L 840.5 604 L 829.5 620 L 817.5 625 L 806.5 627 Q 804.8 624.3 803 628.5 L 802 631.5 L 807.5 640 L 825 655.5 L 828.5 660 L 842 671.5 L 851.5 679 L 868 686.5 Q 882.2 693.3 899.5 697 L 911 700.5 L 910.5 708 Q 871 700.5 841.5 683 L 841 684.5 L 862.5 717 L 868 723.5 L 871 729.5 L 868 733.5 L 911 761.5 L 910.5 771 L 855 736.5 L 854.5 735 L 839.5 733 Q 819.9 731.6 808 722.5 L 782.5 703 L 782 705.5 L 790.5 723 L 798 740.5 L 804 749.5 L 807 756.5 L 803.5 761 L 794.5 761 L 789.5 760 L 778.5 757 L 778 758.5 L 810.5 794 L 832.5 812 Q 841.7 814.8 847 821.5 L 876 837.5 L 895 846.5 L 911 852.5 L 910.5 861 Q 884.7 853.8 864.5 841 L 865 842.5 Q 883 867.5 905.5 888 L 911 892.5 L 911 898.5 Q 911.8 902.3 909.5 903 L 907 904.5 L 910 909.5 L 911 912.5 L 911 921.5 L 903 914.5 L 896.5 906 L 870.5 905 L 859.5 904 Q 847.8 903.7 840.5 899 L 819.5 891 L 819 892.5 Q 828.7 914.2 843 931.5 L 857.5 948 L 883.5 969 Q 895.3 980.2 911 987.5 L 910.5 996 Q 883.8 983.2 863.5 964 L 863 965.5 L 878.5 988 L 884.5 997 Q 888.3 1000.3 887 1008.5 Q 884.9 1012.9 878.5 1013 L 860.5 1014 Q 825 1007.5 802 988.5 L 785.5 975 L 786 976.5 L 804 1001.5 Q 813.5 1011 818 1025.5 L 815.5 1030 L 808.5 1032 L 805.5 1031 L 799.5 1031 L 792 1030.5 L 779.5 1027 Q 753.3 1020.7 734.5 1007 L 734 1008.5 Q 739.2 1011.3 738 1020.5 L 734.5 1025 L 726.5 1028 Q 696.4 1021.1 675.5 1005 L 675 1006.5 Q 689.3 1030.2 707 1050.5 L 738.5 1086 L 759.5 1104 Q 769.4 1114.1 783.5 1120 L 787 1122.5 L 790.5 1124 L 795.5 1125 Q 808.3 1126.3 814 1134.5 L 821 1148.5 L 823 1155.5 L 823 1166.5 L 822 1169.5 L 822 1175.5 L 821 1181.5 L 819 1187.5 L 810.5 1199 L 807 1199.5 L 805 1217.5 L 809.5 1218 Q 821.7 1214.7 828 1205.5 L 835 1189.5 Q 840.8 1175.8 851.5 1167 L 871.5 1153 L 883 1147.5 L 890 1145.5 L 898.5 1145 Q 899.7 1147.3 904.5 1146 L 910.5 1143 L 911 1151.5 L 903 1158.5 Q 897.3 1163.8 894.5 1172 L 890.5 1173 Q 886.8 1171.8 888 1165.5 L 896 1154.5 L 893.5 1153 L 882.5 1157 L 869 1164.5 L 851 1179.5 Q 843.3 1187.8 839.5 1200 Q 835.8 1212.3 826.5 1219 L 818 1223.5 Q 814.4 1226.9 806.5 1226 Q 804.8 1222.3 803 1225.5 L 798.5 1243 L 791 1266.5 L 788.5 1275 L 784.5 1281 Q 779.8 1281.8 779 1278.5 Q 776.5 1273 778 1263.5 L 777.5 1252 L 776.5 1243 L 775.5 1233 L 773.5 1222 Q 773.8 1215.2 770.5 1212 L 761 1205.5 Q 758.3 1203.2 759 1197.5 L 760.5 1195 L 764.5 1194 L 766 1194.5 L 761 1181.5 L 760 1166.5 L 766.5 1158 Q 773.7 1149.7 790.5 1151 Q 800.5 1153 805 1160.5 L 807 1166.5 L 808 1174.5 L 808.5 1188 L 813 1180.5 L 814 1172.5 L 815 1154.5 L 811 1146.5 Q 808.8 1139.8 803.5 1136 L 793.5 1133 L 782.5 1132 L 776 1133.5 L 770 1136.5 L 762 1143.5 L 753.5 1160 Q 750.5 1165.5 750.5 1174 L 750 1185.5 L 751.5 1193 L 754.5 1202 L 759 1211.5 Q 768 1223 766 1245.5 Q 764 1258 755.5 1264 L 750 1262.5 L 747.5 1259 L 742 1255.5 L 736.5 1254 Q 725.6 1255.6 721 1263.5 L 719 1273.5 L 733 1289.5 L 737 1294.5 L 740 1298.5 L 741 1304.5 L 736 1315.5 L 729.5 1325 L 717.5 1341 L 710 1350.5 L 708 1353.5 Q 705.8 1354.8 707 1359.5 Q 716.7 1365.3 715 1382.5 L 712 1396.5 L 711 1408.5 L 713 1415.5 Q 715.7 1424.8 723.5 1429 L 727.5 1430 L 728 1428.5 L 726 1423.5 L 725 1416.5 Q 726.7 1408.7 731.5 1404 Q 739.5 1397 753.5 1396 Q 754.8 1398.3 756 1395.5 Q 756 1384.5 750 1379.5 L 740.5 1370 L 734 1365.5 Q 733.3 1361.8 735.5 1361 L 738.5 1360 L 745 1363.5 L 754.5 1371 L 755 1362.5 L 748 1339.5 L 744 1332.5 Q 741.4 1331.1 742 1326.5 L 746.5 1324 L 750 1326.5 L 755.5 1336 L 771 1325.5 L 779.5 1322 L 790.5 1319 Q 810.6 1314.1 822 1300.5 L 828.5 1292 Q 832.5 1291.5 833 1294.5 Q 833.8 1299.8 831 1301.5 L 829 1306.5 Q 838.3 1313.7 855.5 1313 L 870 1308.5 Q 873.9 1298.9 881.5 1293 L 886.5 1292 Q 889.5 1292.5 889 1296.5 L 880 1307.5 Q 874.5 1313 875 1324.5 L 880.5 1334 L 885.5 1336 Q 892.7 1325.2 910.5 1325 L 911 1332.5 Q 898.7 1333.2 893 1340.5 Q 893.6 1345.6 890.5 1347 L 885.5 1352 Q 879.5 1357 869.5 1358 L 862.5 1360 L 859 1361.5 Q 863.2 1367.3 872 1368.5 L 882.5 1370 L 885.5 1369 L 892 1368.5 L 904.5 1365 L 910.5 1362 L 911 1371.5 L 896.5 1376 L 888 1377.5 L 875.5 1378 L 869 1376.5 Q 857.9 1374.1 852 1366.5 Q 848 1362.5 848 1354.5 Q 848.5 1351.5 852.5 1352 L 861.5 1352 L 870.5 1350 L 881 1344.5 L 870 1334.5 Q 865.9 1329.1 866.5 1319 L 859 1320.5 L 843.5 1321 L 829.5 1316 L 821.5 1313 Q 817.1 1316.1 819 1325.5 L 818 1337.5 Q 815.5 1343 817 1352.5 Q 819.6 1368.6 811.5 1374 L 802.5 1377 Q 796.6 1379.6 786.5 1378 L 763.5 1372 L 761 1381.5 Q 765.3 1388.3 764.5 1400 L 772 1399.5 L 779.5 1398 Q 788 1397 793 1392.5 L 798.5 1389 L 804.5 1386 Q 808.3 1387.3 807 1393.5 L 802 1406.5 Q 799.1 1419.1 789.5 1425 Q 779.3 1431.8 766 1435.5 Q 758 1440 746.5 1441 L 738.5 1438 L 734.5 1439 L 725 1439.5 Q 723.7 1451.2 718.5 1459 Q 716 1468.5 709.5 1474 Q 703.8 1477.3 693.5 1476 Q 669.7 1469.3 653 1455.5 L 631 1439.5 L 607 1419.5 L 597.5 1407 L 596 1412.5 L 594.5 1420 L 590 1431.5 L 578 1451.5 L 567.5 1469 Q 561.4 1481.4 551.5 1490 Q 547.2 1493.7 537.5 1492 Q 526 1489 519.5 1481 L 504 1467.5 L 492.5 1450 L 482.5 1428 Q 463.1 1448.1 448.5 1473 Q 440.9 1488.4 428.5 1499 Q 423.7 1503.7 412.5 1502 L 402 1493.5 L 374 1459.5 Q 361.9 1448.1 357 1429.5 L 354.5 1411 L 353 1413.5 L 352 1418.5 L 346 1436.5 L 334 1464.5 Q 325.2 1491.2 307.5 1509 L 299.5 1512 Q 296.3 1514.3 289.5 1513 Q 282.8 1510.8 279 1505.5 L 261 1477.5 L 256 1466.5 L 252.5 1454 L 252 1442.5 L 252 1412.5 L 252 1405.5 Q 252.8 1401.8 250.5 1401 L 217 1453.5 Q 209.6 1470.1 196.5 1481 L 189.5 1486 Q 184.2 1492.2 170.5 1490 Q 162.8 1487.8 158 1482.5 L 139 1458.5 L 135 1450.5 Q 131.2 1448.2 132 1441.5 L 130.5 1431 L 123.5 1450 Q 118.4 1463.9 108.5 1473 L 102 1475.5 L 96.5 1476 L 90.5 1473 Q 89.2 1470.8 84.5 1472 Q 76.6 1475.6 63.5 1474 L 41 1467.5 Q 20.6 1460.4 9 1444.5 L 3 1433.5 Q -1.4 1428.4 0 1417.5 Q 1 1415 5.5 1416 Q 12 1425.5 24.5 1429 Q 32.7 1433.7 47.5 1432 L 53 1428.5 L 52 1421.5 L 53 1417.5 Q 52.3 1411.8 55 1409.5 L 63 1397.5 Q 43 1387.5 26.5 1374 L 13.5 1365 Q 8.5 1358.5 0 1355.5 L 0.5 1348 L 9 1350.5 L 13 1352.5 L 17.5 1357 L 48.5 1379 L 63.5 1388 Q 68.6 1392.4 77 1393.5 L 91.5 1394 Q 94.4 1391.4 100.5 1392 L 103 1396.5 L 100.5 1400 L 95 1401.5 L 89.5 1402 L 74.5 1402 L 72.5 1401 L 64 1410.5 Q 60 1414 61 1422.5 L 65.5 1423 L 67.5 1422 L 75 1423.5 Q 83.9 1424.6 89 1429.5 L 100 1439.5 L 102.5 1446 L 103 1451.5 Q 101.3 1460.8 96 1466.5 L 102.5 1467 Q 110.7 1460.7 114 1449.5 Q 119.8 1440.3 122.5 1428 L 125 1417.5 L 129 1394.5 Q 127.5 1388 122.5 1385 L 107.5 1377 L 97.5 1370 L 84 1356.5 L 76 1344.5 L 75 1341.5 Q 72.3 1337.7 74 1329.5 L 77.5 1327 L 81 1329.5 L 82.5 1336 L 84 1335.5 L 84.5 1332 L 87 1326.5 L 92 1318.5 L 98 1312.5 Q 100.7 1311.8 100 1307.5 L 93.5 1300 Q 85.1 1292.9 69.5 1293 L 64.5 1299 L 59.5 1300 Q 56.4 1298.6 57 1293.5 Q 60.7 1289.2 59 1279.5 L 60 1262.5 L 62 1239.5 L 64 1235.5 Q 66.5 1234 65 1228.5 L 65 1210.5 Q 60.6 1206.9 60 1199.5 Q 55.5 1188 46.5 1181 Q 41.5 1175 29.5 1176 L 26.5 1177 L 23.5 1176 L 10.5 1183 L 0.5 1189 L 0 1178.5 L 15.5 1170 Q 18.8 1167.3 25.5 1168 L 40.5 1168 Q 47.5 1170 51.5 1175 L 62 1185.5 L 66.5 1193 L 70 1183.5 Q 71.5 1172.5 76.5 1165 L 83 1151.5 L 76.5 1151 L 72.5 1152 L 62.5 1153 L 45.5 1158 L 33.5 1163 L 27 1165.5 L 21.5 1166 L 19 1161.5 L 22.5 1157 Q 40 1140.5 64.5 1131 L 85 1122.5 L 97.5 1118 L 109 1114.5 L 97.5 1111 L 90.5 1110 L 87.5 1111 L 81.5 1111 L 63 1114.5 L 52.5 1117 Q 41.6 1118.6 34.5 1124 Q 15.4 1131.4 0.5 1143 L 0 1133.5 L 13 1125.5 L 30.5 1116 L 48 1109.5 L 62.5 1106 L 79.5 1103 L 98.5 1102 L 116.5 1108 L 133.5 1115 L 142 1110.5 L 154.5 1107 L 168.5 1104 L 194.5 1103 Q 211.7 1105.8 223 1114.5 L 235.5 1121 L 244.5 1123 L 252.5 1124 Q 255.5 1123.5 255 1119.5 Q 255.3 1114.8 258.5 1113 Q 262.3 1112.3 263 1114.5 L 264 1118.5 L 263 1121.5 L 263 1129.5 Q 264.3 1135.8 260.5 1137 Q 255.8 1137.8 255 1134.5 L 253.5 1132 Q 236.9 1132.6 227.5 1126 Q 217.7 1138.7 202 1145.5 L 175 1156.5 L 161.5 1161 Q 149.6 1163.1 141.5 1169 L 120.5 1181 L 98.5 1197 L 93 1192.5 L 93.5 1176 L 94.5 1169 L 99 1151.5 L 90.5 1151 L 90 1152.5 L 91 1154.5 L 85.5 1165 L 79 1181.5 L 76 1192.5 L 74 1205.5 L 73.5 1210 L 73 1229.5 L 74.5 1230 Q 93.6 1212.6 117.5 1200 Q 134 1186.5 155.5 1178 L 203.5 1156 L 226.5 1150 L 251 1145.5 L 266.5 1143 Q 279.1 1140.6 285 1131.5 Q 289 1127.5 289 1119.5 L 285.5 1115 L 258.5 1102 Q 243.3 1096.2 231.5 1087 Q 222.1 1083.4 217 1075.5 L 215.5 1073 L 201.5 1074 L 196.5 1073 L 186.5 1072 L 172.5 1068 L 140 1055.5 Q 124.6 1049.4 114 1038.5 L 112 1033.5 L 113.5 1031 L 116.5 1030 Q 127.6 1041.4 143.5 1048 L 175.5 1060 L 191.5 1064 L 199.5 1065 L 214.5 1065 L 216.5 1064 L 224 1069.5 L 227.5 1075 Q 249 1090.5 275.5 1101 L 286.5 1106 Q 292.6 1107.4 295 1112.5 Q 298.1 1116.9 297 1125.5 Q 293.3 1137.3 284.5 1144 Q 277.2 1149.7 266.5 1152 L 254 1153.5 Q 229.4 1155.9 210 1163.5 L 218.5 1164 Q 219.8 1161.7 224.5 1163 L 238 1162.5 L 259.5 1162 L 324.5 1162 L 328.5 1163 L 338 1163.5 L 351.5 1164 L 346.5 1158 L 331 1145.5 Q 330.3 1141.8 332.5 1141 L 337.5 1140 L 347.5 1140 L 376 1136.5 L 374.5 1134 L 365 1127.5 L 366.5 1123 L 383.5 1121 Q 394.7 1120.7 402 1116.5 L 401.5 1115 L 387.5 1109 L 381 1104.5 Q 380 1100 382.5 1099 L 409 1098.5 L 414.5 1098 L 428.5 1096 L 444 1092.5 L 449 1090.5 L 437 1081.5 L 436 1076.5 Q 437 1073 442.5 1074 L 460 1072.5 Q 473.7 1071.7 483.5 1067 L 504 1058.5 L 491.5 1058 L 483.5 1057 Q 476.8 1056.8 473 1053.5 L 472 1049.5 Q 473.6 1045.1 480.5 1046 L 492 1042.5 Q 503.8 1039.8 511 1032.5 L 531 1019.5 L 513.5 1016 Q 503.8 1017.8 501 1012.5 Q 501.5 1007 505.5 1005 Q 537.2 987.2 563 963.5 Q 557 959.5 546.5 960 L 534.5 959 Q 533.2 961.3 528.5 960 L 515.5 962 L 500.5 966 L 495 962.5 L 496 957.5 L 499 950.5 L 513 927.5 L 539 891.5 L 536.5 891 L 483.5 914 L 472.5 919 Q 471.8 922.7 466.5 922 Q 463 921 464 915.5 L 475.5 890 L 480 873.5 L 482 864.5 L 483 856.5 L 474.5 864 L 467 870.5 L 466.5 872 L 450 881.5 L 436 888.5 L 423.5 893 L 416.5 894 Q 413 893 414 887.5 L 416.5 881 L 418 875.5 L 419 864.5 L 420 844.5 L 422 826.5 L 407.5 840 L 390.5 852 L 377 863.5 L 376.5 865 L 371.5 866 Q 368 865 369 859.5 Q 371.8 855.3 371.5 848 L 372 831.5 L 369 833.5 L 356.5 847 L 337 863.5 L 325.5 872 L 322 869.5 L 321.5 852 L 320 836.5 L 320 827.5 Q 321 823 318.5 822 L 285.5 856 Q 274.3 862.8 266 872.5 L 261.5 879 Q 256.8 879.8 256 876.5 L 257 868.5 L 258 860.5 L 258 844.5 L 256.5 844 L 234.5 879 Q 229 880 228 876.5 Q 227.3 870.8 230 868.5 L 232 845.5 L 230.5 841 L 228 842.5 Q 213.1 866.6 191.5 884 L 187.5 885 L 184 882.5 L 183 875.5 L 182.5 860 L 166 878.5 Q 158 885 154 895.5 L 150 902.5 L 145.5 909 L 140.5 911 L 138 909.5 L 137 902.5 L 136.5 889 L 112.5 915 L 89 935.5 L 72 956.5 L 66 965.5 Q 62.3 972.8 64 985.5 Q 65.1 992.9 70.5 996 L 74.5 998 Q 77.7 1000.3 84.5 999 L 94 991.5 L 101.5 980 L 105.5 979 Q 108.8 979.8 108 984.5 L 99.5 998 Q 93.9 1000.4 94 1008.5 L 95.5 1011 L 104.5 1014 L 109.5 1015 L 119.5 1015 Q 136.9 1007.9 147 993.5 L 174.5 965 Q 185 956.5 198.5 951 Q 207.1 946.5 219.5 946 L 238.5 945 L 241.5 946 L 247 948.5 Q 248 953 245.5 954 L 228.5 953 Q 227.3 955.3 222.5 954 Q 217.8 953.3 216 955.5 Q 227 965.5 227 986.5 L 226 991.5 L 219 1005.5 L 207.5 1018 L 192 1024.5 L 183 1026.5 L 168.5 1027 Q 150.4 1023.6 140.5 1012 Q 129.6 1023.6 108.5 1025 L 99.5 1023 Q 86.9 1020.1 78 1013.5 L 68 1006.5 Q 65.1 1002.9 57.5 1004 L 50 1010.5 Q 43.9 1016.4 44 1028.5 L 45 1031.5 L 46 1034.5 L 50.5 1040 L 59 1046.5 Q 60 1051 57.5 1052 Q 51.7 1052.8 50 1049.5 L 41 1042.5 L 37.5 1038 L 19 1044.5 L 0.5 1053 L 0 1043.5 L 23.5 1034 L 34 1029.5 L 37 1016.5 Q 41.6 1006.1 49.5 999 L 58 995.5 L 56.5 989 Q 53.8 983.8 55 974.5 L 56 972.5 Q 54.3 969.3 52.5 973 L 29.5 985 L 0.5 997 L 0 988.5 Q 34.7 976.2 62 956.5 Q 77.3 932.8 98.5 915 L 116 900.5 L 129 884.5 L 127.5 884 Q 115.5 895 91.5 894 L 85 888.5 L 84 884.5 L 93 867.5 L 88.5 867 L 68 873.5 Q 61.5 874 59 878.5 L 42.5 910 Q 36.1 924.1 25.5 934 L 10.5 944 L 0.5 951 L 0 940.5 L 9.5 934 Q 19.1 930.1 25 922.5 Q 34.7 910.2 41 894.5 Q 46.7 888.7 49 879.5 L 41.5 879 Q 34.2 879.8 32 875.5 L 31 869.5 L 45 851.5 L 42.5 851 L 27.5 857 L 16.5 861 L 0.5 865 L 0 857.5 L 2.5 856 L 11.5 854 L 34 845.5 Q 46.2 842.7 53 834.5 L 75 801.5 L 64.5 799 Q 54.9 798.6 51 792.5 L 50 789.5 Q 51.7 782.3 58 779.5 Q 57.3 777.3 53.5 778 L 36.5 776 L 22 797.5 Q 13.2 813.2 0.5 825 L 0 811.5 L 6 806.5 L 18 788.5 L 22.5 781 L 26 773.5 L 7 767.5 L 0 764.5 L 0.5 743 L 6 738.5 L 0 737.5 L 0.5 730 L 8.5 729 Q 20 728 27 722.5 L 39.5 714 Q 72.1 696.1 97 670.5 L 74.5 632 L 71.5 633 L 68.5 636 L 56.5 646 Q 43.1 658.6 26 667.5 L 0.5 683 L 0 674.5 L 26 657.5 Q 49.7 643.7 68 624.5 L 67 620.5 L 63 615.5 Q 53.4 597.1 39.5 583 L 30.5 588 L 25 590.5 L 20.5 594 L 10.5 603 L 0.5 610 L 0 600.5 L 16 587.5 L 15.5 585 L 10.5 582 Q 7 585.5 0.5 586 L 0 578.5 L 5 575.5 L 1.5 571 Q -1.1 568.6 0 562.5 L 0 544.5 L 5 541.5 Q -2.7 536.7 0 521.5 L 1 521.5 Q 7.1 532.9 16.5 541 L 49 581.5 Q 61.7 594.8 71 611.5 L 88 638.5 L 116 684.5 L 139 716.5 L 158.5 738 L 179.5 755 L 200.5 770 L 211 777.5 L 222.5 784 L 240.5 792 Q 245.3 786.8 246 777.5 Q 242.1 774.9 243 767.5 L 249 752.5 Q 234 744 222.5 732 L 182 693.5 Q 157.2 665.7 137 633.5 L 125 613.5 Q 114.6 596.9 109 575.5 L 106.5 568 L 106 562.5 L 106 547.5 L 107 542.5 L 111.5 533 L 117.5 524 Q 128.3 514.3 151.5 517 L 165.5 520 L 176.5 523 L 193.5 531 Q 205 538 219.5 542 L 247 552.5 L 259.5 557 Q 264.3 559.3 272.5 558 Q 274.9 555.9 274 550.5 L 267 537.5 L 256 519.5 L 233 488.5 L 187.5 441 L 160.5 419 L 133.5 400 L 80.5 369 L 48.5 354 Q 38.7 347.3 25.5 344 L 0 334.5 L 0.5 327 L 23.5 334 L 46 343.5 L 69 354.5 L 93 366.5 L 112.5 378 L 139 393.5 Q 176.1 416.9 206 447.5 L 247 492.5 L 267.5 520 Q 278.7 533.8 283 554.5 L 281.5 559 L 277.5 565 Q 274.2 568.2 266.5 567 Q 265.3 564.8 260.5 566 L 251.5 563 L 239.5 559 Q 229.3 552.7 215.5 550 L 193.5 540 Q 172 526 137.5 525 L 131.5 527 Q 123.1 527.6 120 533.5 L 116 544.5 Q 113.4 547.4 114 553.5 L 114 565.5 L 124 592.5 Q 130 609.5 140 622.5 Q 171.1 674.4 214.5 714 L 234 731.5 L 245 739.5 L 251.5 744 L 256.5 745 Q 269.2 735.7 291.5 736 L 296.5 737 L 305.5 723 Q 312.9 716.4 324 713.5 L 332 711.5 L 342.5 711 L 349.5 714 Q 355 708.5 363.5 706 Q 371.8 702.3 385.5 704 L 391.5 706 L 405.5 713 L 409.5 708 Q 417 700.5 434.5 703 Q 449.3 708.2 458 719.5 L 458.5 721 L 461.5 722 L 469.5 717 L 477.5 715 L 482.5 714 L 494.5 714 Q 510.5 718.5 519 730.5 L 522.5 736 Q 535.5 739 543 747.5 L 551.5 759 L 556 758.5 L 563.5 756 L 573.5 752 L 596.5 738 Q 610.5 731 620 719.5 Q 635.8 704.3 648 685.5 Q 656.3 676.8 661 664.5 L 672 637.5 L 678 621.5 L 680.5 609 L 681 594.5 L 678 580.5 L 672 566.5 Q 669.9 559.1 664.5 555 L 653 549.5 L 639.5 546 L 630 544.5 L 617.5 544 Q 616.3 546.3 611.5 545 L 599.5 550 L 585.5 557 L 550.5 576 L 535.5 587 L 531 590.5 Q 527.4 593.9 518.5 592 L 513 587.5 Q 508.3 580.2 509 567.5 L 510 563.5 L 510 553.5 L 510.5 546 L 514 536.5 L 522.5 518 Q 535.6 489.6 555.5 468 L 583 443.5 L 584.5 441 L 618.5 411 Q 654.3 379.8 699.5 358 L 733 342.5 L 764 328.5 L 786.5 320 L 819.5 309 L 834 305.5 L 847.5 304 L 874.5 300 L 884 298.5 L 895.5 298 L 905.5 296 Z" /><path desc="l 0 p 1" fill="rgb(0,0,0)" stroke="rgb(0,0,0)" stroke-width="1" opacity="0.023529411764705882" d="M 900.5 306 L 911 306.5 L 911 357.5 L 911 370.5 Q 912 375 909.5 376 L 890.5 387 L 871 401.5 Q 850.8 415.3 835 433.5 L 816.5 459 L 801 483.5 L 792 498.5 L 780.5 523 L 770 546.5 L 766 554.5 L 761 567.5 L 753.5 585 L 745.5 607 L 741 622.5 Q 740.5 630 736.5 634 L 734 634.5 L 731 653.5 Q 730 668 724.5 678 L 711 703.5 Q 694.6 731.6 670.5 752 L 636 777.5 L 615.5 792 L 605.5 797 L 602 798.5 L 598.5 803 L 593.5 805 L 579.5 792 Q 571.1 783.9 556 782.5 L 556.5 767 Q 596.2 754.2 623 728.5 L 640 709.5 L 646 701.5 L 656.5 689 Q 666.6 676.1 672.5 659 L 679.5 642 L 686 625.5 L 688.5 612 L 689 591.5 L 686 579.5 Q 683.7 568.3 678 560.5 Q 675.3 551.2 667.5 547 Q 647.7 534.8 614.5 536 Q 598.7 538.7 587.5 546 L 551.5 566 L 533 578.5 L 528 582.5 Q 526.3 584.8 521.5 584 Q 517 581.5 518 573.5 L 518 558.5 L 519 553.5 L 520 543.5 L 527 527.5 L 538 506.5 L 549 489.5 L 561.5 474 L 586 452.5 L 591.5 446 L 625 416.5 L 657.5 392 L 679 378.5 Q 690 370.5 704 365.5 L 749.5 344 L 787.5 328 L 814 319.5 L 829.5 315 L 850.5 312 L 884.5 308 L 894.5 307 Q 899.3 308.3 900.5 306 Z" /><path desc="l 0 p 2" fill="rgb(0,0,0)" stroke="rgb(0,0,0)" stroke-width="1" opacity="0.023529411764705882" d="M 0.5 335 L 22.5 343 Q 36.5 346.5 47.5 353 L 79.5 369 Q 96.8 376.2 111 386.5 L 138 403.5 Q 173.3 425.2 201 454.5 L 237.5 494 L 255 517.5 L 263.5 531 L 270 542.5 L 273.5 550 L 274 555.5 L 272.5 558 Q 262.6 559.4 257.5 556 L 253.5 555 L 243.5 551 L 218 541.5 L 193.5 531 Q 181.7 522.8 164.5 520 L 154.5 518 L 147.5 517 L 133.5 517 Q 121 519.5 114 527.5 L 109 538.5 L 107 544.5 L 106 552.5 L 106 567.5 L 117 598.5 L 121 607.5 L 130 621.5 Q 161.9 677.1 207.5 719 L 225 734.5 L 249 752.5 L 245 762.5 Q 242.3 765.8 243 772.5 L 245 776.5 L 246 780.5 L 240.5 792 L 223 784.5 Q 211.1 779.9 203 771.5 Q 170.6 751.4 145 724.5 L 123.5 695 Q 104.6 669.9 89.5 641 L 72 613.5 Q 65.8 600.8 56.5 591 L 34 562.5 L 8.5 532 L 1.5 523 L 0 518.5 L 0 509.5 L 0 474.5 L 0.5 335 Z" /><path desc="l 0 p 3" fill="rgb(0,0,0)" stroke="rgb(0,0,0)" stroke-width="1" opacity="0.023529411764705882" d="M 909.5 385 L 911 385.5 L 910.5 426 L 901.5 430 L 896.5 431 L 888.5 431 L 883.5 430 L 875 425.5 Q 874.5 417 870 412.5 L 909.5 385 Z" /><path desc="l 0 p 4" fill="rgb(0,0,0)" stroke="rgb(0,0,0)" stroke-width="1" opacity="0.023529411764705882" d="M 862.5 419 L 866 421.5 Q 868.8 427.8 867 438.5 Q 864.6 453.6 856.5 463 L 845.5 477 L 833 483.5 L 825 485.5 L 813.5 486 L 811 484.5 Q 826.8 452.8 850.5 429 L 862.5 419 Z" /><path desc="l 0 p 5" fill="rgb(0,0,0)" stroke="rgb(0,0,0)" stroke-width="1" opacity="0.023529411764705882" d="M 910.5 435 L 911 447.5 L 902.5 458 L 895.5 463 L 888.5 466 Q 885.3 468.3 878.5 467 L 869 460.5 L 874 443.5 L 875 439.5 L 876.5 436 Q 885.5 441 901.5 439 L 910.5 435 Z" /><path desc="l 0 p 6" fill="rgb(0,0,0)" stroke="rgb(0,0,0)" stroke-width="1" opacity="0.023529411764705882" d="M 910.5 461 L 911 492.5 L 900.5 505 Q 895.8 508.3 886.5 507 L 881 502.5 L 876.5 497 L 873 494.5 L 874 489.5 L 875.5 475 L 882.5 476 L 893 473.5 Q 904.1 469.6 910.5 461 Z" /><path desc="l 0 p 7" fill="rgb(0,0,0)" stroke="rgb(0,0,0)" stroke-width="1" opacity="0.023529411764705882" d="M 862.5 469 L 864 469.5 L 866.5 478 L 867 483.5 Q 863 503.5 849.5 514 Q 845.3 518.3 835.5 517 L 832 514.5 L 830 503.5 L 826 494.5 L 837.5 491 Q 847.8 486.8 855 479.5 L 862.5 469 Z" /><path desc="l 0 p 8" fill="rgb(0,0,0)" stroke="rgb(0,0,0)" stroke-width="1" opacity="0.023529411764705882" d="M 806.5 492 L 816 495.5 L 820.5 502 Q 824.4 506.6 823 516.5 Q 817.3 530.8 806.5 540 L 797.5 545 L 789 547.5 L 781.5 548 L 779 546.5 L 794 514.5 Q 798.1 501.1 806.5 492 Z" /><path desc="l 0 p 9" fill="rgb(0,0,0)" stroke="rgb(0,0,0)" stroke-width="1" opacity="0.023529411764705882" d="M 868.5 503 L 871.5 504 L 875 507.5 Q 878.7 511.8 877 521.5 Q 873.3 533.8 864.5 541 Q 859.1 545.6 849.5 546 L 847 544.5 L 845 535.5 L 842 526.5 L 848.5 524 Q 856.3 520.8 861 514.5 L 868.5 503 Z" /><path desc="l 0 p 10" fill="rgb(0,0,0)" stroke="rgb(0,0,0)" stroke-width="1" opacity="0.023529411764705882" d="M 910.5 507 L 911 524.5 L 906.5 530 L 898.5 535 L 893.5 537 L 889.5 538 L 886.5 537 Q 881.4 537.6 880 534.5 L 884 525.5 L 886.5 516 Q 903.8 516.8 910.5 507 Z" /><path desc="l 0 p 11" fill="rgb(0,0,0)" stroke="rgb(0,0,0)" stroke-width="1" opacity="0.023529411764705882" d="M 828.5 524 L 833 527.5 Q 837.8 535.2 839 546.5 L 837 552.5 L 835 558.5 L 831 564.5 L 821.5 575 Q 818 578.5 811.5 579 L 805.5 580 L 802 578.5 L 802 570.5 L 801 565.5 L 796 555.5 L 807 549.5 L 818 540.5 L 828.5 524 Z" /><path desc="l 0 p 12" fill="rgb(0,0,0)" stroke="rgb(0,0,0)" stroke-width="1" opacity="0.023529411764705882" d="M 0.5 535 L 5 541.5 L 0.5 544 L 0.5 535 Z" /><path desc="l 0 p 13" fill="rgb(0,0,0)" stroke="rgb(0,0,0)" stroke-width="1" opacity="0.023529411764705882" d="M 910.5 537 L 911 556.5 L 906.5 562 Q 902 566.5 891.5 565 L 884 559.5 L 885.5 546 Q 893 547.5 896.5 545 L 902.5 543 L 910.5 537 Z" /><path desc="l 0 p 14" fill="rgb(0,0,0)" stroke="rgb(0,0,0)" stroke-width="1" opacity="0.023529411764705882" d="M 873.5 544 L 876 545.5 L 877 554.5 Q 874.4 565.4 866.5 571 Q 860.2 577.2 845.5 575 L 841.5 574 Q 836.8 574.8 836 571.5 Q 841 567.5 843 560.5 L 846.5 554 Q 857.3 555.3 862.5 551 L 866.5 549 L 873.5 544 Z" /><path desc="l 0 p 15" fill="rgb(0,0,0)" stroke="rgb(0,0,0)" stroke-width="1" opacity="0.023529411764705882" d="M 10.5 549 L 17 554.5 L 34 577.5 L 28 579.5 L 22.5 580 L 15 574.5 L 9.5 567 Q 4.5 563.5 5 554.5 L 7.5 551 L 10.5 549 Z" /><path desc="l 0 p 16" fill="rgb(0,0,0)" stroke="rgb(0,0,0)" stroke-width="1" opacity="0.023529411764705882" d="M 774.5 556 L 779.5 557 L 783.5 558 L 791 562.5 L 793.5 571 L 794 578.5 Q 788.3 597.8 773.5 608 L 766.5 610 L 754.5 610 L 754 607.5 L 774.5 556 Z" /><path desc="l 0 p 17" fill="rgb(0,0,0)" stroke="rgb(0,0,0)" stroke-width="1" opacity="0.023529411764705882" d="M 0.5 569 L 5 575.5 L 0.5 578 L 0.5 569 Z" /><path desc="l 0 p 18" fill="rgb(0,0,0)" stroke="rgb(0,0,0)" stroke-width="1" opacity="0.023529411764705882" d="M 879.5 569 L 882 569.5 Q 885.9 572.1 885 579.5 Q 880.6 591.1 871.5 598 Q 867.5 601 859.5 600 L 855.5 599 L 849.5 598 L 843 595.5 L 843.5 583 L 856.5 583 Q 862.3 583.8 865 581.5 L 877 572.5 L 879.5 569 Z" /><path desc="l 0 p 19" fill="rgb(0,0,0)" stroke="rgb(0,0,0)" stroke-width="1" opacity="0.023529411764705882" d="M 910.5 569 L 911 582.5 L 909.5 582 L 900 574.5 L 900.5 573 Q 907.5 573 910.5 569 Z" /><path desc="l 0 p 20" fill="rgb(0,0,0)" stroke="rgb(0,0,0)" stroke-width="1" opacity="0.023529411764705882" d="M 829.5 579 L 833 580.5 Q 836.2 583.8 835 591.5 Q 832.4 605.9 823.5 614 L 815.5 617 L 806.5 618 L 805 610.5 Q 802.4 600.6 796 594.5 L 800.5 587 Q 804 589.5 811.5 588 Q 823.2 586.2 829.5 579 Z" /><path desc="l 0 p 21" fill="rgb(0,0,0)" stroke="rgb(0,0,0)" stroke-width="1" opacity="0.023529411764705882" d="M 10.5 582 L 16 585.5 L 14.5 589 L 0.5 600 L 0 586.5 L 10.5 582 Z" /><path desc="l 0 p 22" fill="rgb(0,0,0)" stroke="rgb(0,0,0)" stroke-width="1" opacity="0.023529411764705882" d="M 893.5 582 L 911 595.5 L 910.5 652 Q 895.5 644 885 631.5 L 870 614.5 L 867 611.5 L 866 608.5 Q 878.9 605.9 885 596.5 L 893.5 582 Z" /><path desc="l 0 p 23" fill="rgb(0,0,0)" stroke="rgb(0,0,0)" stroke-width="1" opacity="0.023529411764705882" d="M 39.5 583 Q 53 597 63 614.5 L 67 620.5 L 68 624.5 Q 49.7 643.7 26 657.5 L 0.5 674 L 0 610.5 Q 11.9 604.4 20 594.5 L 29.5 588 L 39.5 583 Z" /><path desc="l 0 p 24" fill="rgb(0,0,0)" stroke="rgb(0,0,0)" stroke-width="1" opacity="0.023529411764705882" d="M 790.5 603 L 794 605.5 Q 798.5 611 797 622.5 Q 793.8 633.3 786.5 640 L 773.5 648 L 760.5 652 Q 754.2 654.8 743.5 653 L 742 649.5 L 747.5 631 L 749 625.5 L 751.5 619 L 763.5 619 Q 774 619.5 778.5 614 L 790.5 603 Z" /><path desc="l 0 p 25" fill="rgb(0,0,0)" stroke="rgb(0,0,0)" stroke-width="1" opacity="0.023529411764705882" d="M 840.5 604 L 855 608.5 Q 863.1 623.9 875.5 635 L 895 656.5 L 906.5 671 Q 912.5 672.5 911 681.5 L 911 699.5 L 909.5 700 Q 886.5 695 867.5 686 Q 851.7 681.8 842 671.5 L 825 656.5 L 816.5 647 L 805 637.5 L 802 631.5 L 805.5 626 L 810.5 627 L 822 623.5 Q 829.4 621.9 833 616.5 L 840.5 604 Z" /><path desc="l 0 p 26" fill="rgb(0,0,0)" stroke="rgb(0,0,0)" stroke-width="1" opacity="0.023529411764705882" d="M 72.5 632 L 75 632.5 L 97 670.5 Q 82.8 685.3 65.5 697 L 40.5 714 L 29 721.5 Q 21.2 727.7 8.5 729 L 0.5 730 L 0 683.5 L 32.5 664 L 49.5 652 L 72.5 632 Z" /><path desc="l 0 p 27" fill="rgb(0,0,0)" stroke="rgb(0,0,0)" stroke-width="1" opacity="0.023529411764705882" d="M 796.5 642 L 799.5 643 L 802.5 646 L 816 659.5 L 832 685.5 L 858 724.5 Q 857.3 726.8 853.5 726 L 844.5 726 L 829.5 723 Q 814.3 718.7 804 709.5 Q 787.9 698.1 775 683.5 L 768 673.5 L 762 660.5 Q 783.7 655.7 796.5 642 Z" /><path desc="l 0 p 28" fill="rgb(0,0,0)" stroke="rgb(0,0,0)" stroke-width="1" opacity="0.023529411764705882" d="M 739.5 661 Q 748.8 659.8 754 662.5 L 755 666.5 L 759 674.5 Q 764.7 680.3 767 689.5 L 771 698.5 L 783 726.5 Q 787.3 740.7 795 751.5 L 789.5 752 Q 755.8 741.2 735 717.5 L 728 708.5 L 725.5 705 L 724 699.5 L 733.5 681 Q 738 672.5 739.5 661 Z" /><path desc="l 0 p 29" fill="rgb(0,0,0)" stroke="rgb(0,0,0)" stroke-width="1" opacity="0.023529411764705882" d="M 100.5 679 L 104 680.5 L 131 720.5 L 87 755.5 L 72 766.5 L 67.5 769 L 63.5 770 L 53.5 770 L 49.5 769 L 39.5 768 L 24.5 764 L 10.5 760 L 1 755.5 L 6.5 749 L 18.5 739 L 47.5 719 Q 77.2 702.2 100.5 679 Z" /><path desc="l 0 p 30" fill="rgb(0,0,0)" stroke="rgb(0,0,0)" stroke-width="1" opacity="0.023529411764705882" d="M 840.5 682 Q 852.1 690.9 868 695.5 L 889.5 703 L 911 708.5 L 910.5 761 L 868 733.5 L 871 727.5 L 858 710.5 L 846 692.5 L 840.5 682 Z" /><path desc="l 0 p 31" fill="rgb(0,0,0)" stroke="rgb(0,0,0)" stroke-width="1" opacity="0.023529411764705882" d="M 782.5 703 L 808 722.5 Q 819.7 731.3 838.5 733 L 847.5 734 Q 852.9 733.1 855 735.5 L 856.5 738 Q 866.3 741.3 873 747.5 L 911 771.5 L 910.5 852 Q 891 847 876 837.5 L 861 829.5 L 845 819.5 Q 841.6 814.9 835 813.5 L 819 801.5 L 798 781.5 L 778 757.5 L 779.5 757 L 788.5 760 Q 794 762.5 803.5 761 L 807 755.5 Q 795.4 738.6 788 717.5 L 783.5 708 L 782.5 703 Z" /><path desc="l 0 p 32" fill="rgb(0,0,0)" stroke="rgb(0,0,0)" stroke-width="1" opacity="0.023529411764705882" d="M 422.5 711 Q 431.5 709.5 436 712.5 L 444 717.5 L 443.5 719 Q 433.3 720.8 428 727.5 L 425.5 731 Q 416.6 728.9 412 722.5 Q 411.1 715.6 415.5 714 L 422.5 711 Z" /><path desc="l 0 p 33" fill="rgb(0,0,0)" stroke="rgb(0,0,0)" stroke-width="1" opacity="0.023529411764705882" d="M 717.5 711 L 719 711.5 L 728 723.5 Q 739 737.5 746 755.5 L 759 785.5 L 753.5 786 Q 739.2 782.2 729.5 774 Q 707 763.5 689 748.5 L 703 731.5 Q 711.9 722.9 717.5 711 Z" /><path desc="l 0 p 34" fill="rgb(0,0,0)" stroke="rgb(0,0,0)" stroke-width="1" opacity="0.023529411764705882" d="M 374.5 712 Q 392.4 711.1 400 720.5 L 399.5 722 L 390.5 723 L 385.5 725 L 373.5 730 L 369.5 725 L 359 718.5 L 360.5 716 L 374.5 712 Z" /><path desc="l 0 p 35" fill="rgb(0,0,0)" stroke="rgb(0,0,0)" stroke-width="1" opacity="0.023529411764705882" d="M 335.5 719 Q 340.3 717.7 341.5 720 L 351.5 724 L 366 733.5 L 367 736.5 L 361.5 737 Q 360.2 734.8 355.5 736 L 340.5 736 L 328 739.5 Q 316.2 743.2 310 752.5 L 304.5 763 Q 302 757.5 303 748.5 L 305 741.5 Q 306.9 732.9 312.5 728 Q 322.1 721.6 335.5 719 Z" /><path desc="l 0 p 36" fill="rgb(0,0,0)" stroke="rgb(0,0,0)" stroke-width="1" opacity="0.023529411764705882" d="M 482.5 722 Q 493.7 720.8 499.5 725 L 509 731.5 L 511 735.5 Q 497.6 737.6 491.5 747 L 485.5 738 L 471 726.5 L 471.5 725 L 482.5 722 Z" /><path desc="l 0 p 37" fill="rgb(0,0,0)" stroke="rgb(0,0,0)" stroke-width="1" opacity="0.023529411764705882" d="M 444.5 727 L 455.5 729 L 465.5 733 L 481 745.5 Q 484.7 749.8 485 757.5 L 478.5 759 Q 470.4 759.9 465.5 764 L 462.5 767 L 459.5 768 Q 454.3 762.3 446 759.5 Q 444.1 749.4 438 743.5 L 434.5 740 Q 432.3 739.3 433 735.5 L 436.5 731 L 444.5 727 Z" /><path desc="l 0 p 38" fill="rgb(0,0,0)" stroke="rgb(0,0,0)" stroke-width="1" opacity="0.023529411764705882" d="M 135.5 728 Q 139.5 727.5 140 730.5 L 150.5 742 L 168 756.5 L 166.5 759 L 136 782.5 Q 129.8 789.3 119.5 792 L 111 794.5 L 105.5 795 L 87.5 795 L 83.5 794 L 68.5 792 L 61 789.5 L 69.5 780 L 135.5 728 Z" /><path desc="l 0 p 39" fill="rgb(0,0,0)" stroke="rgb(0,0,0)" stroke-width="1" opacity="0.023529411764705882" d="M 397.5 730 L 403.5 731 Q 411.2 731.3 415 735.5 Q 427.1 740.9 434 751.5 L 436 756.5 L 432.5 757 L 428.5 756 L 417.5 756 L 408.5 758 Q 400.8 759.9 397 765.5 L 396.5 767 L 389 763.5 Q 386.2 750.3 377.5 743 L 376 742.5 L 377 739.5 L 380.5 736 L 391.5 731 Q 396.2 732.2 397.5 730 Z" /><path desc="l 0 p 40" fill="rgb(0,0,0)" stroke="rgb(0,0,0)" stroke-width="1" opacity="0.023529411764705882" d="M 0.5 738 L 6 738.5 L 0.5 743 L 0.5 738 Z" /><path desc="l 0 p 41" fill="rgb(0,0,0)" stroke="rgb(0,0,0)" stroke-width="1" opacity="0.023529411764705882" d="M 749.5 742 L 763 749.5 Q 764.3 756.7 769 760.5 L 779 772.5 L 803.5 799 L 847 834.5 L 873 865.5 L 897.5 892 L 902 895.5 L 901.5 897 L 876.5 897 L 863.5 896 Q 850.7 895.8 842.5 891 L 831.5 887 Q 806.4 876.6 787 860.5 L 768 842.5 Q 764.8 836.7 758 834.5 L 724 801.5 Q 720.6 786.4 713 775.5 L 714.5 775 L 734 786.5 Q 739.4 791.1 748 792.5 L 755 794.5 L 762.5 795 L 768 791.5 L 769 787.5 L 754 752.5 L 750.5 746 L 749.5 742 Z" /><path desc="l 0 p 42" fill="rgb(0,0,0)" stroke="rgb(0,0,0)" stroke-width="1" opacity="0.023529411764705882" d="M 342.5 744 Q 366.5 741.5 376 753.5 L 379 761.5 L 364.5 763 Q 353.3 765.8 347 773.5 Q 341.3 779.8 338.5 789 L 330 785.5 L 325 782.5 Q 322.6 773.9 315.5 770 L 312 767.5 Q 315.4 755.9 324.5 750 L 331.5 747 L 342.5 744 Z" /><path desc="l 0 p 43" fill="rgb(0,0,0)" stroke="rgb(0,0,0)" stroke-width="1" opacity="0.023529411764705882" d="M 510.5 744 Q 522.6 742.4 528.5 747 L 538 754.5 L 544 763.5 L 547 768.5 L 548 777.5 L 546 784.5 Q 544.4 796.4 536.5 802 L 532.5 803 L 529 800.5 L 528.5 790 Q 528.5 784 525.5 781 L 516.5 770 Q 508.7 761.8 496 758.5 L 498.5 752 L 503.5 747 L 510.5 744 Z" /><path desc="l 0 p 44" fill="rgb(0,0,0)" stroke="rgb(0,0,0)" stroke-width="1" opacity="0.023529411764705882" d="M 278.5 745 L 295 745.5 L 294.5 763 Q 287.8 760.7 277.5 762 L 270.5 764 L 262.5 766 L 252.5 771 L 252 767.5 Q 254.3 757.8 260.5 752 L 268 748.5 L 278.5 745 Z" /><path desc="l 0 p 45" fill="rgb(0,0,0)" stroke="rgb(0,0,0)" stroke-width="1" opacity="0.023529411764705882" d="M 680.5 755 L 683.5 756 L 687.5 759 L 697 767.5 L 705 778.5 Q 711.5 786.5 714 798.5 L 718 813.5 Q 717.3 815.8 713.5 815 L 709.5 814 L 704.5 813 L 697.5 810 Q 686.3 806.2 678.5 799 Q 663.8 790.2 652 778.5 L 653.5 776 L 669.5 764 L 680.5 755 Z" /><path desc="l 0 p 46" fill="rgb(0,0,0)" stroke="rgb(0,0,0)" stroke-width="1" opacity="0.023529411764705882" d="M 174.5 763 L 177.5 764 L 182.5 768 L 199 779.5 L 191.5 788 L 166 806.5 Q 158.3 813.3 145.5 815 L 129.5 816 L 124.5 815 Q 117.2 815.8 114 812.5 L 116.5 809 L 174.5 763 Z" /><path desc="l 0 p 47" fill="rgb(0,0,0)" stroke="rgb(0,0,0)" stroke-width="1" opacity="0.023529411764705882" d="M 421.5 764 Q 425.3 766.7 433.5 765 Q 436.4 767.6 442.5 767 L 456 775.5 L 461 782.5 L 463 789.5 L 459.5 790 Q 457.7 787.3 451.5 789 L 438.5 794 L 428 799.5 L 425.5 806 L 424 802.5 L 423 796.5 Q 417.3 781.7 405.5 773 L 404 772.5 Q 403.5 768.5 406.5 768 L 421.5 764 Z" /><path desc="l 0 p 48" fill="rgb(0,0,0)" stroke="rgb(0,0,0)" stroke-width="1" opacity="0.023529411764705882" d="M 0.5 765 L 26 773.5 Q 16.4 794.9 1.5 811 L 0 810.5 L 0.5 765 Z" /><path desc="l 0 p 49" fill="rgb(0,0,0)" stroke="rgb(0,0,0)" stroke-width="1" opacity="0.023529411764705882" d="M 479.5 767 L 492.5 768 L 494.5 767 Q 508.9 771.6 517 782.5 L 520 790.5 L 521 797.5 L 517.5 799 L 510.5 799 Q 497.5 799.5 490.5 806 L 472 791.5 Q 471.8 780.2 466 774.5 Q 470.9 768.9 479.5 767 Z" /><path desc="l 0 p 50" fill="rgb(0,0,0)" stroke="rgb(0,0,0)" stroke-width="1" opacity="0.023529411764705882" d="M 281.5 770 L 290.5 771 L 301.5 773 Q 310.4 775.1 315 781.5 L 306.5 783 L 298.5 787 Q 288.4 790.9 283 799.5 L 278.5 807 Q 272.7 798.3 260.5 796 L 251.5 795 Q 250.3 797.3 249 794.5 Q 251.9 782.9 259.5 776 L 274.5 771 Q 280 772.5 281.5 770 Z" /><path desc="l 0 p 51" fill="rgb(0,0,0)" stroke="rgb(0,0,0)" stroke-width="1" opacity="0.023529411764705882" d="M 374.5 770 Q 398.6 772.4 409 788.5 L 413 795.5 L 415 799.5 L 416 807.5 L 414.5 807 L 409.5 805 L 398.5 804 L 384.5 808 L 384 806.5 L 385 801.5 L 382.5 798 Q 377 797 376 800.5 Q 374.8 815.3 366.5 823 L 360.5 808 Q 356.7 799.8 349.5 795 L 346 792.5 Q 349.4 781.4 357.5 775 Q 362 771.5 369.5 771 L 374.5 770 Z" /><path desc="l 0 p 52" fill="rgb(0,0,0)" stroke="rgb(0,0,0)" stroke-width="1" opacity="0.023529411764705882" d="M 36.5 776 L 53.5 778 Q 57.3 777.3 58 779.5 L 53 784.5 L 50 790.5 L 54.5 796 L 65.5 800 L 75 801.5 L 60 823.5 L 48.5 839 L 35.5 845 L 25.5 849 L 0.5 857 L 0 825.5 Q 12.8 813.8 21.5 798 L 36.5 776 Z" /><path desc="l 0 p 53" fill="rgb(0,0,0)" stroke="rgb(0,0,0)" stroke-width="1" opacity="0.023529411764705882" d="M 643.5 784 Q 650.7 785.8 654 791.5 L 673 806.5 L 676 819.5 Q 678.4 826.6 677 837.5 L 675.5 842 L 667.5 841 L 662.5 840 L 656.5 838 Q 643.1 835.4 635 827.5 L 617 810.5 L 615 805.5 L 643.5 784 Z" /><path desc="l 0 p 54" fill="rgb(0,0,0)" stroke="rgb(0,0,0)" stroke-width="1" opacity="0.023529411764705882" d="M 206.5 785 Q 216.8 792.2 230 796.5 L 229.5 798 Q 222.4 798.4 219.5 803 L 209 813.5 L 205.5 820 L 188 827.5 L 175.5 831 L 164.5 832 L 154 829.5 L 155.5 827 L 185 803.5 L 206.5 785 Z" /><path desc="l 0 p 55" fill="rgb(0,0,0)" stroke="rgb(0,0,0)" stroke-width="1" opacity="0.023529411764705882" d="M 308.5 791 Q 320 789.5 326.5 793 Q 342.4 797.1 351 808.5 Q 358 817.5 359 832.5 Q 346.3 846.3 330.5 857 L 329 840.5 L 328.5 835 L 328 813.5 L 331 799.5 L 329.5 797 L 325.5 796 L 323 797.5 L 320.5 805 L 313.5 815 L 302.5 826 Q 299.7 821.8 293.5 821 Q 287.5 822.5 286 819.5 L 285 814.5 L 293.5 800 L 308.5 791 Z" /><path desc="l 0 p 56" fill="rgb(0,0,0)" stroke="rgb(0,0,0)" stroke-width="1" opacity="0.023529411764705882" d="M 555.5 792 Q 564.7 790.8 568.5 795 L 575.5 799 L 589 812.5 Q 593.1 817 592 826.5 L 591 831.5 L 587 838.5 Q 583.3 847.3 575.5 852 L 573.5 853 L 565 850.5 L 557.5 850 L 554.5 851 L 554 838.5 Q 554.8 831.2 551.5 828 Q 548.1 816.9 541 809.5 Q 549 803 553.5 793 L 555.5 792 Z" /><path desc="l 0 p 57" fill="rgb(0,0,0)" stroke="rgb(0,0,0)" stroke-width="1" opacity="0.023529411764705882" d="M 449.5 798 L 458.5 798 L 463.5 799 Q 471.1 799.9 475 804.5 L 487 814.5 Q 491.4 818.1 492 825.5 L 487.5 835 L 480.5 834 L 466.5 834 Q 456.8 837.3 451.5 845 Q 448.8 843.8 451 842.5 Q 450.8 824.2 439.5 817 L 434 813.5 L 437 806.5 L 440.5 802 L 449.5 798 Z" /><path desc="l 0 p 58" fill="rgb(0,0,0)" stroke="rgb(0,0,0)" stroke-width="1" opacity="0.023529411764705882" d="M 84.5 803 L 93.5 803 L 98.5 804 L 101.5 803 L 108.5 803 L 109 804.5 L 103 809.5 L 102 812.5 L 104.5 817 L 117.5 823 Q 123.5 821.5 125 824.5 Q 116.8 839.8 104.5 851 Q 96.8 858.8 82.5 860 L 57.5 868 L 48.5 870 L 41.5 871 L 41 869.5 Q 52.3 859.3 59 844.5 L 62 836.5 L 67 828.5 L 84.5 803 Z" /><path desc="l 0 p 59" fill="rgb(0,0,0)" stroke="rgb(0,0,0)" stroke-width="1" opacity="0.023529411764705882" d="M 245.5 804 Q 260.2 801.8 267 807.5 L 276 816.5 L 277 820.5 L 267.5 825 L 267 819.5 L 265.5 814 L 262.5 813 L 259 815.5 L 257 824.5 Q 255.6 833.1 250.5 838 L 240.5 852 L 240 833.5 L 241 830.5 L 241 824.5 L 236.5 822 L 231 826.5 L 214.5 847 Q 212.1 844.9 213 839.5 L 213 824.5 L 217 817.5 L 224.5 809 Q 226.4 805.4 232.5 806 L 240.5 805 L 245.5 804 Z" /><path desc="l 0 p 60" fill="rgb(0,0,0)" stroke="rgb(0,0,0)" stroke-width="1" opacity="0.023529411764705882" d="M 509.5 807 L 516.5 807 L 520.5 808 L 524.5 809 Q 532.8 810.2 536 816.5 L 544 830.5 Q 547.5 837 546 848.5 Q 543 861.5 533.5 868 L 531 866.5 Q 526.8 853.7 516.5 847 L 500 838.5 L 501 826.5 L 497 811.5 L 509.5 807 Z" /><path desc="l 0 p 61" fill="rgb(0,0,0)" stroke="rgb(0,0,0)" stroke-width="1" opacity="0.023529411764705882" d="M 605.5 810 L 608 811.5 L 614.5 820 L 626.5 832 L 645 844.5 L 648.5 852 L 652 863.5 L 653 873.5 L 644.5 874 L 641 872.5 Q 640.3 858.2 630.5 853 L 614.5 845 L 611.5 844 Q 607.5 844.5 607 841.5 L 599 833.5 L 600 817.5 L 599 813.5 L 605.5 810 Z" /><path desc="l 0 p 62" fill="rgb(0,0,0)" stroke="rgb(0,0,0)" stroke-width="1" opacity="0.023529411764705882" d="M 395.5 813 Q 410.5 811 416 818.5 L 401.5 834 L 380.5 848 L 380 835.5 L 381 830.5 L 382 822.5 Q 381.3 818.8 383.5 818 L 395.5 813 Z" /><path desc="l 0 p 63" fill="rgb(0,0,0)" stroke="rgb(0,0,0)" stroke-width="1" opacity="0.023529411764705882" d="M 683.5 813 L 698 819.5 L 707.5 822 L 720.5 825 L 725 822.5 L 726.5 817 L 763 850.5 L 795 889.5 L 804.5 901 L 813 914.5 Q 811.8 917.3 806.5 916 L 802.5 915 Q 796.3 916.7 794.5 914 Q 782.2 913.8 773.5 910 L 756 903.5 Q 734.5 898 721 884.5 L 689 853.5 L 685.5 849 Q 682.5 847.5 684 841.5 L 685 837.5 L 686 829.5 L 683.5 813 Z" /><path desc="l 0 p 64" fill="rgb(0,0,0)" stroke="rgb(0,0,0)" stroke-width="1" opacity="0.023529411764705882" d="M 318.5 822 Q 320.8 822.8 320 826.5 L 320 837.5 L 321 845.5 L 322 860.5 L 322 866.5 Q 321.3 870.3 323.5 871 L 326.5 872 L 350.5 852 L 369 834.5 L 371.5 831 L 372 847.5 L 369 863.5 Q 369.8 866.8 374.5 866 L 377 864.5 L 384.5 856 L 403.5 843 L 421.5 826 L 422 828.5 L 421 832.5 L 420 844.5 L 419 864.5 L 418 871.5 L 416 881.5 L 414 891.5 Q 415.3 895.3 421.5 894 L 432.5 890 L 451.5 881 L 467 871.5 L 473.5 864 L 482.5 856 L 483 861.5 L 479 876.5 L 476 889.5 L 471 901.5 L 466 911.5 Q 463.3 913.8 464 919.5 Q 464.8 922.8 469.5 922 L 474.5 918 L 477.5 917 L 487 912.5 Q 511 900 538.5 891 L 539 892.5 L 524 912.5 L 513.5 927 L 499 950.5 L 496 956.5 L 495 962.5 L 500.5 966 L 514.5 962 L 528.5 960 L 538.5 959 Q 540 961.5 545.5 960 L 553 960.5 L 559.5 962 L 563 963.5 Q 545.5 980.5 524 993.5 L 502 1008.5 L 501 1012.5 Q 503.8 1017.8 513.5 1016 L 531 1019.5 L 511.5 1032 Q 504.2 1039.7 492 1042.5 L 481 1045.5 Q 474.3 1045.3 472 1049.5 L 474.5 1055 L 482.5 1057 L 491.5 1058 L 504 1058.5 L 484.5 1067 Q 474 1071.5 460 1072.5 L 443.5 1074 Q 437.3 1072.8 436 1076.5 Q 435.4 1081.6 438.5 1083 L 449 1090.5 L 444 1092.5 L 429.5 1096 L 414.5 1098 L 402.5 1099 L 387.5 1099 Q 382.3 1097.8 381 1100.5 Q 380 1107 384.5 1108 L 402 1115.5 L 401.5 1117 L 387.5 1121 L 378.5 1122 Q 369.6 1120.1 366 1123.5 L 365 1127.5 L 376 1135.5 L 375.5 1137 L 342.5 1140 Q 333.8 1138.3 331 1142.5 Q 330.3 1148.3 334.5 1149 L 352 1163.5 L 338.5 1164 L 334.5 1163 L 325 1162.5 L 303.5 1162 L 238.5 1162 Q 236.8 1164.7 230.5 1163 L 210.5 1164 L 210.5 1163 L 228.5 1158 L 243.5 1155 L 253.5 1154 L 267.5 1151 Q 282.3 1148.3 290 1138.5 Q 297.6 1132.1 297 1117.5 Q 295.2 1110.3 289.5 1107 Q 254.8 1094.2 227 1074.5 L 219.5 1065 L 215.5 1064 Q 214.3 1066.2 209.5 1065 L 195.5 1065 L 174.5 1060 L 157.5 1054 L 141.5 1047 L 126 1037.5 L 115.5 1030 L 113 1031.5 L 112 1034.5 L 116.5 1041 Q 128.3 1051.7 145 1057.5 L 172 1067.5 Q 178.7 1071.3 188.5 1072 L 208.5 1074 Q 210 1071.5 215.5 1073 L 225.5 1084 Q 244.2 1096.8 266.5 1106 L 276.5 1111 Q 284.1 1112.5 288 1117.5 L 289 1123.5 Q 285.8 1132.8 278.5 1138 Q 269.3 1144.3 254.5 1145 L 241.5 1147 L 224.5 1151 L 218.5 1152 L 208.5 1155 L 194.5 1160 L 171.5 1171 L 145.5 1183 Q 132 1188.5 121.5 1197 Q 95.6 1211.6 73.5 1230 L 73 1210.5 L 74 1205.5 L 75 1197.5 L 78 1185.5 L 80 1178.5 L 83.5 1169 L 91 1153.5 L 90 1151.5 L 98.5 1151 L 99 1152.5 Q 91.7 1168.2 93 1192.5 L 99.5 1197 L 110 1188.5 L 133 1173.5 Q 150.1 1162.1 173.5 1157 L 202 1145.5 Q 217.7 1138.7 227.5 1126 L 233 1128.5 L 245.5 1132 L 251.5 1132 L 255 1133.5 L 257.5 1137 Q 262.3 1137.8 263 1134.5 L 263 1123.5 L 264 1116.5 L 261.5 1113 Q 256.8 1112.3 256 1115.5 L 255 1119.5 Q 255.5 1123.5 252.5 1124 L 244.5 1123 L 239.5 1122 L 232.5 1119 L 219.5 1112 L 204.5 1105 L 195 1103.5 L 177.5 1103 L 172.5 1104 L 161.5 1105 Q 144.4 1107.9 131.5 1115 L 121 1109.5 L 108.5 1105 L 99 1102.5 L 84.5 1102 L 68.5 1105 L 55.5 1108 L 41.5 1111 L 30 1116.5 L 0.5 1133 L 0 1053.5 L 19 1044.5 L 37.5 1038 L 44.5 1046 L 51.5 1050 Q 52.5 1053 57.5 1052 Q 60 1051 59 1046.5 L 47 1036.5 L 45 1031.5 L 44 1022.5 Q 46.8 1010.8 55.5 1005 L 63.5 1004 L 79.5 1014 Q 91.9 1024.1 113.5 1025 Q 115.8 1022.3 121.5 1023 L 141.5 1012 Q 153 1028.5 182.5 1027 L 190.5 1025 L 204.5 1019 Q 211.4 1017.4 214 1011.5 L 222 1000.5 Q 225.5 997 226 990.5 L 227 980.5 L 225.5 973 Q 223.1 961.9 216 955.5 Q 217.8 953.3 222.5 954 L 234.5 953 L 237.5 954 L 245.5 954 Q 248 953 247 948.5 Q 239.5 943 224.5 945 L 221.5 946 L 215 946.5 Q 203.6 947.6 196 952.5 Q 182.3 957.8 172.5 967 L 147 992.5 L 132.5 1008 L 124.5 1013 Q 118.4 1016.9 106.5 1015 L 95 1010.5 L 94 1004.5 L 102.5 994 L 106.5 987 L 108 981.5 Q 107.5 978.5 103.5 979 L 100 981.5 Q 95.9 990.9 88.5 997 Q 84.8 1000.3 76.5 999 Q 69.8 996.8 66 991.5 Q 62.3 984.3 64 971.5 L 69 961.5 L 77 949.5 L 91.5 933 L 129 898.5 L 136.5 889 L 137 902.5 Q 136.1 907.9 138.5 910 L 140.5 911 Q 146.3 909.8 149 905.5 Q 154.4 889.4 165.5 879 L 182.5 860 L 183 874.5 Q 181.8 881.8 185.5 884 L 189.5 885 L 216 859.5 L 229.5 841 L 231 841.5 L 232 853.5 L 228 876.5 Q 229 880 234.5 879 L 256.5 844 L 258 844.5 L 258 860.5 L 257 867.5 L 256 876.5 Q 256.8 879.8 261.5 879 L 274.5 864 Q 293.8 851.3 308 833.5 L 318.5 822 Z" /><path desc="l 0 p 65" fill="rgb(0,0,0)" stroke="rgb(0,0,0)" stroke-width="1" opacity="0.023529411764705882" d="M 431.5 823 L 438 826.5 L 441 833.5 L 442 840.5 Q 440.8 843.3 439.5 841 L 429.5 842 L 429 831.5 L 431.5 823 Z" /><path desc="l 0 p 66" fill="rgb(0,0,0)" stroke="rgb(0,0,0)" stroke-width="1" opacity="0.023529411764705882" d="M 133.5 824 L 144 824.5 L 139 828.5 Q 138 834 141.5 835 L 165 840.5 L 158.5 849 L 145 861.5 L 144.5 863 Q 138.8 862.3 138 866.5 L 133.5 875 L 127.5 874 L 116.5 881 Q 108.3 886.3 94.5 886 L 94 882.5 L 100 871.5 L 110.5 856 L 118 849.5 L 127 836.5 L 133.5 824 Z" /><path desc="l 0 p 67" fill="rgb(0,0,0)" stroke="rgb(0,0,0)" stroke-width="1" opacity="0.023529411764705882" d="M 280.5 829 Q 291.5 827 296 831.5 L 295 834.5 L 291.5 838 L 278.5 851 L 270.5 857 L 266.5 859 L 266 840.5 L 268.5 836 L 272 833.5 L 273.5 831 L 280.5 829 Z" /><path desc="l 0 p 68" fill="rgb(0,0,0)" stroke="rgb(0,0,0)" stroke-width="1" opacity="0.023529411764705882" d="M 201.5 831 L 204 831.5 L 205 844.5 Q 205 851.5 208 855.5 L 193.5 871 L 191.5 872 L 191 863.5 L 194 848.5 L 195 841.5 Q 194 838 188.5 839 L 161 871.5 L 146.5 890 L 146 872.5 L 148.5 868 L 151.5 867 L 154.5 864 L 167 852.5 L 176.5 839 L 181 838.5 L 188.5 836 L 201.5 831 Z" /><path desc="l 0 p 69" fill="rgb(0,0,0)" stroke="rgb(0,0,0)" stroke-width="1" opacity="0.023529411764705882" d="M 864.5 841 L 883 850.5 L 895 855.5 L 911 861.5 L 910.5 892 L 886 868.5 L 870 849.5 L 864.5 841 Z" /><path desc="l 0 p 70" fill="rgb(0,0,0)" stroke="rgb(0,0,0)" stroke-width="1" opacity="0.023529411764705882" d="M 469.5 842 L 478.5 842 Q 482.3 841.3 483 843.5 L 471.5 855 L 464.5 860 L 461 854.5 Q 458.3 853.8 459 849.5 Q 462.3 843.8 469.5 842 Z" /><path desc="l 0 p 71" fill="rgb(0,0,0)" stroke="rgb(0,0,0)" stroke-width="1" opacity="0.023529411764705882" d="M 495.5 845 L 506 850.5 L 511.5 854 L 519 861.5 L 523.5 870 L 526 877.5 L 527 885.5 L 478.5 907 L 478 905.5 Q 485.4 892.9 488 875.5 L 492 857.5 L 495.5 845 Z" /><path desc="l 0 p 72" fill="rgb(0,0,0)" stroke="rgb(0,0,0)" stroke-width="1" opacity="0.023529411764705882" d="M 656.5 848 L 662 848.5 L 668.5 850 Q 674.9 849.6 677 853.5 L 693 871.5 L 702 884.5 L 722.5 910 Q 731.1 915.9 736 925.5 L 728.5 927 L 716.5 927 L 683.5 915 Q 659.1 909.9 647 892.5 L 642 886.5 L 640 881.5 L 641.5 881 L 651.5 883 L 654.5 882 Q 659.6 882.6 661 879.5 L 662 873.5 L 660 862.5 Q 659.2 853.4 656.5 848 Z" /><path desc="l 0 p 73" fill="rgb(0,0,0)" stroke="rgb(0,0,0)" stroke-width="1" opacity="0.023529411764705882" d="M 432.5 850 Q 450.1 849.9 456 861.5 L 458 866.5 Q 444.8 877.8 425.5 883 L 425 878.5 L 426 875.5 L 427 866.5 L 428.5 851 L 432.5 850 Z" /><path desc="l 0 p 74" fill="rgb(0,0,0)" stroke="rgb(0,0,0)" stroke-width="1" opacity="0.023529411764705882" d="M 42.5 851 L 45 851.5 L 36.5 861 L 32 867.5 L 31 873.5 L 33.5 877 L 40.5 879 L 49 879.5 L 43.5 891 L 34.5 907 Q 29 919.5 19.5 928 L 0.5 940 L 0 865.5 L 16.5 861 L 27.5 857 L 42.5 851 Z" /><path desc="l 0 p 75" fill="rgb(0,0,0)" stroke="rgb(0,0,0)" stroke-width="1" opacity="0.023529411764705882" d="M 592.5 851 L 606 851.5 L 616 854.5 Q 625.5 858 631 865.5 Q 633.5 869 632 876.5 Q 627.8 890.2 617.5 898 L 603.5 908 L 599.5 910 L 592.5 912 L 592 909.5 L 596 901.5 L 597.5 894 L 598 885.5 Q 593.9 868.1 583 857.5 L 592.5 851 Z" /><path desc="l 0 p 76" fill="rgb(0,0,0)" stroke="rgb(0,0,0)" stroke-width="1" opacity="0.023529411764705882" d="M 556.5 859 Q 566.8 857.2 571 861.5 Q 577.6 863.4 581 868.5 L 587 878.5 L 589 885.5 L 589 896.5 Q 585.3 908.8 576.5 916 L 567.5 921 L 566 909.5 Q 563.2 900.3 556.5 895 L 551 891.5 L 559 881.5 L 557.5 878 L 550.5 877 L 535.5 883 L 535 878.5 L 537.5 875 L 547 866.5 L 550.5 861 Q 555.1 861.6 556.5 859 Z" /><path desc="l 0 p 77" fill="rgb(0,0,0)" stroke="rgb(0,0,0)" stroke-width="1" opacity="0.023529411764705882" d="M 88.5 867 L 93 867.5 L 84 885.5 L 89.5 893 L 94.5 894 L 104.5 894 Q 119.7 891.2 129.5 883 L 129 884.5 L 113.5 903 Q 92.8 918.3 76 937.5 L 61.5 957 Q 34.7 976.2 0.5 988 L 0 951.5 Q 5.7 944.7 14.5 941 Q 24.4 936.4 31 928.5 L 42.5 910 L 53 890.5 L 57.5 882 L 62.5 875 L 88.5 867 Z" /><path desc="l 0 p 78" fill="rgb(0,0,0)" stroke="rgb(0,0,0)" stroke-width="1" opacity="0.023529411764705882" d="M 799.5 880 Q 805.3 881.3 808 885.5 Q 807.3 891.2 810 893.5 L 807 891.5 L 801.5 884 L 799.5 880 Z" /><path desc="l 0 p 79" fill="rgb(0,0,0)" stroke="rgb(0,0,0)" stroke-width="1" opacity="0.023529411764705882" d="M 819.5 891 L 840.5 899 L 855.5 904 L 868.5 905 L 889 905.5 L 893.5 906 Q 899.3 905.3 900 909.5 L 907.5 919 Q 912 920 911 926.5 L 911 938.5 L 911 986.5 L 909.5 986 L 898.5 980 L 883.5 969 L 854 944.5 L 842.5 930 L 828 909.5 L 821.5 897 L 819.5 891 Z" /><path desc="l 0 p 80" fill="rgb(0,0,0)" stroke="rgb(0,0,0)" stroke-width="1" opacity="0.023529411764705882" d="M 724.5 898 L 732 903.5 L 734 908.5 L 726 901.5 L 724.5 898 Z" /><path desc="l 0 p 81" fill="rgb(0,0,0)" stroke="rgb(0,0,0)" stroke-width="1" opacity="0.023529411764705882" d="M 543.5 900 L 550.5 901 L 555 905.5 Q 559.9 912 558 925.5 L 557 928.5 Q 556.8 933.3 553.5 935 L 548.5 941 L 540 946.5 L 537.5 951 L 524.5 952 L 507.5 955 L 507 953.5 Q 522.7 924.2 543.5 900 Z" /><path desc="l 0 p 82" fill="rgb(0,0,0)" stroke="rgb(0,0,0)" stroke-width="1" opacity="0.023529411764705882" d="M 626.5 901 Q 635.5 899.5 638 904.5 Q 644 911.5 642 926.5 Q 640.1 935.1 634.5 940 L 628.5 944 L 627 940.5 L 626.5 936 Q 624.7 924.8 617.5 919 L 610 914.5 L 626.5 901 Z" /><path desc="l 0 p 83" fill="rgb(0,0,0)" stroke="rgb(0,0,0)" stroke-width="1" opacity="0.023529411764705882" d="M 910.5 902 L 911 909.5 L 909 908.5 L 907 904.5 L 910.5 902 Z" /><path desc="l 1 p 1" fill="rgb(0,0,0)" stroke="rgb(0,0,0)" stroke-width="1" opacity="0.9647058823529412" d="M 422.5 907 Q 427.8 905.8 429 908.5 L 430 911.5 L 410 935.5 Q 406.9 943.9 400.5 949 Q 395.8 949.8 395 946.5 Q 400.1 932.1 410 922.5 Q 408.8 919.8 407.5 922 L 389 924.5 L 363.5 925 L 360 922.5 Q 359 918 361.5 917 L 377.5 916 L 382.5 917 Q 383.8 914.7 388.5 916 L 397.5 915 L 405 913.5 Q 416.2 912.7 422.5 907 Z" /><path desc="l 0 p 84" fill="rgb(0,0,0)" stroke="rgb(0,0,0)" stroke-width="1" opacity="0.023529411764705882" d="M 649.5 907 L 663 918.5 L 675 941.5 L 684.5 956 L 699.5 974 L 712 987.5 Q 717.7 989.8 718 997.5 L 725.5 1010 L 729 1017.5 Q 727.8 1020.3 722.5 1019 Q 683.8 1006.8 660 979.5 L 652.5 967 L 650.5 961 Q 648.3 953.2 642.5 949 L 640 947.5 L 647.5 935 L 650.5 924 L 651 916.5 L 649.5 911 L 649.5 907 Z" /><path desc="l 0 p 85" fill="rgb(0,0,0)" stroke="rgb(0,0,0)" stroke-width="1" opacity="0.023529411764705882" d="M 745.5 909 L 770.5 917 Q 774.1 920.4 781 920.5 L 796.5 923 L 814.5 924 L 821 919.5 L 822.5 917 L 838 937.5 Q 845.5 946 849.5 958 Q 858.2 975.8 870 990.5 L 876 998.5 Q 878.6 999.9 878 1004.5 L 865.5 1006 Q 863.7 1003.2 857.5 1005 L 847 1002.5 L 832 996.5 Q 817.5 991 807 981.5 L 776 954.5 Q 762.2 940.8 752 923.5 L 747 914.5 Q 744 912.7 745.5 909 Z" /><path desc="l 1 p 2" fill="rgb(0,0,0)" stroke="rgb(0,0,0)" stroke-width="1" opacity="0.9647058823529412" d="M 326.5 915 Q 331.8 913.8 333 916.5 L 334 919.5 Q 324.2 932.2 319.5 950 L 317 958.5 L 315 968.5 L 313.5 982 L 309.5 983 Q 304 980 306 969.5 L 308 958.5 L 312 947.5 L 318 929.5 L 316.5 929 L 304.5 934 L 292.5 937 L 278.5 939 L 274 936.5 L 273 934.5 L 275.5 931 L 282.5 930 L 290.5 929 L 302.5 926 L 315.5 921 L 326.5 915 Z" /><path desc="l 0 p 86" fill="rgb(0,0,0)" stroke="rgb(0,0,0)" stroke-width="1" opacity="0.023529411764705882" d="M 589.5 920 Q 607.3 918.3 614 927.5 Q 619.7 933.3 619 945.5 Q 615.7 963.2 604.5 973 L 592.5 977 L 592 970.5 L 593 967.5 L 592 962.5 L 587 952.5 Q 583.3 943.7 575.5 939 L 565 932.5 L 589.5 920 Z" /><path desc="l 0 p 87" fill="rgb(0,0,0)" stroke="rgb(0,0,0)" stroke-width="1" opacity="0.023529411764705882" d="M 674.5 922 Q 680.6 921.4 683.5 924 L 703.5 931 L 716.5 935 L 727.5 936 L 738.5 934 Q 744.6 934.6 746.5 931 L 753.5 942 L 755 946.5 L 760 953.5 L 774.5 975 L 795.5 1004 L 808 1022.5 L 795.5 1023 Q 779.4 1020.1 766.5 1014 Q 750.3 1009.3 739 999.5 Q 722.1 987.9 709 972.5 L 693.5 954 Q 681.3 939.8 674.5 922 Z" /><path desc="l 0 p 88" fill="rgb(0,0,0)" stroke="rgb(0,0,0)" stroke-width="1" opacity="0.023529411764705882" d="M 559.5 942 Q 567.5 941 570 945.5 L 579 954.5 L 582.5 961 Q 585.4 965.2 584 973.5 Q 581 991.5 568.5 1000 L 562.5 1003 L 552 999.5 L 538.5 999 L 529.5 1001 L 531.5 998 L 560 977.5 Q 566.3 969.8 576 965.5 L 577 959.5 Q 574 955 566.5 955 L 549 951.5 L 549.5 950 L 559.5 942 Z" /><path desc="l 0 p 89" fill="rgb(0,0,0)" stroke="rgb(0,0,0)" stroke-width="1" opacity="0.023529411764705882" d="M 626.5 952 Q 636.7 952.8 641 959.5 L 645 972.5 L 646 977.5 Q 643.5 979 645 984.5 Q 643.6 994.6 636.5 999 L 630 1002.5 Q 628.3 1004.8 623.5 1004 Q 619.2 994.3 611.5 988 L 604 983.5 L 604.5 982 L 609.5 979 L 616 972.5 L 623.5 959 L 626.5 952 Z" /><path desc="l 0 p 90" fill="rgb(0,0,0)" stroke="rgb(0,0,0)" stroke-width="1" opacity="0.023529411764705882" d="M 203.5 958 L 210 961.5 Q 220 969.5 218 989.5 Q 212.9 1002.9 202.5 1011 L 191.5 1016 L 181.5 1018 L 171.5 1019 Q 155.7 1016.3 147 1006.5 L 165.5 986 Q 165.8 998.2 172.5 1004 Q 178 1009 190.5 1007 Q 199 1004.5 204 998.5 Q 208.2 994.7 207 985.5 Q 204.8 978.8 199.5 975 L 186 968.5 L 187.5 966 L 203.5 958 Z" /><path desc="l 0 p 91" fill="rgb(0,0,0)" stroke="rgb(0,0,0)" stroke-width="1" opacity="0.023529411764705882" d="M 863.5 964 Q 884.1 983.4 911 996.5 L 910.5 1143 L 906.5 1145 L 899.5 1146 L 896.5 1145 L 890.5 1145 Q 874.9 1148.9 864 1157.5 L 846 1172.5 Q 837.1 1182.1 832 1195.5 Q 829.4 1207.4 820.5 1213 Q 815.1 1217.6 805.5 1218 L 805 1212.5 L 807.5 1199 Q 813.3 1199.8 814 1195.5 L 818.5 1188 L 821 1181.5 L 822 1176.5 L 823 1152.5 L 819 1142.5 L 809.5 1130 Q 804.8 1125.2 795.5 1125 L 791.5 1124 L 787.5 1123 L 783.5 1120 Q 769.4 1114.1 759.5 1104 L 734 1081.5 Q 714.4 1062.1 698 1039.5 L 675 1005.5 L 676.5 1005 Q 696.7 1021.3 726.5 1028 L 731 1026.5 L 737 1022.5 L 738 1014.5 L 734 1007.5 L 735.5 1007 Q 753.3 1020.7 778.5 1027 L 789.5 1030 L 799.5 1031 Q 806.3 1029.7 809.5 1032 L 817 1028.5 L 818 1024.5 Q 812.7 1010.3 803 1000.5 L 785 975.5 L 786.5 975 Q 807.5 998 840.5 1009 Q 846.2 1012.8 855.5 1013 L 873.5 1014 L 877.5 1013 Q 885.4 1013.9 887 1008.5 Q 888.2 1000.8 885 997.5 L 877.5 986 L 867 971.5 L 864 967.5 L 863.5 964 Z" /><path desc="l 0 p 92" fill="rgb(0,0,0)" stroke="rgb(0,0,0)" stroke-width="1" opacity="0.023529411764705882" d="M 54.5 971 L 56 973.5 L 55 976.5 L 55 984.5 L 58 995.5 Q 48.9 996.9 45 1003.5 Q 38.5 1010.5 36 1021.5 Q 36 1028 32.5 1031 L 14 1037.5 L 0.5 1043 L 0 997.5 L 17.5 990 L 31.5 984 L 44.5 977 L 54.5 971 Z" /><path desc="l 1 p 3" fill="rgb(0,0,0)" stroke="rgb(0,0,0)" stroke-width="1" opacity="0.9647058823529412" d="M 411.5 971 Q 416 970 417 972.5 L 418 976.5 Q 409.9 983.4 405.5 994 Q 397.8 1004.8 393 1018.5 L 386.5 1037 L 383.5 1038 L 381 1036.5 L 380 1031.5 Q 383.7 1014.2 392 1001.5 L 400 986.5 L 397.5 986 Q 392.4 989.4 384 989.5 L 365.5 992 L 355 988.5 L 354 984.5 Q 355.3 980.8 361.5 982 L 365.5 983 L 373.5 983 L 389.5 980 Q 402.4 977.4 411.5 971 Z" /><path desc="l 0 p 93" fill="rgb(0,0,0)" stroke="rgb(0,0,0)" stroke-width="1" opacity="0.023529411764705882" d="M 179.5 977 Q 186.5 976 189.5 979 L 198 985.5 L 199 989.5 L 194.5 996 Q 190.1 1000 180.5 999 L 177 996.5 Q 173.2 993.3 175 984.5 L 177.5 978 L 179.5 977 Z" /><path desc="l 1 p 4" fill="rgb(0,0,0)" stroke="rgb(0,0,0)" stroke-width="1" opacity="0.9647058823529412" d="M 480.5 985 L 486 987.5 Q 487 994 482.5 995 L 462 1014.5 L 441.5 1042 L 437.5 1043 L 435 1041.5 Q 434.1 1035.1 438 1033.5 L 445.5 1022 L 465 998.5 L 444.5 997 L 437.5 996 Q 433.5 996.5 433 993.5 L 432 991.5 L 434.5 988 L 447.5 989 L 466.5 990 L 480.5 985 Z" /><path desc="l 0 p 94" fill="rgb(0,0,0)" stroke="rgb(0,0,0)" stroke-width="1" opacity="0.023529411764705882" d="M 653.5 985 L 656 986.5 L 666 998.5 Q 663.8 999.8 665 1004.5 Q 669.9 1017.1 678.5 1026 L 702 1057.5 L 709 1066.5 L 714.5 1075 L 720 1087.5 Q 724.6 1095.4 725 1107.5 L 725.5 1113 L 726 1138.5 L 722.5 1144 Q 716.2 1144.8 713.5 1142 L 710 1139.5 Q 708.3 1137.3 703.5 1138 Q 701 1139 702 1143.5 L 712 1150.5 L 721.5 1153 L 724.5 1152 L 737.5 1171 L 740.5 1174 Q 742.8 1174.8 742 1178.5 L 742 1187.5 Q 743.6 1204.4 752 1214.5 L 755.5 1223 L 757.5 1232 L 758 1241.5 L 757 1244.5 Q 757.5 1250 754.5 1252 Q 742.1 1248.9 736 1239.5 L 716 1219.5 L 699.5 1200 L 697 1198.5 L 695 1190.5 Q 694.8 1184.8 691.5 1182 Q 687 1181 686 1183.5 Q 685.1 1191.9 688 1196.5 Q 688.5 1204 693.5 1207 L 697 1209.5 L 708 1222.5 Q 696.2 1226.2 690 1235.5 L 686.5 1242 L 673 1229.5 L 670 1226.5 Q 669 1224 664.5 1225 Q 662 1226 663 1230.5 L 673.5 1242 L 716 1282.5 L 727.5 1296 L 730.5 1300 L 732 1303.5 L 728 1311.5 L 724.5 1317 L 714.5 1331 L 713 1330.5 Q 708.5 1315 699.5 1304 L 672 1257.5 L 665.5 1246 L 661.5 1241 Q 657 1240 656 1242.5 L 655 1246.5 L 666 1263.5 L 691.5 1307 Q 702.6 1320.4 707 1340.5 L 701 1349.5 Q 697.1 1352.1 698 1359.5 L 703 1367.5 Q 707.5 1371 707 1379.5 L 704 1393.5 Q 701.6 1400.6 703 1411.5 L 706 1421.5 L 712.5 1430 L 716 1433.5 L 717 1437.5 L 711 1456.5 L 704.5 1467 L 696.5 1468 L 690.5 1466 Q 684 1465.5 680.5 1462 L 657 1448.5 L 637 1433.5 L 612 1412.5 L 600 1395.5 L 595 1384.5 L 592.5 1375 L 590 1373.5 L 578 1311.5 L 577 1297.5 L 576 1288.5 L 574.5 1275 L 574 1264.5 L 573 1247.5 Q 573.8 1244.3 578.5 1245 L 585 1239.5 L 589 1231.5 L 590 1226.5 L 591 1216.5 L 592 1213.5 L 593 1208.5 Q 587.1 1197.9 586 1182.5 L 585 1176.5 Q 585.6 1171.4 582.5 1170 Q 577.8 1169.3 577 1172.5 L 578 1185.5 L 580 1197.5 L 582 1203.5 L 583 1212.5 L 582 1215.5 L 582 1221.5 L 581 1228.5 Q 579.8 1234.3 575.5 1237 Q 567.3 1238.7 564 1235.5 L 555 1229.5 L 537 1213.5 Q 526.4 1201.6 519.5 1186 Q 515.2 1180.3 515 1170.5 L 518 1158.5 L 519 1149.5 L 520 1134.5 L 520 1110.5 L 519 1106.5 L 519 1097.5 L 518 1092.5 L 517.5 1089 L 515 1083.5 L 523.5 1083 L 524 1085.5 L 522.5 1094 L 522 1109.5 L 523 1114.5 L 523 1127.5 Q 521.4 1137.6 526.5 1141 Q 530.5 1141.5 531 1138.5 L 532 1131.5 Q 529.2 1129.8 531 1123.5 L 531 1099.5 L 531 1090.5 Q 531.6 1084.9 528 1083.5 L 544.5 1079 Q 556.8 1074.3 564 1064.5 L 573.5 1050 Q 574.5 1054 580.5 1053 L 583.5 1052 L 586.5 1053 L 594.5 1053 Q 608.6 1047.6 618 1037.5 Q 622.7 1032.7 624 1024.5 L 625.5 1013 Q 639 1009.5 647 1000.5 L 652 990.5 L 653.5 985 Z" /><path desc="l 0 p 95" fill="rgb(0,0,0)" stroke="rgb(0,0,0)" stroke-width="1" opacity="0.023529411764705882" d="M 589.5 988 Q 590.8 990.2 595.5 989 Q 605.8 991.8 611 999.5 L 615 1008.5 L 617 1015.5 L 615 1024.5 Q 613.4 1033.4 606.5 1037 L 599 1041.5 L 592 1044.5 L 587.5 1045 L 584.5 1044 L 578.5 1044 L 575.5 1045 L 575 1043.5 Q 578.5 1037 577 1025.5 Q 575.4 1015.1 570 1008.5 Q 578.9 1004.4 584 996.5 L 589.5 988 Z" /><path desc="l 1 p 5" fill="rgb(0,0,0)" stroke="rgb(0,0,0)" stroke-width="1" opacity="0.9647058823529412" d="M 652.5 998 Q 657.5 997.5 658 1001.5 L 666.5 1017 L 670.5 1023 L 672 1028.5 Q 671.5 1031.5 667.5 1031 L 663 1027.5 L 653 1010.5 Q 648.9 1007.6 650 999.5 L 652.5 998 Z" /><path desc="l 0 p 96" fill="rgb(0,0,0)" stroke="rgb(0,0,0)" stroke-width="1" opacity="0.023529411764705882" d="M 522.5 1005 L 523 1008.5 L 519.5 1009 L 519 1007.5 L 522.5 1005 Z" /><path desc="l 0 p 97" fill="rgb(0,0,0)" stroke="rgb(0,0,0)" stroke-width="1" opacity="0.023529411764705882" d="M 544.5 1007 L 551.5 1008 L 557.5 1010 L 566 1017.5 L 568 1025.5 L 569 1034.5 Q 564.6 1056.1 549.5 1067 Q 537.1 1076.1 514.5 1075 L 499.5 1075 Q 493.5 1073.5 492 1076.5 L 491 1079.5 Q 492.9 1084.1 500.5 1083 L 506.5 1083 L 510 1084.5 Q 507 1085.5 508 1090.5 L 510 1095.5 L 511 1106.5 L 511.5 1114 L 512 1137.5 Q 509.2 1139.3 511 1145.5 L 510 1155.5 L 507.5 1167 Q 504.1 1189.1 497 1207.5 L 486 1234.5 Q 482.3 1247.3 474.5 1256 L 468.5 1257 L 464 1253.5 L 448 1222.5 Q 439.5 1205 437 1181.5 L 434.5 1159 L 434 1127.5 Q 436 1116.5 431.5 1112 L 422.5 1111 L 412.5 1110 L 406 1107.5 L 421.5 1106 L 448.5 1100 L 455 1098.5 L 460.5 1098 L 463.5 1097 Q 467.5 1097.5 468 1094.5 Q 468.8 1088.8 464.5 1088 Q 456.7 1087.3 453 1082.5 L 470.5 1079 L 475 1078.5 L 482 1076.5 L 498 1070.5 Q 520.2 1063.2 537 1050.5 Q 538 1046 535.5 1045 L 530.5 1044 L 518.5 1048 L 505.5 1050 L 500 1048.5 Q 509.6 1045.6 516 1039.5 L 546 1020.5 Q 547.3 1015.3 544.5 1014 L 531 1010.5 Q 533.3 1007.3 539.5 1008 L 544.5 1007 Z" /><path desc="l 1 p 6" fill="rgb(0,0,0)" stroke="rgb(0,0,0)" stroke-width="1" opacity="0.9647058823529412" d="M 659.5 1032 L 664.5 1033 L 668 1036.5 L 679.5 1053 L 684 1059.5 L 685 1064.5 L 681.5 1067 L 677 1064.5 L 663 1044.5 L 659.5 1040 Q 656.8 1038.8 658 1033.5 L 659.5 1032 Z" /><path desc="l 1 p 7" fill="rgb(0,0,0)" stroke="rgb(0,0,0)" stroke-width="1" opacity="0.9647058823529412" d="M 83.5 1059 L 97 1065.5 Q 105.4 1071.1 117 1073.5 Q 125.9 1077.6 138.5 1078 L 153.5 1080 Q 160.4 1079.1 162 1083.5 Q 162.8 1087.3 160.5 1088 L 154.5 1089 L 146 1087.5 L 129.5 1085 Q 113.8 1083.2 102.5 1077 Q 89 1073.5 81 1064.5 Q 80.3 1059.8 83.5 1059 Z" /><path desc="l 1 p 8" fill="rgb(0,0,0)" stroke="rgb(0,0,0)" stroke-width="1" opacity="0.9647058823529412" d="M 671.5 1071 Q 677.7 1070.3 679 1074.5 L 687.5 1084 L 690.5 1088 Q 692.8 1089.8 692 1094.5 L 688.5 1097 L 682 1091.5 L 672 1079.5 L 669 1074.5 L 671.5 1071 Z" /><path desc="l 0 p 98" fill="rgb(0,0,0)" stroke="rgb(0,0,0)" stroke-width="1" opacity="0.023529411764705882" d="M 730.5 1090 L 751.5 1109 L 774 1124.5 Q 763.7 1128.7 757 1136.5 Q 747.4 1146.9 743.5 1163 L 742 1162.5 L 735.5 1153 L 732 1145.5 Q 734.8 1141.3 734.5 1134 L 735 1119.5 L 734 1114.5 L 733 1104.5 L 730.5 1090 Z" /><path desc="l 1 p 9" fill="rgb(0,0,0)" stroke="rgb(0,0,0)" stroke-width="1" opacity="0.9647058823529412" d="M 678.5 1099 Q 683 1098 684 1100.5 L 688 1104.5 L 695.5 1116 L 699.5 1123 Q 701.9 1125.1 701 1130.5 L 696.5 1132 L 682 1111.5 L 678 1105.5 L 677 1100.5 L 678.5 1099 Z" /><path desc="l 0 p 99" fill="rgb(0,0,0)" stroke="rgb(0,0,0)" stroke-width="1" opacity="0.023529411764705882" d="M 90.5 1110 L 97.5 1111 L 109 1114.5 Q 106.1 1117.6 99.5 1117 L 85 1122.5 L 60.5 1133 Q 36.4 1142.4 20 1159.5 L 19 1162.5 L 21.5 1166 Q 28.8 1166.8 32 1163.5 L 45.5 1158 L 64.5 1153 L 82.5 1151 L 83 1152.5 Q 74.8 1164.3 70.5 1180 L 68.5 1188 L 66.5 1193 Q 59.9 1180.1 48.5 1172 L 41 1168.5 L 35.5 1168 L 20.5 1168 L 0.5 1178 L 0 1143.5 Q 14.9 1131.9 33.5 1124 Q 41.5 1119 52.5 1117 L 73 1112.5 L 84.5 1111 Q 89.2 1112.3 90.5 1110 Z" /><path desc="l 0 p 100" fill="rgb(0,0,0)" stroke="rgb(0,0,0)" stroke-width="1" opacity="0.023529411764705882" d="M 171.5 1112 L 191.5 1112 Q 198.5 1110.9 202 1113.5 L 214 1118.5 L 213 1121.5 L 208.5 1126 L 194.5 1134 L 173.5 1141 L 163.5 1143 L 155.5 1144 L 139.5 1145 L 135.5 1144 L 126.5 1144 L 84.5 1142 L 81.5 1143 L 74.5 1143 L 52.5 1147 L 53.5 1145 L 80 1133.5 L 92 1128.5 L 102 1125.5 L 122.5 1119 L 128 1122.5 Q 129.8 1124.8 134.5 1124 Q 141.9 1117.4 154 1115.5 L 171.5 1112 Z" /><path desc="l 1 p 10" fill="rgb(0,0,0)" stroke="rgb(0,0,0)" stroke-width="1" opacity="0.9647058823529412" d="M 539.5 1116 L 543 1117.5 L 544 1125.5 L 543 1130.5 L 543 1145.5 Q 544.5 1153 541.5 1156 Q 537 1157 536 1154.5 L 534.5 1147 L 534 1132.5 L 535 1127.5 Q 534.2 1120.2 537.5 1117 L 539.5 1116 Z" /><path desc="l 0 p 101" fill="rgb(0,0,0)" stroke="rgb(0,0,0)" stroke-width="1" opacity="0.023529411764705882" d="M 417.5 1120 Q 423.5 1118.5 425 1121.5 L 425 1148.5 L 424.5 1159 L 423 1169.5 L 422 1175.5 L 418.5 1183 L 411 1200.5 L 403 1213.5 Q 398.2 1226.7 388 1234.5 Q 377 1243 369.5 1255 L 361.5 1259 L 354 1253.5 L 339 1223.5 L 332 1209.5 L 325.5 1192 L 322 1182.5 L 320 1171.5 L 332.5 1171 L 335.5 1172 L 341.5 1172 L 350 1172.5 L 357.5 1174 L 369.5 1177 L 373 1174.5 L 374 1171.5 L 371.5 1168 L 360 1159.5 L 349 1149.5 L 349.5 1148 L 367.5 1146 L 385.5 1145 L 394.5 1145 Q 399 1146 400 1143.5 L 401 1140.5 L 398.5 1137 Q 389.9 1135.6 385 1130.5 L 385.5 1129 Q 396.5 1128.5 404.5 1125 L 417.5 1120 Z" /><path desc="l 1 p 11" fill="rgb(0,0,0)" stroke="rgb(0,0,0)" stroke-width="1" opacity="0.9647058823529412" d="M 684.5 1130 Q 689.3 1129.3 691 1131.5 Q 698 1139.5 701 1151.5 L 697.5 1156 L 693 1153.5 L 686 1139.5 Q 682.4 1137.6 683 1131.5 L 684.5 1130 Z" /><path desc="l 0 p 102" fill="rgb(0,0,0)" stroke="rgb(0,0,0)" stroke-width="1" opacity="0.023529411764705882" d="M 782.5 1132 L 792.5 1133 Q 803.8 1133.2 808 1140.5 L 813.5 1152 Q 816.1 1154.4 815 1160.5 L 814 1164.5 L 814 1173.5 L 813 1179.5 Q 812.3 1185.3 808.5 1188 L 808 1171.5 Q 807.1 1158.9 798.5 1154 Q 792.4 1149.6 780.5 1151 Q 769.3 1153.8 763 1161.5 Q 757.9 1165.9 760 1177.5 L 766 1194.5 L 764.5 1194 L 760 1195.5 L 759 1201.5 L 764.5 1209 L 772 1213.5 L 776 1237.5 L 778 1258.5 L 778 1270.5 Q 777 1278.5 781.5 1281 Q 787.3 1281.8 788 1277.5 L 798.5 1243 L 801.5 1232 L 804.5 1224 Q 806 1227.5 812.5 1226 Q 826.3 1221.8 834 1211.5 L 841.5 1195 Q 847.3 1180.8 858.5 1172 Q 872.5 1158.5 894.5 1153 Q 898.2 1155.2 893 1157.5 L 889 1163.5 L 888 1170.5 Q 888.5 1173.5 892.5 1173 L 895 1171.5 L 900.5 1162 L 908.5 1153 L 910.5 1152 L 911 1181.5 Q 901.1 1188.6 901 1205.5 L 902 1209.5 Q 902.3 1216.7 906 1220.5 L 900.5 1227 L 894.5 1225 L 886 1218.5 L 881 1211.5 L 880 1206.5 L 876.5 1201 Q 871.8 1200.3 871 1203.5 L 872 1212.5 Q 874.8 1214.2 874 1219.5 L 869.5 1227 L 863 1221.5 L 860.5 1218 Q 855.8 1217.3 855 1220.5 Q 856 1229.5 862.5 1233 L 865 1234.5 L 852 1256.5 L 848.5 1262 L 847 1265.5 L 842.5 1270 L 830 1280.5 L 829 1282.5 L 831.5 1286 Q 839.6 1286.1 842 1280.5 L 857.5 1268 Q 866.2 1259.2 881.5 1257 L 882 1258.5 L 875 1266.5 L 872.5 1270 Q 870.1 1272.1 871 1277.5 Q 872.5 1281.5 879.5 1280 Q 896.2 1275.7 907.5 1266 Q 911.8 1266.8 911 1272.5 L 911 1282.5 L 911 1324.5 L 901.5 1326 L 891.5 1331 L 887 1334.5 L 883.5 1336 L 878 1331.5 Q 874.1 1327.4 875 1318.5 Q 877.3 1309.8 882.5 1304 Q 888.1 1301.7 889 1294.5 Q 888.3 1291.3 883.5 1292 L 876 1298.5 L 869.5 1309 L 860.5 1312 L 846.5 1313 L 840.5 1311 L 829 1306.5 L 831 1301.5 Q 833.8 1299.8 833 1294.5 Q 832.5 1291.5 828.5 1292 L 814.5 1308 Q 803.8 1316.3 788 1319.5 Q 767.9 1323.9 755.5 1336 L 748.5 1325 L 745.5 1324 L 742 1326.5 Q 741.4 1331.1 744 1332.5 L 749.5 1344 L 753 1354.5 L 754.5 1362 L 755 1370.5 L 753.5 1371 L 745 1363.5 L 737.5 1360 L 734 1362.5 Q 733.3 1368.3 737.5 1369 L 743 1372.5 L 751 1380.5 Q 756 1385.5 756 1395.5 Q 754.8 1398.3 753.5 1396 Q 738.1 1397.1 730 1405.5 Q 725 1410.5 725 1420.5 L 728 1429.5 L 725.5 1430 L 715 1420.5 Q 710.3 1413.2 711 1400.5 L 714 1386.5 L 715 1372.5 L 710.5 1363 Q 705.7 1361.7 707 1354.5 L 728 1327.5 L 734 1319.5 L 739 1308.5 Q 741.7 1306.2 741 1300.5 L 725.5 1281 L 720.5 1275 Q 718 1274 719 1269.5 Q 720.6 1260.6 727.5 1257 L 739.5 1254 L 750 1261.5 L 750.5 1263 L 755.5 1264 Q 768.6 1254.6 766 1229.5 Q 763.4 1216.1 757 1206.5 Q 751.7 1200.3 751 1189.5 L 750 1174.5 L 752 1163.5 L 757 1152.5 Q 759.9 1142.9 767.5 1138 L 776.5 1133 Q 781.3 1134.3 782.5 1132 Z" /><path desc="l 1 p 12" fill="rgb(0,0,0)" stroke="rgb(0,0,0)" stroke-width="1" opacity="0.9647058823529412" d="M 551.5 1133 Q 555.5 1132.5 556 1135.5 L 558 1157.5 L 560 1175.5 L 558.5 1178 L 555.5 1179 L 552 1174.5 L 551 1164.5 L 550 1160.5 L 548.5 1149 L 548 1137.5 L 549.5 1134 L 551.5 1133 Z" /><path desc="l 0 p 103" fill="rgb(0,0,0)" stroke="rgb(0,0,0)" stroke-width="1" opacity="0.023529411764705882" d="M 108.5 1152 L 152 1154.5 L 136.5 1162 L 126.5 1168 L 101.5 1184 L 101 1179.5 L 105 1161.5 Q 105 1155 108.5 1152 Z" /><path desc="l 1 p 13" fill="rgb(0,0,0)" stroke="rgb(0,0,0)" stroke-width="1" opacity="0.9647058823529412" d="M 565.5 1155 L 569 1156.5 L 570 1165.5 L 570.5 1174 L 572 1181.5 L 575 1194.5 L 573.5 1197 Q 568 1198 567 1194.5 L 563 1179.5 L 562 1172.5 L 562 1158.5 L 563.5 1156 L 565.5 1155 Z" /><path desc="l 1 p 14" fill="rgb(0,0,0)" stroke="rgb(0,0,0)" stroke-width="1" opacity="0.9647058823529412" d="M 688.5 1158 L 694 1160.5 L 700.5 1175 Q 705 1181.5 706 1191.5 Q 705.3 1194.8 700.5 1194 L 697.5 1190 L 695 1183.5 L 688.5 1169 L 686 1160.5 L 688.5 1158 Z" /><path desc="l 0 p 104" fill="rgb(0,0,0)" stroke="rgb(0,0,0)" stroke-width="1" opacity="0.023529411764705882" d="M 784.5 1159 Q 792.8 1158.8 796 1163.5 L 798 1169.5 L 799 1174.5 L 800 1186.5 Q 797.7 1187.7 799 1192.5 L 797 1212.5 L 792 1235.5 L 786.5 1253 L 784 1236.5 L 783 1227.5 L 780 1211.5 L 775.5 1195 L 770 1180.5 Q 767.1 1176.9 768 1169.5 L 772.5 1164 L 780.5 1160 L 784.5 1159 Z" /><path desc="l 0 p 105" fill="rgb(0,0,0)" stroke="rgb(0,0,0)" stroke-width="1" opacity="0.023529411764705882" d="M 298.5 1170 L 305.5 1170 L 309 1171.5 L 303 1186.5 Q 298.8 1198.3 291 1206.5 L 281 1218.5 Q 275.3 1229.3 265.5 1236 L 260.5 1238 Q 251.1 1218.4 250 1190.5 L 250 1177.5 Q 251 1172.5 248 1171.5 L 284.5 1171 L 294.5 1171 L 298.5 1170 Z" /><path desc="l 0 p 106" fill="rgb(0,0,0)" stroke="rgb(0,0,0)" stroke-width="1" opacity="0.023529411764705882" d="M 224.5 1171 L 242 1171.5 Q 238 1176.5 238 1185.5 L 236 1197.5 L 232 1209.5 L 233.5 1212 L 236.5 1213 L 239 1211.5 L 242.5 1205 L 251 1239.5 L 254 1244.5 Q 257.2 1245.8 256 1251.5 L 256 1267.5 L 255 1272.5 L 254.5 1282 L 254 1299.5 L 253.5 1317 L 252 1340.5 L 251.5 1365 L 251 1370.5 L 249 1380.5 L 250 1384.5 L 229 1418.5 L 216 1438.5 L 205 1457.5 Q 200 1467.5 191.5 1474 L 184 1479.5 Q 181.1 1483.1 173.5 1482 Q 164.4 1479.5 160 1472.5 L 149 1458.5 L 143.5 1449 Q 138.6 1445.9 140 1436.5 Q 141.5 1427.5 136.5 1425 L 132.5 1427 L 132 1423.5 L 136 1407.5 L 137 1391.5 Q 134.5 1382.4 127.5 1378 L 114.5 1371 Q 104.4 1367.1 98 1359.5 L 92.5 1353 Q 88.3 1351.3 90 1343.5 L 91 1338.5 L 95 1328.5 L 107.5 1315 L 110 1313.5 L 112.5 1310 L 126 1298.5 L 128.5 1295 L 134 1290.5 L 142.5 1281 L 145.5 1279 L 146 1281.5 L 144.5 1288 L 143 1299.5 L 142 1309.5 L 140.5 1317 L 136 1344.5 Q 132.5 1351.5 132 1361.5 Q 129.5 1367 131 1376.5 Q 131.5 1380.5 136.5 1380 Q 141 1378 139 1369.5 L 143 1349.5 L 146 1336.5 L 148.5 1321 L 151 1303.5 L 152 1292.5 L 157 1271.5 L 156 1267.5 L 160.5 1259 Q 162.9 1256.9 162 1251.5 Q 161 1249 156.5 1250 L 145.5 1268 L 129.5 1281 L 123.5 1274 L 109 1266.5 L 102 1263.5 L 106 1241.5 L 104.5 1239 L 101.5 1238 Q 95.8 1241.3 96 1250.5 L 95 1254.5 L 94 1258.5 L 90.5 1262 L 70 1278.5 L 68.5 1281 Q 65.8 1279.8 67 1274.5 Q 69.5 1273 68 1267.5 L 68.5 1260 L 70 1251.5 L 70 1244.5 L 71.5 1241 Q 82 1237 88.5 1229 L 89 1234.5 L 87 1245.5 L 89.5 1249 Q 94 1250 95 1247.5 L 99 1227.5 L 100 1223.5 Q 99.5 1218.5 103.5 1218 Q 123 1208 139.5 1195 L 164.5 1184 L 172.5 1181 L 183 1177.5 L 203.5 1173 L 217.5 1172 Q 223 1173.5 224.5 1171 Z" /><path desc="l 0 p 107" fill="rgb(0,0,0)" stroke="rgb(0,0,0)" stroke-width="1" opacity="0.023529411764705882" d="M 23.5 1176 L 28.5 1177 Q 30.3 1174.3 36.5 1176 L 44 1179.5 L 51 1185.5 Q 57.3 1190.2 59.5 1199 L 63 1207.5 Q 66.2 1209.8 65 1216.5 L 65 1234.5 Q 61.4 1235.9 62 1241.5 L 61 1256.5 Q 58.7 1257.8 60 1262.5 L 59 1278.5 L 59 1286.5 L 58 1291.5 L 57 1296.5 L 59.5 1300 Q 64.6 1300.6 66 1297.5 L 69.5 1293 Q 89.3 1293.3 98 1304.5 Q 100.6 1305.9 100 1310.5 L 89.5 1322 Q 84.6 1327.1 83.5 1336 L 82 1335.5 Q 82.8 1329.7 79.5 1328 L 77.5 1327 L 74 1329.5 L 74 1336.5 L 75 1340.5 L 76 1344.5 L 83 1354.5 L 101.5 1374 L 114.5 1381 Q 122.5 1383.5 127 1389.5 Q 129.6 1392.4 129 1398.5 L 123 1427.5 L 114 1449.5 Q 110.7 1460.7 102.5 1467 L 96 1466.5 Q 102.8 1459.8 103 1446.5 Q 100.5 1437.4 93.5 1433 Q 87.2 1425.8 75.5 1424 L 66.5 1422 L 61.5 1423 L 61 1416.5 Q 64.8 1406.8 72.5 1401 L 79.5 1402 L 94.5 1402 L 102 1398.5 L 103 1395.5 L 100.5 1392 L 94.5 1393 Q 88.3 1395.7 77.5 1394 Q 49.3 1382.7 27.5 1365 L 15.5 1355 Q 14.1 1350.9 9 1350.5 L 0 1347.5 L 0.5 1328 L 6.5 1329 L 10 1326.5 Q 10.8 1321.8 7.5 1321 L 0 1318.5 L 0.5 1270 Q 5.3 1269.3 6 1272.5 Q 17.4 1286.6 25.5 1304 L 28.5 1305 L 32 1302.5 L 33 1299.5 L 29 1289.5 L 25 1275.5 L 24 1261.5 L 23 1252.5 Q 23.8 1250.3 27.5 1251 Q 38.7 1249.7 44 1242.5 L 52 1233.5 Q 56.7 1228.7 56 1218.5 Q 55.3 1215.3 50.5 1216 L 48 1219.5 L 47 1222.5 Q 47.7 1229.2 43 1230.5 L 35.5 1239 L 24.5 1244 L 24 1240.5 L 31.5 1225 L 34 1221.5 Q 36.5 1220 35 1214.5 Q 32.7 1213.3 34 1208.5 L 26.5 1199 L 12.5 1195 L 3.5 1194 L 0.5 1196 L 0 1189.5 L 9.5 1183 L 23.5 1176 Z" /><path desc="l 1 p 15" fill="rgb(0,0,0)" stroke="rgb(0,0,0)" stroke-width="1" opacity="0.9647058823529412" d="M 910.5 1182 L 911 1197.5 L 910 1200.5 L 910 1208.5 Q 912.5 1210 911 1215.5 L 911 1233.5 L 885 1268.5 L 886.5 1268 Q 901.9 1262.9 910.5 1251 L 911 1268.5 L 908.5 1267 L 906.5 1267 L 893 1274.5 L 881.5 1279 L 873.5 1280 Q 869.8 1278.8 871 1272.5 L 882 1257.5 L 878.5 1257 Q 864.1 1260.6 855.5 1270 L 842.5 1280 Q 840 1286 831.5 1286 L 829 1282.5 L 836.5 1274 L 848 1264.5 L 850 1259.5 L 853.5 1254 L 865 1234.5 L 857 1227.5 L 855 1220.5 Q 855.8 1217.3 860.5 1218 L 867.5 1226 L 869.5 1227 Q 874.3 1223.8 874 1215.5 L 872 1211.5 L 871 1203.5 Q 871.8 1200.3 876.5 1201 L 880 1206.5 Q 879.2 1212.3 882.5 1214 L 890.5 1223 L 894.5 1225 L 900.5 1227 L 906 1220.5 Q 902.3 1216.7 902 1209.5 L 901 1200.5 L 903 1193.5 Q 905.1 1186.1 910.5 1182 Z" /><path desc="l 0 p 108" fill="rgb(0,0,0)" stroke="rgb(0,0,0)" stroke-width="1" opacity="0.023529411764705882" d="M 427.5 1184 Q 430 1185 429 1189.5 L 432 1202.5 Q 441.8 1236.7 460.5 1262 L 469 1266.5 Q 466.3 1270.3 468 1278.5 L 468 1310.5 Q 470.3 1311.8 469 1316.5 L 469 1325.5 L 470 1330.5 L 472 1355.5 L 475 1382.5 L 477 1401.5 L 478 1417.5 Q 474.1 1427.6 466.5 1434 L 454 1450.5 Q 446.5 1457 442.5 1467 Q 435.1 1482.6 422.5 1493 L 415.5 1494 L 408 1487.5 L 381 1454.5 Q 368.5 1444 365 1424.5 L 362 1397.5 L 363 1392.5 L 364 1383.5 L 361.5 1378 Q 359.1 1375.9 360 1370.5 L 360 1352.5 L 359.5 1329 L 359 1322.5 L 358.5 1315 L 358 1286.5 L 359 1282.5 L 359 1274.5 L 360 1271.5 Q 359.3 1267.8 361.5 1267 Q 370 1268 372.5 1263 L 380 1255.5 L 387.5 1246 L 401 1233.5 L 417.5 1205 L 427.5 1184 Z" /><path desc="l 0 p 109" fill="rgb(0,0,0)" stroke="rgb(0,0,0)" stroke-width="1" opacity="0.023529411764705882" d="M 313.5 1185 L 323 1209.5 L 343 1249.5 L 350.5 1262 Q 353.5 1262.5 353 1266.5 Q 350.4 1269.4 351 1275.5 L 350 1282.5 L 349 1306.5 Q 351.8 1308.3 350 1314.5 L 351.5 1335 L 352 1383.5 L 344.5 1413 L 341 1425.5 L 333 1445.5 L 324 1466.5 Q 316.6 1487.6 302.5 1502 L 296 1504.5 L 291.5 1505 L 285 1499.5 L 269 1473.5 Q 262.4 1466.6 261 1454.5 Q 258.4 1446.6 260 1434.5 L 261 1431.5 L 261 1422.5 L 260 1418.5 L 260 1409.5 L 259 1371.5 L 260 1367.5 L 260 1356.5 L 262 1315.5 L 262.5 1307 L 263 1277.5 L 263.5 1273 L 264 1257.5 Q 262.6 1248.6 266.5 1245 Q 277.5 1238.5 285 1228.5 L 298 1211.5 L 307 1196.5 L 313.5 1185 Z" /><path desc="l 1 p 16" fill="rgb(0,0,0)" stroke="rgb(0,0,0)" stroke-width="1" opacity="0.9647058823529412" d="M 596.5 1185 Q 601.3 1184.3 602 1187.5 L 602.5 1197 L 604.5 1205 L 610 1225.5 Q 609.3 1228.8 604.5 1228 Q 594.1 1212.9 594 1187.5 L 596.5 1185 Z" /><path desc="l 1 p 17" fill="rgb(0,0,0)" stroke="rgb(0,0,0)" stroke-width="1" opacity="0.9647058823529412" d="M 225.5 1189 Q 230.3 1188.3 231 1191.5 L 230 1197.5 L 227.5 1207 Q 225.5 1218 220.5 1226 L 215.5 1227 L 213 1223.5 L 221 1199.5 L 223 1192.5 L 225.5 1189 Z" /><path desc="l 0 p 110" fill="rgb(0,0,0)" stroke="rgb(0,0,0)" stroke-width="1" opacity="0.023529411764705882" d="M 511.5 1190 Q 523.2 1213.3 541.5 1230 Q 551.1 1239.9 565 1245.5 L 565.5 1264 L 567 1288.5 L 568 1292.5 L 570 1310.5 L 573 1333.5 L 576 1346.5 L 578 1359.5 L 581 1372.5 L 582.5 1383 Q 581.9 1391.6 585 1396.5 L 586.5 1400 Q 588.8 1400.8 588 1404.5 L 588 1413.5 L 583 1427.5 L 571 1447.5 L 559 1466.5 Q 554.8 1476.8 546.5 1483 L 540.5 1484 Q 530.9 1481.6 525 1475.5 L 509 1460.5 Q 503 1454.5 500 1445.5 L 493 1430.5 L 489 1420.5 Q 485.6 1415.4 487 1405.5 L 486 1395.5 L 484.5 1388 L 483 1381.5 L 478.5 1336 L 477.5 1325 L 477 1306.5 L 477 1278.5 L 476 1264.5 L 482 1260.5 Q 489.8 1250.8 494 1237.5 L 502.5 1216 L 511.5 1190 Z" /><path desc="l 1 p 18" fill="rgb(0,0,0)" stroke="rgb(0,0,0)" stroke-width="1" opacity="0.9647058823529412" d="M 3.5 1194 L 12.5 1195 L 18.5 1196 Q 27.8 1197.8 32 1204.5 L 34 1210.5 L 35 1220.5 L 27 1233.5 L 24 1243.5 L 25.5 1244 Q 34.7 1241.2 40 1234.5 L 44 1229.5 L 47 1223.5 L 48 1220.5 Q 47.5 1216.5 50.5 1216 Q 55.3 1215.3 56 1218.5 Q 56.7 1230.7 50 1235.5 L 41.5 1245 L 34.5 1249 Q 33.1 1251.6 28.5 1251 Q 24 1250 23 1252.5 L 24 1258.5 L 24.5 1268 L 27 1282.5 L 33 1300.5 L 30.5 1304 L 27.5 1305 L 25 1303.5 Q 16.6 1284.4 3.5 1270 L 0 1269.5 L 0.5 1246 L 15.5 1272 L 16 1261.5 L 15 1256.5 L 15 1243.5 Q 17 1232.5 22 1224.5 Q 27.4 1221.4 26 1211.5 L 21.5 1206 L 5.5 1202 L 0 1206.5 L 0 1199.5 Q -0.8 1195.8 1.5 1195 L 3.5 1194 Z" /><path desc="l 0 p 111" fill="rgb(0,0,0)" stroke="rgb(0,0,0)" stroke-width="1" opacity="0.023529411764705882" d="M 910.5 1198 L 911 1208.5 L 910 1208.5 L 910.5 1198 Z" /><path desc="l 0 p 112" fill="rgb(0,0,0)" stroke="rgb(0,0,0)" stroke-width="1" opacity="0.023529411764705882" d="M 5.5 1202 L 16.5 1204 Q 22.3 1205.3 25 1209.5 L 26 1218.5 L 18 1232.5 L 15.5 1243 L 15 1260.5 L 16 1263.5 L 16 1271.5 L 15 1271.5 L 3.5 1252 L 1 1247.5 Q -1.5 1244 0 1236.5 L 0 1207.5 L 5.5 1202 Z" /><path desc="l 1 p 19" fill="rgb(0,0,0)" stroke="rgb(0,0,0)" stroke-width="1" opacity="0.9647058823529412" d="M 616.5 1207 Q 620.5 1206.5 621 1209.5 L 626 1227.5 L 629 1233.5 L 630 1238.5 Q 629.3 1241.8 624.5 1241 L 620.5 1236 L 617.5 1228 L 613 1211.5 L 614.5 1208 L 616.5 1207 Z" /><path desc="l 1 p 20" fill="rgb(0,0,0)" stroke="rgb(0,0,0)" stroke-width="1" opacity="0.9647058823529412" d="M 421.5 1213 Q 426 1212 427 1214.5 L 428 1220.5 L 427 1223.5 L 426 1232.5 L 425 1250.5 L 424 1269.5 L 423 1291.5 L 423 1335.5 L 424 1340.5 L 424 1353.5 L 425 1385.5 Q 423.4 1395.6 426 1401.5 L 424.5 1405 L 420.5 1406 L 418 1402.5 L 417 1392.5 L 416 1377.5 L 414 1291.5 Q 416.8 1289.8 415 1283.5 L 416 1265.5 L 417 1240.5 L 418 1229.5 L 419 1221.5 L 421.5 1213 Z" /><path desc="l 1 p 21" fill="rgb(0,0,0)" stroke="rgb(0,0,0)" stroke-width="1" opacity="0.9647058823529412" d="M 632.5 1214 L 637 1215.5 L 646 1236.5 L 644.5 1239 L 641.5 1240 L 637 1236.5 Q 631.3 1228.8 630 1216.5 L 632.5 1214 Z" /><path desc="l 1 p 22" fill="rgb(0,0,0)" stroke="rgb(0,0,0)" stroke-width="1" opacity="0.9647058823529412" d="M 205.5 1215 Q 210.3 1214.3 211 1217.5 Q 209.9 1229.9 204 1237.5 L 198 1248.5 L 192.5 1256 Q 188 1257 187 1254.5 L 188 1249.5 L 192.5 1242 L 201 1224.5 L 203 1218.5 L 205.5 1215 Z" /><path desc="l 1 p 23" fill="rgb(0,0,0)" stroke="rgb(0,0,0)" stroke-width="1" opacity="0.9647058823529412" d="M 654.5 1218 Q 659.3 1217.3 660 1220.5 Q 661.5 1226.5 658.5 1228 Q 654 1229 653 1226.5 L 652 1221.5 L 654.5 1218 Z" /><path desc="l 1 p 24" fill="rgb(0,0,0)" stroke="rgb(0,0,0)" stroke-width="1" opacity="0.9647058823529412" d="M 305.5 1222 Q 309.5 1221.5 310 1224.5 L 311 1233.5 L 310 1237.5 L 309.5 1244 L 309 1259.5 L 308 1281.5 L 307.5 1289 L 307 1323.5 L 306.5 1359 L 305 1384.5 L 305 1426.5 L 305 1437.5 Q 306 1443 302.5 1444 L 298 1442.5 L 297 1436.5 L 297 1423.5 L 297 1371.5 L 298 1367.5 L 298 1358.5 L 298 1322.5 L 298.5 1297 L 299 1290.5 L 300 1273.5 L 301 1262.5 L 301.5 1240 L 302 1234.5 L 303 1226.5 Q 302.5 1222.5 305.5 1222 Z" /><path desc="l 1 p 25" fill="rgb(0,0,0)" stroke="rgb(0,0,0)" stroke-width="1" opacity="0.9647058823529412" d="M 518.5 1225 Q 522.5 1224.5 523 1227.5 L 524 1243.5 L 526 1280.5 L 529 1302.5 L 535 1330.5 L 551 1399.5 L 548.5 1403 Q 543.8 1403.8 543 1400.5 L 536 1373.5 L 525 1326.5 L 521 1305.5 L 518 1280.5 L 516 1256.5 L 515.5 1251 L 515 1228.5 L 516.5 1226 L 518.5 1225 Z" /><path desc="l 0 p 113" fill="rgb(0,0,0)" stroke="rgb(0,0,0)" stroke-width="1" opacity="0.023529411764705882" d="M 880.5 1226 Q 887.6 1232.9 899 1235.5 L 889.5 1249 L 879.5 1248 L 864.5 1254 L 864 1251.5 L 880.5 1226 Z" /><path desc="l 0 p 114" fill="rgb(0,0,0)" stroke="rgb(0,0,0)" stroke-width="1" opacity="0.023529411764705882" d="M 709.5 1231 L 713.5 1232 Q 718.7 1232.4 720.5 1236 L 731 1246.5 Q 720.6 1249.6 715 1257.5 L 711.5 1265 L 694 1249.5 Q 694.9 1241.4 699.5 1237 L 709.5 1231 Z" /><path desc="l 0 p 115" fill="rgb(0,0,0)" stroke="rgb(0,0,0)" stroke-width="1" opacity="0.023529411764705882" d="M 910.5 1234 L 911 1250.5 Q 901.6 1263.1 885.5 1269 L 885 1267.5 Q 899.3 1252.3 910.5 1234 Z" /><path desc="l 1 p 26" fill="rgb(0,0,0)" stroke="rgb(0,0,0)" stroke-width="1" opacity="0.9647058823529412" d="M 177.5 1240 Q 183 1239 184 1242.5 Q 183.3 1251.8 178.5 1257 L 166.5 1273 L 164.5 1274 L 161 1271.5 L 162 1266.5 L 166.5 1260 L 174 1248.5 Q 174.3 1242.8 177.5 1240 Z" /><path desc="l 1 p 27" fill="rgb(0,0,0)" stroke="rgb(0,0,0)" stroke-width="1" opacity="0.9647058823529412" d="M 600.5 1243 Q 606 1242 607 1245.5 L 608 1250.5 L 607 1253.5 L 619 1292.5 Q 622.3 1306.2 629 1316.5 L 642.5 1342 L 659 1370.5 L 676 1404.5 L 679 1410.5 L 680 1415.5 Q 679.3 1418.8 674.5 1418 L 670 1410.5 L 662 1394.5 L 649.5 1371 L 633 1341.5 L 618.5 1314 L 611.5 1297 L 605 1277.5 L 600 1258.5 L 598.5 1252 L 598 1245.5 L 600.5 1243 Z" /><path desc="l 1 p 28" fill="rgb(0,0,0)" stroke="rgb(0,0,0)" stroke-width="1" opacity="0.9647058823529412" d="M 227.5 1250 Q 233 1249 234 1252.5 L 230.5 1266 L 221 1298.5 L 210 1329.5 Q 198.5 1355 190.5 1384 L 184 1402.5 L 182 1409.5 L 177.5 1415 Q 173.5 1415.5 173 1412.5 L 174.5 1405 L 180 1390.5 Q 185.1 1367.6 194 1348.5 L 201 1328.5 L 216.5 1284 L 222 1264.5 L 227.5 1250 Z" /><path desc="l 0 p 116" fill="rgb(0,0,0)" stroke="rgb(0,0,0)" stroke-width="1" opacity="0.023529411764705882" d="M 91.5 1271 Q 111.6 1272.9 122 1284.5 L 123 1288.5 L 112.5 1300 L 106.5 1303 L 100.5 1295 Q 94.6 1288.9 84.5 1287 L 77 1284.5 L 77.5 1283 L 91.5 1271 Z" /><path desc="l 0 p 117" fill="rgb(0,0,0)" stroke="rgb(0,0,0)" stroke-width="1" opacity="0.023529411764705882" d="M 821.5 1313 L 835 1318.5 Q 843.8 1322.7 858.5 1321 L 866.5 1319 Q 865.9 1329.6 870.5 1335 L 878.5 1343 L 881 1344.5 L 871 1349.5 L 861.5 1352 L 853.5 1352 Q 848.8 1351.3 848 1354.5 Q 848.7 1366.3 856.5 1371 Q 862.3 1375.7 871.5 1377 L 887.5 1378 L 910.5 1372 L 911 2047.5 L 0.5 2048 L 0 1427.5 L 1 1427.5 Q 7.1 1447.4 22.5 1458 Q 36.1 1467.9 55.5 1472 L 63 1473.5 L 77.5 1474 L 80.5 1473 L 89.5 1472 Q 93 1476.5 101.5 1476 Q 109.9 1473.8 114 1467.5 Q 124.8 1451.8 130.5 1431 L 132 1441.5 Q 131.3 1447.7 134.5 1450 L 139 1458.5 L 159.5 1484 Q 165.9 1492.1 182.5 1490 Q 196.5 1483 206 1471.5 L 250.5 1401 L 252 1404.5 L 252 1412.5 L 252 1442.5 L 252.5 1454 L 256 1466.5 L 262 1478.5 L 275 1499.5 L 283.5 1510 Q 287.7 1514.3 297.5 1513 L 304.5 1510 L 311 1505.5 Q 325.6 1488.6 334 1465.5 L 348 1430.5 L 352 1417.5 L 354.5 1411 L 357 1425.5 Q 360 1447.5 373.5 1459 L 385 1472.5 L 393 1483.5 L 408.5 1500 Q 412.8 1503.7 422.5 1502 Q 431.9 1498.4 437 1490.5 L 450.5 1470 L 459.5 1457 L 472 1440.5 L 482.5 1428 L 492 1449.5 Q 500.3 1465.7 513.5 1477 L 525 1485.5 Q 528.8 1489.8 535.5 1491 Q 539.3 1493.7 547.5 1492 L 558 1483.5 L 573.5 1460 L 581 1446.5 L 590 1431.5 L 594.5 1420 L 596 1413.5 Q 595.3 1408.8 597.5 1407 L 609.5 1422 L 637.5 1444 L 652.5 1455 Q 662.4 1463.6 675.5 1469 Q 685.4 1476.6 703.5 1476 Q 710.1 1475.1 713 1470.5 L 720.5 1454 L 725.5 1439 L 734.5 1439 L 739.5 1438 Q 742.5 1441 748.5 1441 L 773.5 1433 L 783 1428.5 Q 792.5 1424.5 798 1416.5 Q 805.3 1405.3 807 1388.5 Q 806.5 1385.5 802.5 1386 L 788.5 1395 L 779.5 1398 L 772 1399.5 L 764.5 1400 L 763 1385.5 L 761 1378.5 L 763.5 1372 L 781.5 1377 L 799.5 1378 L 807 1375.5 Q 812.6 1374.6 815 1370.5 Q 818.7 1364.7 817 1353.5 Q 815.4 1343.4 818 1337.5 L 819 1325.5 Q 817.1 1316.1 821.5 1313 Z" /><path desc="l 1 p 29" fill="rgb(0,0,0)" stroke="rgb(0,0,0)" stroke-width="1" opacity="0.9647058823529412" d="M 0.5 1319 Q 7.1 1319.4 10 1323.5 Q 10.8 1327.3 8.5 1328 L 3.5 1329 L 0 1327.5 L 0.5 1319 Z" /><path desc="l 0 p 118" fill="rgb(0,0,0)" stroke="rgb(0,0,0)" stroke-width="1" opacity="0.023529411764705882" d="M 809.5 1320 L 811 1320.5 L 810 1333.5 L 809 1350.5 Q 811.1 1362.1 806.5 1367 Q 798.5 1371 784.5 1369 L 770.5 1365 L 766.5 1364 L 763 1362.5 L 760 1346.5 Q 761.6 1339.6 767.5 1337 Q 776.2 1330.7 788.5 1328 L 799.5 1325 L 809.5 1320 Z" /><path desc="l 0 p 119" fill="rgb(0,0,0)" stroke="rgb(0,0,0)" stroke-width="1" opacity="0.023529411764705882" d="M 906.5 1333 L 911 1333.5 L 911 1354.5 Q 912.7 1362.3 908.5 1364 L 894.5 1368 L 880.5 1370 Q 878.8 1367.2 872.5 1369 L 865.5 1366 L 859 1361.5 L 862.5 1360 L 872.5 1358 Q 885.2 1354.7 892 1345.5 L 893 1342.5 Q 892.5 1337.5 896.5 1337 L 906.5 1333 Z" /><path desc="l 0 p 120" fill="rgb(0,0,0)" stroke="rgb(0,0,0)" stroke-width="1" opacity="0.023529411764705882" d="M 0.5 1356 L 11 1362.5 L 25.5 1374 L 63 1397.5 L 55.5 1409 Q 52.5 1411 53 1416.5 L 52 1422.5 Q 54.3 1423.8 53 1428.5 Q 50.9 1432.4 44.5 1432 L 33.5 1432 Q 21.4 1429.1 12.5 1423 L 7.5 1418 Q 6.5 1415 1.5 1416 L 0 1416.5 L 0.5 1356 Z" /><path desc="l 0 p 121" fill="rgb(0,0,0)" stroke="rgb(0,0,0)" stroke-width="1" opacity="0.023529411764705882" d="M 792.5 1402 L 795 1402.5 Q 792.4 1413.9 783.5 1419 L 764.5 1427 L 753.5 1431 L 745.5 1432 L 735 1424.5 L 734 1415.5 L 737.5 1410 L 745 1406.5 Q 748.1 1404.1 754.5 1405 Q 759.5 1409 768.5 1409 L 779.5 1407 L 792.5 1402 Z" /><path desc="l 0 p 122" fill="rgb(0,0,0)" stroke="rgb(0,0,0)" stroke-width="1" opacity="0.023529411764705882" d="M 64.5 1431 L 73.5 1432 L 83 1435.5 L 94 1445.5 L 94 1451.5 L 93 1454.5 L 87.5 1462 Q 84.3 1465.3 77.5 1465 L 67.5 1466 L 53 1462.5 L 43.5 1459 Q 24.8 1453.2 15 1438.5 L 13 1433.5 L 14.5 1434 L 27 1438.5 L 37 1440.5 L 43.5 1441 Q 44.7 1438.7 49.5 1440 L 57 1436.5 L 64.5 1431 Z" /></svg>