<svg width="911" height="2048" version="1.1" xmlns="http://www.w3.org/2000/svg" desc="Created with imagetracer.js version 1.1.2" ><path desc="l 0 p 0" fill="rgb(0,0,0)" stroke="rgb(0,0,0)" stroke-width="1" opacity="0" d="M 0.5 0 L 911 0.5 L 910.5 2048 L 0 2047.5 L 0.5 1372 Q 7.6 1366.6 18 1364.5 Q 28.1 1362.1 33 1354.5 L 37.5 1346 L 40 1337.5 L 37 1320.5 Q 35.7 1307.8 29.5 1300 L 24 1286.5 Q 16.6 1270.9 4 1260.5 L 10.5 1253 L 27 1238.5 L 33.5 1230 L 38 1221.5 Q 44.4 1214.4 44 1200.5 Q 42.2 1190.2 45.5 1185 L 47 1177.5 L 40.5 1164 Q 37.7 1154.8 30.5 1150 Q 24 1144 12.5 1143 L 3.5 1142 L 0.5 1143 L 0 996.5 L 1.5 997 L 14.5 1002 Q 19.9 1005.6 29 1005.5 L 47.5 1006 L 51.5 1005 L 58 1000.5 Q 58.8 994.2 56 991.5 L 47.5 979 L 26 946.5 L 27.5 946 Q 46.5 963 71 974.5 Q 86 984 108.5 986 L 131.5 987 L 136.5 986 Q 146.5 986 151 980.5 L 152 975.5 L 148 968.5 L 140 957.5 L 110 912.5 L 111.5 912 Q 142.9 934.1 182.5 948 L 198.5 953 L 223.5 960 L 240.5 964 L 255.5 966 L 266.5 967 L 284.5 967 L 303 963.5 L 318.5 960 L 330.5 958 L 339 954.5 L 346 950.5 L 347 945.5 L 342.5 940 L 325.5 929 L 304.5 912 Q 274.7 885.3 241 862.5 L 243.5 862 L 284.5 879 L 319.5 892 L 370.5 910 L 422.5 926 L 450 931.5 L 478 934.5 L 508.5 935 L 513.5 934 L 525.5 934 L 544.5 932 L 574.5 926 L 583.5 924 L 596.5 920 L 606.5 917 Q 616.7 915.7 622 909.5 L 623 903.5 L 619.5 899 L 551.5 870 L 512.5 853 L 486 840.5 L 436 816.5 L 437.5 817 L 474.5 824 L 490.5 826 L 507 827.5 L 518.5 828 Q 521.7 830.3 528.5 829 L 550.5 830 L 559 830.5 L 590.5 831 Q 592.3 828.3 598.5 830 L 619.5 830 L 634.5 829 L 649.5 827 Q 668.7 825.2 684.5 820 L 717 807.5 Q 725.3 805.8 730.5 801 Q 763.2 783.2 789 758.5 Q 791.7 756.2 791 750.5 L 784.5 743 L 776 740.5 L 771.5 740 L 750.5 738 L 722.5 737 L 701.5 735 L 669.5 729 L 609 714.5 L 609.5 713 L 620.5 712 L 635.5 710 L 674.5 704 L 697 698.5 L 713.5 694 L 727.5 689 Q 748.6 682.1 766.5 672 Q 794.3 661.8 815.5 645 L 838 623.5 L 844 612.5 L 846 605.5 L 846 595.5 L 841.5 590 L 834.5 589 L 822.5 589 L 819.5 590 L 810.5 590 L 793.5 592 L 769.5 594 L 732.5 596 L 709.5 597 L 669.5 597 L 666.5 596 L 658.5 596 Q 652.4 597.1 650 594.5 L 668.5 590 L 696.5 582 L 716.5 576 L 744.5 564 Q 777.5 550.5 806.5 533 Q 825.5 523.5 841.5 511 L 870 485.5 L 878 471.5 L 881.5 458 Q 884.3 451.3 883 440.5 L 879.5 435 L 873.5 434 L 865.5 436 L 849.5 438 L 829.5 439 L 788.5 439 Q 786.8 436.3 780.5 438 L 762.5 437 Q 753.5 438 748 435.5 L 777 412.5 L 815 378.5 Q 840.6 351.6 861 319.5 L 876 295.5 L 881 281.5 L 883 271.5 Q 885.3 266.8 884 258.5 Q 881.3 245.7 872.5 239 Q 867.2 238.2 865.5 241 Q 856.5 244 850.5 250 L 828.5 263 L 803.5 276 L 788 282.5 L 763.5 292 Q 736 303.5 705 311.5 L 662.5 323 L 635.5 330 L 615 334.5 L 567.5 343 L 543.5 347 L 531.5 348 L 520.5 350 L 481.5 355 L 446.5 359 L 413.5 361 Q 412 358.5 406.5 360 Q 397.4 359.1 391.5 355 L 371 347.5 L 356 343.5 Q 355.5 339.5 358.5 339 L 363 331.5 L 360.5 328 L 355.5 327 L 350.5 328 L 340.5 329 L 335.5 328 Q 334 330.5 328.5 329 L 308.5 329 L 303.5 328 L 297.5 328 L 294.5 327 L 287 326.5 L 278.5 325 L 266.5 323 L 261 320.5 L 259.5 317 L 250.5 316 L 232.5 315 L 222 314.5 L 214 312.5 L 171 302.5 L 150 298.5 L 129 295.5 L 120.5 294 L 105.5 293 L 88.5 292 L 58.5 292 L 53.5 293 L 41.5 293 L 0.5 296 L 0.5 0 Z" /><path desc="l 1 p 0" fill="rgb(0,0,0)" stroke="rgb(0,0,0)" stroke-width="1" opacity="0.8901960784313725" d="M 868.5 239 L 873.5 240 L 877 243.5 L 881 250.5 Q 885.4 256.6 884 268.5 L 881 279.5 Q 878.2 295.7 869.5 306 L 853 331.5 Q 833.2 360.7 808.5 385 L 777 412.5 L 748 435.5 Q 753.5 438 762.5 437 L 788 438.5 L 842.5 439 L 845.5 438 L 852.5 438 L 876.5 434 L 882 437.5 Q 884.5 443 883 452.5 L 879.5 466 Q 874.3 483.8 861.5 494 L 842 510.5 Q 825.9 523.4 806.5 533 L 780 547.5 L 744.5 564 L 720.5 574 L 697.5 582 L 682 586.5 L 650 594.5 Q 653 597.5 660.5 596 L 682.5 597 L 722.5 597 L 725.5 596 L 732.5 596 L 760 594.5 L 778 593.5 L 793.5 592 Q 798.3 593.3 799.5 591 L 822 589.5 L 838.5 589 L 845 593.5 L 846 598.5 L 846 608.5 Q 838.4 627.9 822.5 639 Q 806.4 654.9 783.5 664 L 760 675.5 L 739 684.5 Q 721 694 697.5 698 L 682.5 702 L 662.5 706 L 609 713.5 L 609.5 715 L 614 715.5 L 621 717.5 L 647.5 724 L 667.5 728 L 700.5 735 L 725.5 737 Q 731.8 735.3 733.5 738 L 765.5 739 L 768.5 740 L 775.5 740 L 780.5 742 Q 787.6 742.9 790 748.5 L 791 754.5 Q 788 762 781.5 766 L 745.5 792 Q 734.2 801.7 718.5 807 L 682.5 820 L 667.5 824 L 650.5 827 L 634.5 829 L 620.5 830 L 559.5 831 L 556.5 830 L 550.5 830 L 529.5 829 Q 522 830.5 518.5 828 L 507 827.5 L 491.5 826 L 474.5 824 L 437.5 817 L 437.5 818 L 486 840.5 Q 524.1 859.9 565.5 876 L 593 887.5 L 613 896.5 Q 619.1 897.4 622 901.5 L 623 907.5 L 619.5 912 L 606.5 917 L 597.5 920 L 577 925.5 L 554.5 930 L 537.5 933 L 520.5 934 L 478.5 935 Q 477.2 932.8 472.5 934 L 461.5 933 L 453.5 932 L 443.5 930 L 407.5 922 L 347 901.5 L 324.5 894 L 303.5 886 L 241.5 862 L 241.5 863 L 290.5 900 L 325.5 929 L 346 943.5 L 347 948.5 L 343.5 953 L 326 958.5 L 305.5 963 L 285 966.5 L 260.5 967 L 256.5 966 L 244.5 965 L 233 962.5 L 218 958.5 L 189 950.5 Q 167.2 944.3 149.5 934 L 110.5 912 L 110 913.5 L 139.5 957 L 148 967.5 Q 151.5 971 152 977.5 L 149.5 982 L 142.5 985 L 136.5 986 L 120.5 987 L 116.5 986 L 106.5 986 Q 84.2 983.3 69 973.5 Q 45.7 961.8 26.5 946 L 27 947.5 L 47.5 979 L 55.5 991 Q 58.9 993.6 58 1000.5 Q 56 1004.5 50.5 1005 L 43.5 1006 L 29.5 1006 L 20.5 1004 Q 8.2 1001.8 0 995.5 L 0.5 987 L 14.5 993 Q 20.8 997.2 31.5 997 L 47.5 997 L 48 994.5 Q 28.3 969.2 12.5 940 L 9 931.5 L 4 925.5 L 1 922.5 L 0 919.5 L 0 910.5 L 15.5 925 L 38 943.5 L 47.5 950 L 64.5 961 L 76 967.5 L 85.5 972 L 93.5 974 Q 99.9 977.6 110 977.5 L 137.5 978 L 142 975.5 L 110 927.5 L 98 910.5 L 93.5 900 L 56 876.5 L 49 872.5 L 39.5 869 L 31.5 868 L 15.5 865 L 0 860.5 L 0.5 852 L 31.5 860 L 49 861.5 L 72.5 862 L 88.5 859 Q 97.3 858.8 103 855.5 L 99.5 851 Q 83.4 842.1 71 829.5 L 46 805.5 L 41.5 800 L 34 793.5 L 24 786.5 L 0 770.5 L 0.5 761 L 34 782.5 Q 47.9 791.1 67.5 794 L 87.5 798 L 97.5 799 L 114.5 800 Q 115.8 797.7 120.5 799 L 146.5 797 L 156 796.5 L 163.5 795 L 171 792.5 L 177 789.5 L 147 776.5 L 114.5 760 L 88.5 744 L 72.5 736 L 40 718.5 L 25.5 711 Q 24.5 707 18.5 708 L 13.5 709 L 1.5 709 Q -1.7 707.3 0 700.5 L 5.5 700 Q 7.3 702.8 13.5 701 L 21 698.5 L 6 681.5 Q -0.4 678.9 0 669.5 L 0 652.5 L 1.5 653 Q 13.3 659.7 28.5 663 L 35.5 665 L 46 666.5 L 68.5 667 L 81 663.5 L 80.5 662 Q 58.8 648.2 41.5 630 Q 23.1 609.9 0 594.5 L 0.5 583 L 32 606.5 L 51 616.5 L 61 620.5 Q 69.3 625.2 81.5 626 L 102 628.5 L 115.5 629 Q 117 626.5 122.5 628 L 138.5 623 L 144 620.5 L 117.5 601 L 100.5 588 L 81 570.5 L 78.5 567 L 52.5 557 L 34.5 549 L 26 542.5 Q 24.3 539.2 18.5 540 Q 13.7 541.3 12.5 539 Q 9.8 540.3 12 541.5 Q 13.5 554 9 560.5 L 1.5 569 L 0 568.5 L 0 560.5 L 1.5 555 L 3 549.5 L 3 540.5 L 1.5 538 L 0 537.5 L 0 528.5 L 1 524.5 L 4 520.5 L 9.5 511 Q 12.1 508.6 11 502.5 L 8.5 498 L 6 499.5 L 0.5 507 L 0 493.5 L 6.5 482 Q 10.3 475.8 9 464.5 L 5.5 457 L 2 459.5 L 0.5 462 L 0 448.5 Q 4.5 445 3 435.5 L 1.5 435 L 0 435.5 L 0 428.5 Q -0.5 424.5 2.5 424 L 16 411.5 Q 22.8 404.8 23 391.5 L 17.5 377 L 0.5 385 L 0 375.5 L 41.5 353 L 58.5 345 L 80.5 337 L 103 332.5 L 150.5 322 L 167 318.5 L 188 315.5 L 174.5 312 L 159.5 309 L 137 305.5 L 111 302.5 L 96 301.5 L 75.5 301 Q 74.3 303.3 69.5 302 L 53.5 302 L 0.5 306 L 0 296.5 L 28.5 294 L 58 292.5 L 98.5 292 Q 99.8 294.3 104.5 293 L 124.5 295 L 161 300.5 L 189 306.5 L 211.5 312 L 222 314.5 L 231.5 315 L 249.5 316 Q 257 314.5 260 317.5 L 262.5 322 L 285.5 326 L 295 327.5 L 308 328.5 L 334.5 329 L 339.5 328 Q 340.7 330.2 345.5 329 L 350.5 328 L 358.5 327 L 362 329.5 L 363 332.5 L 358.5 339 Q 355.5 339.5 356 343.5 L 370.5 347 L 390.5 355 Q 397.5 359.5 408.5 360 L 418.5 361 Q 420.3 358.3 426.5 360 L 445.5 359 L 480.5 355 L 531 348.5 L 553 345.5 L 566.5 343 L 614.5 335 L 654.5 325 L 691.5 315 L 715 308.5 L 743.5 299 L 787.5 283 Q 817.7 271.2 843 254.5 L 868.5 239 Z" /><path desc="l 0 p 1" fill="rgb(0,0,0)" stroke="rgb(0,0,0)" stroke-width="1" opacity="0" d="M 867.5 249 Q 871.5 248.5 872 251.5 Q 876.7 257.4 875 269.5 L 873 277.5 Q 872.5 286 868 290.5 L 859 306.5 Q 830.2 354.7 789.5 391 L 766 410.5 L 743.5 428 L 724.5 440 L 707.5 449 L 691.5 456 L 674.5 462 L 653.5 467 L 613.5 476 L 580.5 481 L 564.5 483 L 541.5 485 L 491 489.5 L 482 490.5 L 462.5 491 L 477 475.5 Q 479.6 472.6 479 466.5 Q 476.5 461.5 467.5 463 L 465.5 463 L 446 462.5 L 432 461.5 L 422.5 460 L 400 456.5 L 407 454.5 L 424.5 451 L 432.5 448 Q 441 447 446 442.5 L 462 434.5 L 472.5 428 L 491 413.5 L 501.5 401 Q 505.3 398.8 504 391.5 Q 501.9 387.6 495.5 388 L 479.5 385 L 431 369.5 L 462.5 366 L 517.5 359 L 569.5 352 L 580 349.5 L 586.5 349 L 615.5 343 L 638.5 338 L 667.5 331 L 715.5 317 L 734 311.5 L 762 301.5 L 788 291.5 Q 832.1 274.6 867.5 249 Z" /><path desc="l 0 p 2" fill="rgb(0,0,0)" stroke="rgb(0,0,0)" stroke-width="1" opacity="0" d="M 75.5 301 L 103.5 302 L 136.5 305 L 143.5 307 L 153.5 308 L 166.5 310 L 188 315.5 L 167 318.5 L 150.5 322 L 103 332.5 L 92.5 335 L 82 336.5 Q 69.1 339.1 59.5 345 L 41.5 353 L 0.5 375 L 0 306.5 L 11.5 305 L 32 303.5 L 62.5 302 L 71.5 302 L 75.5 301 Z" /><path desc="l 0 p 3" fill="rgb(0,0,0)" stroke="rgb(0,0,0)" stroke-width="1" opacity="0" d="M 201.5 323 L 206.5 324 L 215.5 325 L 222 325.5 L 228.5 327 L 245.5 328 L 249.5 329 L 261.5 330 L 279.5 334 L 304.5 337 L 316.5 338 L 335.5 339 L 339.5 338 L 347.5 337 L 347 338.5 L 329.5 358 L 309.5 373 Q 298.4 380.4 283.5 384 Q 271.7 389.2 254.5 389 L 246.5 390 L 232 390.5 L 196.5 391 L 192.5 390 L 178.5 388 L 175.5 389 L 146 382.5 L 121 375.5 Q 119.8 370.3 122.5 369 L 133 359.5 L 143 339.5 L 144 335.5 L 145.5 332 L 178.5 325 L 194.5 324 Q 200 325.5 201.5 323 Z" /><path desc="l 0 p 4" fill="rgb(0,0,0)" stroke="rgb(0,0,0)" stroke-width="1" opacity="0" d="M 130.5 335 L 135 335.5 L 127 351.5 Q 125.4 358.4 119.5 361 L 114.5 363 L 105.5 364 Q 97.1 360.4 92 353.5 L 91 344.5 L 130.5 335 Z" /><path desc="l 0 p 5" fill="rgb(0,0,0)" stroke="rgb(0,0,0)" stroke-width="1" opacity="0" d="M 80.5 347 L 82 347.5 Q 84.5 351 83 358.5 Q 81.6 367.1 76.5 372 L 70.5 379 Q 65.8 384.8 58 387.5 L 51 389.5 L 42.5 390 Q 33.3 388.3 29 381.5 L 25 371.5 Q 41.1 360.6 61.5 354 L 80.5 347 Z" /><path desc="l 0 p 6" fill="rgb(0,0,0)" stroke="rgb(0,0,0)" stroke-width="1" opacity="0" d="M 348.5 351 L 358.5 353 L 368.5 356 L 394 365.5 L 430 378.5 L 466.5 390 L 485.5 395 L 489.5 396 L 493 397.5 L 482.5 410 L 467.5 421 L 458.5 427 L 441.5 435 Q 435.5 439.5 426.5 441 L 405.5 446 L 397 447.5 L 385 448.5 L 361.5 449 Q 359.8 446.2 353.5 448 L 332.5 447 L 296 441.5 Q 272.2 439.8 255 431.5 L 257.5 428 Q 267.8 423.3 274 414.5 L 275 410.5 L 272.5 407 L 265.5 406 L 252.5 405 L 239.5 402 L 235.5 401 L 232 399.5 L 254.5 398 L 268 396.5 Q 298.3 391.8 318.5 377 Q 335.5 366 348.5 351 Z" /><path desc="l 0 p 7" fill="rgb(0,0,0)" stroke="rgb(0,0,0)" stroke-width="1" opacity="0" d="M 90.5 365 L 98 369.5 Q 103 373.5 112 373.5 Q 110.5 380 105.5 383 Q 98 389 84.5 389 L 81.5 388 Q 76.8 388.8 76 385.5 Q 86 378 90.5 365 Z" /><path desc="l 0 p 8" fill="rgb(0,0,0)" stroke="rgb(0,0,0)" stroke-width="1" opacity="0" d="M 15.5 377 L 18 377.5 Q 22.7 384.8 23 396.5 Q 17.5 414.5 3.5 424 L 0.5 426 L 0 385.5 L 15.5 377 Z" /><path desc="l 0 p 9" fill="rgb(0,0,0)" stroke="rgb(0,0,0)" stroke-width="1" opacity="0" d="M 117.5 383 L 134 388.5 L 144.5 391 L 165.5 396 L 187.5 399 L 201 401.5 L 217.5 405 L 234 409.5 L 244.5 412 L 261 414.5 L 259.5 417 L 249.5 423 Q 247.7 426.6 242.5 427 Q 238.8 426.3 238 428.5 L 234.5 434 L 218.5 442 L 198 447.5 L 190.5 449 L 178 450.5 L 149.5 451 L 125.5 446 L 118 444.5 L 105.5 440 Q 99.6 439.4 97 435.5 L 96 432.5 L 105 420.5 Q 111.1 412.1 110 396.5 L 108 391.5 L 117.5 383 Z" /><path desc="l 0 p 10" fill="rgb(0,0,0)" stroke="rgb(0,0,0)" stroke-width="1" opacity="0" d="M 65.5 393 L 67 393.5 Q 68.5 404 64 408.5 L 56.5 419 L 46.5 427 Q 38.6 435.1 20.5 433 L 12 429.5 L 14 425.5 L 21.5 418 Q 27.9 411.9 30 401.5 L 32.5 395 Q 35.3 398.7 42.5 398 L 54.5 398 L 65.5 393 Z" /><path desc="l 0 p 11" fill="rgb(0,0,0)" stroke="rgb(0,0,0)" stroke-width="1" opacity="0" d="M 99.5 395 L 101 398.5 L 102 402.5 Q 99.3 418.3 89.5 427 L 81.5 431 Q 78.3 433.3 71.5 432 L 63 425.5 L 70.5 415 L 75 403.5 L 76.5 396 L 81.5 397 L 93.5 397 L 99.5 395 Z" /><path desc="l 0 p 12" fill="rgb(0,0,0)" stroke="rgb(0,0,0)" stroke-width="1" opacity="0" d="M 55.5 431 Q 59.9 434.1 59 442.5 Q 52.7 456.2 41.5 465 L 32.5 471 Q 27.8 474.3 18.5 473 L 17 463.5 L 16.5 460 L 14 454.5 L 10 447.5 L 12.5 439 L 22 441.5 L 32.5 442 Q 47.2 439.7 55.5 431 Z" /><path desc="l 0 p 13" fill="rgb(0,0,0)" stroke="rgb(0,0,0)" stroke-width="1" opacity="0" d="M 1.5 435 L 3 435.5 Q 4.4 444.4 0.5 448 L 0 436.5 L 1.5 435 Z" /><path desc="l 0 p 14" fill="rgb(0,0,0)" stroke="rgb(0,0,0)" stroke-width="1" opacity="0" d="M 243.5 438 Q 249.8 437.2 252.5 440 L 262.5 444 L 278 447.5 L 294.5 450 L 310.5 452 Q 313.4 454.6 319.5 454 L 324.5 455 L 345.5 456 L 371.5 458 Q 376.2 456.8 377.5 459 L 382.5 461 Q 389.1 465.4 400.5 465 L 427.5 470 L 439.5 471 L 455 471.5 L 467 472.5 L 456.5 484 L 455 484.5 L 451.5 489 L 440.5 498 L 414 517.5 L 406 521.5 L 392 526.5 L 369.5 532 L 360.5 534 L 344 535.5 L 310.5 536 L 249 522.5 L 229 518.5 L 206 512.5 L 206.5 511 Q 222.6 505.6 233 494.5 L 234 490.5 L 230.5 486 L 206 477.5 L 188.5 470 L 170 460.5 Q 172.8 458.3 178.5 459 L 194.5 457 L 210 453.5 L 217.5 451 Q 225.6 450.1 230.5 446 L 243.5 438 Z" /><path desc="l 0 p 15" fill="rgb(0,0,0)" stroke="rgb(0,0,0)" stroke-width="1" opacity="0" d="M 83.5 439 L 87 439.5 Q 90 442.5 89 449.5 Q 86.5 458.5 79.5 463 Q 75.9 465.9 68.5 465 L 62 460.5 L 60 457.5 Q 66.9 451.4 68.5 440 Q 71.7 442.3 78.5 441 L 83.5 439 Z" /><path desc="l 0 p 16" fill="rgb(0,0,0)" stroke="rgb(0,0,0)" stroke-width="1" opacity="0" d="M 872.5 443 L 875 444.5 Q 873.2 473.2 856.5 487 L 837.5 503 Q 816.7 519.7 791 531.5 L 733.5 560 L 705.5 570 L 689 575.5 L 672.5 580 L 655 584.5 L 631.5 589 L 595.5 592 L 565.5 593 L 502.5 593 L 497.5 592 L 488 591.5 L 470.5 591 L 432.5 590 L 417.5 590 L 409.5 589 Q 403.9 589.6 402.5 586 L 390.5 578 L 363 560.5 L 333 545.5 L 346.5 544 Q 352 545.5 353.5 543 L 364.5 542 L 372.5 540 L 376.5 539 L 383.5 538 L 405.5 531 Q 420.1 526.6 429.5 517 L 444.5 506 Q 447.9 499.9 457.5 500 L 471.5 500 L 537.5 494 L 557 492.5 L 576.5 490 L 600.5 487 L 606 485.5 L 612.5 485 L 654.5 476 L 690.5 466 Q 708.3 460.3 722.5 451 Q 728.4 444.9 740.5 445 L 761.5 445 Q 763.3 447.8 769.5 446 L 794 447.5 L 835.5 448 Q 836.8 445.8 841.5 447 L 855.5 446 L 863.5 445 L 872.5 443 Z" /><path desc="l 0 p 17" fill="rgb(0,0,0)" stroke="rgb(0,0,0)" stroke-width="1" opacity="0" d="M 98.5 447 L 148 462.5 L 161.5 467 L 169 469.5 L 179.5 475 Q 198.8 485.7 222 492.5 L 208.5 501 L 191 508.5 Q 180.3 513.3 165.5 514 L 161 514.5 L 142.5 515 L 132.5 513 L 128 511.5 Q 125.3 509.3 119.5 510 L 97 502.5 L 84 496.5 L 89.5 486 Q 92.7 482.7 91 474.5 L 88 467.5 L 95.5 456 L 98.5 447 Z" /><path desc="l 0 p 18" fill="rgb(0,0,0)" stroke="rgb(0,0,0)" stroke-width="1" opacity="0" d="M 4.5 457 L 7 458.5 Q 10.3 464.3 9 474.5 L 6.5 482 L 0.5 493 L 0 462.5 L 4.5 457 Z" /><path desc="l 0 p 19" fill="rgb(0,0,0)" stroke="rgb(0,0,0)" stroke-width="1" opacity="0" d="M 51.5 467 L 53 467.5 L 52.5 473 Q 52.3 478.3 49 480.5 L 40.5 491 Q 37.5 494 31.5 494 L 19.5 494 L 13 489.5 L 16.5 482 Q 24.7 483.3 29.5 481 Q 36.4 480.4 40 476.5 L 51.5 467 Z" /><path desc="l 0 p 20" fill="rgb(0,0,0)" stroke="rgb(0,0,0)" stroke-width="1" opacity="0" d="M 61.5 472 L 72.5 474 L 79.5 472 L 82 475.5 L 83 479.5 Q 80.1 489.1 73.5 495 L 68.5 498 Q 65.3 500.3 58.5 499 L 50 494.5 L 56 486.5 Q 60.7 481.2 61.5 472 Z" /><path desc="l 0 p 21" fill="rgb(0,0,0)" stroke="rgb(0,0,0)" stroke-width="1" opacity="0" d="M 7.5 498 L 9 498.5 Q 12 501.5 11 508.5 Q 7.4 518.4 0.5 525 L 0 507.5 L 7.5 498 Z" /><path desc="l 0 p 22" fill="rgb(0,0,0)" stroke="rgb(0,0,0)" stroke-width="1" opacity="0" d="M 41.5 500 L 45 502.5 Q 48.1 506.9 47 515.5 L 40.5 525 Q 33 532 18.5 532 L 15.5 531 Q 10.4 531.6 9 528.5 Q 15.5 522 18.5 512 Q 17.8 505.8 20.5 503 Q 34.6 505.1 41.5 500 Z" /><path desc="l 0 p 23" fill="rgb(0,0,0)" stroke="rgb(0,0,0)" stroke-width="1" opacity="0" d="M 76.5 503 L 99 512.5 L 115 517.5 Q 124.1 518.9 129.5 524 L 147.5 535 L 183 557.5 L 182.5 559 Q 169.8 564.3 152.5 565 L 136.5 566 L 107.5 566 L 86 560.5 L 69.5 555 L 55.5 549 Q 43.2 545.8 35 538.5 Q 44 534.5 50 527.5 L 54.5 519 Q 57.2 514.7 56.5 507 L 64.5 508 L 69.5 507 L 76.5 503 Z" /><path desc="l 0 p 24" fill="rgb(0,0,0)" stroke="rgb(0,0,0)" stroke-width="1" opacity="0" d="M 191.5 517 Q 195.3 516.3 196 518.5 L 201.5 521 L 213 524.5 L 229.5 528 L 272.5 538 L 287 541.5 L 298.5 543 L 307.5 545 L 320.5 549 L 342.5 560 Q 370.8 572.8 394 590.5 L 391.5 594 L 378.5 602 L 372.5 605 L 363.5 607 L 352 609.5 L 335.5 612 L 303.5 615 L 270.5 617 L 265.5 616 L 253.5 616 L 230 613.5 L 197.5 608 L 176 602.5 L 167 600.5 L 161.5 600 L 146.5 597 L 123.5 590 L 117.5 589 Q 111.5 588.4 109.5 584 L 98 573.5 L 102.5 573 L 105.5 574 L 112 574.5 L 125.5 575 L 127.5 574 Q 129.3 576.8 135.5 575 L 140.5 574 L 153.5 574 L 162.5 573 L 182.5 568 L 192.5 564 Q 198.1 564.1 200 560.5 Q 201 555 197.5 554 Q 183.2 549.8 173.5 541 L 148 524.5 L 166.5 523 L 174.5 522 L 191.5 517 Z" /><path desc="l 0 p 25" fill="rgb(0,0,0)" stroke="rgb(0,0,0)" stroke-width="1" opacity="0" d="M 0.5 538 L 2 538.5 L 3 543.5 L 3 552.5 L 0.5 557 L 0.5 538 Z" /><path desc="l 0 p 26" fill="rgb(0,0,0)" stroke="rgb(0,0,0)" stroke-width="1" opacity="0" d="M 12.5 539 Q 13.7 541.3 18.5 540 Q 23.8 539.2 25.5 542 L 34.5 549 L 62.5 561 L 74 565.5 L 81 569.5 L 83.5 573 L 100 587.5 L 116.5 601 L 144 620.5 L 128 626.5 L 116 628.5 L 102.5 629 L 97.5 628 L 82.5 626 Q 71.3 625.7 64 621.5 L 51 616.5 L 32 606.5 L 0 582.5 L 0.5 569 L 6 564.5 Q 13.7 557.7 12 541.5 Q 9.8 540.3 12.5 539 Z" /><path desc="l 0 p 27" fill="rgb(0,0,0)" stroke="rgb(0,0,0)" stroke-width="1" opacity="0" d="M 0.5 595 Q 23.1 609.9 41 629.5 Q 58.8 648.2 81 662.5 L 80.5 664 L 69 666.5 L 46.5 667 L 32.5 664 L 19.5 660 Q 7.8 657.7 0 651.5 L 0.5 595 Z" /><path desc="l 0 p 28" fill="rgb(0,0,0)" stroke="rgb(0,0,0)" stroke-width="1" opacity="0" d="M 401.5 597 L 418 598.5 L 442.5 599 L 470 599.5 L 493 600.5 L 516 601.5 L 572.5 602 L 577.5 601 L 590.5 601 L 595.5 602 L 605 602.5 L 622.5 603 L 649.5 604 L 715.5 606 L 718.5 605 L 724.5 605 L 754 603.5 L 779.5 602 L 795 600.5 L 816 598.5 L 836.5 598 L 838 602.5 L 837 605.5 L 835.5 611 L 830 619.5 L 818.5 631 Q 802.1 647.6 778.5 657 Q 756.9 668.9 732.5 678 Q 703.8 690.8 667.5 696 L 659.5 698 L 644.5 700 L 621.5 703 L 601 705.5 L 567.5 706 L 534 707.5 L 463.5 708 L 458.5 707 L 445.5 707 L 402.5 704 L 385.5 702 L 377.5 701 L 368.5 699 Q 362.8 699.8 360 697.5 L 346.5 695 L 328 691.5 L 315.5 688 L 309 685.5 L 309.5 684 Q 322.4 680.4 330 671.5 L 334.5 664 Q 337.1 661.6 336 655.5 Q 333.3 651.3 327.5 650 L 311.5 643 L 269 625.5 L 298.5 624 L 319 622.5 L 334 620.5 L 347.5 619 L 366.5 615 Q 379.4 613.9 386.5 607 L 401.5 597 Z" /><path desc="l 0 p 29" fill="rgb(0,0,0)" stroke="rgb(0,0,0)" stroke-width="1" opacity="0" d="M 137.5 604 L 147.5 606 L 161.5 608 L 189 614.5 L 202 617.5 L 221.5 621 L 231.5 622 L 239.5 625 L 252 629.5 Q 267 633 279 639.5 L 304.5 649 L 327 659.5 L 324.5 664 L 318.5 670 L 305.5 677 Q 294.3 683.3 277.5 684 L 273.5 685 L 265 685.5 L 242.5 686 L 237.5 685 L 227.5 684 L 191.5 680 L 176.5 677 L 165.5 675 L 154.5 671 L 123.5 659 Q 108.2 655.3 97 647.5 L 73 634.5 L 79.5 634 L 90.5 636 L 100.5 637 L 121.5 637 L 141.5 631 Q 149.6 630.1 154 625.5 L 155 618.5 L 145 610.5 Q 139.2 608.1 137.5 604 Z" /><path desc="l 0 p 30" fill="rgb(0,0,0)" stroke="rgb(0,0,0)" stroke-width="1" opacity="0" d="M 70.5 643 Q 90.5 656 114.5 665 L 121.5 668 L 127 670.5 L 131.5 674 Q 147.2 680.3 159.5 690 L 243 742.5 L 241.5 745 Q 235.8 748.8 226.5 749 L 213.5 750 Q 208 748.5 206.5 751 L 154.5 753 L 146 751.5 L 131 749.5 Q 114.7 747.8 103.5 741 L 85.5 733 L 32 704.5 L 33 699.5 L 25.5 690 L 2 663.5 L 3.5 663 L 12.5 667 L 28.5 672 L 37.5 674 L 47.5 675 L 65.5 676 L 81.5 672 Q 89.3 671.3 93 666.5 L 94 662.5 L 81.5 652 Q 73.5 648.7 70.5 643 Z" /><path desc="l 0 p 31" fill="rgb(0,0,0)" stroke="rgb(0,0,0)" stroke-width="1" opacity="0" d="M 0.5 675 L 21 698.5 L 14 700.5 L 6.5 701 L 0 699.5 L 0.5 675 Z" /><path desc="l 0 p 32" fill="rgb(0,0,0)" stroke="rgb(0,0,0)" stroke-width="1" opacity="0" d="M 169.5 685 L 216.5 692 L 228.5 693 L 243.5 694 L 273.5 694 L 294.5 690 Q 295.9 693.6 301.5 693 L 310 695.5 L 329 700.5 L 345 703.5 L 376.5 710 L 398.5 712 L 414.5 713 Q 416 715.5 421.5 714 L 438.5 715 L 468 716.5 L 521.5 717 L 525.5 716 L 537.5 716 L 580.5 715 L 591.5 719 L 607.5 723 L 648.5 733 L 684 740.5 L 707.5 744 L 728.5 746 L 744 746.5 L 763.5 748 L 773.5 749 Q 779.9 748.6 782 752.5 L 777.5 758 L 740.5 785 Q 729 795 712.5 800 L 679.5 812 L 666 815.5 L 655 817.5 L 642 819.5 L 624.5 821 L 605 821.5 L 552.5 822 L 548.5 821 L 536.5 821 L 498.5 818 L 485 816.5 L 463.5 813 L 447.5 810 L 432.5 806 L 390.5 794 L 347.5 781 L 315 770.5 Q 281.7 761.8 252 749.5 L 255 742.5 L 252.5 738 L 194.5 702 L 176.5 691 L 172.5 688 L 169.5 685 Z" /><path desc="l 0 p 33" fill="rgb(0,0,0)" stroke="rgb(0,0,0)" stroke-width="1" opacity="0" d="M 0.5 708 L 5.5 709 L 17.5 709 L 22.5 708 L 31 713.5 L 44 720.5 L 105 753.5 L 129.5 768 Q 151.5 780.5 177 789.5 L 171 792.5 L 163.5 795 L 156 796.5 L 147.5 797 L 109.5 800 Q 108 797.5 102.5 799 Q 93 800.5 87.5 798 L 67.5 794 L 50.5 790 L 34.5 783 L 0 760.5 L 0.5 708 Z" /><path desc="l 0 p 34" fill="rgb(0,0,0)" stroke="rgb(0,0,0)" stroke-width="1" opacity="0" d="M 241.5 754 L 254 759.5 L 277 767.5 L 319.5 781 L 397 810.5 L 436 826.5 L 456.5 836 L 485.5 850 L 555.5 881 L 588.5 895 Q 601.3 898.7 611 905.5 L 610.5 907 L 594.5 912 L 573 917.5 L 556.5 921 L 540.5 924 L 522 925.5 L 474.5 926 L 471.5 925 L 464.5 925 L 442.5 921 L 410.5 914 L 372 901.5 L 326.5 886 L 287.5 871 L 243.5 853 L 190.5 828 L 147 806.5 L 147.5 805 L 156.5 805 L 161.5 804 Q 169.8 803.8 174.5 800 L 185 795.5 L 192 791.5 L 193 787.5 Q 190.9 783.1 184.5 783 L 173 778.5 Q 150.6 770.9 132 759.5 L 139.5 759 L 148 760.5 L 157.5 761 L 183.5 761 Q 185.3 758.3 191.5 760 L 214.5 759 L 231.5 757 L 241.5 754 Z" /><path desc="l 0 p 35" fill="rgb(0,0,0)" stroke="rgb(0,0,0)" stroke-width="1" opacity="0" d="M 0.5 771 L 24 786.5 L 34.5 794 L 46 804.5 L 65.5 825 L 90.5 845 L 103 854.5 L 102.5 856 L 77.5 861 L 67.5 862 L 49.5 862 Q 48.3 859.8 43.5 861 L 29.5 859 L 11.5 855 L 0 851.5 L 0.5 771 Z" /><path desc="l 0 p 36" fill="rgb(0,0,0)" stroke="rgb(0,0,0)" stroke-width="1" opacity="0" d="M 54.5 800 L 71.5 804 L 83.5 806 L 93 807.5 L 100.5 808 L 123.5 808 L 125.5 807 L 146.5 818 L 182 834.5 L 199.5 844 Q 209.3 847.2 215.5 854 L 240 872.5 L 295.5 915 Q 313.1 932.4 335 945.5 L 334.5 947 L 320.5 951 L 301.5 955 L 291.5 957 L 283.5 958 L 269.5 959 Q 268.3 956.8 263.5 958 L 247.5 956 L 234.5 954 L 223.5 951 L 198.5 944 Q 183.7 941.3 172.5 935 L 141.5 920 L 108.5 900 L 64 871.5 L 64.5 870 L 79 869.5 L 93.5 867 L 104.5 864 Q 111.1 863.1 114 858.5 L 115 855.5 Q 113.4 848.6 107.5 846 L 83 828.5 L 59 806.5 L 54.5 800 Z" /><path desc="l 0 p 37" fill="rgb(0,0,0)" stroke="rgb(0,0,0)" stroke-width="1" opacity="0" d="M 0.5 861 L 18 865.5 L 35.5 869 L 41 869.5 L 48.5 872 L 56 876.5 L 95 901.5 Q 95 909 99.5 912 L 109.5 927 L 142 975.5 Q 139.1 979.1 131.5 978 L 110.5 978 L 99.5 976 Q 83.8 973.2 72.5 966 Q 30.5 943.5 0 909.5 Q -1.7 902.7 1.5 901 Q 4.3 899.8 3 894.5 Q -2 892.5 0 883.5 L 0.5 861 Z" /><path desc="l 1 p 1" fill="rgb(0,0,0)" stroke="rgb(0,0,0)" stroke-width="1" opacity="0.8901960784313725" d="M 0.5 892 Q 4.3 893.3 3 899.5 L 0 901.5 L 0.5 892 Z" /><path desc="l 0 p 38" fill="rgb(0,0,0)" stroke="rgb(0,0,0)" stroke-width="1" opacity="0" d="M 0.5 922 L 6 927.5 L 9 933.5 L 15.5 946 L 39 982.5 L 46 991.5 L 48 996.5 L 26.5 997 L 13.5 993 L 0 986.5 L 0.5 922 Z" /><path desc="l 1 p 2" fill="rgb(0,0,0)" stroke="rgb(0,0,0)" stroke-width="1" opacity="0.8901960784313725" d="M 3.5 1142 L 11.5 1143 L 16.5 1144 Q 24 1144.5 28 1148.5 L 37 1156.5 L 43.5 1169 Q 47.2 1173.3 47 1181.5 Q 41.9 1188.4 44 1202.5 Q 44 1213 39.5 1219 Q 33.1 1234.1 21.5 1244 L 5 1258.5 L 4 1260.5 Q 16.6 1270.9 24 1286.5 L 29 1299.5 Q 35.7 1307.3 37 1320.5 L 40 1338.5 Q 36.8 1353.3 26.5 1361 L 15 1365.5 L 0.5 1372 L 0 1362.5 L 3 1360.5 L 4.5 1358 Q 10.3 1356.8 13 1352.5 Q 15.7 1350.2 15 1344.5 L 7.5 1335 L 0 1332.5 L 0.5 1325 L 6 1325.5 L 12.5 1328 L 19 1333.5 Q 23.3 1338.7 24 1347.5 L 23 1351.5 L 26 1349.5 L 30 1342.5 L 31 1332.5 L 28.5 1321 Q 27.5 1311.5 23 1305.5 L 15 1290.5 L 12 1282.5 L 3 1271.5 Q -1 1270.5 0 1264.5 L 0 1251.5 L 20 1233.5 Q 27 1226.5 31 1216.5 Q 35 1212.5 35 1204.5 L 36 1195.5 L 27.5 1182 Q 10.3 1181.8 3 1191.5 L 0.5 1198 L 0 1182.5 Q 9.2 1173.7 26.5 1173 L 36.5 1177 L 37 1174.5 L 28.5 1163 L 25.5 1157 Q 17.8 1150.2 2.5 1151 L 0.5 1152 L 0 1143.5 L 3.5 1142 Z" /><path desc="l 0 p 39" fill="rgb(0,0,0)" stroke="rgb(0,0,0)" stroke-width="1" opacity="0" d="M 2.5 1151 Q 19.4 1150.1 27 1158.5 Q 27.8 1164.8 32 1167.5 L 36 1173.5 L 37 1176.5 L 35.5 1176 L 27 1173.5 L 22.5 1173 L 16.5 1175 Q 5.8 1175.8 0.5 1182 L 0 1152.5 L 2.5 1151 Z" /><path desc="l 0 p 40" fill="rgb(0,0,0)" stroke="rgb(0,0,0)" stroke-width="1" opacity="0" d="M 21.5 1182 Q 27.5 1180.5 29 1183.5 L 33 1190.5 Q 36.9 1193.1 36 1200.5 Q 33.7 1201.8 35 1206.5 L 32.5 1214 L 27 1223.5 L 17.5 1236 L 0.5 1251 L 0 1234.5 L 5.5 1224 Q 8.7 1220.7 7 1212.5 L 5.5 1210 L 0 1207.5 Q -1.2 1192.3 7.5 1187 L 21.5 1182 Z" /><path desc="l 1 p 3" fill="rgb(0,0,0)" stroke="rgb(0,0,0)" stroke-width="1" opacity="0.8901960784313725" d="M 0.5 1208 L 6 1210.5 Q 8.5 1214 7 1221.5 L 0.5 1234 L 0.5 1208 Z" /><path desc="l 0 p 41" fill="rgb(0,0,0)" stroke="rgb(0,0,0)" stroke-width="1" opacity="0" d="M 0.5 1269 Q 9 1276 14 1286.5 L 17 1295.5 L 22 1304.5 Q 27.4 1310.6 28.5 1321 L 30.5 1332 L 31 1339.5 L 23.5 1352 L 23 1348.5 L 24 1345.5 Q 22.5 1336 16.5 1331 Q 10.9 1325.1 0 1324.5 L 0.5 1269 Z" /><path desc="l 0 p 42" fill="rgb(0,0,0)" stroke="rgb(0,0,0)" stroke-width="1" opacity="0" d="M 0.5 1333 Q 9.5 1334 13 1340.5 Q 15.7 1342.8 15 1348.5 L 9.5 1356 L 3 1359.5 L 1.5 1362 L 0 1361.5 L 0.5 1333 Z" /></svg>