<svg width="620" height="750" version="1.1" xmlns="http://www.w3.org/2000/svg" desc="Created with imagetracer.js version 1.1.2" ><path desc="l 1 p 0" fill="rgb(81,81,81)" stroke="rgb(81,81,81)" stroke-width="1" opacity="0" d="M 0.5 0 L 620 0.5 L 619.5 750 L 0 749.5 L 0 669.5 L 0 649.5 Q -1.8 641.8 2.5 640 L 11.5 628 L 15 635.5 Q 18.9 645.1 26.5 651 L 33 655.5 Q 35.7 658.3 42.5 657 L 50.5 647 L 59.5 632 Q 64 627.5 64.5 619 L 69.5 625 L 89.5 640 L 102 647.5 Q 105.6 650.9 113.5 650 L 119 645.5 L 123.5 633 L 134.5 634 L 146 629.5 Q 153.9 627.9 157 621.5 L 161 610.5 Q 158.8 605.8 156.5 610 Q 151.1 614.6 141.5 615 Q 141.8 608.8 139 605.5 L 141.5 602 Q 147.3 606.2 158.5 605 L 164 601.5 L 165 593.5 L 166 581.5 Q 164.8 576.3 167.5 575 Q 172.5 580.5 184.5 579 L 186.5 578 L 188 581.5 Q 188.3 586.3 191.5 588 L 194 589.5 Q 188.7 593.7 179 593.5 Q 179.3 600.8 184.5 603 Q 189.6 606.4 199.5 605 L 214.5 599 Q 221.7 598.1 224 592.5 L 226 584.5 Q 222 563.5 210 550.5 L 222 538.5 Q 227.3 533.3 228 523.5 L 229 511.5 L 222.5 501 Q 218.2 495.8 207.5 497 L 203.5 499 Q 202.3 496.8 197.5 498 Q 185.5 502 178 510.5 L 174 516.5 L 172 521.5 L 165.5 530 L 159.5 531 L 160 529.5 Q 158.8 524.3 161.5 523 L 163 522.5 L 165.5 519 L 167 513.5 L 168 501.5 L 161.5 491 L 155.5 489 Q 151.3 489.8 150.5 487 L 135 476.5 L 118 459.5 L 100 434.5 L 102.5 436 Q 111.4 442.6 124.5 445 L 129 441.5 Q 129.6 436.9 127 435.5 L 129.5 437 L 144 443.5 L 151 445.5 L 155.5 446 L 161.5 447 L 165 444.5 L 164 440.5 L 161 434.5 L 151 421.5 L 156.5 426 Q 164 432.5 174.5 436 L 182.5 438 L 189.5 439 L 192.5 438 Q 196.5 438.5 197 435.5 L 196 430.5 L 193.5 427 L 186 416.5 L 187.5 416 Q 194.8 424.8 206 429.5 Q 214.1 435.9 229.5 435 L 234 432.5 L 233 427.5 L 230 423.5 L 220 408.5 L 221.5 409 L 239.5 420 Q 244.4 424.1 252.5 425 L 259.5 426 L 271.5 426 L 277 422.5 L 276 418.5 L 273 413.5 L 258 392.5 L 259.5 393 L 275 401.5 L 291 408.5 L 308.5 414 L 324 416.5 L 339.5 417 L 354.5 414 L 366 409.5 Q 366.8 403.8 362.5 403 L 318 369.5 L 319.5 369 L 337 376.5 L 357.5 384 L 385 393.5 L 410.5 400 L 419 401.5 L 427.5 402 L 452.5 402 L 472.5 398 L 484.5 394 L 492 390.5 L 493 388.5 L 491.5 386 L 455.5 371 L 408 348.5 L 409.5 348 L 416.5 350 L 428.5 352 L 447.5 354 L 477.5 355 L 481.5 354 L 491.5 354 L 501 353.5 L 507 352.5 L 523 348.5 Q 537.1 345.1 547.5 338 L 556 331.5 L 569 320.5 Q 570 315 566.5 314 L 557 312.5 L 540 311.5 L 513.5 308 L 487 301.5 L 492.5 300 L 499.5 299 Q 512.2 298.7 521.5 295 L 530.5 293 L 543.5 289 L 565.5 279 Q 581.7 271.7 592 258.5 L 594.5 252 L 595 247.5 L 592.5 244 L 576 244.5 L 564.5 246 L 551 246.5 L 505.5 247 L 505.5 246 Q 565.3 232.8 604 198.5 Q 611.5 191 612 176.5 L 609.5 173 L 597 174.5 L 562.5 175 L 558.5 174 L 550 173.5 Q 569.9 159.4 586 141.5 L 603.5 117 L 608 109.5 L 611 101.5 L 612 91.5 L 607.5 84 Q 601.8 83.3 599.5 86 L 593 90.5 Q 577.6 101.6 557 107.5 L 521.5 119 L 500.5 125 L 468.5 131 L 440.5 135 L 416.5 138 L 411 138.5 L 392.5 139 L 382.5 135 L 370 131.5 L 374 126.5 L 372.5 124 L 363.5 125 L 361.5 124 L 357.5 125 L 348.5 125 L 343.5 124 L 328.5 122 Q 327.8 118.3 322.5 119 L 316 118.5 L 304.5 117 L 287.5 113 L 262.5 109 L 249.5 108 L 224.5 108 Q 223 110.5 217.5 109 L 190 111.5 L 176.5 113 Q 175.2 115.3 170.5 114 L 151 120.5 Q 128.6 128.1 109.5 139 Q 92.4 146.4 79.5 158 L 43 190.5 Q 34.4 200.4 29 213.5 L 25 222.5 L 24 228.5 L 24 240.5 L 27.5 245 L 31.5 246 L 55.5 231 L 67.5 225 L 72.5 224 L 83.5 224 Q 92.1 225.4 97 230.5 Q 101 236.5 102 245.5 L 103 250.5 L 101 260.5 L 96 271.5 Q 93.5 282 87 288.5 Q 79.3 301.3 67.5 310 Q 57.7 317.7 44.5 322 L 37.5 314 L 29 309.5 L 24.5 304 Q 20 299.5 9.5 301 L 1.5 304 Q -1.3 302.8 0 297.5 L 0 283.5 L 0 226.5 L 0.5 0 Z" /><path desc="l 0 p 0" fill="rgb(0,0,0)" stroke="rgb(0,0,0)" stroke-width="1" opacity="0.8588235294117647" d="M 603.5 84 L 608 84.5 L 611 89.5 L 612 97.5 L 611 102.5 Q 608.8 111.3 603.5 117 Q 589.7 140.7 569.5 158 L 550 173.5 L 562 174.5 L 596.5 175 L 600.5 174 L 609.5 173 Q 612.8 174.7 612 180.5 L 610 186.5 Q 608.1 195.1 602.5 200 Q 563.6 233.1 505 246.5 L 550.5 247 Q 551.7 244.7 556.5 246 L 570.5 245 L 592.5 244 Q 595.8 245.7 595 251.5 L 589.5 261 L 580.5 270 Q 568 279.5 551.5 285 L 536 291.5 L 519.5 296 L 497 299.5 Q 490.1 298.6 487 301.5 L 513 307.5 L 526.5 310 L 542.5 312 Q 553.4 310.6 560.5 313 Q 566.9 312.6 569 316.5 Q 570 321.5 567 322.5 L 561.5 328 L 544.5 340 Q 535.7 345.7 523.5 348 L 519.5 350 L 510.5 352 L 501 353.5 L 463.5 355 L 458.5 354 L 447.5 354 L 422.5 351 L 410.5 349 L 410.5 350 L 492 386.5 L 493 388.5 L 490.5 392 L 473.5 398 Q 464.9 397.9 459.5 401 L 444.5 402 L 419.5 402 L 397.5 397 L 378.5 391 L 354.5 383 L 320.5 370 L 321.5 372 L 366 406.5 L 365.5 410 Q 358.5 414 348.5 415 L 340 416.5 L 324.5 417 L 294.5 410 Q 275 403.5 259.5 393 L 260 394.5 L 272.5 413 L 276 418.5 L 277 422.5 Q 274.7 426.7 267.5 426 L 255.5 426 L 247.5 424 L 239.5 420 L 221.5 409 L 221 410.5 L 230 423.5 L 232.5 427 L 234 432.5 Q 230.1 436.6 220.5 435 Q 199.6 429.4 186.5 416 L 188 418.5 L 195 428.5 Q 197.8 430.2 197 435.5 Q 196.5 438.5 192.5 438 L 187.5 439 L 178.5 437 Q 162.1 432.9 152.5 422 L 152 423.5 L 160.5 434 L 164 439.5 L 165 444.5 L 160.5 447 L 157.5 446 L 151.5 446 L 139 441.5 L 128.5 436 L 128 437.5 L 129 441.5 Q 127.3 444.8 122.5 445 Q 109.3 441.7 100.5 434 L 100 435.5 Q 115.9 460.1 137.5 479 L 149.5 487 L 154.5 489 L 158.5 490 L 164 493.5 L 167 499.5 Q 169.3 502.7 168 509.5 L 167 513.5 L 166 518.5 L 162.5 523 L 160 524.5 Q 161.3 529.3 159 530.5 L 163.5 531 L 170 525.5 Q 172.9 514.4 180.5 508 L 190 501.5 L 197 498.5 L 202.5 498 L 204.5 499 Q 207.1 495.6 214.5 497 L 223 501.5 L 227.5 509 Q 229.8 510.8 229 515.5 Q 226.3 517.3 228 523.5 Q 227.3 533.3 222 538.5 L 210 551.5 L 218 562.5 L 221.5 570 L 225 578.5 L 226 587.5 Q 224.2 594.7 218.5 598 L 206.5 603 L 200 604.5 L 189.5 605 Q 183 603.5 180 598.5 L 179 593.5 Q 188.7 593.7 194 589.5 L 189 585.5 L 186.5 578 Q 183 580.5 175.5 579 L 167.5 575 Q 164.8 576.3 166 581.5 L 165 593.5 Q 166.3 601.8 161.5 604 L 149.5 605 L 141.5 602 L 139 605.5 Q 141.8 608.8 141.5 615 Q 153 614.5 158.5 608 L 161 611.5 Q 158.6 622.6 150.5 628 L 140.5 632 L 131.5 634 Q 129.8 631.3 123.5 633 L 120 641.5 Q 119.6 647.1 115.5 649 L 107.5 650 Q 96.7 646.8 89.5 640 L 69 624.5 L 64.5 619 Q 64 627 60 631.5 L 50.5 647 L 42.5 657 Q 33.7 658.3 30.5 654 L 21 645.5 L 11.5 628 L 0.5 642 L 0 635.5 L 5.5 629 L 9 624.5 L 10 618.5 L 9 614.5 L 8 605.5 L 6 585.5 L 4.5 553 L 1 551.5 L 0 542.5 L 1 542.5 L 4.5 549 Q 9.3 549.8 10 546.5 L 15.5 534 L 19.5 523 L 21 516.5 L 24 504.5 L 25 495.5 L 25 477.5 L 23 472.5 L 24 470.5 L 19.5 470 L 16 468.5 L 17.5 466 Q 36.6 468.6 45 460.5 L 49.5 453 Q 52.5 450 51 442.5 L 48.5 438 L 40.5 435 L 35 436.5 L 41 438.5 Q 41.8 442.3 39.5 443 L 22 453.5 L 28.5 454 L 35.5 452 L 37 454.5 Q 29.5 462 17.5 465 L 8.5 468 L 0.5 469 L 0 465.5 L 6.5 464 L 20 459.5 L 11.5 458 L 7 456.5 L 8.5 453 L 21.5 449 L 33 441.5 L 32.5 440 Q 24.2 440.8 20 437.5 L 23.5 433 Q 37.6 426.1 48 415.5 Q 46.3 413.3 41.5 414 L 28.5 414 L 18.5 416 L 17 413.5 Q 25.3 395.8 38 382.5 L 36.5 382 L 13 392.5 L 7.5 395 L 3.5 396 L 3 393.5 Q 9.8 382.8 12 367.5 L 9.5 369 L 0.5 376 L 0 358.5 Q 1.4 355.4 6.5 356 L 15 355.5 L 16 350.5 L 9.5 343 L 0 339.5 L 0.5 335 L 2.5 336 L 3 334.5 L 1 331.5 Q -1.3 330.2 0 325.5 Q 2.3 327.2 4.5 323 L 13 320.5 Q 12.4 314.2 7.5 312 L 0 307.5 L 0.5 303 L 2.5 304 Q 7.7 299.7 18.5 301 Q 25.3 303.3 29 308.5 L 30.5 311 Q 37.5 312.6 41 317.5 L 44.5 322 Q 68.9 313.4 83 294.5 Q 97.9 276.9 103 249.5 L 101.5 242 Q 99.9 233.1 94.5 228 Q 85.9 222.1 69.5 224 Q 54.5 230 42.5 239 L 37 242.5 L 29.5 246 L 25 242.5 L 24 236.5 L 24 224.5 L 33 206.5 Q 37.8 194.8 46.5 187 L 73.5 163 Q 87.2 150.2 104.5 141 L 128.5 130 L 141.5 124 L 160 117.5 L 172.5 114 L 189.5 112 L 193.5 111 L 203.5 110 L 224 108.5 L 257.5 108 L 260.5 109 L 266.5 109 L 293.5 114 L 304.5 117 L 311.5 118 L 320.5 119 Q 325.8 117.8 327 120.5 Q 327.8 122.8 331.5 122 L 342.5 124 L 360.5 125 L 362.5 124 L 365.5 125 Q 367 122.5 372.5 124 L 374 126.5 L 370 131.5 L 386 136.5 L 392 138.5 L 396.5 139 L 410.5 139 L 415.5 138 L 423.5 137 L 454.5 133 L 485.5 128 L 510.5 122 L 534 115.5 L 567.5 104 Q 587.4 95.9 603.5 84 Z" /><path desc="l 1 p 1" fill="rgb(81,81,81)" stroke="rgb(81,81,81)" stroke-width="1" opacity="0" d="M 604.5 88 Q 608.4 90.1 608 96.5 Q 606 108.5 599.5 116 Q 585.5 139 565.5 156 Q 554.3 166.8 540 174.5 Q 528.9 183.4 512 186.5 Q 499.9 190.9 484.5 192 L 467.5 195 L 456.5 196 L 434.5 198 L 419.5 199 L 426 191.5 L 427 188.5 Q 425 184 416.5 186 L 407 185.5 L 392 183.5 Q 393 181 397.5 182 L 406 179.5 Q 424.4 172.9 436 159.5 Q 438.6 158.1 438 153.5 L 434.5 152 L 427.5 150 L 405 143.5 L 449.5 138 L 489 131.5 L 538.5 119 L 562.5 110 Q 586.5 102 604.5 88 Z" /><path desc="l 1 p 2" fill="rgb(81,81,81)" stroke="rgb(81,81,81)" stroke-width="1" opacity="0" d="M 240.5 112 L 252 112.5 L 267.5 114 L 283 116.5 L 292 118.5 L 250 127.5 Q 242 127.5 237.5 131 L 222.5 138 Q 192.6 151.1 172 173.5 Q 160.3 188.3 151.5 206 Q 139.4 228.4 131 254.5 Q 131 260.5 128 263.5 Q 125.4 264.9 126 269.5 L 125 277.5 Q 117.5 300.5 101.5 315 L 74 335.5 Q 71.9 339.4 66 339.5 L 64.5 342 Q 59.5 342.5 59 338.5 L 52.5 334 L 46 332.5 L 46.5 325 Q 71.8 316.8 86 297.5 Q 97.2 284.7 103 266.5 L 106 256.5 L 107 246.5 L 105 238.5 Q 102.9 229.1 96.5 224 L 87.5 221 L 80 219.5 L 72.5 219 L 57.5 225 L 41.5 234 L 34 239.5 Q 33.3 241.8 29.5 241 Q 26.5 238 28 230.5 Q 33.8 205.3 49.5 190 L 72.5 169 Q 87.8 154.8 107 144.5 L 129.5 134 L 153.5 124 L 174.5 118 L 187.5 116 L 223.5 113 L 235.5 113 L 240.5 112 Z" /><path desc="l 1 p 3" fill="rgb(81,81,81)" stroke="rgb(81,81,81)" stroke-width="1" opacity="0" d="M 299.5 122 L 331 126.5 L 349.5 129 L 360.5 130 L 365.5 129 L 362 133.5 L 358.5 138 Q 347.3 149.8 326.5 152 L 315.5 153 L 294.5 153 Q 292.8 150.3 286.5 152 L 263 146.5 L 263.5 143 L 268 139.5 L 274.5 126 L 293.5 123 Q 298.2 124.2 299.5 122 Z" /><path desc="l 1 p 4" fill="rgb(81,81,81)" stroke="rgb(81,81,81)" stroke-width="1" opacity="0" d="M 265.5 128 L 269 128.5 L 262.5 139 L 255.5 141 L 250 136.5 L 249 132.5 L 265.5 128 Z" /><path desc="l 1 p 5" fill="rgb(81,81,81)" stroke="rgb(81,81,81)" stroke-width="1" opacity="0" d="M 244.5 133 L 245 140.5 L 238.5 149 Q 234.7 152.7 227.5 153 L 221 149.5 L 219 144.5 L 233 137.5 L 244.5 133 Z" /><path desc="l 1 p 6" fill="rgb(81,81,81)" stroke="rgb(81,81,81)" stroke-width="1" opacity="0" d="M 366.5 135 L 377.5 138 L 388.5 142 L 398.5 146 L 406.5 148 L 433 156.5 Q 419.5 173 394.5 178 L 374.5 180 Q 373.2 177.7 368.5 179 L 355.5 178 L 344.5 176 L 335.5 175 L 324 171.5 L 333 163.5 L 331.5 160 L 324 159.5 L 314 157.5 L 331.5 156 L 337.5 154 Q 344 153.5 347.5 150 Q 359.4 144.9 366.5 135 Z" /><path desc="l 1 p 7" fill="rgb(81,81,81)" stroke="rgb(81,81,81)" stroke-width="1" opacity="0" d="M 248.5 142 L 258 145.5 L 256.5 149 Q 252.7 153.2 243.5 152 L 243 150.5 L 248.5 142 Z" /><path desc="l 1 p 8" fill="rgb(81,81,81)" stroke="rgb(81,81,81)" stroke-width="1" opacity="0" d="M 214.5 147 L 216 147.5 L 218 156.5 Q 215.4 163.9 209.5 168 Q 205.4 172.9 194.5 171 L 192 169.5 L 189 163.5 Q 199.8 153.3 214.5 147 Z" /><path desc="l 1 p 9" fill="rgb(81,81,81)" stroke="rgb(81,81,81)" stroke-width="1" opacity="0" d="M 260.5 150 L 284.5 156 L 304.5 159 L 327 164.5 L 316 170.5 L 314.5 173 Q 305.5 179 291.5 180 L 278.5 181 L 264.5 178 Q 256.5 177.5 252 173.5 L 255.5 167 Q 258.9 163.4 258 155.5 L 257 153.5 L 260 151.5 L 260.5 150 Z" /><path desc="l 1 p 10" fill="rgb(81,81,81)" stroke="rgb(81,81,81)" stroke-width="1" opacity="0" d="M 237.5 154 L 238 158.5 L 233.5 166 L 229.5 169 Q 225.7 173.7 215.5 172 L 213 170.5 Q 220.5 165.5 222.5 155 Q 224.8 158.2 231.5 157 L 237.5 154 Z" /><path desc="l 1 p 11" fill="rgb(81,81,81)" stroke="rgb(81,81,81)" stroke-width="1" opacity="0" d="M 252.5 155 Q 254.8 155.8 254 159.5 Q 252.8 167.8 246.5 171 L 240.5 172 L 236 168.5 Q 241.8 164.8 242.5 156 L 248.5 156 L 252.5 155 Z" /><path desc="l 1 p 12" fill="rgb(81,81,81)" stroke="rgb(81,81,81)" stroke-width="1" opacity="0" d="M 185.5 166 L 187 166.5 L 188 174.5 Q 185.5 186.5 177.5 193 Q 173 197.5 162.5 196 L 164 193.5 Q 171.9 176.9 185.5 166 Z" /><path desc="l 1 p 13" fill="rgb(81,81,81)" stroke="rgb(81,81,81)" stroke-width="1" opacity="0" d="M 232.5 172 Q 235.3 173.3 234 178.5 L 225.5 188 Q 222.5 191 216.5 191 L 215 185.5 L 212 178.5 L 213.5 176 L 222.5 177 L 232.5 172 Z" /><path desc="l 1 p 14" fill="rgb(81,81,81)" stroke="rgb(81,81,81)" stroke-width="1" opacity="0" d="M 192.5 174 L 202.5 176 L 208.5 174 L 209 176.5 L 202.5 185 Q 199.5 188 193.5 188 L 189 184.5 L 192.5 174 Z" /><path desc="l 1 p 15" fill="rgb(81,81,81)" stroke="rgb(81,81,81)" stroke-width="1" opacity="0" d="M 246.5 175 L 248 180.5 L 245.5 185 Q 243.8 187.8 238.5 187 L 236 184.5 Q 233.5 183 237 181.5 L 238.5 176 Q 244.8 177.8 246.5 175 Z" /><path desc="l 1 p 16" fill="rgb(81,81,81)" stroke="rgb(81,81,81)" stroke-width="1" opacity="0" d="M 318.5 175 L 322 175.5 L 327.5 178 L 339.5 180 L 352.5 182 L 364.5 183 L 374.5 184 Q 379.9 183.1 382 185.5 L 391 187.5 L 403 189.5 L 421 190.5 L 410 200.5 L 409.5 202 L 401 208.5 Q 394.1 214.1 383.5 216 L 375.5 218 L 366.5 219 L 346.5 219 L 320.5 213 L 310.5 211 L 302 208.5 L 314 200.5 L 315 198.5 L 311.5 196 L 304.5 194 L 287 185.5 L 299.5 183 L 306.5 181 L 318.5 175 Z" /><path desc="l 1 p 17" fill="rgb(81,81,81)" stroke="rgb(81,81,81)" stroke-width="1" opacity="0" d="M 606.5 177 L 607 183.5 Q 605.1 192.1 599.5 197 Q 585.9 210.4 567 218.5 L 540.5 231 L 517.5 239 L 499.5 243 L 487 244.5 L 469 245.5 L 444.5 246 L 441.5 245 L 433.5 245 L 407.5 244 L 397.5 244 L 392.5 243 L 386.5 239 Q 375.3 230.3 361 224.5 L 376.5 222 Q 393.8 219.8 404.5 211 L 411.5 205 Q 415.2 201.7 423.5 203 L 454 200.5 L 469.5 199 L 493.5 195 L 518.5 189 L 536.5 182 L 540 179.5 L 545.5 178 L 557.5 178 L 560.5 179 L 568.5 179 L 599.5 179 L 606.5 177 Z" /><path desc="l 1 p 18" fill="rgb(81,81,81)" stroke="rgb(81,81,81)" stroke-width="1" opacity="0" d="M 252.5 179 L 273.5 185 L 289.5 192 L 308 199.5 L 307.5 201 L 296 206.5 L 283 209.5 L 271.5 210 L 257.5 206 L 246 201.5 Q 250.1 198.6 249 190.5 L 248 187.5 Q 252.1 185.1 252.5 179 Z" /><path desc="l 1 p 19" fill="rgb(81,81,81)" stroke="rgb(81,81,81)" stroke-width="1" opacity="0" d="M 209.5 184 L 211 184.5 Q 212.5 193.5 209 197.5 L 203.5 205 L 196.5 206 L 192.5 202 Q 190.3 201.3 191 197.5 L 192 193.5 L 191.5 192 Q 198.9 193.4 201.5 190 L 209.5 184 Z" /><path desc="l 1 p 20" fill="rgb(81,81,81)" stroke="rgb(81,81,81)" stroke-width="1" opacity="0" d="M 231.5 188 L 232 189.5 Q 230.2 196.7 224.5 200 L 217.5 200 L 214 198.5 L 215.5 195 Q 222.2 196.2 224.5 193 L 231.5 188 Z" /><path desc="l 1 p 21" fill="rgb(81,81,81)" stroke="rgb(81,81,81)" stroke-width="1" opacity="0" d="M 185.5 189 L 187 192.5 L 187 198.5 L 180.5 209 L 173.5 211 L 169 200.5 Q 178.5 199.5 183 193.5 L 185.5 189 Z" /><path desc="l 1 p 22" fill="rgb(81,81,81)" stroke="rgb(81,81,81)" stroke-width="1" opacity="0" d="M 236.5 190 L 245 191.5 L 244 196.5 L 239.5 202 L 235.5 203 L 231 200.5 L 236.5 190 Z" /><path desc="l 1 p 23" fill="rgb(81,81,81)" stroke="rgb(81,81,81)" stroke-width="1" opacity="0" d="M 159.5 200 L 163.5 201 L 167 204.5 L 168 209.5 L 160.5 221 Q 156.5 225 148.5 225 L 148 222.5 L 159.5 200 Z" /><path desc="l 1 p 24" fill="rgb(81,81,81)" stroke="rgb(81,81,81)" stroke-width="1" opacity="0" d="M 210.5 203 L 212 203.5 Q 213 210 209.5 212 L 204.5 218 Q 201.8 220.8 195.5 220 Q 192.8 218.8 195 217.5 L 196 213.5 L 197.5 210 L 199.5 211 Q 206.1 210.1 209 205.5 L 210.5 203 Z" /><path desc="l 1 p 25" fill="rgb(81,81,81)" stroke="rgb(81,81,81)" stroke-width="1" opacity="0" d="M 226.5 203 Q 229.8 204.7 229 210.5 L 225.5 215 Q 221.5 218.5 212.5 217 L 212 215.5 L 216 207.5 L 217.5 204 L 222.5 205 L 226.5 203 Z" /><path desc="l 1 p 26" fill="rgb(81,81,81)" stroke="rgb(81,81,81)" stroke-width="1" opacity="0" d="M 188.5 205 L 192 207.5 Q 192.8 218.3 186.5 222 L 179.5 224 L 177 215.5 Q 183.8 213.3 187 207.5 L 188.5 205 Z" /><path desc="l 1 p 27" fill="rgb(81,81,81)" stroke="rgb(81,81,81)" stroke-width="1" opacity="0" d="M 241.5 205 L 258.5 211 L 265.5 213 L 271 216.5 L 291 229.5 Q 284.3 233.3 273.5 233 L 254.5 233 L 236 226.5 Q 228.2 225.3 224 220.5 L 230 216.5 Q 233.5 213.5 233.5 207 Q 239.5 208 241.5 205 Z" /><path desc="l 1 p 28" fill="rgb(81,81,81)" stroke="rgb(81,81,81)" stroke-width="1" opacity="0" d="M 294.5 211 Q 301.5 215 311.5 216 L 336.5 222 Q 353.9 223.1 364.5 231 Q 377.6 235.9 387 244.5 L 386.5 246 Q 380.8 251.3 371.5 253 L 362.5 254 L 357.5 255 L 348 255.5 L 317.5 256 L 275 247.5 L 262.5 244 L 258.5 242 L 253 237.5 L 259.5 237 L 263.5 238 L 267.5 237 L 277.5 237 Q 291.1 236.6 299 230.5 L 298.5 228 L 285.5 221 L 275 214.5 L 285 213.5 L 294.5 211 Z" /><path desc="l 1 p 29" fill="rgb(81,81,81)" stroke="rgb(81,81,81)" stroke-width="1" opacity="0" d="M 170.5 214 Q 174.4 217.6 175 224.5 Q 173.3 232.8 167.5 237 Q 165.2 240.2 158.5 239 Q 159 232 156 228.5 L 166 221.5 L 170.5 214 Z" /><path desc="l 1 p 30" fill="rgb(81,81,81)" stroke="rgb(81,81,81)" stroke-width="1" opacity="0" d="M 207.5 220 Q 210.5 221.5 209 227.5 Q 206.8 232.8 199.5 233 L 196 230.5 L 196.5 224 Q 205.3 225.3 207.5 220 Z" /><path desc="l 1 p 31" fill="rgb(81,81,81)" stroke="rgb(81,81,81)" stroke-width="1" opacity="0" d="M 213.5 221 L 216.5 222 L 222 224.5 Q 227.6 229.4 236.5 231 L 241.5 233 L 250.5 241 L 273 258.5 L 265.5 261 Q 260.4 263.4 251.5 262 L 240.5 260 L 228.5 255 L 218 248.5 L 203 237.5 L 212 230.5 L 213.5 221 Z" /><path desc="l 1 p 32" fill="rgb(81,81,81)" stroke="rgb(81,81,81)" stroke-width="1" opacity="0" d="M 190.5 224 L 192 224.5 Q 192.3 234.3 185.5 237 L 174 236.5 L 178.5 228 Q 187.4 228.9 190.5 224 Z" /><path desc="l 1 p 33" fill="rgb(81,81,81)" stroke="rgb(81,81,81)" stroke-width="1" opacity="0" d="M 145.5 229 L 153 231.5 L 154 240.5 Q 151.4 247.9 145.5 252 L 136.5 253 L 137 251.5 L 145.5 229 Z" /><path desc="l 1 p 34" fill="rgb(81,81,81)" stroke="rgb(81,81,81)" stroke-width="1" opacity="0" d="M 193.5 235 L 195 235.5 L 196 239.5 L 189.5 248 L 184.5 249 L 177 246.5 L 177.5 241 L 183.5 242 Q 190.3 240.3 193.5 235 Z" /><path desc="l 1 p 35" fill="rgb(81,81,81)" stroke="rgb(81,81,81)" stroke-width="1" opacity="0" d="M 170.5 239 L 172 239.5 L 173 245.5 Q 171.9 252.9 166.5 256 L 160.5 257 Q 159.8 249.8 155 246.5 L 157.5 243 L 161.5 244 L 165.5 243 L 170.5 239 Z" /><path desc="l 1 p 36" fill="rgb(81,81,81)" stroke="rgb(81,81,81)" stroke-width="1" opacity="0" d="M 199.5 241 Q 211.9 248.1 221.5 258 Q 231.3 269.2 244 277.5 Q 242.3 279.8 237.5 279 L 224.5 279 L 213.5 275 L 207.5 272 L 199.5 266 L 187 253.5 Q 193.6 251.6 197 246.5 L 199.5 241 Z" /><path desc="l 1 p 37" fill="rgb(81,81,81)" stroke="rgb(81,81,81)" stroke-width="1" opacity="0" d="M 390.5 248 L 436 249.5 L 467.5 250 L 499 250.5 L 535.5 252 L 539.5 251 L 551.5 251 L 573.5 249 L 589.5 248 Q 592.3 249.2 590 250.5 Q 590.7 257.2 586 258.5 L 576.5 268 L 539.5 286 L 519 291.5 L 505.5 294 L 490.5 296 L 480.5 297 L 463 297.5 L 410.5 298 L 405.5 297 L 394 296.5 Q 378.8 296.2 367.5 292 L 359.5 291 Q 352.8 290.8 349 287.5 Q 356.3 285.3 360 279.5 L 361 273.5 L 331 260.5 L 332.5 260 L 335.5 261 Q 337.3 258.3 343.5 260 L 361.5 258 Q 380.8 257.8 390.5 248 Z" /><path desc="l 1 p 38" fill="rgb(81,81,81)" stroke="rgb(81,81,81)" stroke-width="1" opacity="0" d="M 152.5 251 L 155 252.5 L 156 258.5 Q 154.5 265 149.5 268 Q 143.7 273.7 131.5 273 L 131 270.5 L 134.5 258 L 140.5 258 L 144.5 257 Q 150.3 255.8 152.5 251 Z" /><path desc="l 1 p 39" fill="rgb(81,81,81)" stroke="rgb(81,81,81)" stroke-width="1" opacity="0" d="M 175.5 251 L 178.5 252 Q 183.5 251.5 184 255.5 L 217 293.5 Q 214.6 296.1 208.5 295 L 189 288.5 Q 179.5 286 174 279.5 L 159 265.5 L 158 263.5 L 159.5 261 Q 170.4 261.4 174 254.5 L 175.5 251 Z" /><path desc="l 1 p 40" fill="rgb(81,81,81)" stroke="rgb(81,81,81)" stroke-width="1" opacity="0" d="M 271.5 251 L 305.5 258 L 311.5 259 L 317 260.5 L 332.5 266 L 357 276.5 L 354.5 280 Q 347.7 285.7 336.5 287 L 328.5 288 L 313.5 288 L 309.5 287 L 291.5 285 L 275.5 280 Q 255.8 274.8 241 264.5 L 242.5 264 Q 250.8 267.7 264.5 266 L 272 263.5 L 278 260.5 L 279 257.5 L 274.5 254 L 271.5 251 Z" /><path desc="l 1 p 41" fill="rgb(81,81,81)" stroke="rgb(81,81,81)" stroke-width="1" opacity="0" d="M 155.5 268 L 157 268.5 L 159.5 272 L 161 272.5 L 170.5 286 L 183 305.5 L 174.5 306 L 167 303.5 L 157 297.5 L 146 287.5 L 140 276.5 L 147.5 274 L 155.5 268 Z" /><path desc="l 1 p 42" fill="rgb(81,81,81)" stroke="rgb(81,81,81)" stroke-width="1" opacity="0" d="M 240.5 269 L 259.5 279 L 267 282.5 L 284 292.5 L 319 314.5 Q 316.1 317.6 309.5 317 L 303.5 318 L 278.5 319 L 274.5 318 L 264.5 317 L 249 310.5 L 222 296.5 L 223 294.5 L 209 278.5 L 210.5 279 L 219 281.5 L 229 283.5 L 238.5 284 L 243.5 283 L 250 279.5 Q 250.8 275.8 248.5 275 L 243.5 272 L 240.5 269 Z" /><path desc="l 1 p 43" fill="rgb(81,81,81)" stroke="rgb(81,81,81)" stroke-width="1" opacity="0" d="M 129.5 277 L 136 277.5 L 154 317.5 L 150.5 318 Q 137.1 312.9 128 303.5 L 122 295.5 Q 127.7 288.2 129.5 277 Z" /><path desc="l 1 p 44" fill="rgb(81,81,81)" stroke="rgb(81,81,81)" stroke-width="1" opacity="0" d="M 176.5 287 Q 185.2 293.3 197.5 296 L 207 298.5 L 215.5 299 L 217.5 298 L 228.5 305 L 255.5 319 L 266.5 326 L 288 335.5 L 280 338.5 L 273.5 339 L 248.5 340 L 236.5 337 L 228 334.5 L 219 329.5 L 189 310.5 L 190 307.5 L 180 293.5 L 176.5 287 Z" /><path desc="l 1 p 45" fill="rgb(81,81,81)" stroke="rgb(81,81,81)" stroke-width="1" opacity="0" d="M 285.5 288 L 306.5 291 L 316.5 292 L 334.5 292 L 341.5 290 L 346.5 292 L 360 295.5 L 376 298.5 L 386.5 300 L 405 301.5 L 432.5 302 L 463.5 302 Q 473.1 300.4 478 303.5 L 497.5 308 L 518.5 313 L 539.5 316 L 554 316.5 L 559.5 317 L 565 318.5 L 564.5 320 L 544.5 335 L 523.5 344 L 511 347.5 L 496.5 350 L 448.5 350 Q 447.2 347.7 442.5 349 L 431.5 348 L 407.5 344 L 382.5 336 L 358.5 329 L 323 317.5 L 324 313.5 L 297 295.5 L 289 290.5 Q 284.8 289.9 285.5 288 Z" /><path desc="l 1 p 46" fill="rgb(81,81,81)" stroke="rgb(81,81,81)" stroke-width="1" opacity="0" d="M 149.5 296 Q 157 305.5 170.5 309 L 179.5 311 Q 181 308.5 182.5 312 L 214 331.5 Q 224.4 336.6 231 345.5 Q 241.2 357.3 255 365.5 L 247 367.5 L 241.5 368 L 231.5 369 L 216.5 366 Q 196.5 362.5 183 352.5 L 173.5 346 Q 162 339.6 154 329.5 L 147 321.5 L 148.5 321 Q 151.8 323.7 158.5 323 Q 160.8 322.3 160 318.5 Q 152.5 308.4 149.5 296 Z" /><path desc="l 1 p 47" fill="rgb(81,81,81)" stroke="rgb(81,81,81)" stroke-width="1" opacity="0" d="M 119.5 300 Q 126.6 306.4 130.5 316 L 138 333.5 L 136.5 334 Q 119.2 327.8 107 316.5 L 119.5 300 Z" /><path desc="l 1 p 48" fill="rgb(81,81,81)" stroke="rgb(81,81,81)" stroke-width="1" opacity="0" d="M 10.5 305 Q 16.8 303.3 18.5 306 L 25 310.5 L 17 314.5 L 16.5 316 L 12.5 311 L 7 307.5 L 7.5 306 L 10.5 305 Z" /><path desc="l 1 p 49" fill="rgb(81,81,81)" stroke="rgb(81,81,81)" stroke-width="1" opacity="0" d="M 0.5 308 L 12 316.5 L 13 320.5 L 8.5 322 Q 3.4 322.4 1.5 326 Q -1 325 0 320.5 L 0.5 308 Z" /><path desc="l 1 p 50" fill="rgb(81,81,81)" stroke="rgb(81,81,81)" stroke-width="1" opacity="0" d="M 134.5 314 L 140 317.5 L 148 328.5 L 160.5 342 L 178 355.5 L 203 384.5 L 192.5 385 L 187.5 384 L 178.5 383 Q 160.8 377.2 149 365.5 L 122 340.5 L 118 329.5 L 120.5 331 L 127 334.5 Q 131 339 140.5 338 Q 143.5 337.5 143 333.5 L 134.5 314 Z" /><path desc="l 1 p 51" fill="rgb(81,81,81)" stroke="rgb(81,81,81)" stroke-width="1" opacity="0" d="M 23.5 315 Q 29.7 313.3 31.5 316 L 38 320.5 Q 42.7 324.3 41 334.5 L 35.5 342 L 33 340.5 Q 34.5 332.5 30.5 330 L 24.5 324 L 18 321.5 L 21.5 316 L 23.5 315 Z" /><path desc="l 1 p 52" fill="rgb(81,81,81)" stroke="rgb(81,81,81)" stroke-width="1" opacity="0" d="M 102.5 320 L 110 325.5 Q 117.8 332.7 119 346.5 L 115.5 347 Q 99.8 341.7 90 330.5 L 102.5 320 Z" /><path desc="l 1 p 53" fill="rgb(81,81,81)" stroke="rgb(81,81,81)" stroke-width="1" opacity="0" d="M 315.5 320 L 320.5 321 L 325 322.5 L 345.5 329 L 389 345.5 L 422 359.5 L 464.5 379 L 487 388.5 Q 476.8 393.8 463 395.5 L 449 397.5 L 422.5 398 Q 421 395.5 415.5 397 L 393 391.5 L 375.5 386 L 345.5 375 L 320.5 365 L 275 343.5 Q 288.8 342.8 296 335.5 L 294.5 333 L 280 327.5 L 269 322.5 L 274.5 322 L 278.5 323 L 290.5 323 L 293.5 322 L 300.5 322 L 308 321.5 L 315.5 320 Z" /><path desc="l 1 p 54" fill="rgb(81,81,81)" stroke="rgb(81,81,81)" stroke-width="1" opacity="0" d="M 11.5 325 L 18.5 326 L 23 328.5 L 29 334.5 L 28.5 340 Q 19.3 338.8 15.5 343 L 7 335.5 L 5 328.5 L 11.5 325 Z" /><path desc="l 1 p 55" fill="rgb(81,81,81)" stroke="rgb(81,81,81)" stroke-width="1" opacity="0" d="M 0.5 331 L 3 335.5 L 1.5 335 L 0 334.5 L 0.5 331 Z" /><path desc="l 1 p 56" fill="rgb(81,81,81)" stroke="rgb(81,81,81)" stroke-width="1" opacity="0" d="M 85.5 333 L 99 343.5 L 101 356.5 L 99.5 360 L 90.5 357 Q 78.3 354.2 73 344.5 L 73.5 342 L 85.5 333 Z" /><path desc="l 1 p 57" fill="rgb(81,81,81)" stroke="rgb(81,81,81)" stroke-width="1" opacity="0" d="M 44.5 337 Q 50.5 336 52.5 339 L 61 346.5 L 62 352.5 Q 60.8 360.8 54.5 364 L 45 362.5 Q 46.8 356.2 44 354.5 L 39 344.5 L 44.5 337 Z" /><path desc="l 1 p 58" fill="rgb(81,81,81)" stroke="rgb(81,81,81)" stroke-width="1" opacity="0" d="M 0.5 340 L 7.5 342 L 15 348.5 L 16 352.5 L 14.5 356 L 6.5 356 Q 1.9 355.4 0.5 358 L 0.5 340 Z" /><path desc="l 1 p 59" fill="rgb(81,81,81)" stroke="rgb(81,81,81)" stroke-width="1" opacity="0" d="M 233.5 341 L 243.5 343 L 255.5 344 Q 265 342 268.5 346 L 280.5 352 Q 297 357.5 309 367.5 L 323.5 378 L 360 406.5 L 359.5 408 L 343.5 412 L 327.5 413 Q 326 410.5 320.5 412 L 303 407.5 Q 284 403.5 270.5 394 L 237 373.5 L 248.5 372 L 252.5 371 L 260 366.5 Q 260.5 361.5 256.5 361 Q 241.9 353.2 233.5 341 Z" /><path desc="l 1 p 60" fill="rgb(81,81,81)" stroke="rgb(81,81,81)" stroke-width="1" opacity="0" d="M 22.5 344 Q 32.2 342.8 36 347.5 Q 41 352.5 41 362.5 Q 39.8 368.3 35.5 371 L 34 370.5 L 31 365.5 L 25.5 360 L 20 357.5 L 20 350.5 L 18 346.5 L 22.5 344 Z" /><path desc="l 1 p 61" fill="rgb(81,81,81)" stroke="rgb(81,81,81)" stroke-width="1" opacity="0" d="M 68.5 345 L 79.5 357 L 86 360.5 L 90 373.5 L 85.5 374 L 80.5 365 L 72.5 361 L 65 355.5 L 66 348.5 Q 63.8 347.3 66.5 346 L 68.5 345 Z" /><path desc="l 1 p 62" fill="rgb(81,81,81)" stroke="rgb(81,81,81)" stroke-width="1" opacity="0" d="M 104.5 347 L 115.5 351 L 121.5 352 L 123.5 349 L 144 367.5 L 163 392.5 L 154.5 393 L 137 387.5 Q 129 386 124 381.5 L 105 363.5 L 104 359.5 L 105 356.5 L 105 349.5 L 104.5 347 Z" /><path desc="l 1 p 63" fill="rgb(81,81,81)" stroke="rgb(81,81,81)" stroke-width="1" opacity="0" d="M 4.5 360 L 12 360.5 L 6.5 366 L 4 367.5 L 1 364.5 L 4.5 360 Z" /><path desc="l 1 p 64" fill="rgb(81,81,81)" stroke="rgb(81,81,81)" stroke-width="1" opacity="0" d="M 187.5 360 Q 200.4 368.1 218.5 371 L 223.5 372 Q 230.5 372 233.5 376 L 251 387.5 L 252 390.5 L 256 396.5 L 272 420.5 Q 269 423.5 261.5 422 Q 260 419.5 254.5 421 Q 245.2 420.3 240 415.5 Q 219.8 405.2 206 388.5 Q 209.5 388 209 383.5 L 199 374.5 L 187.5 360 Z" /><path desc="l 1 p 65" fill="rgb(81,81,81)" stroke="rgb(81,81,81)" stroke-width="1" opacity="0" d="M 18.5 361 L 30 370.5 Q 32.6 373.4 32 379.5 L 10.5 389 L 11 387.5 L 16 369.5 L 17 364.5 L 18.5 361 Z" /><path desc="l 1 p 66" fill="rgb(81,81,81)" stroke="rgb(81,81,81)" stroke-width="1" opacity="0" d="M 92.5 362 L 96.5 363 L 101 365.5 L 107 371.5 Q 115.6 386.4 128 397.5 L 117.5 398 L 100.5 392 Q 90.8 389.2 86 381.5 L 84 378.5 L 89.5 378 Q 93.3 378.8 94 376.5 L 92.5 362 Z" /><path desc="l 1 p 67" fill="rgb(81,81,81)" stroke="rgb(81,81,81)" stroke-width="1" opacity="0" d="M 61.5 364 Q 75 363 80 370.5 Q 81.5 376 79 377.5 Q 77.6 383.6 72.5 386 L 62.5 391 L 63 389.5 Q 65.9 385.9 65 378.5 L 58 366.5 L 61.5 364 Z" /><path desc="l 1 p 68" fill="rgb(81,81,81)" stroke="rgb(81,81,81)" stroke-width="1" opacity="0" d="M 11.5 367 L 12 369.5 L 3 395.5 L 6.5 396 Q 20.4 387.4 37.5 382 L 34 386.5 L 25 399.5 L 17 414.5 Q 18 417 22.5 416 L 32.5 414 L 45.5 414 L 48 415.5 L 20 436.5 L 21.5 439 L 33 440.5 L 32.5 442 Q 25.2 448.2 15 451.5 L 7 454.5 L 7.5 457 L 14 458.5 L 19.5 459 L 21 458.5 Q 13.4 464.4 0.5 465 L 0 441.5 L 14 426.5 Q 13.3 424.3 9.5 425 Q 6.8 427.8 0.5 427 L 0 376.5 L 11.5 367 Z" /><path desc="l 1 p 69" fill="rgb(81,81,81)" stroke="rgb(81,81,81)" stroke-width="1" opacity="0" d="M 46.5 367 Q 55.5 368 59 374.5 L 61 382.5 Q 59.8 389.3 55.5 393 L 51.5 395 L 46.5 384 L 44 382.5 L 47 376.5 L 43.5 375 L 36.5 378 L 36 376.5 L 43.5 368 L 46.5 367 Z" /><path desc="l 1 p 70" fill="rgb(81,81,81)" stroke="rgb(81,81,81)" stroke-width="1" opacity="0" d="M 157.5 377 L 160 378.5 L 161 381.5 L 158 379.5 L 157.5 377 Z" /><path desc="l 1 p 71" fill="rgb(81,81,81)" stroke="rgb(81,81,81)" stroke-width="1" opacity="0" d="M 166.5 382 L 178.5 387 L 189.5 389 L 197.5 389 L 203 390.5 L 208 396.5 Q 212.6 399.9 214 406.5 L 229 429.5 L 222.5 431 Q 207.8 428.2 198.5 420 L 181 405.5 Q 171.1 395.5 166.5 382 Z" /><path desc="l 1 p 72" fill="rgb(81,81,81)" stroke="rgb(81,81,81)" stroke-width="1" opacity="0" d="M 40.5 386 L 45 388.5 Q 47.7 392.3 46 400.5 L 38 407.5 L 32.5 410 L 23.5 411 L 24 409.5 Q 30.6 396.1 40.5 386 Z" /><path desc="l 1 p 73" fill="rgb(81,81,81)" stroke="rgb(81,81,81)" stroke-width="1" opacity="0" d="M 123.5 386 L 126 387.5 L 127 389.5 L 123.5 386 Z" /><path desc="l 1 p 74" fill="rgb(81,81,81)" stroke="rgb(81,81,81)" stroke-width="1" opacity="0" d="M 77.5 387 Q 82 386 83 388.5 Q 85.6 391.4 85 397.5 Q 83.8 403.3 79.5 406 L 78 405.5 Q 78.3 395.3 71 392.5 L 77.5 387 Z" /><path desc="l 1 p 75" fill="rgb(81,81,81)" stroke="rgb(81,81,81)" stroke-width="1" opacity="0" d="M 88.5 390 L 95 395.5 Q 99.9 410.1 110.5 419 L 116.5 426 Q 119.5 426.5 119 430.5 L 125 439.5 L 120.5 440 Q 103.3 434.7 93 422.5 L 89 414.5 L 84 407.5 L 88 401.5 L 89 391.5 L 88.5 390 Z" /><path desc="l 1 p 76" fill="rgb(81,81,81)" stroke="rgb(81,81,81)" stroke-width="1" opacity="0" d="M 132.5 390 L 139.5 393 L 153.5 397 L 159.5 397 L 162.5 398 L 167.5 394 L 193 433.5 L 181.5 434 Q 167.7 430.3 158.5 422 L 142 406.5 L 135.5 397 L 133 393.5 L 132.5 390 Z" /><path desc="l 1 p 77" fill="rgb(81,81,81)" stroke="rgb(81,81,81)" stroke-width="1" opacity="0" d="M 62.5 395 L 66.5 396 L 69.5 397 L 73 400.5 L 74 408.5 Q 72.1 416.2 66.5 420 L 62.5 421 Q 63.4 413.6 60 410.5 L 53.5 403 L 50 401.5 L 62.5 395 Z" /><path desc="l 1 p 78" fill="rgb(81,81,81)" stroke="rgb(81,81,81)" stroke-width="1" opacity="0" d="M 100.5 396 L 112.5 400 L 117.5 402 L 124.5 403 L 132.5 401 L 160 441.5 L 152.5 442 Q 126.7 435.3 113 416.5 Q 104 408 100.5 396 Z" /><path desc="l 1 p 79" fill="rgb(81,81,81)" stroke="rgb(81,81,81)" stroke-width="1" opacity="0" d="M 47.5 405 Q 54.4 406.6 57 412.5 L 58 421.5 Q 55.9 429.4 49.5 433 L 44 431.5 L 37.5 431 L 34.5 432 L 35.5 430 L 56 414.5 L 54.5 412 L 43 409.5 L 47.5 405 Z" /><path desc="l 1 p 80" fill="rgb(81,81,81)" stroke="rgb(81,81,81)" stroke-width="1" opacity="0" d="M 78.5 410 L 85 414.5 L 86 426.5 L 81.5 432 L 76.5 434 L 69.5 425 L 68 424.5 L 68.5 423 L 74 418.5 L 78.5 410 Z" /><path desc="l 0 p 1" fill="rgb(0,0,0)" stroke="rgb(0,0,0)" stroke-width="1" opacity="0.8588235294117647" d="M 9.5 425 Q 13.3 424.3 14 426.5 L 0.5 441 L 0 435.5 L 3.5 431 L 0 430.5 L 0.5 427 Q 6.8 427.8 9.5 425 Z" /><path desc="l 1 p 81" fill="rgb(81,81,81)" stroke="rgb(81,81,81)" stroke-width="1" opacity="0" d="M 90.5 425 L 93.5 429 Q 95.8 429.8 95 433.5 Q 102.4 448.1 113 459.5 L 120 471.5 Q 125.3 480.2 123 496.5 L 119.5 498 L 113.5 494 L 112 497.5 L 118 501.5 Q 123.5 501 125 504.5 L 128.5 510 Q 130.8 510.8 130 514.5 L 131 518.5 L 131.5 523 L 134.5 530 Q 138.2 534.3 138 542.5 L 136.5 547 L 133.5 546 L 128.5 542 L 118 531.5 L 112.5 525 L 109.5 520 L 107.5 515 L 105 515.5 Q 103.9 523.6 108 526.5 L 115 533.5 L 111 535.5 L 106 540.5 L 105.5 542 L 95.5 534 L 94 537.5 L 119 561.5 L 126 570.5 L 118.5 583 L 117 582.5 L 111 570.5 L 93.5 542 L 91 542.5 L 92 546.5 L 94 549.5 L 104 567.5 L 109.5 576 L 113 582.5 L 114 588.5 L 110 596.5 L 112.5 600 L 114 603.5 L 114 609.5 L 112 617.5 L 113 622.5 L 116.5 628 Q 119.5 628.5 119 632.5 Q 117.6 641.1 112.5 646 Q 105.7 646.3 102.5 643 L 91 636.5 L 71 620.5 L 63.5 608 L 60 596.5 L 57 582.5 L 55 565.5 L 54.5 561 L 54 544.5 L 59 541.5 L 62 532.5 L 62 530.5 L 63 527.5 L 60.5 521 L 59 513.5 Q 59.8 509.8 57.5 509 L 55 510.5 L 55.5 518 L 58 528.5 L 57 532.5 Q 57.8 538.3 54.5 540 Q 48.8 541.3 47.5 538 Q 39.3 534.7 35 527.5 L 30.5 520 L 27.5 513 L 27 508.5 Q 30 504.5 29 496.5 L 29 475.5 L 27 470.5 L 30.5 470 L 30 471.5 L 30 487.5 Q 28.8 494.8 32.5 497 Q 35.5 495.5 34 489.5 L 34 471.5 L 33.5 470 Q 46 468.5 51 459.5 L 53.5 455 L 56.5 456 L 64.5 456 L 73 450.5 Q 77.6 446.6 77.5 438 Q 84.5 436.5 88 431.5 L 90.5 425 Z" /><path desc="l 1 p 82" fill="rgb(81,81,81)" stroke="rgb(81,81,81)" stroke-width="1" opacity="0" d="M 60.5 427 Q 69.5 427 72 433.5 L 73 441.5 L 68.5 449 L 64.5 451 L 61.5 452 L 54.5 452 L 55 450.5 Q 57.1 439.9 52 436.5 L 60.5 427 Z" /><path desc="l 1 p 83" fill="rgb(81,81,81)" stroke="rgb(81,81,81)" stroke-width="1" opacity="0" d="M 0.5 431 L 4 431.5 L 0 434.5 L 0.5 431 Z" /><path desc="l 1 p 84" fill="rgb(81,81,81)" stroke="rgb(81,81,81)" stroke-width="1" opacity="0" d="M 40.5 435 Q 46.3 435.3 49 438.5 Q 52.3 442.2 51 450.5 L 44.5 461 Q 38.7 466.7 26.5 466 L 19.5 466 L 16 467.5 L 17.5 470 L 24 470.5 L 23 473.5 Q 26 476.5 25 483.5 L 25 501.5 L 20 521.5 L 13 539.5 Q 12.1 546.1 7.5 549 L 4 548.5 L 1 543.5 L 0 537.5 L 0 525.5 L 0 477.5 Q 4.7 477.7 6 474.5 L 0 470.5 L 0.5 469 L 7.5 468 L 17.5 465 Q 29.5 462 37 454.5 L 35.5 452 L 30.5 453 L 22.5 454 L 22.5 453 L 41 441.5 L 40.5 438 L 35 436.5 L 40.5 435 Z" /><path desc="l 0 p 2" fill="rgb(0,0,0)" stroke="rgb(0,0,0)" stroke-width="1" opacity="0.8588235294117647" d="M 98.5 464 L 107 471.5 L 108 475.5 L 105.5 476 L 100 470.5 L 97 465.5 L 98.5 464 Z" /><path desc="l 0 p 3" fill="rgb(0,0,0)" stroke="rgb(0,0,0)" stroke-width="1" opacity="0.8588235294117647" d="M 0.5 471 L 6 474.5 Q 5.3 477.8 0.5 477 L 0.5 471 Z" /><path desc="l 1 p 85" fill="rgb(81,81,81)" stroke="rgb(81,81,81)" stroke-width="1" opacity="0" d="M 126.5 474 Q 133.6 483.4 145 488.5 L 136 495.5 L 131.5 506 L 130 505.5 L 126 498.5 Q 128.2 497.3 127 492.5 L 127 478.5 L 126.5 474 Z" /><path desc="l 0 p 4" fill="rgb(0,0,0)" stroke="rgb(0,0,0)" stroke-width="1" opacity="0.8588235294117647" d="M 101.5 477 Q 106.5 476.5 107 480.5 L 111 487.5 L 112 491.5 L 110 492.5 L 107 489.5 L 100 478.5 L 101.5 477 Z" /><path desc="l 0 p 5" fill="rgb(0,0,0)" stroke="rgb(0,0,0)" stroke-width="1" opacity="0.8588235294117647" d="M 37.5 485 L 40 485.5 L 40 498.5 Q 41 503 38.5 504 L 36 502.5 L 35 496.5 Q 37.3 495.2 36 490.5 Q 35 486 37.5 485 Z" /><path desc="l 0 p 6" fill="rgb(0,0,0)" stroke="rgb(0,0,0)" stroke-width="1" opacity="0.8588235294117647" d="M 104.5 491 L 108 492.5 L 111 497.5 L 112 502.5 L 108.5 503 L 103 492.5 L 104.5 491 Z" /><path desc="l 0 p 7" fill="rgb(0,0,0)" stroke="rgb(0,0,0)" stroke-width="1" opacity="0.8588235294117647" d="M 43.5 492 Q 47 493 46 498.5 L 47.5 510 Q 46.6 504.6 49.5 503 L 52 503.5 Q 50.5 511 53 514.5 L 54 521.5 Q 52 525 50 520.5 L 47.5 512 L 46.5 514 L 44 513.5 L 42.5 505 L 42 493.5 L 43.5 492 Z" /><path desc="l 1 p 86" fill="rgb(81,81,81)" stroke="rgb(81,81,81)" stroke-width="1" opacity="0" d="M 145.5 493 Q 157.4 490.6 161 496.5 L 163 500.5 L 164 505.5 L 163 510.5 Q 163.8 515.3 161.5 517 Q 162.5 506 156.5 502 Q 153.3 499.7 146.5 501 L 140 505.5 L 138 511.5 L 141 520.5 L 138 522.5 L 139 525.5 L 142.5 529 L 144 529.5 L 146 541.5 L 147 552.5 Q 145.9 558.6 148.5 561 L 152 558.5 L 156 543.5 L 159.5 535 L 161.5 536 Q 169.9 533.9 174 527.5 Q 176.5 517 183.5 511 L 192.5 505 L 200.5 502 L 198 505.5 L 197 510.5 L 200.5 511 L 206.5 502 L 212.5 501 L 220 504.5 L 224 512.5 L 221.5 511 Q 210.5 510.5 206 516.5 Q 202.2 519.7 203 527.5 L 205 533.5 Q 203.2 537.8 201.5 535 L 197 532.5 L 191.5 523 L 189 526.5 L 191 532.5 L 189.5 535 L 186 533.5 L 184.5 531 L 182 532.5 L 184.5 538 L 187 539.5 L 181 548.5 L 173.5 558 L 170 560.5 L 171.5 563 L 175 561.5 L 181 556.5 Q 185.7 551.7 193.5 550 L 192 552.5 L 189 558.5 Q 190 561 194.5 560 L 206.5 554 Q 211.6 556.4 213 562.5 L 217.5 571 L 220 577.5 L 221 588.5 L 218.5 593 Q 218.9 584.6 213.5 582 L 205.5 580 L 194.5 585 Q 190.3 583.3 192 575.5 L 196 570.5 L 198 566.5 L 195.5 565 L 188.5 573 Q 184.9 575.9 177.5 575 L 170 571.5 L 173 567.5 Q 170 562 167 568.5 L 163.5 573 L 151.5 578 L 143.5 581 L 136.5 585 L 133.5 580 L 130 581.5 L 135 592.5 L 136 600.5 L 132.5 598 L 128.5 596 L 127 599.5 L 135 606.5 L 137 612.5 L 131.5 614 L 124 618.5 L 123 626.5 L 124 628.5 L 121.5 627 L 119 625.5 Q 115.3 621.2 117 611.5 L 119 604.5 L 118 600.5 L 114 595.5 L 124 582.5 L 128.5 575 Q 130.8 573.3 130 568.5 L 120 555.5 L 123.5 550 L 129.5 548 L 136.5 553 Q 143.3 548.8 142 536.5 L 137 525.5 L 135 518.5 L 134 513.5 L 135 508.5 Q 136.8 498.8 143.5 494 L 145.5 493 Z" /><path desc="l 1 p 87" fill="rgb(81,81,81)" stroke="rgb(81,81,81)" stroke-width="1" opacity="0" d="M 147.5 505 Q 152.9 504.1 155 506.5 Q 157.9 511.1 157 519.5 Q 154.2 521.3 156 527.5 L 151.5 546 Q 149.3 545.3 150 541.5 Q 151.3 536.7 149 535.5 L 148.5 530 L 147 523.5 L 144.5 517 Q 142.3 514.3 143 508.5 L 147.5 505 Z" /><path desc="l 1 p 88" fill="rgb(81,81,81)" stroke="rgb(81,81,81)" stroke-width="1" opacity="0" d="M 217.5 515 L 221 516.5 L 224 523.5 Q 222 534 215.5 540 L 207.5 547 L 196.5 555 L 199 551.5 L 206 541.5 L 210 535.5 L 211 529.5 L 208 527.5 Q 206.7 519.2 211.5 517 L 217.5 515 Z" /><path desc="l 0 p 8" fill="rgb(0,0,0)" stroke="rgb(0,0,0)" stroke-width="1" opacity="0.8588235294117647" d="M 64.5 516 L 66 516.5 L 70 535.5 Q 68 539 66 534.5 L 64 527.5 Q 61.7 524.3 63 517.5 L 64.5 516 Z" /><path desc="l 1 p 89" fill="rgb(81,81,81)" stroke="rgb(81,81,81)" stroke-width="1" opacity="0" d="M 25.5 519 Q 30.7 531.3 40.5 539 L 49 544.5 L 52 575.5 L 54.5 591 L 58 611.5 L 59 614.5 Q 61.5 616 60 621.5 Q 52.9 639.9 40.5 653 Q 35.2 653.8 33.5 651 L 24 642.5 L 17 629.5 L 14 619.5 Q 15.1 610.9 12 606.5 L 10 581.5 L 9 553.5 Q 14.7 549.2 17 541.5 L 25.5 519 Z" /><path desc="l 0 p 9" fill="rgb(0,0,0)" stroke="rgb(0,0,0)" stroke-width="1" opacity="0.8588235294117647" d="M 73.5 526 Q 76.8 526.8 76 531.5 L 80 540.5 Q 77.5 545.5 75 540.5 L 73 534.5 L 72 527.5 L 73.5 526 Z" /><path desc="l 0 p 10" fill="rgb(0,0,0)" stroke="rgb(0,0,0)" stroke-width="1" opacity="0.8588235294117647" d="M 80.5 530 L 83 530.5 L 87 540.5 L 84.5 542 Q 79.9 538.6 79 531.5 L 80.5 530 Z" /><path desc="l 0 p 11" fill="rgb(0,0,0)" stroke="rgb(0,0,0)" stroke-width="1" opacity="0.8588235294117647" d="M 90.5 531 L 94 533.5 L 91.5 537 L 89 533.5 L 90.5 531 Z" /><path desc="l 0 p 12" fill="rgb(0,0,0)" stroke="rgb(0,0,0)" stroke-width="1" opacity="0.8588235294117647" d="M 27.5 535 L 31 536.5 L 32 557.5 L 33.5 571 L 36 584.5 L 41.5 607 L 43 615.5 Q 41 619 39 614.5 L 32 584.5 L 29.5 573 L 28 560.5 L 27.5 555 L 27.5 535 Z" /><path desc="l 1 p 90" fill="rgb(81,81,81)" stroke="rgb(81,81,81)" stroke-width="1" opacity="0" d="M 193.5 536 L 202 540.5 L 197.5 546 L 193.5 545 L 186.5 548 L 188 545.5 L 193.5 536 Z" /><path desc="l 1 p 91" fill="rgb(81,81,81)" stroke="rgb(81,81,81)" stroke-width="1" opacity="0" d="M 114.5 538 Q 119 537 120 539.5 L 125 544.5 L 118 549.5 L 116.5 553 L 109 546.5 Q 108.4 541.4 111.5 540 L 114.5 538 Z" /><path desc="l 0 p 13" fill="rgb(0,0,0)" stroke="rgb(0,0,0)" stroke-width="1" opacity="0.8588235294117647" d="M 65.5 543 L 69 544.5 Q 71.2 561.3 77.5 574 L 85.5 589 L 96.5 608 L 101 617.5 L 102 622.5 Q 100 626 98 621.5 L 80.5 588 L 71 568.5 L 64 544.5 L 65.5 543 Z" /><path desc="l 1 p 92" fill="rgb(81,81,81)" stroke="rgb(81,81,81)" stroke-width="1" opacity="0" d="M 0.5 550 L 1.5 552 L 5 553.5 L 5.5 580 L 6 585.5 L 10 622.5 L 0.5 635 L 0.5 550 Z" /><path desc="l 1 p 93" fill="rgb(81,81,81)" stroke="rgb(81,81,81)" stroke-width="1" opacity="0" d="M 160.5 579 L 162 579.5 L 161 592.5 Q 162.5 598.5 159.5 600 L 150.5 601 L 140 597.5 L 139 589.5 Q 143 584 151 582.5 L 160.5 579 Z" /><path desc="l 1 p 94" fill="rgb(81,81,81)" stroke="rgb(81,81,81)" stroke-width="1" opacity="0" d="M 203.5 585 Q 212.3 583.3 214 588.5 Q 215 594 211.5 595 L 204.5 599 L 198 600.5 L 191.5 601 L 189.5 600 Q 185.5 600.5 185 597.5 L 191.5 595 Q 197.9 594.4 200 589.5 L 201.5 586 L 203.5 585 Z" /><path desc="l 1 p 95" fill="rgb(81,81,81)" stroke="rgb(81,81,81)" stroke-width="1" opacity="0" d="M 153.5 616 L 155 616.5 L 150.5 623 L 140 627.5 Q 137.3 629.8 131.5 629 L 127 625.5 Q 126 620 129.5 619 L 135.5 617 Q 138.5 620 145.5 619 L 153.5 616 Z" /></svg>