<?xml version="1.0" encoding="utf-8"?>
<!-- Generator: Adobe Illustrator 20.1.0, SVG Export Plug-In . SVG Version: 6.00 Build 0)  -->
<svg version="1.1" id="Layer_1" xmlns="http://www.w3.org/2000/svg" xmlns:xlink="http://www.w3.org/1999/xlink" x="0px" y="0px"
	 viewBox="0 0 612 792" style="enable-background:new 0 0 612 792;" xml:space="preserve">
<style type="text/css">
	.st0{fill:none;stroke:#000000;stroke-width:0.25;stroke-miterlimit:10;}
</style>
<g>
	<path class="st0" d="M344.2,278.2c-0.3,0.1-0.6,0.2-0.9,0.2c-4.2,0.5-8.5,0.7-12.7,1.4c-6,0.9-12,2.1-17.9,3.3
		c-4.4,0.9-8.8,2-13.1,3.2c-6.4,1.8-12.7,3.7-19,5.8c-4.4,1.5-8.7,3.3-13.1,4.9c-1.9,0.7-4,1.1-6,1.7c-5,1.7-9.9,3.5-14.9,5.2
		c-9.2,3-18.4,6.1-27.7,8.9c-7.1,2.1-14.2,3.9-21.4,5.6c-3.7,0.9-7.5,1.4-11.1,2.3c-6.6,1.7-13,3.8-19,7.1c-4,2.3-7.6,4.9-10,9.1
		c-1.8,3.3-1.5,7.6,1,10.4c2.4,2.8,5.5,4.4,8.9,5.6c7.3,2.5,14.8,2.7,22.4,1.6c5.2-0.7,10.3-2.2,15.3-3.8c4.2-1.4,8.3-2.9,12.4-4.4
		c4.2-1.5,8.4-3,12.5-4.8c5.4-2.3,10.7-4.7,16.1-7.1c5-2.3,9.9-4.5,14.9-6.9c5.7-2.7,11.3-5.7,17.1-8.4c6.7-3.2,13.4-6.3,20.2-9.4
		c8.1-3.7,16.5-6.9,25-9.7c7.3-2.4,14.6-4.6,22.2-5.7c5.6-0.9,11.3-1.5,16.9-1.7c7.2-0.2,14.4,0.5,21.5,1.9
		c4.7,0.9,9.3,1.9,13.9,3.2c7.2,2.1,14.2,4.7,20.7,8.2c4.9,2.6,9.8,5.4,14.5,8.4c4.7,3,9.3,6.2,13.8,9.5c3.7,2.7,7.2,5.7,10.8,8.6
		c1.1,0.9,2.2,1.8,3.3,2.7c0-0.3-0.1-0.5-0.3-0.7c-2.3-2.5-4.6-5-7-7.4c-3.2-3.2-6.4-6.3-9.7-9.3c-2.7-2.4-5.4-4.8-8.3-7.1
		c-3.5-2.8-6.9-5.8-10.6-8.3c-4.3-2.9-8.7-5.6-13.2-8.2c-6.7-3.9-13.9-6.9-21.3-9.4c-6.6-2.3-13.4-4-20.3-5.1
		c-4.2-0.7-8.4-1-12.6-1.5c-0.4,0-0.9-0.1-1.3-0.2 M403.7,448c1.5-0.8,2.7-1.4,3.8-2.1c3.3-2.3,6.6-4.5,9.7-6.9
		c4.3-3.4,8.3-7.2,10.1-12.6c0.4-1.1,0.2-1.7-1-2c-1.6,1.6-3.2,3.1-4.8,4.8c-4.7,5-10.4,8.1-17,9.5c-6.6,1.4-13.2,2.5-19.8,3.6
		c-0.5,0.1-1.1-0.1-1.6-0.2c14.1-7,23.5-18.5,32-31c-0.4,0.2-0.7,0.5-0.9,0.8c-2.8,3.1-5.5,6.3-8.6,9.2c-3.1,2.9-6.4,5.5-9.7,8.1
		c-5.9,4.8-12.8,7.6-20.1,9.4c-0.4,0.1-0.9,0.1-1.4,0.1c0-0.1-0.1-0.2-0.1-0.3c9.7-3,17.5-8.4,22.3-17.6c-0.4,0-0.7,0.2-0.9,0.4
		c-1.1,1.1-2.2,2.2-3.3,3.2c-4.6,4.3-10.1,7-16.3,7.9c-3.9,0.6-8,0.6-11.9,0.9c-1.5,0.1-2.9-0.2-4.3-0.8c-1.2-0.6-2.5-1-3.8-1.6
		c-0.2-0.1-0.4-0.3-0.8-0.5c10.8-7.3,17.5-18.2,25.4-27.9c-0.1-0.1-0.2-0.2-0.3-0.2c-2.9,2.8-5.8,5.6-8.4,8.2
		c-2.3-2.1-4.4-4.2-6.8-6c-4.8-3.6-10.3-5.6-15.9-7.2c-5.2-1.5-10.5-2.7-15.8-3.7c-8.7-1.8-17.6-3.1-26.4-3.7
		c-13.6-1-27.1-0.4-40.5,2.2c-4.6,0.9-9.2,1.8-13.6,3.1c-4.8,1.3-9.6,3-14.3,4.7c-3.5,1.3-7,2.8-10.3,4.5c-4.1,2.1-8.2,4.2-12.2,6.6
		c-4.2,2.6-8.4,5.4-12.3,8.5c-3.8,2.9-7.3,6.1-10.7,9.5c-3.5,3.4-6.7,7.1-9.8,10.9c-2.6,3.1-4.8,6.4-7.1,9.8
		c-1.6,2.3-2.9,4.8-4.3,7.3c-0.1,0.2,0.1,0.7,0.1,1c0.4-0.1,0.9-0.1,1.1-0.4c3.1-3.9,6.2-7.9,9.4-11.8c4.5-5.4,9.2-10.6,14.5-15.2
		c4.5-3.9,9.2-7.8,14-11.3c4.9-3.6,10.4-6.6,15.9-9.2c7.1-3.3,14.4-6,21.9-8.2c3.5-1,7-2.1,10.6-3c3.6-0.9,7.3-1.5,10.9-2.3
		c7.6-1.6,15.3-2.4,23-2.9c7.2-0.5,14.3-0.3,21.4,0.6c5.2,0.6,10.4,1.4,15.6,2.4c4.1,0.7,8.1,1.7,12.1,2.8c3.3,0.9,6.7,1.8,9.8,3.3
		c4.7,2.3,9.2,5,13.8,7.6c1.2,0.7,2.4,1.4,3.8,2.2c-1.2,1.1-2.3,2.1-3.3,3.1c-5.2,5.1-11.2,9-17.8,12.1c-0.4,0.2-1.1,0.2-1.6,0.1
		c-3.9-1.2-7.8-2.5-11.8-3.8c6.1-4,10.6-9.4,14.3-15.6c-0.3,0.1-0.6,0.3-0.8,0.6c-4.5,4.5-9.4,8.5-15.5,10.8
		c-3.5,1.3-7,2.5-10.8,1.3c-1.3-0.4-2.7-0.6-4.1-0.8c-2.4-0.4-4.7-0.8-7.4-1.2c7.6-4.6,13.3-10.5,15.8-19
		c-3.8,6.9-9.5,11.5-16.7,14.4c-7.1,2.9-14.3,4.5-22.1,3.5c6.1-5.3,11.6-10.9,14.6-18.6c-0.3,0.3-0.6,0.6-0.9,0.9
		c-2.7,3.7-5.8,7-9.6,9.5c-4,2.6-8,5-12.1,7.4c-1.4,0.8-3,1.6-4.6,2c-1.8,0.5-3.7,0.6-5.5,0.9c-2,0.4-4,0.8-6.1,1.2
		c1.6-3.2,2.4-6.4,1.9-9.7c-0.7,1.8-1.3,3.7-2.2,5.4c-1.4,2.7-3.7,4.7-6.4,6c-2.2,1.1-4.8,1.5-7.1,2.4c-3.8,1.4-7.6,3-11.3,4.5
		c-1.7,0.7-3.4,1.5-5.2,2.3c0.3-2.5,0.6-4.8,0.8-7.1c-0.3,0.1-0.4,0.2-0.4,0.3c-0.8,1.9-1.6,3.8-2.5,5.7c-1,2-2.4,3.5-4.5,4.6
		c-3.2,1.6-6.3,3.5-9.2,5.5c-4.9,3.4-9.9,6.9-14.5,10.7c-4.8,3.9-9.4,8-13.9,12.3c-4.5,4.4-8.7,9-12.8,13.7c-4.1,4.7-8,9.6-12,14.4
		c-1,1.2-0.5,2.3,1,2.7c0.9,0.2,1.8,0.5,2.8,0.8c2.4,0.7,4.8,1.7,7.3,1.8c3.6,0.2,7.2,0.1,10.7-0.3c4.7-0.6,9.4-1.4,14-2.4
		c5.3-1.1,10.5-2,15.9-2.1c7.5,0,14.8,0.8,22.2,2.1c4.4,0.8,8.9,1.6,13.3,2.4c5,0.9,10,1.9,14.9,2.9c1.4,0.3,3.1,0.2,4.3,0.9
		c4.7,2.5,9.4,5,13.5,8.5c-1.3-2.9-3.6-5.1-5.6-7.7c0.5,0,0.9,0,1.3,0c4.2,0.3,8.4,0.7,12.6,1c1.4,0.1,3-0.1,4.3,0.5
		c4.1,1.7,8,3.7,12,5.6c2.2,1.1,4.3,2.4,6.5,3.6c0.1-0.1,0.3-0.3,0.4-0.4c-3.1-3-6.1-6-9.2-9c0.3,0,0.7-0.1,1.1-0.1
		c5.2-0.3,10.5-0.5,15.7-0.9c3.6-0.3,7.2-0.7,10.7-1.3c3.5-0.7,6.9-0.4,10.2,1.1c1.8,0.9,3.6,2,5.3,3c0.1-0.1,0.1-0.1,0.2-0.2
		c-1.9-1.9-3.7-3.8-5.6-5.6c0.7-0.2,1.6-0.3,2.4-0.6c4.4-1.3,8.8-2.8,13.3-3.9c3.6-0.9,7.3-1.3,10.9-0.5c1.8,0.4,3.4,1.1,5.1,1.7
		c-2.3-2.6-5.2-4.3-8.5-5.4c1.5-0.9,2.9-1.9,4.4-2.2c6.3-1.3,12.3-0.4,18,2.6c1.9,1,3.6,2.1,5.4,3.2c-2.7-3.8-6.4-7.7-14.6-11.4
		c0.2-0.1,0.3-0.3,0.4-0.4c2.2-1.8,4.5-3.5,6.6-5.3c0.6-0.5,1.2-0.8,2-0.8c6.8,0.1,12.1,3.3,16.5,8.3c0.2,0.2,0.3,0.4,0.4,0.6
		c0.1,0.1,0.3,0.2,0.4,0.4c-2.1-5.7-5.7-10.1-11.1-13.3c5.2-0.1,9.9-1.2,14.5-3.1c3.9-1.6,7.5-3.7,11-6.1
		c5.5-3.8,10.3-8.3,14.6-13.4c1.1-1.4,2.2-2.9,3.2-4.3c-1.1,0.5-2,1.2-3,1.7c-3.7,2.1-7.7,2.9-11.9,3.4c-4.7,0.5-9.3,0-13.9-0.7
		C408.6,448.9,406.3,448.4,403.7,448z"/>
	<path class="st0" d="M356.2,278.2c0.4,0.1,0.9,0.2,1.3,0.2c4.2,0.5,8.4,0.8,12.6,1.5c6.9,1.1,13.7,2.8,20.3,5.1
		c7.4,2.5,14.6,5.5,21.3,9.4c4.5,2.6,8.9,5.2,13.2,8.2c3.7,2.5,7.1,5.5,10.6,8.3c2.8,2.3,5.6,4.6,8.3,7.1c3.3,3,6.6,6.1,9.7,9.3
		c2.4,2.4,4.7,4.9,7,7.4c0.1,0.2,0.3,0.3,0.3,0.7c-1.1-0.9-2.2-1.8-3.3-2.7c-3.6-2.9-7.1-5.9-10.8-8.6c-4.5-3.3-9.1-6.5-13.8-9.5
		c-4.7-3-9.6-5.7-14.5-8.4c-6.6-3.5-13.6-6.2-20.7-8.2c-4.6-1.3-9.2-2.3-13.9-3.2c-7.1-1.4-14.3-2.1-21.5-1.9
		c-5.6,0.2-11.3,0.9-16.9,1.7c-7.6,1.2-14.9,3.3-22.2,5.7c-8.5,2.8-16.8,6-25,9.7c-6.7,3.1-13.5,6.2-20.2,9.4
		c-5.7,2.7-11.3,5.6-17.1,8.4c-4.9,2.4-9.9,4.6-14.9,6.9c-5.3,2.4-10.7,4.8-16.1,7.1c-4.1,1.7-8.3,3.2-12.5,4.8
		c-4.1,1.5-8.2,3-12.4,4.4c-5,1.7-10.1,3.1-15.3,3.8c-7.6,1.1-15.1,0.9-22.4-1.6c-3.4-1.2-6.5-2.8-8.9-5.6c-2.5-2.8-2.8-7.1-1-10.4
		c2.3-4.1,6-6.8,10-9.1c5.9-3.4,12.4-5.5,19-7.1c3.7-0.9,7.5-1.4,11.1-2.3c7.2-1.8,14.3-3.5,21.4-5.6c9.3-2.8,18.5-5.9,27.7-8.9
		c5-1.6,9.9-3.5,14.9-5.2c2-0.7,4-1,6-1.7c4.4-1.6,8.7-3.5,13.1-4.9c6.3-2.1,12.6-4,19-5.8c4.3-1.2,8.7-2.3,13.1-3.2
		c5.9-1.2,11.9-2.4,17.9-3.3c4.2-0.7,8.5-0.9,12.7-1.4c0.3,0,0.6-0.1,0.9-0.2C348.2,278.2,352.2,278.2,356.2,278.2z"/>
	<path class="st0" d="M403.7,448c2.6,0.5,4.9,0.9,7.2,1.2c4.6,0.7,9.2,1.2,13.9,0.7c4.2-0.4,8.2-1.3,11.9-3.4c1-0.6,1.9-1.2,3-1.7
		c-1.1,1.4-2.1,2.9-3.2,4.3c-4.2,5.2-9.1,9.6-14.6,13.4c-3.4,2.4-7.1,4.4-11,6.1c-4.6,1.9-9.3,3-14.5,3.1c5.4,3.2,9,7.6,11.1,13.3
		c-0.1-0.1-0.3-0.2-0.4-0.4c-0.2-0.2-0.3-0.4-0.4-0.6c-4.4-5-9.6-8.2-16.5-8.3c-0.8,0-1.4,0.3-2,0.8c-2.2,1.8-4.4,3.5-6.6,5.3
		c-0.1,0.1-0.3,0.2-0.4,0.4c8.2,3.8,12,7.6,14.6,11.4c-1.8-1.1-3.6-2.2-5.4-3.2c-5.7-2.9-11.7-3.9-18-2.6c-1.5,0.3-2.9,1.3-4.4,2.2
		c3.3,1.1,6.2,2.8,8.5,5.4c-1.7-0.6-3.4-1.4-5.1-1.7c-3.7-0.7-7.4-0.4-10.9,0.5c-4.5,1.2-8.9,2.6-13.3,3.9c-0.8,0.2-1.7,0.4-2.4,0.6
		c1.9,1.9,3.7,3.8,5.6,5.6c-0.1,0.1-0.1,0.1-0.2,0.2c-1.8-1-3.5-2.2-5.3-3c-3.2-1.5-6.6-1.8-10.2-1.1c-3.5,0.7-7.1,1.1-10.7,1.3
		c-5.2,0.4-10.5,0.6-15.7,0.9c-0.4,0-0.8,0.1-1.1,0.1c3.1,3,6.1,6,9.2,9c-0.1,0.1-0.3,0.3-0.4,0.4c-2.2-1.2-4.3-2.5-6.5-3.6
		c-4-2-7.9-3.9-12-5.6c-1.3-0.5-2.8-0.3-4.3-0.5c-4.2-0.4-8.4-0.7-12.6-1c-0.4,0-0.7,0-1.3,0c2,2.6,4.2,4.8,5.6,7.7
		c-4.1-3.5-8.8-6-13.5-8.5c-1.2-0.7-2.9-0.6-4.3-0.9c-5-1-9.9-1.9-14.9-2.9c-4.4-0.8-8.9-1.6-13.3-2.4c-7.3-1.3-14.7-2.2-22.2-2.1
		c-5.4,0-10.6,1-15.9,2.1c-4.7,0.9-9.3,1.8-14,2.4c-3.5,0.4-7.2,0.5-10.7,0.3c-2.4-0.2-4.8-1.2-7.3-1.8c-0.9-0.2-1.8-0.5-2.8-0.8
		c-1.5-0.4-2-1.5-1-2.7c4-4.8,7.8-9.7,12-14.4c4.1-4.7,8.4-9.3,12.8-13.7c4.4-4.3,9.1-8.4,13.9-12.3c4.7-3.8,9.6-7.2,14.5-10.7
		c2.9-2,6-3.9,9.2-5.5c2.1-1.1,3.5-2.6,4.5-4.6c0.9-1.9,1.6-3.8,2.5-5.7c0.1-0.1,0.2-0.3,0.4-0.3c-0.3,2.3-0.6,4.6-0.8,7.1
		c1.7-0.8,3.4-1.6,5.2-2.3c3.8-1.5,7.5-3.1,11.3-4.5c2.3-0.9,4.9-1.3,7.1-2.4c2.7-1.3,4.9-3.3,6.4-6c0.9-1.7,1.5-3.6,2.2-5.4
		c0.5,3.3-0.4,6.5-1.9,9.7c2.1-0.4,4.1-0.8,6.1-1.2c1.8-0.3,3.8-0.4,5.5-0.9c1.6-0.4,3.1-1.2,4.6-2c4.1-2.4,8.2-4.8,12.1-7.4
		c3.8-2.5,7-5.8,9.6-9.5c0.2-0.3,0.5-0.7,0.9-0.9c-3,7.7-8.5,13.4-14.6,18.6c7.7,1,15-0.6,22.1-3.5c7.2-2.9,12.9-7.5,16.7-14.4
		c-2.5,8.5-8.2,14.4-15.8,19c2.6,0.4,5,0.8,7.4,1.2c1.4,0.2,2.8,0.4,4.1,0.8c3.8,1.2,7.4-0.1,10.8-1.3c6.1-2.2,11-6.2,15.5-10.8
		c0.2-0.2,0.5-0.4,0.8-0.6c-3.8,6.1-8.2,11.6-14.3,15.6c4,1.3,7.9,2.6,11.8,3.8c0.5,0.2,1.1,0.2,1.6-0.1c6.6-3.1,12.6-6.9,17.8-12.1
		c1-1,2.1-1.9,3.3-3.1c-1.4-0.8-2.6-1.5-3.8-2.2c-4.6-2.6-9.1-5.3-13.8-7.6c-3.1-1.5-6.5-2.4-9.8-3.3c-4-1.1-8-2-12.1-2.8
		c-5.2-0.9-10.4-1.7-15.6-2.4c-7.1-0.9-14.3-1.1-21.4-0.6c-7.7,0.5-15.4,1.3-23,2.9c-3.6,0.8-7.3,1.4-10.9,2.3
		c-3.6,0.9-7.1,2-10.6,3c-7.5,2.1-14.8,4.9-21.9,8.2c-5.6,2.6-11,5.5-15.9,9.2c-4.8,3.6-9.5,7.4-14,11.3c-5.3,4.6-10,9.8-14.5,15.2
		c-3.2,3.8-6.2,7.9-9.4,11.8c-0.2,0.2-0.7,0.3-1.1,0.4c0-0.3-0.3-0.8-0.1-1c1.4-2.5,2.7-5,4.3-7.3c2.2-3.3,4.5-6.7,7.1-9.8
		c3.1-3.8,6.4-7.4,9.8-10.9c3.4-3.4,7-6.6,10.7-9.5c3.9-3.1,8.1-5.9,12.3-8.5c3.9-2.4,8-4.6,12.2-6.6c3.4-1.7,6.8-3.2,10.3-4.5
		c4.7-1.7,9.5-3.4,14.3-4.7c4.5-1.2,9.1-2.2,13.6-3.1c13.4-2.6,26.9-3.2,40.5-2.2c8.9,0.7,17.7,1.9,26.4,3.7
		c5.3,1.1,10.6,2.3,15.8,3.7c5.6,1.6,11.2,3.6,15.9,7.2c2.4,1.8,4.5,3.9,6.8,6c2.6-2.6,5.5-5.4,8.4-8.2c0.1,0.1,0.2,0.2,0.3,0.2
		c-7.9,9.8-14.6,20.6-25.4,27.9c0.3,0.2,0.5,0.4,0.8,0.5c1.2,0.5,2.5,1,3.8,1.6c1.4,0.6,2.8,0.9,4.3,0.8c4-0.3,8-0.3,11.9-0.9
		c6.2-0.9,11.7-3.6,16.3-7.9c1.1-1.1,2.2-2.2,3.3-3.2c0.2-0.2,0.6-0.4,0.9-0.4c-4.8,9.2-12.6,14.7-22.3,17.6c0,0.1,0.1,0.2,0.1,0.3
		c0.5,0,1,0,1.4-0.1c7.3-1.8,14.2-4.6,20.1-9.4c3.3-2.7,6.7-5.2,9.7-8.1c3-2.9,5.7-6.1,8.6-9.2c0.3-0.3,0.6-0.6,0.9-0.8
		c-8.5,12.5-17.9,24-32,31c0.5,0.1,1.1,0.3,1.6,0.2c6.6-1.2,13.2-2.2,19.8-3.6c6.6-1.4,12.3-4.5,17-9.5c1.6-1.7,3.2-3.2,4.8-4.8
		c1.2,0.3,1.4,0.9,1,2c-1.8,5.5-5.8,9.2-10.1,12.6c-3.1,2.5-6.4,4.7-9.7,6.9C406.4,446.6,405.2,447.2,403.7,448z M245.3,446.9
		c-3,1.4-5.9,2.7-8.8,4.1c-4.7,2.3-9.5,4.6-14.2,7c-5.3,2.7-10.6,5.2-15.7,8.1c-6.4,3.6-12.6,7.5-18.9,11.3
		c-1.3,0.8-2.6,1.6-2.6,3.5c-0.1,3.7,0.5,7.2,2.3,10.5c1.1,2.1,1.1,2.1,3.4,1.5c4.8-1.2,9.5-2.6,14.3-3.6c4-0.9,8-1.5,12.1-1
		c2,0.2,4.1,0.6,6.1,0.5c8.3-0.3,16.6-0.1,24.9,0.7c6.2,0.6,12.4,1.3,18.6,1.8c7.8,0.7,15.6,1.3,23.5,0.8c7.8-0.5,15.5-1.4,23.1-3.2
		c4.1-1,8.3-1.9,12.4-3.2c5.4-1.7,10.7-3.6,15.9-5.6c4.8-1.8,9.5-3.8,14.1-6c4-1.8,7.8-3.9,11.7-5.9c2.3-1.2,4.7-2.5,7.2-3.9
		c-14.3-6.9-27.4-15.7-41.7-22c-0.1,0.2-0.2,0.3-0.2,0.3c0,0.3,0,0.6,0,0.8c0.4,6.1-0.3,12.1-2.4,17.8c-2.7,7.5-7.1,13.9-13.2,19
		c-4.4,3.7-9.3,6.4-14.7,8.1c-5.2,1.7-10.5,2.3-16,2c-5.5-0.3-10.8-1.6-15.8-4c-1.4-0.6-2.7-1.3-4.1-1.8c-1-0.4-2.1-0.5-3.1-0.9
		c-0.6-0.3-1.4-0.8-1.7-1.4c-0.7-1.8-1.8-3.1-3.3-4.3c-0.5-0.4-0.9-0.8-1.3-1.2c-2.7-3-5-6.2-6.9-9.7c-2.4-4.6-3.9-9.5-4.7-14.6
		C245.5,450.7,245.4,448.9,245.3,446.9z M281.8,466.5c1.5-2,3-3.8,4.2-5.8c1.7-2.8,1.8-6.7-3.2-6.7c-2.4,0-5,0.3-7.3,0.8
		c-2.8,0.7-2.7,0.9-3.5-2c-0.4-1.6-0.8-3.4-1.6-4.8c-1.1-2.1-3-3.4-5.2-4.3c-4.5-1.8-8.8-0.5-10.6,4c-0.8,2-1.3,4.2-1.5,6.4
		c-0.6,6.9,0.8,13.3,5.1,18.9c3,3.9,6.7,7.1,11,9.2c3.4,1.6,7.1,2.9,10.8,3.7c6.3,1.3,12.7,1.2,19-0.6c4.2-1.2,8.1-3,11.5-5.7
		c7.6-6.1,11.8-14,12.9-23.7c0.2-2.1,0.4-3.9-0.4-5.9c-0.8-1.8-1.3-3.8-2.3-5.5c-1.4-2.5-3.6-3.9-6.5-4.2c-0.6-0.1-1.1-0.4-1.7-0.4
		c-0.4,0-0.9,0.2-1.1,0.4c-0.5,0.7-1,1.4-1.4,2.2c-0.7,1.3-1.6,2.6-2,4c-0.5,1.8-0.5,3.6-0.7,5.5c-1,8.8-7.3,15.3-16.1,16.4
		C288,468.6,284.8,467.9,281.8,466.5z M379.4,466.4c-0.9-0.4-1.7-0.8-2.5-1.1c-0.4-0.1-1-0.1-1.3,0.1c-2.4,1.3-4.7,2.8-7.1,4
		c-4.6,2.4-9.2,5-13.9,7.1c-6.3,2.9-12.8,5.6-19.3,8.1c-4.8,1.8-9.7,3.1-14.6,4.5c-7.9,2.3-16.1,3.5-24.3,4.2
		c-6.6,0.5-13.2,0.4-19.8-0.2c-6.5-0.6-13-1.2-19.6-1.8c-8.5-0.8-16.9-1.7-25.5-1.6c-0.4,0-0.8,0-1.2,0c4.2,0.9,8.5,1.6,12.7,2.1
		c7.2,1,14.4,2.2,21.6,2.6c9.4,0.6,18.8,0.6,28.2,0.6c10,0,20-0.9,29.9-2.7c5.2-0.9,10.4-2.2,15.5-3.5c3.1-0.8,6.1-1.8,9.1-3
		c3.7-1.5,7.4-3.2,10.9-5.1c3.3-1.7,6.4-3.7,9.4-5.8C371.7,472.3,375.4,469.3,379.4,466.4z M182.5,481c-2.3,1.1-14.2,10.8-14.9,12.5
		c6.4,2.5,12.8,1.7,19.4,0.2C183.2,490.2,182.6,485.7,182.5,481z"/>
	<path class="st0" d="M245.3,446.9c0.2,2,0.2,3.8,0.5,5.6c0.7,5.1,2.3,10,4.7,14.6c1.9,3.6,4.3,6.7,6.9,9.7c0.4,0.4,0.9,0.8,1.3,1.2
		c1.4,1.2,2.6,2.5,3.3,4.3c0.2,0.6,1,1.1,1.7,1.4c1,0.4,2.1,0.5,3.1,0.9c1.4,0.5,2.8,1.2,4.1,1.8c5,2.4,10.3,3.7,15.8,4
		c5.4,0.3,10.8-0.3,16-2c5.4-1.8,10.3-4.5,14.7-8.1c6.1-5.1,10.5-11.5,13.2-19c2.1-5.7,2.8-11.7,2.4-17.8c0-0.3,0-0.6,0-0.8
		c0-0.1,0.1-0.1,0.2-0.3c14.4,6.2,27.4,15,41.7,22c-2.6,1.4-4.9,2.7-7.2,3.9c-3.9,2-7.8,4.1-11.7,5.9c-4.6,2.1-9.3,4.1-14.1,6
		c-5.2,2-10.5,3.9-15.9,5.6c-4.1,1.3-8.2,2.2-12.4,3.2c-7.6,1.8-15.3,2.7-23.1,3.2c-7.8,0.5-15.7-0.1-23.5-0.8
		c-6.2-0.5-12.4-1.1-18.6-1.8c-8.3-0.9-16.6-1-24.9-0.7c-2,0.1-4.1-0.3-6.1-0.5c-4.1-0.5-8.2,0.2-12.1,1c-4.8,1.1-9.5,2.4-14.3,3.6
		c-2.3,0.6-2.3,0.6-3.4-1.5c-1.8-3.3-2.4-6.8-2.3-10.5c0-1.9,1.3-2.7,2.6-3.5c6.3-3.8,12.5-7.7,18.9-11.3c5.1-2.9,10.5-5.5,15.7-8.1
		c4.7-2.4,9.4-4.7,14.2-7C239.3,449.6,242.3,448.3,245.3,446.9z"/>
	<path class="st0" d="M281.8,466.5c3,1.5,6.2,2.2,9.5,1.8c8.8-1.1,15.1-7.6,16.1-16.4c0.2-1.8,0.3-3.7,0.7-5.5c0.4-1.4,1.3-2.7,2-4
		c0.4-0.8,0.8-1.5,1.4-2.2c0.2-0.3,0.7-0.5,1.1-0.4c0.6,0,1.1,0.4,1.7,0.4c2.9,0.3,5.1,1.7,6.5,4.2c0.9,1.7,1.5,3.7,2.3,5.5
		c0.8,1.9,0.6,3.8,0.4,5.9c-1.1,9.7-5.2,17.7-12.9,23.7c-3.4,2.7-7.3,4.5-11.5,5.7c-6.3,1.7-12.7,1.9-19,0.6
		c-3.7-0.8-7.4-2-10.8-3.7c-4.4-2.1-8-5.2-11-9.2c-4.3-5.7-5.7-12-5.1-18.9c0.2-2.2,0.7-4.4,1.5-6.4c1.8-4.5,6.2-5.8,10.6-4
		c2.2,0.9,4.1,2.2,5.2,4.3c0.8,1.5,1.1,3.2,1.6,4.8c0.8,2.8,0.7,2.7,3.5,2c2.4-0.6,4.9-0.9,7.3-0.8c4.9,0.1,4.8,3.9,3.2,6.7
		C284.8,462.6,283.3,464.4,281.8,466.5z"/>
	<path class="st0" d="M379.4,466.4c-4,3-7.7,5.9-11.6,8.6c-3,2.1-6.2,4.1-9.4,5.8c-3.5,1.9-7.2,3.6-10.9,5.1c-2.9,1.2-6,2.2-9.1,3
		c-5.1,1.3-10.3,2.5-15.5,3.5c-9.9,1.8-19.9,2.7-29.9,2.7c-9.4,0-18.8,0-28.2-0.6c-7.2-0.4-14.4-1.7-21.6-2.6
		c-4.2-0.6-8.4-1.3-12.7-2.1c0.4,0,0.8,0,1.2,0c8.5-0.1,17,0.8,25.5,1.6c6.5,0.6,13,1.2,19.6,1.8c6.6,0.6,13.2,0.7,19.8,0.2
		c8.2-0.6,16.3-1.9,24.3-4.2c4.9-1.4,9.9-2.7,14.6-4.5c6.5-2.5,12.9-5.2,19.3-8.1c4.7-2.2,9.3-4.7,13.9-7.1c2.4-1.3,4.7-2.7,7.1-4
		c0.4-0.2,0.9-0.2,1.3-0.1C377.7,465.6,378.4,466,379.4,466.4z"/>
	<path class="st0" d="M182.5,481c0.1,4.7,0.7,9.2,4.5,12.7c-6.6,1.5-13,2.3-19.4-0.2C168.4,491.8,180.3,482.1,182.5,481z"/>
</g>
</svg>
