<?xml version="1.0" encoding="utf-8"?>
<!-- Generator: Adobe Illustrator 21.0.0, SVG Export Plug-In . SVG Version: 6.00 Build 0)  -->
<svg version="1.1" id="Layer_1" xmlns="http://www.w3.org/2000/svg" xmlns:xlink="http://www.w3.org/1999/xlink" x="0px" y="0px"
	 width="892.9px" height="1080px" viewBox="0 0 892.9 1080" style="enable-background:new 0 0 892.9 1080;" xml:space="preserve">
<style type="text/css">
	.st0{fill:none;stroke:#000000;stroke-width:0.25;stroke-miterlimit:10;}
</style>
<g id="FEvajF.tif">
	<g>
		<path class="st0" d="M229.6,778.8c-1.7-1.5-2.8-2.6-4-3.5c-18.6-14.7-32.7-33.3-46.3-52.3c-3.5-4.9-5.7-10.7-8.5-16
			c-7.2-13.6-16.3-25.6-28.1-35.5c-20.6-17.3-32-39.6-35.4-66.1c-1.1-8.6-0.4-17.5-1.3-26.1c-1-9.9-2.8-19.8-4.4-29.6
			c-1.5-9-3.3-18-4.6-27c-0.2-1.6,0.5-3.9,1.6-5.1c4.4-4.7,8.9-9.4,14-13.4c6-4.7,13.7-4.4,20.7-4.2c25.7,1,51.5,2.2,76.8,7.5
			c19.7,4.1,37.4,12,52.7,25.2c0.7,0.6,1.5,1,2.8,1.8c0.1-1.7,0.3-2.9,0.3-4.1c-0.1-17.5-0.2-34.9-0.5-52.4c0-2.2-0.5-4.6-1.6-6.4
			c-10.7-16.6-17.8-34.8-22.7-53.8c-9.9-38.8-12.7-78.4-7.9-118.2c2.4-19.9,8.5-38.9,18.3-56.7c3.8-6.8,5.5-14.7,8.2-22.1
			c0.8-2.3-0.1-3.5-2.3-3.9c-4.4-0.8-8.8-1.9-13.2-2.3c-24.4-2.3-48.9-3.4-73.1-7c-20.7-3.1-39.8-11.7-55.3-26.3
			c-6.1-5.7-10.6-13.1-15.9-19.6c-1.6-1.9-3.4-3.8-5.4-5.1c-15.9-9.9-28.5-22.9-36.7-39.8c-6.8-14-2.9-29.8,9.9-38.6
			c25-17.3,50.4-34,77.9-47.2c19-9.1,38.9-14.2,60.1-11.1c3.8,0.5,7.8,1.7,11.1,3.7c11.3,6.7,23.8,10,36.2,13.8
			c7.9,2.4,15.1,6,21.7,11c9.1,6.8,18.7,13,28,19.7c5,3.6,10.4,5.5,16.4,6c8.1,0.6,16.3,1.3,24.4,2.1c20.2,1.8,36.3,12,51.1,24.9
			c9.9,8.7,18.4,18.7,24.3,30.5c1.1,2.3,2.4,2.9,4.9,2.6c26.4-2.4,52.6-0.8,78.4,5.5c2.7,0.7,3.7-0.4,4.9-2.5
			c5.3-9.8,10.9-19.5,19.4-27c4.1-3.5,8.8-6.8,13.7-8.8c20.7-8.3,41.8,8.5,42,29.7c0.2,15.4-0.3,30.7-0.3,46.1
			c0,1.8,0.5,4.1,1.7,5.2c18.8,17.1,30.8,38.5,40.8,61.4c9.7,22,16.3,44.9,20.3,68.6c0.3,1.9,1.8,4.2,3.4,5.3
			c13.5,9.4,26.9,18.9,40.8,27.8c28.2,18.1,50.7,41.8,69.4,69.4c19.2,28.2,31.4,59.6,42,91.7c8.1,24.4,13.8,49.3,15.3,75.1
			c1.7,29.4-1,58.5-7.4,87.3c-6,27.2-14.7,53.5-29.7,77.2c-19.5,30.8-42.4,58.6-72.7,79.6c-5.8,4-11.7,7.8-17.3,12.1
			c-1.5,1.1-2.8,3.6-2.8,5.4c0.4,48.5-14.7,92.1-41.2,132.2c-15,22.8-36,39-58.5,53.4c-19.7,12.6-40.3,23.6-63.4,27.7
			c-27.4,4.9-54.9,6.4-82.7,1.7c-31.7-5.3-58.2-20.1-82.5-40c-35-28.5-66.6-60.7-97.6-93.4c-6.9-7.2-13.7-14.6-20.3-22.1
			c-6.2-7.2-10.2-15.5-10.7-25.2c-0.3-5.2-1.9-9.8-4.6-14.2c-6.3-10.3-12.8-20.6-18.1-31.4c-4.3-9-3.6-18.6,0.5-27.9
			c3.6-8.1,10.2-13.7,16.6-19.5C225.1,782.7,227.1,781,229.6,778.8z M643.2,582.6c0-56.3,0-112.2,0-168.2c-60.8-9-121.3-18-181.9-27
			c-0.2,1-0.4,1.5-0.4,2.1c0,17.1,0,34.1-0.1,51.2c0,2.8,1.5,3.1,3.6,3.4c11.8,1.7,23.7,3.6,35.5,5.3c8.6,1.3,17.1,2.5,26.4,3.9
			c0-7.7,0-14.7,0-22.2c18.3,2.7,36,5.4,53.7,7.9c3.5,0.5,4.6,1.6,4.6,5.2c-0.2,29.2-0.1,58.3-0.1,87.5c0,1.4-0.1,2.7-0.2,4.4
			c-41.2-5.9-82-11.8-123.4-17.8c0,1.9,0,3.3,0,4.7c0,9.3,0.2,18.6-0.1,27.9c-0.1,3.7,1,5,4.8,5.5c18.8,2.5,37.6,5.3,56.5,7.9
			c2.5,0.3,3.7,0.9,3.6,3.8c-0.2,21.3-0.1,42.6-0.1,63.8c0,1.5,0,3.1,0,4.7c-1.2,0-2,0.1-2.8,0c-24.9-3.6-49.9-7.1-74.8-10.9
			c-1.6-0.2-3.4-1.4-4.5-2.6c-16.6-17.5-33.1-35-49.5-52.6c-1.6-1.7-2.7-4.6-2.7-7c-0.2-17.3-0.2-34.7-0.1-52c0-2.7-0.5-3.9-3.6-4.3
			c-11-1.4-22-3.2-33-4.8c-5.2-0.8-10.5-1.5-16-2.2c-0.1,1.6-0.3,2.7-0.3,3.8c0,45.4,0,90.8-0.1,136.1c0,3.4,1.2,4.2,4.2,4.6
			c16.4,2.3,32.9,4.8,49.3,7.3c55.8,8.3,111.7,16.6,167.5,24.9c8.6,1.3,17.1,2.6,25.6,3.9c0,32.2,0,63.9,0,95.9
			c-19.7-2.9-39.1-5.7-58.6-8.6c0-6.4-0.2-12.1,0.1-17.9c0.2-3.4-1-4.5-4.4-5c-65.6-9.7-131.2-19.4-196.7-29.3
			c-2.3-0.3-4.8-1.7-6.4-3.4c-16.1-16.4-31.9-33-48-49.5c-2.1-2.2-3.1-4.3-3.1-7.4c0.1-24.5,0.1-49,0-73.6c0-1.9-0.3-4-1.1-5.7
			c-4.5-8.9-10.7-16.5-18.5-22.8c-13.3-10.8-28.7-16.8-45.4-19.1c-19.9-2.7-40-4.3-60-6.1c-5.5-0.5-11.1-0.1-17-0.1
			c0.9,5,1.7,9.7,2.4,14.4c2.5,15.8,6.3,31.4,6,47.7c-0.3,24.6,8.1,45.5,27.7,61.6c13.5,11.1,24.3,24.7,32.1,40.4
			c4.1,8.4,8.4,16.5,14.3,23.8c10.1,12.5,19.5,25.6,32.1,35.7c9,7.2,18.1,14.4,27.1,21.6c6.5,5.2,6,10.9-1.3,14.9
			c-0.9,0.5-1.8,0.9-2.7,1.3c-12,5.2-21.2,14.1-30.3,23.2c-2.8,2.7-3.1,6.1-1,9.7c4.8,8.3,9,16.9,14.2,24.9c5.8,9,9.4,18.3,10.5,29
			c0.4,3.7,2.9,7.6,5.4,10.6c4.8,5.9,10.2,11.3,15.5,16.8c31.4,32.9,63.1,65.6,98.7,94.1c13.6,10.9,27.7,21.5,44.4,27.2
			c32.8,11.2,66.2,10.7,99.6,3.7c23-4.9,42.8-17,61.7-30.4c9.3-6.5,18.7-13.4,26.3-21.7c18.2-19.7,30.1-43.3,39-68.5
			c7.6-21.5,10.6-43.8,10.2-66.4c-0.2-9.7,3.1-17.3,10.2-23.4c4.4-3.7,9.2-6.9,14.1-10c33.7-21.5,59.4-50.8,78-85.6
			c23.9-44.9,30.7-93.7,27.5-144.1c-1.7-26.2-9.4-51.1-17.7-75.8c-11.2-33.4-26.1-64.6-48.5-92c-2.3-2.9-4.8-5.6-7.2-8.4
			c-0.4,0.2-0.7,0.3-1.1,0.5c0,1.8,0,3.5,0,5.3c0,67.6,0,135.3,0.1,202.9c0,3.3-0.9,5.4-3.6,7.3c-16.6,11.9-33,24.1-49.5,36
			c-1.6,1.2-4.1,1.9-6.1,1.6c-21.7-3.1-43.4-6.6-65.2-9.7c-3.2-0.5-4.1-1.6-4.1-4.8c0.1-21.1,0.1-42.3,0.1-63.4
			c0-1.3,0.2-2.6,0.3-4.2C604.6,576.9,623.7,579.7,643.2,582.6z M625.3,336.7c-0.1-1.4-0.1-2.1-0.2-2.7
			c-5.6-30.3-14.5-59.6-28.2-87.2c-9.4-19.1-21-36.6-38.1-49.9c-4.4-3.4-4.6-8.5-4.6-13.5c0-15.8,0.2-31.6,0.3-47.3
			c0-1.4,0.1-2.8,0-4.2c-0.3-4.5-3.1-6.2-6.8-3.7c-2.3,1.5-4.4,3.6-6.1,5.8c-7.7,9.8-13.3,20.8-17.9,32.4c-2.3,5.8-5.3,7.3-11.2,5.6
			c-3.9-1.1-7.5-3.3-11.4-4.3c-28.3-7.2-56.9-9.6-85.7-3.6c-8,1.7-12.5-0.9-15.7-8.5c-13.5-31.5-35.2-52.3-71.6-53
			c-17-0.3-32.4-4.8-45.9-15.4c-6.6-5.2-14-9.5-20.7-14.6c-6.6-5-13.8-8.6-21.8-10.6c-12.1-3-23.7-7.2-34.5-13.3
			c-2-1.1-4.5-1.7-6.9-1.8c-13.9-0.9-26.8,2.8-39.1,8.6c-26.2,12.3-50.2,28.4-74.3,44.2c-3.3,2.2-2.8,4.7-1.1,7.6
			c5.9,9.9,13.1,18.7,23.3,24.5c7.2,4,12.5,9.8,17.2,16.4c4.2,5.9,8.8,11.9,14.4,16.4c11.5,9.3,25.3,14.3,39.7,16.6
			c15,2.4,30.2,3.6,45.3,4.9c10.8,1,21.7,0.7,32.4,2.2c9.4,1.3,18.9,3.3,25.7,11.3c5.7,6.7,10,13.7,6.5,23
			c-4.2,11.3-7.4,23.1-12.7,33.9c-8,16.1-13.8,32.8-15.2,50.6c-3.6,44-0.2,87.2,16.2,128.7c2.1,5.4,4.8,10.6,7.3,16.2
			c1.4-1,2.3-1.5,3-2.1c10.7-8.2,21.4-16.6,32.2-24.6c1.7-1.3,4.4-2,6.5-1.8c14.1,1.9,28.1,4.1,42.2,6.1c7.6,1.1,15.3,2.2,23.5,3.4
			c0-2,0-3.5,0-4.9c0-22.5,0.1-45.1-0.1-67.6c0-3.1,0.9-5.1,3.3-7.1c16.2-13.3,32.3-26.8,48.3-40.3c2.3-1.9,4.4-2.5,7.3-2.1
			c48.9,7.3,97.7,14.5,146.6,21.8C605.8,333.9,615.3,335.2,625.3,336.7z"/>
		<path class="st0" d="M541.9,919.3c-3.6-1.9-7.1-3.8-10.7-5.7c-19.7-10.6-39.7-20.3-61.4-26.1c-10.3-2.8-20.7-4.9-30.8-8.2
			c-13.7-4.6-20.2-18.2-15.8-31.4c3.2-9.5,15.2-16.3,25.1-15.3c28.1,2.6,48.1,18.5,65.4,39.1c10.9,13.1,19.8,27.6,27.7,42.7
			c0.7,1.3,0.9,2.8,1.4,4.2C542.6,918.8,542.3,919,541.9,919.3z"/>
	</g>
</g>
</svg>
