<?xml version="1.0" encoding="utf-8"?>
<!-- Generator: Adobe Illustrator 21.0.0, SVG Export Plug-In . SVG Version: 6.00 Build 0)  -->
<svg version="1.1" id="Layer_1" xmlns="http://www.w3.org/2000/svg" xmlns:xlink="http://www.w3.org/1999/xlink" x="0px" y="0px"
	 width="892.9px" height="1080px" viewBox="0 0 892.9 1080" style="enable-background:new 0 0 892.9 1080;" xml:space="preserve">
<g>
	<path d="M99.1,7.1l17.6,35l0.1,0.1l0.1,0l38.8,5.3L127.8,75l-0.1,0.1l0,0.1l6.9,38.5L99.9,95.8l-0.1-0.1l-0.1,0.1l-34.5,18.5
		l6.3-38.6l0-0.1l-0.1-0.1L43.2,48.4l38.7-5.9l0.1,0l0.1-0.1L99.1,7.1 M99.1,6.5L81.8,42.2l-39.2,6l28.6,27.5l-6.4,39.1L99.8,96
		l35.2,18.2l-7-39l28.2-27.9l-39.3-5.4L99.1,6.5L99.1,6.5z"/>
</g>
</svg>
